<svg xmlns="http://www.w3.org/2000/svg" viewBox="0 0 20 20" xml:space="preserve">
    <g fill="#ffffff">
        <g fill="#ffffff">
            <path fill="#ffffff" d="M238.494 326.05a.449.449 0 0 0-.312.132l-2 2a.45.45 0 0 0 0 .636l2 2a.45.45 0 0 0 .636 0l2-2a.45.45 0 0 0 0-.636l-2-2a.45.45 0 0 0-.324-.131zm9 0a.449.449 0 0 0-.312.132l-2 2a.45.45 0 0 0 0 .636l2 2a.45.45 0 0 0 .636 0l2-2a.45.45 0 0 0 0-.636l-2-2a.45.45 0 0 0-.324-.131z" transform="translate(-233 -323)"/>
            <path fill="#ffffff" d="m240.121 326 1.44 1.44a1.5 1.5 0 0 1 0 2.12l-1.44 1.44h5.758l-1.44-1.44a1.5 1.5 0 0 1 0-2.12l1.44-1.44z" transform="translate(-233 -323)"/>
        </g>
    </g>
    <path fill="#ffffff" d="M8.502 9a.5.5 0 0 0-.461.697l3 7a.5.5 0 0 0 .934-.039l.92-2.764 2.763-.92a.5.5 0 0 0 .04-.933l-7-3A.501.501 0 0 0 8.501 9z"/>
</svg>
