<svg xmlns="http://www.w3.org/2000/svg" viewBox="0 0 20 20" xml:space="preserve">
    <g fill="#ffffff">
        <path fill="#ffffff" d="M237.494 326.05a.449.449 0 0 0-.312.132l-2 2a.45.45 0 0 0 0 .636l2 2a.45.45 0 0 0 .636 0l2-2a.45.45 0 0 0 0-.636l-2-2a.45.45 0 0 0-.324-.131zm11 0a.449.449 0 0 0-.312.132l-2 2a.45.45 0 0 0 0 .636l2 2a.45.45 0 0 0 .636 0l2-2a.45.45 0 0 0 0-.636l-2-2a.45.45 0 0 0-.324-.131zm-6.027 6.75a.45.45 0 0 0-.297.145l-3 3.25a.45.45 0 0 0 .012.623l3 3a.45.45 0 0 0 .636 0l3-3a.45.45 0 0 0 .012-.623l-3-3.25a.45.45 0 0 0-.363-.144zm.033 1.112 2.377 2.576-2.377 2.375-2.377-2.377z" transform="translate(-233 -322.975)"/>
        <path fill="#ffffff" d="m239.121 326 1.44 1.44a1.5 1.5 0 0 1 0 2.12l-1.44 1.44h7.758l-1.44-1.44a1.5 1.5 0 0 1 0-2.12l1.44-1.44z" transform="translate(-233 -322.975)"/>
    </g>
</svg>
