<svg xmlns="http://www.w3.org/2000/svg" viewBox="0 0 20 20" xml:space="preserve">
    <g fill="#ffffff">
        <path fill="#ffffff" d="M552.5 621a.5.5 0 1 0 0 1h1.992a.5.5 0 1 0 0-1zm4.023 0a.5.5 0 1 0 0 1h1.916a.5.5 0 1 0 0-1zm3.971 0a.5.5 0 1 0 0 1h1.998a.5.5 0 1 0 0-1zm3.998 0a.5.5 0 1 0 0 1h1a.5.5 0 1 0 0-1zm-11.992 3a.5.5 0 1 0 0 1h1a.5.5 0 1 0 0-1zm3 0a.5.5 0 1 0 0 1h1.998a.5.5 0 1 0 0-1zm4.053 0a.5.5 0 1 0 0 1h1.918a.5.5 0 1 0 0-1zm3.947 0a.5.5 0 1 0 0 1h1.992a.5.5 0 1 0 0-1zm-11 3a.5.5 0 1 0 0 1h1.992a.5.5 0 1 0 0-1zm4.023 0a.5.5 0 1 0 0 1h1.916a.5.5 0 1 0 0-1zm3.971 0a.5.5 0 1 0 0 1h1.998a.5.5 0 1 0 0-1zm3.998 0a.5.5 0 1 0 0 1h1a.5.5 0 1 0 0-1zm-11.992 3a.5.5 0 1 0 0 1h1a.5.5 0 1 0 0-1zm3 0a.5.5 0 1 0 0 1h1.998a.5.5 0 1 0 0-1zm4.053 0a.5.5 0 1 0 0 1h1.918a.5.5 0 1 0 0-1zm3.947 0a.5.5 0 1 0 0 1h1.992a.5.5 0 1 0 0-1zm-11 3a.5.5 0 1 0 0 1h1.992a.5.5 0 1 0 0-1zm4.023 0a.5.5 0 1 0 0 1h1.916a.5.5 0 1 0 0-1zm3.971 0a.5.5 0 1 0 0 1h1.998a.5.5 0 1 0 0-1zm3.998 0a.5.5 0 1 0 0 1h1a.5.5 0 1 0 0-1z" transform="translate(-548.996 -617.5)"/>
    </g>
</svg>
