<svg xmlns="http://www.w3.org/2000/svg" viewBox="0 0 20 20" xml:space="preserve">
    <g transform="matrix(-1 0 0 1 -391 -1603)" fill="#ffffff">
        <path d="M-406.5 1608c-.676-.01-.676 1.01 0 1h11.992c.676.01.676-1.01 0-1zm3.932 3c.184.31.327.645.422 1h7.638c.676.01.676-1.01 0-1zm.422 3c-.095.355-.238.69-.422 1h8.06c.676.01.676-1.01 0-1zm-4.354 3c-.676-.01-.676 1.01 0 1h11.992c.676.01.676-1.01 0-1z" fill="#ffffff"/>
        <circle transform="scale(1 -1)" r="1.5" cy="-1613" cx="-406" fill="#ffffff"/>
    </g>
</svg>
