<svg xmlns="http://www.w3.org/2000/svg" viewBox="0 0 20 20" xml:space="preserve">
    <g transform="matrix(1 0 0 -1 453.004 1622.5)" fill="#ffffff">
        <path d="M-449.5 1609c-.676-.01-.676 1.01 0 1h3.068a3.965 3.965 0 0 1-.422-1zm10.354 0c-.095.355-.238.69-.422 1h3.06c.676.01.676-1.01 0-1zm-10.354 3c-.676-.01-.676 1.01 0 1h12.992c.676.01.676-1.01 0-1zm0 3c-.676-.01-.676 1.01 0 1h12.992c.676.01.676-1.01 0-1zm0 3c-.676-.01-.676 1.01 0 1h12.992c.676.01.676-1.01 0-1z" fill="#ffffff"/>
        <circle r="1.5" cy="1608" cx="-443" fill="#ffffff"/>
    </g>
</svg>
