<svg xmlns="http://www.w3.org/2000/svg" viewBox="0 0 20 20" xml:space="preserve">
    <g fill="#ffffff" transform="translate(411 -1603)">
        <path fill="#ffffff" d="M-406.5 1608c-.676-.01-.676 1.01 0 1h11.992c.676.01.676-1.01 0-1zm3.932 3c.184.31.327.645.422 1h7.638c.676.01.676-1.01 0-1zm.422 3c-.095.355-.238.69-.422 1h8.06c.676.01.676-1.01 0-1zm-4.354 3c-.676-.01-.676 1.01 0 1h11.992c.676.01.676-1.01 0-1z"/>
        <circle fill="#ffffff" cx="-406" cy="-1613" r="1.5" transform="scale(1 -1)"/>
    </g>
</svg>
