<svg xmlns="http://www.w3.org/2000/svg" viewBox="0 0 20 20" xml:space="preserve">
    <g fill="#ffffff" transform="translate(368.996 -1603)">
        <path fill="#ffffff" d="M-365.492 1608c-.676-.01-.676 1.01 0 1h12.992c.676.01.676-1.01 0-1zm0 3c-.676-.01-.676 1.01 0 1h2.638c.095-.355.238-.69.422-1zm9.924 0c.184.31.327.645.422 1h2.646c.676.01.676-1.01 0-1zm-9.924 3c-.676-.01-.676 1.01 0 1h3.06a3.965 3.965 0 0 1-.422-1zm10.346 0c-.095.355-.238.69-.422 1h3.068c.676.01.676-1.01 0-1zm-10.346 3c-.676-.01-.676 1.01 0 1h12.992c.676.01.676-1.01 0-1z"/>
        <circle fill="#ffffff" cx="359" cy="-1613" r="1.5" transform="scale(-1)"/>
    </g>
</svg>
