<svg xmlns="http://www.w3.org/2000/svg" viewBox="0 0 20 20" xml:space="preserve">
    <g fill="#ffffff">
        <path d="M310.582 494c-1.187 0-2.136.69-2.523 1.621-.388.93-.208 2.105.67 2.983l2.5 2.5c.622.622.692 1.322.455 1.892-.238.57-.79 1.004-1.602 1.004l-6.535-.008 2.139-2.139a.5.5 0 1 0-.707-.707l-2.934 2.936-.01.008a.5.5 0 0 0-.207.416.5.5 0 0 0 0 .008.5.5 0 0 0 .004.047.5.5 0 0 0 .008.049.5.5 0 0 0 .193.298l2.946 2.946a.5.5 0 1 0 .707-.707l-2.155-2.155 6.551.008c1.188 0 2.136-.69 2.524-1.62.387-.931.207-2.105-.67-2.983l-2.5-2.5c-.623-.622-.693-1.323-.455-1.893.237-.57.789-1.004 1.601-1.004h4.75a.5.5 0 1 0 0-1z" fill="#ffffff" transform="matrix(-1 0 0 1 318.58 -490.927)"/>
    </g>
</svg>
