<svg xmlns="http://www.w3.org/2000/svg" viewBox="0 0 20 20" xml:space="preserve">
    <g fill="#ffffff">
        <path fill="#ffffff" d="M35.744 52.004c-.894.018-1.829.374-2.598 1.142l-5 5c-.837.838-1.178 2.042-1.119 3.227.06 1.185.516 2.377 1.37 3.23.852.853 2.037 1.315 3.22 1.377 1.183.063 2.39-.28 3.237-1.126l6-6a.5.5 0 1 0-.708-.708l-6 6c-.603.604-1.522.887-2.476.836-.954-.05-1.919-.438-2.566-1.086-.647-.646-1.03-1.616-1.079-2.574-.047-.958.238-1.878.829-2.468l5-5c1.184-1.185 2.758-1.005 3.554-.249.797.757.863 2.417-.262 3.541l-4.5 4.5c-.592.593-1.094.449-1.417.125-.324-.323-.468-.825.125-1.417l3.5-3.5a.5.5 0 1 0-.708-.708l-3.5 3.5c-.907.908-.801 2.156-.125 2.833.677.676 1.925.782 2.833-.125l4.5-4.5c1.483-1.484 1.52-3.763.244-4.975-.606-.576-1.46-.894-2.354-.875z" transform="translate(-24 -50)"/>
    </g>
</svg>
