<svg xmlns="http://www.w3.org/2000/svg" viewBox="0 0 20 20" xml:space="preserve">
    <g fill="#ffffff">
        <path d="M415.5 452.008a.5.5 0 0 0-.5.5v3.008a.5.5 0 0 0 .5.5h3.008a.5.5 0 0 0 .5-.5v-3.008a.5.5 0 0 0-.5-.5zm-10 10a.5.5 0 0 0-.5.5v3.008a.5.5 0 0 0 .5.5h3.008a.5.5 0 0 0 .5-.5v-3.008a.5.5 0 0 0-.5-.5z" fill="#ffffff" transform="translate(-402.004 -449.012)"/>
        <path d="M409.492 454.008a.5.5 0 0 0-.5.5v1.5h-1.5a.5.5 0 0 0-.5.5l.008 3a.5.5 0 1 0 1-.002l-.006-2.498h1.498a.5.5 0 0 0 .5-.5v-1.5h2.5a.5.5 0 1 0 0-1zm3.998 2.988a.5.5 0 0 0-.344.15l-3 3.008a.5.5 0 1 0 .708.705l3-3.005a.5.5 0 0 0-.364-.858zm3.002 1.004a.5.5 0 0 0-.492.508v2.5h-1.5a.5.5 0 0 0-.5.5v1.498l-2.498-.006a.5.5 0 1 0-.004 1l3 .008a.5.5 0 0 0 .502-.5v-1.5h1.5a.5.5 0 0 0 .5-.5v-3a.5.5 0 0 0-.508-.508z" fill="#ffffff" transform="translate(-402.004 -449.012)"/>
    </g>
</svg>
