<svg xmlns="http://www.w3.org/2000/svg" viewBox="0 0 20 20" xml:space="preserve">
    <g fill="#ffffff">
        <path d="M415.5 452.008a.5.5 0 0 0-.5.5v3.008a.5.5 0 0 0 .5.5h3.008a.5.5 0 0 0 .5-.5v-3.008a.5.5 0 0 0-.5-.5H415.5zm.5 1h2.008v2.008H416zm-10.5 9a.5.5 0 0 0-.5.5v3.008a.5.5 0 0 0 .5.5h3.008a.5.5 0 0 0 .5-.5v-3.008a.5.5 0 0 0-.5-.5H405.5zm.5 1h2.008v2.008H406z" fill="#ffffff" transform="translate(-402.004 -449.012)"/>
        <path d="M411.504 454a.5.5 0 0 0-.358.146l-1 1a.5.5 0 1 0 .708.708l.851-.852.785.006a.5.5 0 1 0 .006-1zm-3.014 2.996a.5.5 0 0 0-.344.15l-1 1a.5.5 0 0 0-.146.354v1.008a.5.5 0 1 0 1 0v-.801l.854-.853a.5.5 0 0 0-.364-.858zm7.994.996a.5.5 0 0 0-.492.508v.8l-.853.854a.5.5 0 1 0 .707.707l1-1a.5.5 0 0 0 .146-.353V458.5a.5.5 0 0 0-.508-.508zm-3.002 4.01a.5.5 0 0 0-.343.152l-.852.852-.783-.006a.5.5 0 1 0-.008 1l.992.008a.5.5 0 0 0 .358-.147l1-1a.5.5 0 0 0-.364-.859z" fill="#ffffff" transform="translate(-402.004 -449.012)"/>
    </g>
</svg>
