<svg xmlns="http://www.w3.org/2000/svg" viewBox="0 0 20 20" xml:space="preserve">
    <path fill="#ffffff" d="M6.003 5c-1.217 0-2.242.347-2.947 1.053C2.35 6.758 2.003 7.783 2.003 9v3.42a.5.5 0 0 0 .113.404.5.5 0 0 0 .016.02.5.5 0 0 0 .018.017.5.5 0 0 0 .004.002.5.5 0 0 0 .033.032.5.5 0 0 0 .004.002.5.5 0 0 0 .394.103h.168a.5.5 0 0 0 .25-.936V9c0-1.032.278-1.758.76-2.24C4.245 6.278 4.97 6 6.003 6h4.293l2.854 2.854a.5.5 0 0 0 .353.146h1.5c.64 0 1.123.205 1.46.541.336.336.54.82.54 1.459v1.5a.5.5 0 1 0 1 0V11c0-.861-.295-1.627-.834-2.166C16.631 8.295 15.864 8 15.003 8H13.71l-2.853-2.854A.5.5 0 0 0 10.503 5zm-.5 7c-.822 0-1.5.677-1.5 1.5s.678 1.5 1.5 1.5c.823 0 1.5-.677 1.5-1.5s-.677-1.5-1.5-1.5zm3 0a.5.5 0 1 0 0 1h3a.5.5 0 1 0 0-1zm6 0c-.822 0-1.5.677-1.5 1.5s.678 1.5 1.5 1.5c.823 0 1.5-.677 1.5-1.5s-.677-1.5-1.5-1.5zm-9 1c.282 0 .5.218.5.5 0 .282-.218.5-.5.5a.493.493 0 0 1-.5-.5c0-.282.218-.5.5-.5zm9 0c.282 0 .5.218.5.5 0 .282-.218.5-.5.5a.493.493 0 0 1-.5-.5c0-.282.218-.5.5-.5z"/>
</svg>
