<svg xmlns="http://www.w3.org/2000/svg" viewBox="0 0 20 20" xml:space="preserve">
    <g fill="#ffffff">
        <path fill="#ffffff" d="M333.492 94.992a.5.5 0 0 0-.492.508v8.91l-4.686 1.875a.5.5 0 1 0 .372.93l4.828-1.932 7.824 2.69a.5.5 0 1 0 .324-.946L334 104.393V95.5a.5.5 0 0 0-.508-.508z" transform="translate(-325.009 -91.5)"/>
        <path fill="#ffffff" d="M335.506 95.436a.5.5 0 0 0-.506.5v6.884a.5.5 0 0 0 .348.477l6 1.93a.5.5 0 0 0 .652-.477v-6.885a.5.5 0 0 0-.348-.476l-6-1.93a.5.5 0 0 0-.146-.023z" transform="translate(-325.009 -91.5)"/>
    </g>
</svg>
