<svg xmlns="http://www.w3.org/2000/svg" viewBox="0 0 20 20" xml:space="preserve">
    <g fill="#ffffff">
        <path fill="#ffffff" d="M307.512 103a.505.505 0 0 0-.17.025l-6 2a.5.5 0 0 0 0 .95l6 2a.5.5 0 0 0 .316 0l6-2a.5.5 0 0 0 0-.95l-6-2a.5.5 0 0 0-.146-.025z" transform="translate(-297.5 -90.996)"/>
        <path fill="#ffffff" d="M307.492 93.992a.5.5 0 0 0-.492.508v5.889l-5.658 1.886a.5.5 0 1 0 .316.95l5.842-1.948 5.842 1.948a.5.5 0 1 0 .316-.95L308 100.39V94.5a.5.5 0 0 0-.508-.508z" transform="translate(-297.5 -90.996)"/>
    </g>
</svg>
