<svg xmlns="http://www.w3.org/2000/svg" viewBox="0 0 20 20" xml:space="preserve">
    <g fill="#ffffff">
        <path d="M-14-44.5c-1 0-1.4 1.2-.7 1.9l1.5 1.4h-7.2c-1.5 0-1.5 2.2 0 2.2h3.3l-5.1 4.6c-1.1 1 .4 2.6 1.4 1.6l2.5-2.3c.1 3.2 2.7 5.8 5.9 5.8 3.3 0 5.9-2.7 5.9-5.9 0-1.7-.7-3.2-1.9-4.3l-5-4.6c0-.3-.3-.4-.6-.4zm1.7 5.4c2.1 0 3.8 1.7 3.8 3.8 0 2.1-1.7 3.8-3.8 3.8-2.1 0-3.8-1.7-3.8-3.8 0-2.1 1.7-3.8 3.8-3.8zm0 1.9c-1 0-1.9.8-1.9 1.8s.8 1.8 1.9 1.8c1 0 1.9-.8 1.9-1.8-.1-.9-.9-1.8-1.9-1.8z" fill="#ffffff" transform="translate(22.93 44.29) scale(.92857)"/>
    </g>
</svg>
