<svg xmlns="http://www.w3.org/2000/svg" viewBox="0 0 20 20" xml:space="preserve">
    <g fill="#ffffff">
        <path fill="#ffffff" d="M185.48 363.06c-.598-.127-1.283.045-1.9.565-.535.452-1.052 1.287-1.578 2.31-.517-1.014-1.028-1.843-1.563-2.29-.617-.517-1.306-.687-1.906-.561-1.2.252-1.95 1.383-2.447 2.143a.5.5 0 1 0 .836.546c.467-.713 1.196-1.58 1.816-1.71.31-.065.618-.022 1.059.347.441.37.978 1.09 1.54 2.3a.5.5 0 0 0 .454.29h.422a.5.5 0 0 0 .453-.287c.575-1.221 1.116-1.949 1.559-2.322.443-.374.744-.418 1.046-.354.606.13 1.328 1.004 1.807 1.736a.5.5 0 1 0 .836-.546c-.502-.768-1.237-1.911-2.434-2.166zm-8.98 6.973c-.894-.17-1.707.357-2.385 1.17a.5.5 0 1 0 .77.64c.572-.686 1.01-.907 1.428-.827.418.08 1.039.568 1.757 1.765a.5.5 0 0 0 .86 0c.718-1.197 1.34-1.686 1.757-1.765.419-.08.856.14 1.428.828a.5.5 0 1 0 .77-.64c-.678-.814-1.49-1.341-2.385-1.17-.73.138-1.365.766-2 1.667-.635-.9-1.27-1.529-2-1.668zm6.186 4.018a1.032 1.032 0 0 0-.633.11c-.379.198-.645.543-.977 1.073a.5.5 0 1 0 .848.532c.293-.47.527-.686.594-.721.033-.018.01-.007.004-.008-.007-.001.018.003.078.049.238.185.747.978 1.545 1.789a.5.5 0 0 0 .71 0c.798-.81 1.307-1.604 1.545-1.79.06-.045.085-.05.079-.048-.007 0-.03-.01.004.008.066.035.3.25.593.72a.5.5 0 1 0 .848-.53c-.331-.53-.598-.876-.977-1.075a1.037 1.037 0 0 0-.632-.11 1.17 1.17 0 0 0-.528.245c-.45.35-.83.922-1.287 1.473-.456-.55-.837-1.123-1.287-1.473a1.17 1.17 0 0 0-.527-.244z" transform="translate(-171.004 -360.022)"/>
    </g>
</svg>
