<svg xmlns="http://www.w3.org/2000/svg" viewBox="0 0 20 20" xml:space="preserve">
    <g fill="#ffffff">
        <path d="M470.66 493.977a2.824 2.824 0 0 0-1.12.212 2.506 2.506 0 0 0-1.546 2.311v3.5h1v-3.5a1.5 1.5 0 0 1 .928-1.387c.544-.225 1.421-.057 1.719.24l.5.5c.47.49 1.197-.235.707-.707l-.5-.5a2.334 2.334 0 0 0-1.31-.638 2.783 2.783 0 0 0-.378-.031zm8.674 0a2.816 2.816 0 0 0-.377.03c-.496.076-.96.288-1.31.64l-.5.5c-.49.47.235 1.197.707.706l.5-.5c.297-.297 1.175-.465 1.718-.24A1.5 1.5 0 0 1 481 496.5v3.5h1v-3.5c0-1.01-.612-1.924-1.545-2.31a2.83 2.83 0 0 0-1.121-.213zM468.494 501a.5.5 0 0 0-.5.5v6a.5.5 0 0 0 .5.5h4.006a.5.5 0 0 0 .416-.223l1.852-2.777h.464l1.852 2.777a.5.5 0 0 0 .416.223h3.994a.5.5 0 0 0 .5-.5v-6a.5.5 0 0 0-.5-.5zm5.506 1v2.348L472.232 507h-3.238l.006-4.998zm1.994 0 5 .002V507h-3.226L476 504.348z" fill="#ffffff" transform="translate(-464.997 -490.988)"/>
        <path d="M470.494 503a.5.5 0 0 0-.5.5v2a.5.5 0 0 0 .5.5h1.006a.5.5 0 0 0 .416-.223l1-1.5a.5.5 0 0 0 .084-.283l-.006-.5a.5.5 0 0 0-.5-.494z" fill="#ffffff" transform="translate(-464.997 -490.988)"/>
    </g>
</svg>
