<svg xmlns="http://www.w3.org/2000/svg" viewBox="0 0 20 20" xml:space="preserve">
    <g fill="#ffffff">
        <path fill="#ffffff" d="M226.5 206.994a.5.5 0 0 0-.348.86L228.3 210h-10.592l2.147-2.146a.5.5 0 1 0-.708-.708l-2.957 2.958a.5.5 0 0 0-.002.792.5.5 0 0 0 .008.006l2.952 2.952a.5.5 0 1 0 .707-.707L217.707 211h10.592l-2.147 2.146a.5.5 0 1 0 .707.708l2.965-2.967a.5.5 0 0 0 .02-.016l.015-.017a.5.5 0 0 0 .024-.682.5.5 0 0 0-.024-.026.5.5 0 0 0-.01-.01l-2.99-2.99a.5.5 0 0 0-.359-.152z" transform="translate(-213 -197.504)"/>
        <path fill="#ffffff" d="M224 202.498a1.498 1.498 0 0 1-1.498 1.498 1.498 1.498 0 0 1-1.498-1.498 1.498 1.498 0 0 1 1.498-1.498 1.498 1.498 0 0 1 1.498 1.498zm5 0a1.498 1.498 0 0 1-1.498 1.498 1.498 1.498 0 0 1-1.498-1.498 1.498 1.498 0 0 1 1.498-1.498 1.498 1.498 0 0 1 1.498 1.498zm-10 0a1.498 1.498 0 0 1-1.498 1.498 1.498 1.498 0 0 1-1.498-1.498 1.498 1.498 0 0 1 1.498-1.498 1.498 1.498 0 0 1 1.498 1.498z" transform="translate(-213 -197.504)"/>
    </g>
</svg>
