<svg xmlns="http://www.w3.org/2000/svg" viewBox="0 0 20 20" xml:space="preserve">
    <g fill="#ffffff">
        <path d="M473 628a1 1 0 1 0 0 2h2a1 1 0 1 0 0-2zm-4.5-6a.5.5 0 0 0-.5.5v3a.5.5 0 0 0 .5.5h.5v7.5a.5.5 0 0 0 .5.5h9a.5.5 0 0 0 .5-.5v-5a.5.5 0 1 0-1 0v4.5h-8v-7h3.5a.5.5 0 1 0 0-1H469v-2h4.5a.5.5 0 1 0 0-1z" fill="#ffffff" transform="translate(-465 -617)"/>
        <path d="M478.5 620a3.5 3.5 0 1 0 0 7 3.5 3.5 0 0 0 0-7zm-.5 1h1v2h2v1h-2v2h-1v-2h-2v-1h2z" fill="#ffffff" transform="translate(-465 -617)"/>
    </g>
</svg>
