<svg xmlns="http://www.w3.org/2000/svg" viewBox="0 0 20 20" xml:space="preserve">
    <g fill="#ffffff">
        <path fill="#ffffff" d="M48.5 578a.5.5 0 0 0-.5.5l-.008 10.5c0 1.517 1.22 3 2.985 3s3.015-1.475 3.015-3L54 578.5a.5.5 0 0 0-.5-.5zm2.5 10c.546 0 1 .454 1 1s-.454 1-1 1-1-.454-1-1 .454-1 1-1z" transform="translate(-44.996 -575)"/>
        <path fill="#ffffff" d="M58.492 586a.5.5 0 0 0-.353.146l-4.75 4.75a.5.5 0 0 0-.147.354v.25a.5.5 0 0 0 .5.5H60.5a.5.5 0 0 0 .5-.5v-5a.5.5 0 0 0-.5-.5z" transform="translate(-43.996 -575)"/>
        <path fill="#ffffff" d="M56.486 579a.502.502 0 0 0-.347.146l-2 2a.5.5 0 0 0-.147.354v6a.5.5 0 0 0 .854.354l5-5a.5.5 0 0 0 0-.708l-3-3a.5.5 0 0 0-.36-.146z" transform="translate(-43.996 -575)"/>
    </g>
</svg>
