<svg xmlns="http://www.w3.org/2000/svg" viewBox="0 0 20 20" xml:space="preserve">
    <g fill="#ffffff">
        <path fill="#ffffff" d="M306.492-348.012a.5.5 0 0 0-.388.196l-1.958 1.957a.5.5 0 1 0 .708.707L306-346.3v5.793a.5.5 0 0 0 .5.5h5.793l-1.147 1.147a.5.5 0 1 0 .708.707l1.95-1.95a.5.5 0 0 0 .009-.798l-1.96-1.96a.5.5 0 1 0-.706.708l1.146 1.146H307v-5.293l1.146 1.147a.5.5 0 1 0 .708-.707l-1.961-1.961-.006-.008a.5.5 0 0 0-.395-.184z" transform="translate(-297.004 355)"/>
        <path fill="#ffffff" d="M306.445-351.998a6.283 6.283 0 0 0-3.4.848c-2.1 1.224-3.28 3.552-3.006 5.941.275 2.394 1.982 4.45 4.31 5.186a.5.5 0 1 0 .301-.954c-1.95-.616-3.388-2.358-3.617-4.347-.229-1.994.751-3.932 2.516-4.961 1.764-1.029 3.974-.938 5.672.201.938.63 1.924 1.084 3.279 1.084h1a.5.5 0 1 0 0-1h-1c-1.145 0-1.856-.336-2.72-.916a6.408 6.408 0 0 0-3.335-1.082z" transform="translate(-297.004 355)"/>
    </g>
</svg>
