<svg version="1.1" id="Layer_1" xmlns="http://www.w3.org/2000/svg" x="0" y="0" viewBox="0 0 20 20" fill="#ffffff" xml:space="preserve">
    <style>
        .st1{fill:#fff}
    </style>
    <g fill="#ffffff">
        <path class="st1" d="M9.5 10.5c0 .8-.7 1.5-1.5 1.5s-1.5-.7-1.5-1.5S7.2 9 8 9s1.5.7 1.5 1.5zM14.5 13c-1.1 0-2 .9-2 2s.9 2 2 2 2-.9 2-2-.9-2-2-2zm0 1c.6 0 1 .4 1 1s-.4 1-1 1-1-.4-1-1 .4-1 1-1zM4 3c-.3 0-.5.2-.5.5s.2.5.5.5h12c.3 0 .5-.2.5-.5S16.3 3 16 3H4z"/>
        <path d="M10.3 3.1c-.3 0-.5.2-.6.4L7.4 9.8c-.1.3 0 .7.3.8.3.1.7 0 .8-.3L10.8 4c.1-.3 0-.7-.4-.8l-.1-.1zM9 10.9c-.3 0-.6.3-.6.6 0 .2.1.4.3.5l4 2.7c.3.2.6.1.8-.1.2-.3.1-.6-.1-.8l-4-2.7c-.2-.2-.3-.2-.4-.2z" fill="#ffffff"/>
    </g>
</svg>
