<svg xmlns="http://www.w3.org/2000/svg" viewBox="0 0 20 20" xml:space="preserve">
    <g fill="#ffffff">
        <path d="M478.496-323.008a.5.5 0 0 0-.348.86l2.647 2.646-2.647 2.647a.5.5 0 1 0 .707.707l3-3a.5.5 0 0 0 0-.707l-3-3a.5.5 0 0 0-.359-.153z" fill="#ffffff" transform="translate(-465.004 333.498)"/>
        <path d="M473.438-330.975a6.003 6.003 0 0 0-5.295 7.276A6.004 6.004 0 0 0 474-319h2.293l-2.145 2.145a.5.5 0 1 0 .707.707l3-3a.5.5 0 0 0 0-.707l-3-3a.5.5 0 1 0-.707.707l2.149 2.148H474a4.994 4.994 0 0 1-4.88-3.916 4.997 4.997 0 0 1 2.765-5.615c2.127-.993 4.664-.385 6.078 1.482l.74.977c.552.729 1.434 1.072 2.297 1.072h.5a.5.5 0 1 0 0-1h-.5c-.597 0-1.17-.24-1.5-.676l-.74-.976a5.961 5.961 0 0 0-5.322-2.323z" fill="#ffffff" transform="translate(-465.004 333.498)"/>
    </g>
</svg>
