<svg xmlns="http://www.w3.org/2000/svg" viewBox="0 0 20 20" xml:space="preserve">
    <g fill="#ffffff">
        <path d="M275.47 427c-.43.004-.63.587-.318.871l1.227 1.635c-.44.596-.901 1.179-1.327 1.785-.21.386.242.866.64.679.287-.158.42-.484.632-.724l.68-.906c.392.511.763 1.04 1.167 1.54.312.31.9.01.831-.425-.071-.32-.347-.54-.518-.81l-.855-1.14c.44-.596.901-1.178 1.327-1.784.21-.386-.242-.867-.64-.68-.287.158-.421.485-.632.724l-.68.907c-.39-.512-.765-1.039-1.166-1.541a.501.501 0 0 0-.367-.131z" fill="#ffffff" transform="translate(-265.005 -417.007)"/>
        <g fill="#ffffff">
            <path transform="translate(-528.005 -281.007)" d="M534.48 284a.5.5 0 0 0-.384.197l-2.924 2.926-.026.023v.002a.5.5 0 0 0-.136.258l-.004.012a.5.5 0 0 0-.006.09v8.992a.5.5 0 0 0 .5.5h2a.5.5 0 1 0 0-1H532v-8h2.5a.5.5 0 0 0 .5-.5V285h6v2.5a.5.5 0 1 0 1 0v-3a.5.5 0 0 0-.5-.5h-7a.5.5 0 0 0-.014 0h-.006z" fill="#ffffff"/>
        </g>
        <path d="M273.504 425c-.47.075-.808.502-1.066.87-.433.658-.457 1.462-.438 2.222.008 1.24-.016 2.48.013 3.72.072.89.55 1.833 1.405 2.187.424.112.782-.442.506-.783-.298-.244-.64-.477-.77-.866-.243-.633-.126-1.32-.154-1.981.006-1.032-.011-2.065.009-3.096.03-.569.332-1.129.837-1.406.338-.288.101-.887-.342-.867zm6.984 0c-.439-.015-.665.604-.32.876.64.336.883 1.101.838 1.786-.006 1.355.011 2.71-.01 4.065-.028.571-.333 1.128-.835 1.412-.333.286-.081.895.357.86.464-.078.794-.504 1.05-.868.426-.65.458-1.444.438-2.196-.008-1.25.016-2.499-.014-3.747-.069-.877-.532-1.788-1.356-2.168a.5.5 0 0 0-.148-.02z" fill="#ffffff" transform="translate(-265.005 -417.007)"/>
    </g>
</svg>
