<svg xmlns="http://www.w3.org/2000/svg" viewBox="0 0 20 20" xml:space="preserve">
    <g fill="#ffffff">
        <path d="M350.992-370.496a2.511 2.511 0 0 1 2.504-2.504 2.511 2.511 0 0 1 2.504 2.504 2.511 2.511 0 0 1-2.504 2.504 2.511 2.511 0 0 1-2.504-2.504z" fill="#ffffff" transform="translate(-339.002 376)"/>
        <path d="M348.47-367.938a2.01 2.01 0 0 0-.9.52l-4.978 4.982a2.016 2.016 0 0 0 .9 3.368 2.008 2.008 0 0 0 1.942-.522l4.978-4.98a2.02 2.02 0 0 0 .52-1.946 2.01 2.01 0 0 0-2.461-1.422zm.782.965a1.013 1.013 0 0 1 .451 1.695l-4.976 4.981a1.009 1.009 0 0 1-1.69-.453c-.094-.35.006-.722.262-.979l4.978-4.982c.256-.256.626-.355.975-.262z" fill="#ffffff" transform="translate(-339.002 376)"/>
    </g>
</svg>
