<svg xmlns="http://www.w3.org/2000/svg" viewBox="0 0 20 20" xml:space="preserve">
    <g fill="#ffffff">
        <path fill="#ffffff" d="M319.492 315a.5.5 0 0 0-.346.146l-4 4a.5.5 0 0 0 0 .708l4 4a.5.5 0 0 0 .362.146.5.5 0 0 0 .346-.146l4-4a.5.5 0 0 0 0-.708l-.182-.181-3.818-3.819a.5.5 0 0 0-.362-.146zm.008 1.207 3.293 3.293-3.293 3.293-3.293-3.293zM311 319v1h1v-1zm2 0v1h1v-1zm.5 4a.499.499 0 0 0-.354.146l-3 3a.5.5 0 0 0 0 .708l3 3a.5.5 0 0 0 .708 0l3-3a.5.5 0 0 0 0-.708l-3-3a.499.499 0 0 0-.354-.146zm4.5 3v1h1v-1zm2 0v1h1v-1zm2 0v1h1v-1z" transform="translate(-307 -312.5)"/>
    </g>
</svg>
