<svg xmlns="http://www.w3.org/2000/svg" viewBox="0 0 20 20" xml:space="preserve">
    <g fill="#ffffff">
        <path fill="#ffffff" d="M447.51 297.012a.5.5 0 1 0 0 1h6.283a3.019 3.019 0 0 1-.607-1zm11.299 0a3.017 3.017 0 0 1-.608 1h2.309a.5.5 0 1 0 0-1z" transform="translate(-444.01 -281.007)"/>
        <path fill="#ffffff" d="M476.996-342c1.1 0 2.004.902 2.004 2.002 0 1.1-.904 2-2.004 2s-2.002-.9-2.002-2 .902-2.002 2.002-2.002zm-4.498-9.998a2.51 2.51 0 0 1 2.502 2.5 2.508 2.508 0 0 1-2.502 2.498 2.506 2.506 0 0 1-2.5-2.498c0-1.374 1.125-2.5 2.5-2.5zm0 1c-.835 0-1.5.667-1.5 1.5a1.49 1.49 0 0 0 1.5 1.498c.835 0 1.502-.665 1.502-1.498s-.667-1.5-1.502-1.5z" transform="translate(-465.01 354.993)"/>
        <path fill="#ffffff" d="M472.502-345.996a.5.5 0 0 0-.492.508v1a.5.5 0 1 0 1 0v-1a.5.5 0 0 0-.508-.508zm0 3a.5.5 0 0 0-.492.508v1a.5.5 0 1 0 1 0v-1a.5.5 0 0 0-.508-.508z" transform="translate(-465.01 354.993)"/>
    </g>
</svg>
