<svg xmlns="http://www.w3.org/2000/svg" viewBox="0 0 20 20" xml:space="preserve">
    <g fill="#ffffff">
        <path transform="translate(-86.994 -279.992)" d="M91.348 288.965a.51.51 0 0 0-.377.209 4.916 4.916 0 0 0-.522 5.031 4.851 4.851 0 0 0 4.186 2.8 4.842 4.842 0 0 0 4.365-2.38v1.875a.5.5 0 1 0 1 0v-3a.5.5 0 0 0-.5-.5h-3a.5.5 0 1 0 0 1h1.693a.51.51 0 0 0-.039.059 3.82 3.82 0 0 1-3.476 1.927 3.825 3.825 0 0 1-3.305-2.213 3.895 3.895 0 0 1 .414-3.986.51.51 0 0 0-.389-.822.51.51 0 0 0-.05 0z" fill="#ffffff"/>
    </g>
    <g fill="#ffffff">
        <path transform="translate(-86.994 -279.992)" d="M95.398 282.975a.5.5 0 0 0-.05.002.5.5 0 0 0-.368.203 4.907 4.907 0 0 0-.523 5.021 4.842 4.842 0 0 0 4.178 2.795 4.836 4.836 0 0 0 4.365-2.389v1.893a.5.5 0 1 0 1 0v-3a.5.5 0 0 0-.5-.5h-3a.5.5 0 1 0 0 1h1.703a.5.5 0 0 0-.039.065 3.83 3.83 0 0 1-3.486 1.931 3.837 3.837 0 0 1-3.315-2.219 3.904 3.904 0 0 1 .416-3.996.5.5 0 0 0-.38-.806z" fill="#ffffff"/>
    </g>
</svg>
