<svg xmlns="http://www.w3.org/2000/svg" viewBox="0 0 20 20" xml:space="preserve">
    <g fill="#ffffff">
        <path transform="translate(-549.002 -281.016)" d="M554.5 284a2.508 2.508 0 0 0-2.5 2.5v2.008c0 1.375 1.125 2.5 2.5 2.5s2.5-1.125 2.5-2.5v-.5h2.01l-.014 3.287c-1.66 1.41-3.241 2.622-3.988 6.107-.178.675.86.899.976.211.676-3.151 1.924-4.088 3.518-5.427 1.584 1.34 2.831 2.277 3.52 5.43.133.666 1.135.445.976-.216-.763-3.494-2.351-4.703-4.002-6.117l.014-3.275h5.502c.657-.01.657-.99 0-1h-3.043a2.494 2.494 0 0 1-1.969.992c-.798 0-1.51-.396-1.969-.992H557v-.508c0-1.375-1.125-2.5-2.5-2.5zm6 .008c-.82 0-1.496.676-1.496 1.496S559.679 287 560.5 287c.82 0 1.496-.675 1.496-1.496 0-.82-.675-1.496-1.496-1.496zm-6 .992c.834 0 1.5.666 1.5 1.5v2.008c0 .834-.666 1.5-1.5 1.5s-1.5-.666-1.5-1.5V286.5c0-.834.666-1.5 1.5-1.5z" fill="#ffffff"/>
    </g>
</svg>
