<svg xmlns="http://www.w3.org/2000/svg" viewBox="0 0 20 20" xml:space="preserve">
    <g fill="#ffffff">
        <path transform="translate(-129.003 -280.998)" d="M138.617 286.008a.6.6 0 0 0-.476.99l1.61 2.02a1.5 1.5 0 0 1 1.247 1.562l.928 1.162a.6.6 0 0 0 .467.233.6.6 0 0 0 .47-.98l-1.588-1.991 1.59-2.008a.6.6 0 1 0-.941-.744l-1.416 1.789-1.43-1.791a.6.6 0 0 0-.46-.242z" fill="#ffffff"/>
        <path d="M201.61 559.021a.6.6 0 0 0-.471.983l1.597 2.002-1.597 2.002a.6.6 0 1 0 .937.75l1.428-1.79 1.428 1.79a.6.6 0 1 0 .937-.75l-1.598-2.002 1.598-2.002a.6.6 0 1 0-.937-.75l-1.428 1.789-1.428-1.79a.6.6 0 0 0-.467-.232z" fill="#ffffff" transform="rotate(180 106.001 287.002)"/>
        <path d="M196.504 561a.5.5 0 0 0-.227.055s-.356.184-.668.572c-.31.388-.609 1.012-.609 1.873v5c0 .861.298 1.486.61 1.875a2.3 2.3 0 0 0 .667.572.5.5 0 1 0 .446-.894s-.143-.067-.332-.303c-.19-.236-.391-.611-.391-1.25v-5c0-.639.202-1.013.39-1.248.19-.235.333-.3.333-.3a.5.5 0 0 0-.22-.952z" fill="#ffffff" transform="rotate(180 106.001 287.002)"/>
        <path d="M207.488 557a.5.5 0 0 0-.205.951s.145.066.334.301c.189.235.389.61.389 1.248v5c0 .639-.202 1.014-.39 1.25-.19.236-.333.303-.333.303a.5.5 0 1 0 .447.894s.356-.183.666-.572c.311-.389.61-1.014.61-1.875v-5c0-.861-.298-1.485-.61-1.873-.31-.388-.667-.572-.667-.572a.5.5 0 0 0-.24-.055z" fill="#ffffff" transform="rotate(180 106.001 287.002)"/>
    </g>
</svg>
