<svg xmlns="http://www.w3.org/2000/svg" viewBox="0 0 20 20" xml:space="preserve">
    <g fill="#ffffff">
        <g fill="#ffffff">
            <path d="M50.492 287.992a.5.5 0 0 0-.388.195.5.5 0 0 0-.004.006l-1.954 1.954a.5.5 0 1 0 .708.707L50 289.707v5.793a.5.5 0 0 0 .5.5h5.793l-1.147 1.146a.5.5 0 1 0 .708.708l1.957-1.958a.5.5 0 0 0 .002-.792.5.5 0 0 0-.006-.004l-1.953-1.954a.5.5 0 1 0-.708.707L56.293 295H51v-5.293l1.146 1.147a.5.5 0 1 0 .708-.708l-1.958-1.957a.5.5 0 0 0-.404-.197z" fill="#ffffff" transform="translate(-41 -285)"/>
        </g>
        <g fill="#ffffff">
            <path d="M50.492 287.992a.5.5 0 0 0-.388.195.5.5 0 0 0-.004.006l-1.954 1.954a.5.5 0 1 0 .708.707L50 289.707v5.793a.5.5 0 0 0 .5.5h5.793l-1.147 1.146a.5.5 0 1 0 .708.708l1.957-1.958a.5.5 0 0 0 .002-.792.5.5 0 0 0-.006-.004l-1.953-1.954a.5.5 0 1 0-.708.707L56.293 295H51v-5.293l1.146 1.147a.5.5 0 1 0 .708-.708l-1.958-1.957a.5.5 0 0 0-.404-.197z" fill="#ffffff" transform="translate(-45 -281)"/>
        </g>
    </g>
</svg>
