<svg xmlns="http://www.w3.org/2000/svg" viewBox="0 0 20 20" xml:space="preserve">
    <g fill="#ffffff">
        <g fill="#ffffff">
            <path transform="translate(-254.992 -281.006)" d="M262.588 287.027a.6.6 0 0 0-.473.96l2.149 3.029-2.149 3.029a.6.6 0 1 0 .979.695l1.906-2.687 1.906 2.687a.6.6 0 1 0 .979-.695l-2.149-3.03 2.149-3.029a.6.6 0 0 0-.041-.757.6.6 0 0 0-.938.062L265 289.979l-1.906-2.688a.6.6 0 0 0-.065-.078.6.6 0 0 0-.441-.186z" fill="#ffffff"/>
            <path d="M310.325 237.241a.667.667 0 0 0-.59-.197c-6.229.925-11.88 6.576-12.805 12.805a.667.667 0 1 0 1.319.197c.823-5.546 6.135-10.858 11.682-11.682a.667.667 0 0 0 .394-1.123zm8.449 8.45a.667.667 0 0 1 .197.59c-.925 6.228-6.576 11.88-12.805 12.805a.667.667 0 1 1-.196-1.318c5.547-.824 10.859-6.136 11.683-11.682a.667.667 0 0 1 1.121-.395z" fill="#ffffff" transform="scale(-.75 .75) rotate(-45 -136.048 518.519)"/>
        </g>
    </g>
</svg>
