<svg xmlns="http://www.w3.org/2000/svg" viewBox="0 0 20 20" xml:space="preserve">
    <g fill="#ffffff">
        <path d="M560.992-349.496a2.511 2.511 0 0 1 2.504-2.504 2.511 2.511 0 0 1 2.504 2.504 2.511 2.511 0 0 1-2.504 2.504 2.511 2.511 0 0 1-2.504-2.504zM552-339.992c0-1.096.897-1.996 1.992-1.996 1.096 0 1.994.9 1.994 1.996a2.005 2.005 0 0 1-1.994 1.998 2.003 2.003 0 0 1-1.992-1.998zm1 0c0 .557.438.998.992.998a.99.99 0 0 0 .994-.998.988.988 0 0 0-.994-.996.986.986 0 0 0-.992.996z" fill="#ffffff" transform="translate(-549 354.997)"/>
        <path d="M563.502-343.014a.5.5 0 0 0-.494.506v4a.5.5 0 1 0 1 0v-4a.5.5 0 0 0-.506-.506zm-5.994 2.006a.5.5 0 1 0 0 1h1a.5.5 0 1 0 0-1zm3 0a.5.5 0 1 0 0 1h1a.5.5 0 1 0 0-1z" fill="#ffffff" transform="translate(-549 354.997)"/>
    </g>
</svg>
