<svg xmlns="http://www.w3.org/2000/svg" viewBox="0 0 20 20" xml:space="preserve">
    <g fill="#ffffff">
        <path d="M137.5-326a.5.5 0 0 0-.5.5v3a.5.5 0 0 0 .5.5h3a.5.5 0 0 0 .5-.5v-3a.5.5 0 0 0-.5-.5z" fill="#ffffff" transform="translate(-133.5 338.5)"/>
        <path d="M137.521-331a.5.5 0 0 0-.5.496l-.021 3.5 1 .008.018-3.004H145v7h-3v1h3.5a.5.5 0 0 0 .5-.5v-8a.5.5 0 0 0-.5-.5z" fill="#ffffff" transform="translate(-133.5 338.5)"/>
        <path d="M141.521-335a.5.5 0 0 0-.5.496l-.021 2.5 1 .008.018-2.004H149v7h-2v1h2.5a.5.5 0 0 0 .5-.5v-8a.5.5 0 0 0-.5-.5z" fill="#ffffff" transform="translate(-133.5 338.5)"/>
    </g>
</svg>
