<svg xmlns="http://www.w3.org/2000/svg" viewBox="0 0 20 20" xml:space="preserve">
    <g fill="#ffffff">
        <path fill="#ffffff" d="M531.508-348.008a.5.5 0 0 0-.5.5L531-338.5a.5.5 0 0 0 .5.5l9.008-.008a.5.5 0 0 0 .5-.5c0-5.24-4.26-9.5-9.5-9.5zm.5 1.102a8.386 8.386 0 0 1 7.898 7.898L532-339z" transform="translate(-527.505 354.505)"/>
        <path fill="#ffffff" d="M542.98-351.01a1 1 0 0 0-.687.303l-3 3a1 1 0 1 0 1.414 1.414l3-3a1 1 0 0 0-.727-1.717z" transform="translate(-527.505 354.505)"/>
    </g>
</svg>
