<svg xmlns="http://www.w3.org/2000/svg" viewBox="0 0 20 20" xml:space="preserve">
    <g fill="#ffffff">
        <path d="M237.5-323a.5.5 0 0 0-.5.5v4a.5.5 0 0 0 .5.5h4a.5.5 0 0 0 .5-.5v-4a.5.5 0 0 0-.5-.5z" fill="#ffffff" transform="translate(-234 334)"/>
        <path d="M237.521-329a.5.5 0 0 0-.5.498l-.021 4.5 1 .004.02-4.002H247v9h-4v1h4.5a.5.5 0 0 0 .5-.5v-10a.5.5 0 0 0-.5-.5z" fill="#ffffff" transform="translate(-234 334)"/>
    </g>
    <path d="M17 8V6h-1v2zm0-3V3h-1v2zm0 12v-2h-1v2zm0-3v-2h-1v2zm0-3V9h-1v2z" fill="#ffffff"/>
</svg>
