<svg xmlns="http://www.w3.org/2000/svg" viewBox="0 0 20 20" xml:space="preserve">
    <g fill="#ffffff">
        <path transform="translate(-380.997 -281.001)" d="M393.492 289.004a.5.5 0 0 0-.5.5v1.73l-2.77 2.77h-1.73a.5.5 0 0 0-.5.5v1.03c0 .275.224.47.5.47h1c.273 0 .5.17.5.5v1a.5.5 0 0 0 .5.5h1a.5.5 0 0 0 .5-.5v-1.733l2.768-2.767h1.732a.5.5 0 0 0 .5-.5v-1.027c0-.277-.224-.473-.5-.473h-1c-.272 0-.5-.17-.5-.5v-1a.5.5 0 0 0-.5-.5z" fill="#ffffff"/>
        <path d="M395.479-349.004a.5.5 0 0 0-.32.87c1.108 1.04 1.854 2.618 1.841 4.13-.017 1.958-1.007 3.5-2.74 4.447-1.678.918-3.815.647-5.489-.406l.024.016a5.667 5.667 0 0 0-3.287-1.053H384.5a.5.5 0 1 0 0 1h1.008c.969 0 1.914.304 2.709.87l.012.007.011.008c1.932 1.215 4.441 1.563 6.5.438 2.004-1.096 3.24-3.018 3.26-5.319.016-1.838-.85-3.64-2.158-4.869a.5.5 0 0 0-.363-.139z" fill="#ffffff" transform="rotate(180 200.498 -167.498)"/>
    </g>
</svg>
