<svg xmlns="http://www.w3.org/2000/svg" viewBox="0 0 20 20" xml:space="preserve">
    <g fill="#ffffff">
        <path d="M51.492 285.992a.5.5 0 0 0-.388.195.5.5 0 0 0-.004.006l-1.954 1.954a.5.5 0 1 0 .708.707L51 287.707v7.793a.5.5 0 0 0 .5.5h7.793l-1.147 1.146a.5.5 0 1 0 .708.708l1.957-1.958a.5.5 0 0 0 .002-.792.5.5 0 0 0-.006-.004l-1.953-1.954a.5.5 0 1 0-.708.707L59.293 295H52v-7.293l1.146 1.147a.5.5 0 1 0 .708-.708l-1.958-1.957a.5.5 0 0 0-.404-.197z" fill="#ffffff" transform="translate(-45.996 -282)"/>
    </g>
    <path d="M17.004 8V6h-1v2zm0-3V3h-1v2zm0 12v-2h-1v2zm0-3v-2h-1v2zm0-3V9h-1v2z" fill="#ffffff"/>
</svg>
