<svg xmlns="http://www.w3.org/2000/svg" viewBox="0 0 20 20" xml:space="preserve">
    <g fill="#ffffff">
        <path fill="#ffffff" d="M759.5-89a.5.5 0 0 0-.414.22l-5.75 8.5a.5.5 0 0 0-.025.042c-.213.39-.311.818-.311 1.238 0 1.217.896 2.232 2.166 2.916C756.436-75.4 758.132-75 760-75c1.868 0 3.564-.4 4.834-1.084C766.104-76.768 767-77.783 767-79c0-.42-.097-.847-.313-1.24a.5.5 0 0 0-.023-.04l-5.75-8.5a.5.5 0 0 0-.414-.22zm.266 1h.468l5.58 8.248c.128.235.186.484.186.752 0 .716-.558 1.452-1.64 2.035-1.083.583-2.638.965-4.36.965-1.722 0-3.277-.382-4.36-.965-1.082-.583-1.64-1.32-1.64-2.035 0-.263.062-.522.188-.756z" transform="translate(-750 92)"/>
        <path fill="#ffffff" d="M760-82c-1.858 0-3.54.349-4.797.898-.628.275-1.153.6-1.543.983-.39.382-.66.848-.66 1.369a.5.5 0 1 0 1 0c0-.17.094-.394.361-.656.268-.263.695-.54 1.243-.78 1.095-.48 2.665-.814 4.396-.814 1.731 0 3.3.335 4.396.814.548.24.975.517 1.243.78.267.262.361.486.361.656a.5.5 0 1 0 1 0c0-.52-.27-.987-.66-1.37-.39-.382-.915-.707-1.543-.982-1.257-.55-2.939-.898-4.797-.898z" transform="translate(-750 92)"/>
    </g>
</svg>
