<svg xmlns="http://www.w3.org/2000/svg" viewBox="0 0 20 20" xml:space="preserve">
    <g fill="#ffffff">
        <path fill="#ffffff" d="M449.5 494a.5.5 0 0 0-.5.5v1c0-.042.006-.012-.047.055-.053.066-.15.154-.254.232-.166.125-.276.18-.338.213h-.861a.5.5 0 0 0-.5.5v1a.5.5 0 0 0 .5.5h1.775c.41-.495.898-.93 1.475-1.264l.426-.267-.176-.176V494.5a.5.5 0 0 0-.5-.5zm8.281.002a3.117 3.117 0 0 0-1.469.416.5.5 0 0 0-.015.01l-5.047 3.176-.016.01a.5.5 0 0 0-.195.22c-1.458.989-2.28 2.694-1.97 4.448a4.504 4.504 0 0 0 5.538 3.58.5.5 0 1 0-.246-.969 3.498 3.498 0 0 1-2.611-6.424.5.5 0 0 0 .016-.01l.027-.015a.5.5 0 0 0 .01-.008l5.01-3.15a2.12 2.12 0 0 1 2.564.337c.682.682.82 1.73.338 2.565a.5.5 0 0 0-.006.013.5.5 0 0 0-.02.037l-1.628 3.026a.5.5 0 1 0 .879.473l1.634-3.038.008-.011v-.004l.006-.01a.5.5 0 0 0 .059-.313c.51-1.166.353-2.53-.562-3.445a3.12 3.12 0 0 0-2.303-.914zM458 496a1 1 0 0 0-1 1 1 1 0 0 0 1 1 1 1 0 0 0 1-1 1 1 0 0 0-1-1zm-4.65 2.643-1.051.662a1.5 1.5 0 0 1-.049.029c-.345.2-.627.471-.836.787l4.225 4.227 1.361 1.359v1.793a.5.5 0 0 0 .5.5h1a.5.5 0 0 0 .5-.5v-1c0-.083.057-.225.166-.334a.544.544 0 0 1 .334-.166h1a.5.5 0 0 0 .5-.5v-1a.5.5 0 0 0-.5-.5h-1.793z" transform="translate(-444 -491)"/>
    </g>
</svg>
