<svg xmlns="http://www.w3.org/2000/svg" viewBox="0 0 20 20" xml:space="preserve">
    <g fill="#ffffff">
        <path d="M-156.484 137a.5.5 0 0 0-.5.5v.5h-1.5a.5.5 0 0 0-.516.5v.5h6v-.5c0-.253-.15-.495-.484-.5h-1.5v-.5a.5.5 0 0 0-.5-.5zm3.484 2 .016.5v.5h-6v-.5l-.016-.5h-1.484a.5.5 0 0 0-.5.5v3.5h2.308a1.5 1.5 0 0 1 .162-.014 1.5 1.5 0 0 1 1.53 1.698V149h5.5a.5.5 0 0 0 .5-.5v-9a.5.5 0 0 0-.5-.5z" fill="#ffffff" transform="translate(167.988 -134.004)"/>
        <g fill="#ffffff">
            <path fill="#ffffff" d="M-158.494 143.996a.5.5 0 0 0-.05.004h-3.94a.5.5 0 1 0 0 1h2.793l-5.147 5.147a.5.5 0 1 0 .707.707l5.147-5.147v2.793a.5.5 0 1 0 1 0v-3.943a.5.5 0 0 0-.51-.56z" transform="translate(167.988 -134.004)"/>
        </g>
    </g>
</svg>
