<svg xmlns="http://www.w3.org/2000/svg" viewBox="0 0 20 20" xml:space="preserve">
    <g fill="#ffffff">
        <g fill="#ffffff">
            <path d="M175.5 599c-.822 0-1.5.678-1.5 1.5v6c0 .647.421 1.198 1 1.406V600.5c0-.286.214-.5.5-.5h9c.286 0 .5.214.5.5v1.5h1v-1.5c0-.822-.678-1.5-1.5-1.5z" fill="#ffffff" transform="translate(-171 -595.5)"/>
            <path transform="translate(-171 -645.5)" d="M177.5 653c-.822 0-1.5.678-1.5 1.5v6c0 .822.678 1.5 1.5 1.5h9c.822 0 1.5-.678 1.5-1.5v-6c0-.822-.678-1.5-1.5-1.5zm2.004 2a.5.5 0 0 1 .443.277l2 4a.5.5 0 0 1-.447.723h-4a.5.5 0 0 1-.447-.723l2-4a.5.5 0 0 1 .45-.277zm3.996 0h3a.5.5 0 1 1 0 1h-3a.5.5 0 1 1 0-1zm0 2h3a.5.5 0 1 1 0 1h-3a.5.5 0 1 1 0-1zm0 2h2a.5.5 0 1 1 0 1h-2a.5.5 0 1 1 0-1z" fill="#ffffff"/>
        </g>
    </g>
</svg>
