<svg xmlns="http://www.w3.org/2000/svg" viewBox="0 0 20 20" xml:space="preserve">
    <g fill="#ffffff">
        <path fill="#ffffff" d="M366.5 389a.5.5 0 0 0-.354.146l-3 3a.5.5 0 0 0-.146.354v10a.5.5 0 0 0 .5.5h10a.5.5 0 0 0 .354-.146l3-3a.5.5 0 0 0 .146-.354v-10a.5.5 0 0 0-.5-.5zm.207 1h8.58l-1.994 2h-8.586zm9.293.701v8.592l-2 2v-8.588zM364 393h9v9h-9z" transform="translate(-359.994 -386.002)"/>
        <path fill="#ffffff" d="M870.492 220.992a.5.5 0 0 0-.492.508v9.793l-2.854 2.861a.5.5 0 1 0 .708.705l2.853-2.859h9.793a.5.5 0 1 0 0-1H871v-9.5a.5.5 0 0 0-.508-.508z" transform="translate(-863.994 -218.01)"/>
    </g>
</svg>
