<svg xmlns="http://www.w3.org/2000/svg" viewBox="0 0 20 20" xml:space="preserve">
    <g fill="#ffffff">
        <path fill="#ffffff" d="M201.498 368.994a.5.5 0 0 0-.5.5v1a.5.5 0 0 0 .5.5h.72C203.682 373.392 205 375.04 205 377c0 1.458-.663 2.347-1.766 2.75s-2.716.26-4.5-.691a.5.5 0 1 0-.468.882c1.966 1.049 3.853 1.28 5.312.746 1.46-.534 2.422-1.895 2.422-3.687 0-2.434-1.544-4.245-3.002-6.65v-.856a.5.5 0 0 0-.5-.5z" transform="translate(-191.998 -364.48)"/>
        <g fill="#ffffff">
            <path fill="#ffffff" d="M195.498 367.994a.5.5 0 0 0-.5.5v2a.5.5 0 0 0 .5.5h2a.5.5 0 0 0 .5-.5V370h1.502c.676.01.676-1.01 0-1h-1.502v-.506a.5.5 0 0 0-.5-.5zm11 0a.5.5 0 0 0-.5.5V369H204.5c-.676-.01-.676 1.01 0 1h1.498v.494a.5.5 0 0 0 .5.5h2a.5.5 0 0 0 .5-.5v-2a.5.5 0 0 0-.5-.5zm-10.5 1h1v1h-1zm11 0h1v1h-1z" transform="translate(-191.998 -364.48)"/>
        </g>
    </g>
</svg>
