<svg xmlns="http://www.w3.org/2000/svg" viewBox="0 0 20 20" xml:space="preserve">
    <path fill="#ffffff" d="M7.5 3a.5.5 0 0 0-.5.5v3a.5.5 0 0 0 .5.5h3a.5.5 0 0 0 .5-.5V5h.5c1.293 0 2.426.352 3.219 1.01C15.512 6.667 16 7.624 16 9c0 1.583-.781 3.055-2.24 4.164C12.3 14.273 10.16 15 7.5 15H7v-1.5a.5.5 0 0 0-.5-.5h-3a.5.5 0 0 0-.5.5v3a.5.5 0 0 0 .5.5h3a.5.5 0 0 0 .5-.5V16h.5c2.84 0 5.2-.773 6.865-2.04C16.031 12.696 17 10.918 17 9c0-1.624-.627-2.917-1.643-3.76C14.342 4.398 12.974 4 11.5 4H11v-.5a.5.5 0 0 0-.5-.5zM8 4h2v2H8zM4 14h2v2H4z"/>
</svg>
