<svg xmlns="http://www.w3.org/2000/svg" viewBox="0 0 20 20" xml:space="preserve">
    <g fill="#ffffff">
        <path fill="#ffffff" d="M222.498 369.994a.5.5 0 0 0-.5.5l.002.608a5.01 5.01 0 0 0-4 4.898c0 2.756 2.245 5 5 5s5-2.244 5-5a5.01 5.01 0 0 0-4-4.898l-.002-.608a.5.5 0 0 0-.5-.5zM223 372c2.215 0 4 1.785 4 4s-1.785 4-4 4-4-1.785-4-4 1.785-4 4-4z" transform="translate(-213.003 -364.497)"/>
        <g fill="#ffffff">
            <path fill="#ffffff" d="M216.498 367.994a.5.5 0 0 0-.5.5v2a.5.5 0 0 0 .5.5h2a.5.5 0 0 0 .5-.5V370h1.502c.676.01.676-1.01 0-1h-1.502v-.506a.5.5 0 0 0-.5-.5zm11.01 0a.5.5 0 0 0-.5.5V369h-1.504c-.676-.01-.676 1.01 0 1h1.504v.494a.5.5 0 0 0 .5.5h2a.5.5 0 0 0 .5-.5v-2a.5.5 0 0 0-.5-.5zm-10.51 1h1v1h-1zm11.01 0h1v1h-1z" transform="translate(-213.003 -364.497)"/>
        </g>
    </g>
</svg>
