<svg xmlns="http://www.w3.org/2000/svg" viewBox="0 0 20 20" xml:space="preserve">
    <g fill="#ffffff">
        <path fill="#ffffff" d="M250.059 327.012a6.065 6.065 0 0 0-5.24 2.992 5.94 5.94 0 0 0 0 5.994 6.065 6.065 0 0 0 5.24 2.992l.431.01a.5.5 0 1 0 .02-1l-.442-.01a.5.5 0 0 0-.01 0 5.063 5.063 0 0 1-4.377-2.496 4.93 4.93 0 0 1 0-4.984 5.065 5.065 0 0 1 4.373-2.498l.438.004a.5.5 0 1 0 .008-1l-.438-.004a.5.5 0 0 0-.004 0z" transform="translate(-234 -322.994)"/>
        <g fill="#ffffff">
            <path fill="#ffffff" d="M237.498 367.994a.5.5 0 0 0-.5.5v2a.5.5 0 0 0 .5.5H238v8h-.502a.5.5 0 0 0-.5.5v2a.5.5 0 0 0 .5.5h2a.5.5 0 0 0 .5-.5V381H245c.676.01.676-1.01 0-1h-5.002v-.506a.5.5 0 0 0-.5-.5H239v-8h.498a.5.5 0 0 0 .5-.5V370H245c.676.01.676-1.01 0-1h-5.002v-.506a.5.5 0 0 0-.5-.5zm.5 1h1v1h-1zm0 11h1v1h-1z" transform="translate(-234 -364.994)"/>
        </g>
    </g>
</svg>
