<svg xmlns="http://www.w3.org/2000/svg" viewBox="0 0 20 20" xml:space="preserve">
    <g fill="#ffffff">
        <path fill="#ffffff" d="M309.832 496c-.792 0-1.549.393-1.863 1.111-.314.719-.079 1.654.76 2.493l2.5 2.5c.661.661.676 1.1.552 1.382-.123.282-.49.514-.949.514l-7.285-.008 2.139-2.139a.5.5 0 1 0-.707-.707l-2.934 2.936-.01.008a.5.5 0 0 0-.207.416.5.5 0 0 0 0 .008.5.5 0 0 0 .004.047.5.5 0 0 0 .008.049.5.5 0 0 0 .193.298l2.946 2.946a.5.5 0 1 0 .707-.707l-2.155-2.155 7.301.008c.792 0 1.551-.393 1.865-1.111.315-.718.077-1.654-.761-2.492l-2.5-2.5c-.662-.662-.674-1.101-.551-1.383.123-.282.489-.514.947-.514h3.5a.5.5 0 1 0 0-1z" transform="matrix(-1 0 0 1 317.58 -491.927)"/>
    </g>
</svg>
