<svg xmlns="http://www.w3.org/2000/svg" viewBox="0 0 20 20" xml:space="preserve">
    <g fill="#ffffff">
        <g fill="#ffffff">
            <path fill="#ffffff" d="M480.068 304.938c-.788-.015-1.564.355-2.236 1.027l-1.478 1.478a.591.591 0 1 0 .835.836l1.479-1.478c.511-.511.96-.688 1.377-.68.416.008.863.209 1.334.68.47.47.672.917.68 1.334.008.416-.17.866-.68 1.377l-1.479 1.478a.591.591 0 1 0 .836.836l1.479-1.478c.671-.672 1.04-1.448 1.025-2.237-.014-.788-.404-1.524-1.025-2.146-.622-.622-1.358-1.013-2.147-1.027zm-.943 3.51a.591.591 0 0 0-.406.177l-1.479 1.479a.591.591 0 1 0 .836.835l1.479-1.478a.591.591 0 0 0-.43-1.014zm-8.273 4.728a.591.591 0 0 0-.409.178l-1.513 1.492a.591.591 0 0 0-.008.006c-.653.665-1.017 1.436-1.008 2.222.009.787.387 1.532 1.012 2.157.624.625 1.375 1.01 2.17 1.02.794.01 1.577-.361 2.25-1.034l1.478-1.477a.592.592 0 1 0-.836-.838l-1.478 1.479c-.51.51-.973.693-1.4.688-.429-.006-.879-.207-1.347-.674-.467-.468-.663-.913-.667-1.334-.005-.422.177-.878.671-1.381l1.506-1.485a.591.591 0 0 0-.422-1.02zm2.656.888a.591.591 0 0 0-.406.178l-1.479 1.479a.591.591 0 1 0 .836.836l1.479-1.479a.591.591 0 0 0-.43-1.014z" transform="translate(-392.189 -254.359) scale(.84565)"/>
        </g>
        <path fill="#ffffff" d="M668.494 464.994a.5.5 0 0 0-.348.86L678.293 476h-3.043a.5.5 0 1 0 0 1h4.19a.5.5 0 0 0 .56-.56v-4.19a.5.5 0 1 0-1 0v3.043l-10.146-10.147a.5.5 0 0 0-.36-.152z" transform="translate(-663.507 -460.516)"/>
    </g>
</svg>
