<svg xmlns="http://www.w3.org/2000/svg" viewBox="0 0 20 20" xml:space="preserve">
    <g fill="#ffffff">
        <path fill="#ffffff" d="M498 37.5a.5.5 0 0 1-.5.5h-2a.5.5 0 0 1-.5-.5v-2a.5.5 0 0 1 .5-.5h2a.5.5 0 0 1 .5.5z" transform="translate(-486 -29.5)"/>
        <path d="M489.5 45a.501.501 0 0 0-.478.621c.004.016.01.032.015.047a.49.49 0 0 0 .041.09.499.499 0 0 0 .422.242h13a.501.501 0 0 0 .478-.621c-.004-.016-.01-.032-.015-.047a.5.5 0 0 0-.406-.328.488.488 0 0 0-.057-.004zm0-12a.5.5 0 0 0-.5.5v10a.5.5 0 0 0 .5.5h13a.5.5 0 0 0 .5-.5v-10a.5.5 0 0 0-.5-.5zm.5 1h12v9h-12z" fill="#ffffff" transform="translate(-486 -29.5)"/>
        <path d="M494 41.5a.5.5 0 0 1-.5.5h-2a.5.5 0 0 1-.5-.5v-2a.5.5 0 0 1 .5-.5h2a.5.5 0 0 1 .5.5zm-1-.5v-1h-1v1zm1-3.5a.5.5 0 0 1-.5.5h-2a.5.5 0 0 1-.5-.5v-2a.5.5 0 0 1 .5-.5h2a.5.5 0 0 1 .5.5z" fill="#ffffff" transform="translate(-486 -29.5)"/>
    </g>
</svg>
