<svg xmlns="http://www.w3.org/2000/svg" viewBox="0 0 20 20" xml:space="preserve">
    <g fill="#ffffff">
        <path fill="#ffffff" d="M1240.95 1334.95v5h4v-5z" transform="translate(-1227.95 -1322.95)"/>
        <path fill="#ffffff" d="M1236.7 1327.953v1h2.25c.423 0 .74.247.882.576.142.33.125.711-.242 1.078l-4 4c-.633.633-.743 1.506-.45 2.178a1.969 1.969 0 0 0 1.803 1.176l3.006-.012v-1l-3.005.012a.95.95 0 0 1-.887-.576c-.144-.328-.127-.703.24-1.07l4-4c.633-.633.745-1.508.453-2.182a1.963 1.963 0 0 0-1.8-1.18z" transform="translate(-1227.95 -1322.95)"/>
        <path fill="#ffffff" d="M1233.453 1325.95a.502.502 0 0 0-.451.277l-2 4a.5.5 0 0 0 .447.722h4a.5.5 0 0 0 .447-.722l-2-4a.5.5 0 0 0-.443-.278z" transform="translate(-1227.95 -1322.95)"/>
    </g>
</svg>
