<svg xmlns="http://www.w3.org/2000/svg" viewBox="0 0 20 20" xml:space="preserve">
    <g fill="#ffffff">
        <g fill="#ffffff">
            <path fill="#ffffff" d="M259.492 578.992a.5.5 0 0 0-.492.508v11.92a.5.5 0 0 0 .113.404.5.5 0 0 0 .016.02.5.5 0 0 0 .017.017.5.5 0 0 0 .004.002.5.5 0 0 0 .034.032.5.5 0 0 0 .004.002.5.5 0 0 0 .394.103H271.5a.5.5 0 1 0 0-1H260v-11.5a.5.5 0 0 0-.508-.508zm1.95 3.086a.5.5 0 1 0 0 1h1a.5.5 0 1 0 0-1zm3.285.71a.5.5 0 0 0-.19.964l1 .416a.5.5 0 1 0 .385-.922l-1-.418a.5.5 0 0 0-.195-.04zm2.578 1.995a.5.5 0 0 0-.455.7l.418 1a.5.5 0 0 0 .923-.385l-.418-1a.5.5 0 0 0-.468-.315zm1.166 3.25a.5.5 0 0 0-.492.506v1a.5.5 0 1 0 1 0v-1a.5.5 0 0 0-.508-.506z" transform="translate(-255.5 -575.5)"/>
        </g>
    </g>
</svg>
