<svg xmlns="http://www.w3.org/2000/svg" viewBox="0 0 20 20" xml:space="preserve">
    <g fill="#ffffff">
        <path fill="#ffffff" d="M247.6 579a.6.6 0 0 0-.418 1.031l2.787 2.787a.6.6 0 0 0 .85-.85l-2.788-2.786a.6.6 0 0 0-.431-.182zm-.112 2.895a.6.6 0 0 0-.412.181l-1 1a.6.6 0 1 0 .848.848l1-1a.6.6 0 0 0-.436-1.03zm-3 3a.6.6 0 0 0-.412.181l-1 1a.6.6 0 1 0 .848.848l1-1a.6.6 0 0 0-.436-1.03zm-3 3a.6.6 0 0 0-.412.181l-1 1a.6.6 0 1 0 .848.848l1-1a.6.6 0 0 0-.436-1.03zM237.6 589a.6.6 0 0 0-.418 1.031l2.787 2.787a.6.6 0 0 0 .85-.85l-2.788-2.786a.6.6 0 0 0-.431-.182z" transform="translate(-233.997 -575.997)"/>
    </g>
</svg>
