<svg xmlns="http://www.w3.org/2000/svg" viewBox="0 0 20 20" xml:space="preserve">
    <g fill="#ffffff">
        <path fill="#ffffff" d="M-467.5 287a.5.5 0 0 0-.5.5v10a.5.5 0 0 0 .5.5h2.5v-1h-2v-9h9v2h1v-2.5a.5.5 0 0 0-.5-.5z" transform="matrix(1 0 0 -1 471 304)"/>
        <path fill="#ffffff" d="M-463.5 301a.5.5 0 0 1-.5-.5v-9a.5.5 0 0 1 .5-.5h9a.5.5 0 0 1 .5.5v4.5h-1v-4h-8v8h5v-2.5a.5.5 0 0 1 .5-.5h3.5v.5a.5.5 0 0 1-.147.354l-3 3a.5.5 0 0 1-.353.146z" transform="matrix(1 0 0 -1 471 304)"/>
    </g>
</svg>
