<svg xmlns="http://www.w3.org/2000/svg" viewBox="0 0 20 20" xml:space="preserve">
    <g fill="#ffffff">
        <path fill="#ffffff" d="M27.486 183.014a.5.5 0 0 0-.5.5v2a.5.5 0 0 0 .5.5h9a.5.5 0 0 0 .5-.5v-2a.5.5 0 0 0-.5-.5z" transform="matrix(0 -1 -1 0 195.521 43.982)"/>
        <path fill="#ffffff" d="M31.479 179.021a.5.5 0 0 0-.354.147l-1.992 1.992c-.491.471.236 1.198.707.707l1.846-1.846h8.293v8.293l-2.708 2.707H28.98l.007-4.007-1-.002-.007 4.507a.5.5 0 0 0 .5.502h9a.5.5 0 0 0 .353-.146l3-3a.5.5 0 0 0 .147-.354v-9a.5.5 0 0 0-.5-.5z" transform="matrix(0 -1 -1 0 195.521 43.982)"/>
    </g>
</svg>
