<svg xmlns="http://www.w3.org/2000/svg" viewBox="0 0 20 20" xml:space="preserve">
    <g fill="#ffffff">
        <g fill="#ffffff">
            <path fill="#ffffff" d="M237.5 284a.5.5 0 0 0-.5.5v4a.5.5 0 0 0 .5.5h4a.5.5 0 0 0 .5-.5v-4a.5.5 0 0 0-.5-.5z" transform="matrix(-1 0 0 1 254 -281)"/>
        </g>
        <path fill="#ffffff" d="M-614.5 272a.5.5 0 0 0-.5.5v3a.5.5 0 0 0 .5.5h.508v5h-.508a.5.5 0 0 0-.5.5v3a.5.5 0 0 0 .5.5h3a.5.5 0 0 0 .5-.5v-.5h5v.5a.5.5 0 0 0 .5.5h3a.5.5 0 0 0 .5-.5v-3a.5.5 0 0 0-.5-.5h-.492v-3.5a.5.5 0 1 0-1 0v3.5h-1.508a.5.5 0 0 0-.5.5v1.5h-5v-1.5a.5.5 0 0 0-.5-.5h-1.492v-5h1.492a.5.5 0 0 0 .5-.5V274h3.5a.5.5 0 1 0 0-1h-3.5v-.5a.5.5 0 0 0-.5-.5zm.5 1h2v2h-1.414a.5.5 0 0 0-.16 0H-614zm0 9h2v2h-2zm9 0h2v2h-2z" transform="matrix(0 -1 -1 0 288 -598)"/>
    </g>
</svg>
