<svg xmlns="http://www.w3.org/2000/svg" viewBox="0 0 20 20" xml:space="preserve">
    <g fill="#ffffff">
        <path fill="#ffffff" d="M495.492 199.992a.5.5 0 0 0-.492.508v6.793l-3.854 3.853a.5.5 0 1 0 .708.708l3.853-3.854h6.793a.5.5 0 1 0 0-1H496v-6.5a.5.5 0 0 0-.508-.508z" transform="translate(-486 -197)"/>
        <path fill="#ffffff" d="M499.49 202.996a.5.5 0 0 0-.344.15l-2 2a.5.5 0 1 0 .708.708l2-2a.5.5 0 0 0-.364-.858zM489.5 207a.5.5 0 1 0 0 1h3.25a.5.5 0 1 0 0-1zm5.992 2.742a.5.5 0 0 0-.492.508v3.25a.5.5 0 1 0 1 0v-3.25a.5.5 0 0 0-.508-.508z" transform="translate(-486 -197)"/>
    </g>
</svg>
