<svg xmlns="http://www.w3.org/2000/svg" viewBox="0 0 20 20" xml:space="preserve">
    <g fill="#ffffff">
        <path fill="#ffffff" d="M178.492 368a.5.5 0 0 0-.346.146l-2 2a.5.5 0 1 0 .708.708l1.146-1.147v7.586l-3 3V378.5a.5.5 0 0 0-.508-.508.5.5 0 0 0-.492.508v3a.5.5 0 0 0 .5.5h3a.5.5 0 1 0 0-1h-1.793l3-3h7.586l-1.147 1.146a.5.5 0 1 0 .708.708l2-2a.5.5 0 0 0 0-.708l-2-2a.5.5 0 0 0-.36-.152.5.5 0 0 0-.348.86l1.147 1.146H179v-7.293l1.146 1.147a.5.5 0 1 0 .708-.708l-2-2a.5.5 0 0 0-.362-.146z" transform="translate(-171 -365)"/>
    </g>
</svg>
