<svg xmlns="http://www.w3.org/2000/svg" viewBox="0 0 20 20" xml:space="preserve">
    <path fill="#ffffff" d="M7.491 3a.5.5 0 0 0-.5.5v1a.5.5 0 0 0 .147.353l.853.854v2.615l-4.386 5.362-.004.004c-.59.736-.708 1.57-.45 2.216A1.726 1.726 0 0 0 4.742 17h10.5c.709 0 1.337-.443 1.604-1.092.266-.647.144-1.49-.467-2.224l-4.387-5.362V5.707l.854-.854a.5.5 0 0 0 .146-.353v-1a.5.5 0 0 0-.5-.5zm.5 1h4v.293l-.853.853a.5.5 0 0 0-.147.354v3a.5.5 0 0 0 .114.316l4.5 5.5c0 .001 0 .003.002.004.428.515.431.92.312 1.21a.739.739 0 0 1-.678.47h-10.5a.707.707 0 0 1-.66-.467c-.116-.29-.11-.707.301-1.22l4.496-5.497a.5.5 0 0 0 .113-.316v-3a.5.5 0 0 0-.146-.354l-.854-.853zm0 8a.5.5 0 0 0-.376.17l-1.75 2a.5.5 0 0 0 .376.83h7.5a.5.5 0 0 0 .377-.83l-1.75-2a.5.5 0 0 0-.377-.17z"/>
</svg>
