<svg xmlns="http://www.w3.org/2000/svg" viewBox="0 0 20 20" xml:space="preserve">
  <g fill="#ffffff">
    <path fill="#ffffff" d="m 10.008,14.014677 a 0.5,0.5 0 0 0 0.492,-0.506 V 4.7156775 l 3.146,3.1470005 a 0.50027817,0.50027817 0 1 0 0.708,-0.707 L 10.396,3.1986775 a 0.5,0.5 0 0 0 -0.792,-0.002 0.5,0.5 0 0 0 -0.004,0.006 L 5.646,7.155678 a 0.5,0.5 0 1 0 0.707,0.707 L 9.5,4.7156775 v 8.7929995 a 0.5,0.5 0 0 0 0.508,0.506 z"/>
    <path fill="#ffffff" d="M216.492 104.992a.5.5 0 0 0-.492.508v3a.5.5 0 0 0 .5.5h12a.5.5 0 0 0 .5-.5v-3a.5.5 0 1 0-1 0v2.5h-11v-2.5a.5.5 0 0 0-.508-.508z" transform="matrix(-1 0 0 1 232.5 -92.003)"/>
  </g>
</svg>