<svg xmlns="http://www.w3.org/2000/svg" viewBox="0 0 20 20" xml:space="preserve">
    <g fill="#ffffff">
        <g fill="#ffffff">
            <path fill="#ffffff" d="M516.037 33c-1.12 0-2.037.917-2.037 2.037V36c-.04.706 1.04.706 1 0v-.963c0-.583.454-1.037 1.037-1.037h4.926c.583 0 1.037.454 1.037 1.037v5.059a1.54 1.54 0 0 0-1 1.441v1.926a.5.5 0 0 0 .5.5h.5V46h1v-2.037h.5a.5.5 0 0 0 .5-.5v-1.926a1.54 1.54 0 0 0-1-1.441v-5.059c0-1.12-.917-2.037-2.037-2.037z" transform="translate(-507 -30)"/>
        </g>
        <g fill="#ffffff">
            <path transform="translate(-609 -71)" fill="#ffffff" d="M616 85h1v1h-1zm-2 0h1v1h-1zm-.463-8c-.843 0-1.537.694-1.537 1.537v7.926c0 .843.694 1.537 1.537 1.537h5.926A1.547 1.547 0 0 0 621 86.463v-7.926c0-.843-.694-1.537-1.537-1.537zm0 7h5.926c.306 0 .537.231.537.537v1.926a.526.526 0 0 1-.537.537h-5.926a.526.526 0 0 1-.537-.537v-1.926c0-.306.231-.537.537-.537z"/>
        </g>
    </g>
</svg>
