<svg xmlns="http://www.w3.org/2000/svg" viewBox="0 0 20 20" xml:space="preserve">
    <g fill="#ffffff">
        <g fill="#ffffff">
            <path fill="#ffffff" d="M206.727 599a2.65 2.65 0 0 0-.575.05c-.75.15-1.447.579-2.006 1.138l-2.144 2.107-1.148-1.148a.5.5 0 0 0-.36-.153.5.5 0 0 0-.348.86l1.647 1.646-4.648 4.69a.5.5 0 0 0-.145.351v.793l-1.854 1.854a.5.5 0 1 0 .708.707l2-2a.5.5 0 0 0 .146-.354v-.795l4.502-4.537 1.293 1.293-4.504 4.539h-.791a.5.5 0 0 0-.354.146l-2 2a.5.5 0 1 0 .708.708l1.853-1.854h.793a.5.5 0 0 0 .355-.148l4.647-4.684 1.644 1.645a.5.5 0 1 0 .708-.708l-1.143-1.142 2.139-2.106.004-.004c.559-.558.986-1.255 1.136-2.005.15-.751-.019-1.584-.636-2.202a2.345 2.345 0 0 0-1.627-.687z" transform="translate(-192.017 -596.024)"/>
        </g>
    </g>
</svg>
