<svg xmlns="http://www.w3.org/2000/svg" viewBox="0 0 20 20" xml:space="preserve">
    <path fill="#ffffff" d="M9.992 3a.5.5 0 0 0-.346.147C8.245 4.548 6.69 5 4 5a.5.5 0 0 0-.5.5v3c0 2.463.68 4.068 1.787 5.275 1.107 1.208 2.574 2.025 4.178 3.135a.5.5 0 0 0 .285.09h.5a.5.5 0 0 0 .285-.09c1.604-1.11 3.071-1.927 4.178-3.135C15.82 12.568 16.5 10.963 16.5 8.5v-3A.5.5 0 0 0 16 5c-2.69 0-4.245-.452-5.646-1.853A.5.5 0 0 0 9.992 3zM10 4.07c1.426 1.269 3.167 1.798 5.5 1.866V8.5c0 2.287-.57 3.557-1.525 4.6-.927 1.011-2.307 1.814-3.889 2.9h-.172c-1.582-1.086-2.961-1.889-3.888-2.9C5.069 12.057 4.5 10.787 4.5 8.5V5.936c2.334-.068 4.075-.597 5.5-1.866z"/>
</svg>
