<svg xmlns="http://www.w3.org/2000/svg" viewBox="0 0 20 20" xml:space="preserve">
    <g fill="#ffffff">
        <path d="M447.5 599a.5.5 0 0 0-.5.5v10a.5.5 0 0 0 .5.5h13a.5.5 0 1 0 0-1H448v-9h9v7.5a.5.5 0 1 0 1 0v-8a.5.5 0 0 0-.5-.5zm9.992 11.742a.5.5 0 0 0-.492.508v1.25a.5.5 0 1 0 1 0v-1.25a.5.5 0 0 0-.508-.508z" fill="#ffffff" transform="translate(-444.004 -596.004)"/>
        <path d="M455.5 602c-.583 0-1.088.166-1.527.459-.44.293-.827.687-1.327 1.187l-1 1c-.5.5-.862.856-1.173 1.063-.311.207-.556.291-.973.291h-1v1h1c.583 0 1.088-.166 1.527-.459.44-.293.827-.687 1.327-1.187l1-1c.5-.5.862-.856 1.173-1.063.311-.207.556-.291.973-.291h1v-1z" fill="#ffffff" transform="translate(-444.004 -596.004)"/>
    </g>
</svg>
