<svg xmlns="http://www.w3.org/2000/svg" viewBox="0 0 20 20" xml:space="preserve">
    <g fill="#ffffff">
        <path fill="#ffffff" d="M74 477c-.71 0-1.273.364-1.621.822-.348.458-.547.995-.748 1.49-.202.496-.405.95-.65 1.24-.246.292-.49.448-.981.448h-1v1h1c.758 0 1.36-.344 1.746-.803.387-.458.606-1.005.81-1.51.205-.504.398-.967.62-1.26.222-.291.41-.427.824-.427.377 0 .584.165.838.557.254.391.47.989.69 1.615.218.626.438 1.281.794 1.828.356.547.934 1.006 1.682 1 .673-.005 1.209-.264 1.57-.621s.571-.778.772-1.147c.2-.369.389-.685.623-.892.233-.207.505-.34 1.031-.34h1v-1h-1c-.724 0-1.296.239-1.695.592-.4.353-.632.783-.838 1.162-.206.379-.387.707-.596.914-.209.207-.423.328-.875.332-.377.003-.58-.158-.834-.547-.253-.389-.47-.985-.69-1.611-.218-.626-.439-1.282-.794-1.83-.356-.549-.93-1.012-1.678-1.012z" transform="translate(-66 -470)"/>
        <path fill="#ffffff" d="m82.5 473-13 .004a.5.5 0 0 0-.5.5V480h1v-5.996L82 474v4h1v-4.5a.5.5 0 0 0-.5-.5zm-.5 8v5H70v-3h-1v3.5a.5.5 0 0 0 .5.5h13a.5.5 0 0 0 .5-.5V481z" transform="translate(-66 -470)"/>
    </g>
</svg>
