<svg xmlns="http://www.w3.org/2000/svg" viewBox="0 0 20 20" xml:space="preserve">
    <g fill="#ffffff">
        <path fill="#ffffff" d="M503.5 84a.5.5 0 0 0-.5.5v9.64c-.566-.207-1.286-.18-1.982.073-1.355.496-2.238 1.699-1.971 2.685.266.988 1.58 1.385 2.935.89 1.108-.407 1.932-1.304 2.01-2.188l.006-8.6H512v6.14c-.566-.207-1.286-.18-1.982.073-1.355.496-2.238 1.699-1.971 2.685.266.988 1.58 1.385 2.935.89 1.108-.407 1.932-1.304 2.01-2.188L513 84.5a.5.5 0 0 0-.5-.5z" transform="translate(-496 -81)"/>
    </g>
</svg>
