<svg xmlns="http://www.w3.org/2000/svg" viewBox="0 0 20 20" xml:space="preserve">
    <g fill="#ffffff">
        <g fill="#ffffff">
            <path fill="#ffffff" d="M501.492 52.992a.5.5 0 0 0-.492.508v1c-.01.676 1.01.676 1 0v-1a.5.5 0 0 0-.508-.508zm-6.008.008a.5.5 0 0 0-.338.146l-5 5a.467.467 0 0 0-.13.346l-.016.016V60.5c-.01.676 1.01.676 1 0V59h4.5a.5.5 0 0 0 .5-.5V54h.5c.676.01.676-1.01 0-1h-1v.002l-.016-.002zm3.016 0c-.676-.01-.676 1.01 0 1h1c.676.01.676-1.01 0-1zm2.992 2.992a.5.5 0 0 0-.492.508v1c-.01.676 1.01.676 1 0v-1a.5.5 0 0 0-.508-.508zm0 3a.5.5 0 0 0-.492.508v1c-.01.676 1.01.676 1 0v-1a.5.5 0 0 0-.508-.508zm-11 3a.5.5 0 0 0-.492.508v1c-.01.676 1.01.676 1 0v-1a.5.5 0 0 0-.508-.508zm11 0a.5.5 0 0 0-.492.508v1c-.01.676 1.01.676 1 0v-1a.5.5 0 0 0-.508-.508zm-11 3a.5.5 0 0 0-.492.508v1c-.01.676 1.01.676 1 0v-1a.5.5 0 0 0-.508-.508zm11 0a.5.5 0 0 0-.492.508v1c-.01.676 1.01.676 1 0v-1a.5.5 0 0 0-.508-.508zM492.5 66c-.676-.01-.676 1.01 0 1h1c.676.01.676-1.01 0-1zm3 0c-.676-.01-.676 1.01 0 1h1c.676.01.676-1.01 0-1zm3 0c-.676-.01-.676 1.01 0 1h1c.676.01.676-1.01 0-1z" transform="translate(-486 -50)"/>
        </g>
    </g>
</svg>
