<svg xmlns="http://www.w3.org/2000/svg" viewBox="0 0 20 20" xml:space="preserve">
    <g fill="#ffffff">
        <path fill="#ffffff" d="M475.25 53a.5.5 0 0 0-.213.047l-5.754 2.709a.5.5 0 0 0-.285.453v7.293a.5.5 0 0 0 .275.447l6.002 3.002a.5.5 0 0 0 .448 0l6.002-3.002a.5.5 0 0 0 .275-.447v-6.916a.5.5 0 0 0 0-.182v-.195a.5.5 0 0 0-.287-.453l-5.75-2.707a.5.5 0 0 0-.213-.049zm.111 1h.278l5.01 2.36-5.149 2.51-5.148-2.51zm-5.363 3.299 5.002 2.44v5.956l-5.002-2.502zM481 57.3v5.892l-5 2.5v-5.955z" transform="translate(-465.503 -50.002)"/>
    </g>
</svg>
