<svg xmlns="http://www.w3.org/2000/svg" viewBox="0 0 20 20" xml:space="preserve">
    <g fill="#ffffff">
        <path fill="#ffffff" d="M483.5 84a2.508 2.508 0 0 0-2.5 2.502.5.5 0 0 0 .5.498h3c.282 0 .5.218.5.5 0 .282-.218.5-.5.5l-3.5-.004c-.125 0-.854-.01-1.576.37-.722.38-1.424 1.23-1.424 2.63v.996c0 1.4.7 2.25 1.422 2.631.721.381 1.45.373 1.578.373v.518a2.507 2.507 0 0 0 2.5 2.49h3c1.375 0 2.5-1.125 2.5-2.5v-.508c.128 0 .855.008 1.576-.373.722-.38 1.424-1.23 1.424-2.63v-.995c0-1.568-.67-2.346-1.137-2.842a.5.5 0 1 0-.726.688c.47.499.863.831.863 2.154v.994c0 1.1-.425 1.502-.89 1.748-.467.246-.988.256-1.11.256l-3.5.004c-.676-.01-.676 1.01 0 1l2.5-.002v.506c0 .834-.666 1.5-1.5 1.5h-3a1.492 1.492 0 0 1-1.5-1.494V93c0-.639.205-1.123.541-1.459.337-.336.82-.541 1.459-.541h2.5c.725 0 1.371-.227 1.822-.678.451-.45.678-1.097.678-1.822v-2c0-1.375-1.125-2.5-2.5-2.5z" transform="translate(-475 -81.002)"/>
    </g>
</svg>
