<svg xmlns="http://www.w3.org/2000/svg" viewBox="0 0 20 20" xml:space="preserve">
    <path d="M10.507 3.002a1.861 1.861 0 0 0-1.305.357c-.288.22-.554.568-.62 1.033-.068.466.114 1.012.571 1.47l.147.146H5.007a1.502 1.502 0 0 0-1.299 2.25c.268.463.764.75 1.299.75H5.8l-2.647 2.646c-.79.79-.847 1.932-.293 2.656.22.288.568.554 1.034.621.465.068 1.009-.113 1.466-.57l1.405-1.402c.555 1.966 2.106 3.53 4.164 3.941a5.505 5.505 0 0 0 5.927-2.799 5.502 5.502 0 0 0-.96-6.482.5.5 0 0 0-.002-.004L11.86 3.654a2.205 2.205 0 0 0-1.353-.652zm-.096 1.002c.243.02.51.124.742.357a.5.5 0 0 0 .004.002l4.032 3.963a4.495 4.495 0 0 1 .785 5.305 4.493 4.493 0 0 1-4.848 2.289 4.522 4.522 0 0 1-3.61-3.973.5.5 0 0 0-.85-.303l-2.013 2.01c-.293.293-.471.308-.617.287a.65.65 0 0 1-.383-.238c-.21-.276-.258-.877.207-1.342l3.5-3.5a.5.5 0 0 0-.353-.853h-2a.499.499 0 1 1 0-1h5.5a.5.5 0 0 0 .353-.854l-1-1c-.292-.292-.31-.471-.289-.617a.653.653 0 0 1 .24-.383.887.887 0 0 1 .6-.15zm1.596 5.004a2.508 2.508 0 0 0-2.5 2.5c0 1.374 1.125 2.5 2.5 2.5s2.5-1.126 2.5-2.5c0-1.375-1.125-2.5-2.5-2.5zm0 1c.834 0 1.5.665 1.5 1.5 0 .834-.666 1.5-1.5 1.5-.835 0-1.5-.666-1.5-1.5 0-.835.665-1.5 1.5-1.5z" fill="#ffffff"/>
</svg>
