<svg xmlns="http://www.w3.org/2000/svg" viewBox="0 0 20 20" xml:space="preserve">
    <g fill="#ffffff">
        <path fill="#ffffff" d="M469.494 55.992a.5.5 0 0 0-.492.508v7a.5.5 0 1 0 1 0v-7a.5.5 0 0 0-.508-.508zm2 1a.5.5 0 0 0-.492.508v7a.5.5 0 1 0 1 0v-7a.5.5 0 0 0-.508-.508zm2 1a.5.5 0 0 0-.492.508v7a.5.5 0 1 0 1 0v-7a.5.5 0 0 0-.508-.508zm2 1a.5.5 0 0 0-.492.508v7a.5.5 0 1 0 1 0v-7a.5.5 0 0 0-.508-.508z" transform="translate(-465.502 -50)"/>
        <path fill="#ffffff" d="M471.496 54.992a.5.5 0 0 0-.494.506v.25a.5.5 0 1 0 1 .004v-.25a.5.5 0 0 0-.506-.51zm2 1a.5.5 0 0 0-.494.506l-.002.25a.5.5 0 1 0 1 .004l.002-.25a.5.5 0 0 0-.506-.51zm2 1a.5.5 0 0 0-.494.506l-.002.25a.5.5 0 1 0 1 .004l.002-.25a.5.5 0 0 0-.506-.51zm1.998 1a.5.5 0 0 0-.492.508v7a.5.5 0 1 0 1 0v-7a.5.5 0 0 0-.508-.508z" transform="translate(-465.502 -50)"/>
        <path fill="#ffffff" d="M473.496 53.992a.5.5 0 0 0-.494.506v.25a.5.5 0 1 0 1 .004v-.25a.5.5 0 0 0-.506-.51zm2 1a.5.5 0 0 0-.494.506l-.002.25a.5.5 0 1 0 1 .004l.002-.25a.5.5 0 0 0-.506-.51zm2 1a.5.5 0 0 0-.494.506l-.002.25a.5.5 0 1 0 1 .004l.002-.25a.5.5 0 0 0-.506-.51zm1.998 1a.5.5 0 0 0-.492.508v7a.5.5 0 1 0 1 0v-7a.5.5 0 0 0-.508-.508z" transform="translate(-465.502 -50)"/>
        <path fill="#ffffff" d="M475.496 52.992a.5.5 0 0 0-.494.506v.25a.5.5 0 1 0 1 .004v-.25a.5.5 0 0 0-.506-.51zm2 1a.5.5 0 0 0-.494.506l-.002.25a.5.5 0 1 0 1 .004l.002-.25a.5.5 0 0 0-.506-.51zm2 1a.5.5 0 0 0-.494.506l-.002.25a.5.5 0 1 0 1 .004l.002-.25a.5.5 0 0 0-.506-.51zm1.998 1a.5.5 0 0 0-.492.508v7a.5.5 0 1 0 1 0v-7a.5.5 0 0 0-.508-.508z" transform="translate(-465.502 -50)"/>
    </g>
</svg>
