<svg xmlns="http://www.w3.org/2000/svg" viewBox="0 0 20 20" xml:space="preserve">
    <g fill="#ffffff">
        <path fill="#ffffff" d="M521.5 84c-.657.01-.657.99 0 1h.25c.75 0 1.25.5 1.25 1.25v9.5c0 .75-.5 1.25-1.25 1.25h-.25c-.657.01-.657.99 0 1h6c.657-.01.657-.99 0-1h-.25c-.75 0-1.25-.5-1.25-1.25V91h2.5c.083 0 .225.057.334.166.109.109.166.25.166.334.009.657.99.657 1 0v-2a.5.5 0 0 0-1 0 .544.544 0 0 1-.166.334.544.544 0 0 1-.334.166H526v-5h4.75c.01-.295.616.168.863.434.247.265.387.62.387.816v.25c.009.657.99.657 1 0v-2a.5.5 0 0 0-.5-.5h-10.75z" transform="translate(-517.004 -81)"/>
    </g>
</svg>
