<svg xmlns="http://www.w3.org/2000/svg" viewBox="0 0 20 20" xml:space="preserve">
    <g fill="#ffffff">
        <g fill="#ffffff">
            <path fill="#ffffff" d="M430.48 53a.5.5 0 0 0-.384.197l-3.95 3.95a.5.5 0 0 0 .354.853h4a.5.5 0 0 0 .5-.5V54h6v3.5c-.01.676 1.01.676 1 0v-4a.5.5 0 0 0-.5-.5h-7.02zM426 59v7.5a.5.5 0 0 0 .5.5h4.25c.676.01.676-1.01 0-1H427v-7z" transform="translate(-423.009 -50)"/>
        </g>
        <g fill="#ffffff">
            <path fill="#ffffff" d="M435.502 58a.5.5 0 0 0-.506.508l.004 1.34c-.372.072-.719.22-1.021.427l-1.127-1.123a.5.5 0 0 0-.344-.15.5.5 0 0 0-.362.86l1.127 1.122a2.71 2.71 0 0 0-.43 1.016l-1.345.002a.501.501 0 0 0 .002 1.002l1.338-.004a2.7 2.7 0 0 0 .416 1.04l-1.108 1.108a.5.5 0 1 0 .706.706l1.103-1.102c.308.216.661.37 1.043.445l-.002 1.301a.501.501 0 1 0 1.002.004l.002-1.303c.386-.07.745-.216 1.057-.431l1.082 1.086a.5.5 0 1 0 .709-.706l-1.084-1.087a2.71 2.71 0 0 0 .431-1.061h1.305a.5.5 0 1 0 0-1h-1.31c-.075-.38-.23-.73-.446-1.037l1.102-1.104a.5.5 0 0 0-.348-.859.5.5 0 0 0-.357.154l-1.108 1.106a2.71 2.71 0 0 0-1.033-.414l-.004-1.34a.5.5 0 0 0-.494-.506zm-.002 3.3a1.199 1.199 0 1 1 .001 2.398 1.199 1.199 0 0 1-.001-2.397z" transform="translate(-423.009 -50)"/>
        </g>
    </g>
</svg>
