<svg xmlns="http://www.w3.org/2000/svg" viewBox="0 0 20 20" xml:space="preserve">
    <g fill="#ffffff">
        <path d="M411-65h1v3h-1zm-1 3h1v3h-1z" fill="#ffffff" transform="translate(-401 67.998)"/>
        <path d="M408.5-53.446c0 1.08-.892 1.95-2 1.95s-2-.87-2-1.95v-2.05h4z" fill="#ffffff" transform="translate(-401 67.998)"/>
        <path d="M404.5-58.496h4v3h-4zm4-5h-4v3h4z" fill="#ffffff" transform="translate(-401 67.998)"/>
        <path fill="#ffffff" d="M414-65h1v3h-1zm-1 3h1v3h-1zm4-3h1v3h-1zm-1 3h1v3h-1z" transform="translate(-401 67.998)"/>
    </g>
</svg>
