<svg xmlns="http://www.w3.org/2000/svg" viewBox="0 0 20 20" xml:space="preserve">
    <g fill="#ffffff">
        <path d="M264.5 688a3.5 3.5 0 1 0 0 7 3.5 3.5 0 0 0 0-7zm-.5 1h1v2h2v1h-2v2h-1v-2h-2v-1h2z" fill="#ffffff" transform="translate(-251 -685)"/>
        <g fill="#ffffff">
            <path fill="#ffffff" d="M366.484 579a.5.5 0 0 0-.338.146l-3 3a.5.5 0 0 0 .354.854h3a.5.5 0 0 0 .5-.5V580h1.5c.676.01.676-1.01 0-1h-2v.002l-.016-.002zM363 584v7.5a.5.5 0 0 0 .5.5h10a.5.5 0 0 0 .5-.5v-5c.01-.676-1.01-.676-1 0v4.5h-9v-7z" transform="translate(-360 -575)"/>
        </g>
    </g>
</svg>
