<svg xmlns="http://www.w3.org/2000/svg" viewBox="0 0 20 20" xml:space="preserve">
    <g fill="#ffffff">
        <path fill="#ffffff" d="M1339.5-270a.5.5 0 1 0 0 1h6a.5.5 0 1 0 0-1zm0 3a.5.5 0 1 0 0 1h6a.5.5 0 1 0 0-1zm0 3a.5.5 0 1 0 0 1h6a.5.5 0 1 0 0-1zm-7 3a.5.5 0 1 0 0 1h13a.5.5 0 1 0 0-1zm-.014 3a.5.5 0 1 0 0 1h13.045a.5.5 0 1 0 0-1z" transform="translate(-1329.008 274)"/>
        <path fill="#ffffff" d="M1332.492-263a.5.5 0 0 1-.492-.508v-5.088c0-.866.488-1.664 1.258-2.088a2.574 2.574 0 0 1 2.478 0 2.396 2.396 0 0 1 1.256 2.088v5.088c.01.676-1.01.676-1 0V-266H1333v2.492a.503.503 0 0 1-.508.508zm.508-4h2.992v-1.596c0-.493-.273-.954-.738-1.21a1.586 1.586 0 0 0-1.514 0c-.465.256-.74.717-.74 1.21z" transform="translate(-1329.008 274)"/>
    </g>
</svg>
