<svg xmlns="http://www.w3.org/2000/svg" viewBox="0 0 20 20" xml:space="preserve">
    <path fill="#ffffff" d="M16.996 6h-1V4l.854-.854c.091.09.146.216.146.354zm-1-2 .854-.853A.495.495 0 0 0 16.496 3h-9a.501.501 0 0 0-.353.146l-4 4.008a.5.5 0 0 0-.147.354V16.5a.5.5 0 0 0 .5.5h13a.5.5 0 0 0 .5-.5V14a4.101 4.101 0 0 0-1.136-2.844l-.01-.01L13.703 9h2.793c.677.01.677-1.01 0-1h-3.939a.5.5 0 0 0-.56.56v3.94c-.01.676 1.01.676 1 0V9.707l2.142 2.143c.548.57.857 1.342.857 2.15v2h-12V7.715L7.703 4z"/>
</svg>
