<svg xmlns="http://www.w3.org/2000/svg" viewBox="0 0 20 20" xml:space="preserve">
    <g fill="#ffffff">
        <path transform="translate(-981.49 -101.995)" d="M992.676 105.264a1 1 0 0 0-.729-.274c-.895.04-1.29 1.146-.623 1.744l1.373 1.266H986c-1.361-.028-1.361 2.028 0 2h3.092l-.008.006-4.75 4.248c-.995.89.339 2.382 1.334 1.492l2.34-2.094c.082 2.956 2.518 5.348 5.492 5.348 3.026 0 5.498-2.474 5.498-5.5a5.48 5.48 0 0 0-1.722-3.984zM993.5 110c1.945 0 3.5 1.555 3.5 3.5s-1.555 3.5-3.5 3.5a3.485 3.485 0 0 1-3.5-3.5c0-1.945 1.555-3.5 3.5-3.5z" fill="#ffffff"/>
        <path d="M332 629.154a1.865 1.846 0 0 1-1.865 1.846 1.865 1.846 0 0 1-1.865-1.846 1.865 1.846 0 0 1 1.865-1.846 1.865 1.846 0 0 1 1.865 1.846z" fill="#ffffff" transform="translate(-294.562 -572.71) scale(.92857)"/>
    </g>
</svg>
