<svg xmlns="http://www.w3.org/2000/svg" viewBox="0 0 20 20" xml:space="preserve">
    <g fill="#ffffff">
        <path fill="#ffffff" d="M1258.477-286a.5.5 0 0 0-.41.252l-4 7a.5.5 0 0 0 .433.748h8a.5.5 0 0 0 .434-.748l-4-7a.5.5 0 0 0-.457-.252z" transform="matrix(-1 0 0 1 1266 295)"/>
        <path fill="#ffffff" d="M1253.5-289c-.823 0-1.5.677-1.5 1.5s.677 1.5 1.5 1.5 1.5-.677 1.5-1.5-.677-1.5-1.5-1.5z" transform="matrix(-1 0 0 1 1266 295)"/>
        <path fill="#ffffff" d="M27.5 11a.5.5 0 0 0-.5.5v10.852l1-1.75V12h12v12h-3.1c.123.34.117.687.004 1H40.5a.5.5 0 0 0 .5-.5v-13a.5.5 0 0 0-.5-.5z" transform="translate(-24 -8)"/>
    </g>
</svg>
