<svg xmlns="http://www.w3.org/2000/svg" viewBox="0 0 20 20" xml:space="preserve">
    <g fill="#ffffff">
        <g fill="#ffffff">
            <path fill="#ffffff" d="M246.498 74a.5.5 0 0 0-.352.146c-.71.711-2.048 1.854-4.646 1.854a.5.5 0 0 0-.5.5V79h-.5c-.758 0-1.387.319-1.906.734-.52.416-.962.927-1.448 1.412-.396.397.311 1.104.708.708.455-.456.798-.644 1.181-.747.383-.102.84-.107 1.465-.107h.5v4.5c0 .757-.57 1.366-1.184 1.477-.307.055-.62.004-.941-.229-.321-.233-.654-.667-.9-1.406a.5.5 0 0 0-.975.158v1a.5.5 0 0 0 .146.354c1.08 1.078 2.048 1.156 2.854 1.146h.01c.365 0 .981-.055 1.678-.203.192-.046.36-.132.543-.197.414-.125.822-.202 1.242-.45 1.35-.796 2.527-2.39 2.527-5.15v-1h2.5a.5.5 0 0 0 .354-.146l1-1A.5.5 0 0 0 249.5 79H246v-2.53c.266.243.533.478.832.528.633.105 1.237-.068 1.766-.332 1.056-.528 1.9-1.457 2.256-1.812.453-.472-.236-1.16-.708-.708-.318.319-.841.674-1.4.764-.558.09-1.169-.023-1.889-.76a.5.5 0 0 0-.359-.15zm-2.51 3.014H244V83c0 1.655-.45 2.603-1.135 3.182-.204.172-.46.287-.726.39.51-.823.861-1.998.861-3.572v-5.982c.35.005.7.007.988-.004z" transform="translate(-234 -71)"/>
        </g>
    </g>
</svg>
