<svg xmlns="http://www.w3.org/2000/svg" viewBox="0 0 20 20" xml:space="preserve">
    <g fill="#ffffff">
        <path fill="#ffffff" d="M153 284v2h2v-2zm2 2v2h2v-2zm2 0h2v-2h-2zm2 0v2h2v-2zm2 0h2v-2h-2zm-6 8v-2h-2v2zm0-2h2v-2h-2zm0-2v-2h-2v2zm2 0h2v-2h-2zm2 0v2h2v-2zm2 0h2v-2h-2zm-2 2h-2v2h2z" transform="matrix(-1 0 0 1 169.998 -281)"/>
        <path fill="#ffffff" d="M163.998 292.004a3.005 3.005 0 0 0-2.998 2.998 3.005 3.005 0 0 0 2.998 2.998 3.005 3.005 0 0 0 2.998-2.998 3.005 3.005 0 0 0-2.998-2.998z" transform="matrix(-1 0 0 1 169.998 -281)"/>
    </g>
</svg>
