<svg xmlns="http://www.w3.org/2000/svg" viewBox="0 0 20 20" xml:space="preserve">
    <g fill="#ffffff">
        <path fill="#ffffff" d="M229.49 351.996a.5.5 0 0 0-.344.15l-.746.747-1.677-.84a.5.5 0 0 0-.623.146l-.6.801h-1a.5.5 0 0 0-.354.146l-1 1a.5.5 0 0 0-.146.354v2.793l-1.854 1.853a.5.5 0 0 0 0 .708l1 1a.5.5 0 1 0 .708-.708l-.647-.646 1.647-1.646a.5.5 0 0 0 .146-.354v-2.793l.707-.707h1.043a.5.5 0 0 0 .4-.2l.5-.665 1.627.812a.5.5 0 0 0 .577-.093l1-1a.5.5 0 0 0-.364-.858z" transform="translate(-213.004 -344.004)"/>
        <path fill="#ffffff" d="M223.492 347a.5.5 0 0 0-.346.146l-2 2a.5.5 0 0 0-.146.354v.793l-.707.707H218.5a.5.5 0 0 0-.354.146l-1 1a.5.5 0 0 0 0 .708l.854.853v2.586l-1.854 1.853a.5.5 0 0 0-.146.354v2a.5.5 0 1 0 1 0v-1.793l1.854-1.853a.5.5 0 0 0 .146-.354v-3a.5.5 0 0 0-.146-.354l-.647-.646.5-.5h1.793a.5.5 0 0 0 .354-.146l1-1a.5.5 0 0 0 .146-.354v-.793l1.5-1.5.646.647a.5.5 0 0 0 .354.146h3a.5.5 0 0 0 .5-.5v-.5h1.5a.5.5 0 1 0 0-1h-2a.5.5 0 0 0-.5.5v.5h-2.293l-.853-.854a.5.5 0 0 0-.362-.146z" transform="translate(-213.004 -344.004)"/>
        <path fill="#ffffff" d="M228.5 357a.5.5 0 0 0-.354.146l-1 1a.5.5 0 0 0 0 .708l.647.646-.647.646a.5.5 0 1 0 .708.708l1-1a.5.5 0 0 0 0-.708l-.647-.646.5-.5h.793a.5.5 0 1 0 0-1z" transform="translate(-213.004 -344.004)"/>
    </g>
</svg>
