<svg xmlns="http://www.w3.org/2000/svg" viewBox="0 0 20 20" xml:space="preserve">
    <g fill="#ffffff">
        <path fill="#ffffff" d="M176.496 335a2.508 2.508 0 0 0-2.5 2.5c0 1.375 1.125 2.5 2.5 2.5s2.5-1.125 2.5-2.5-1.125-2.5-2.5-2.5z" transform="translate(-170.998 -323)"/>
        <path fill="#ffffff" d="M181.543 326a.6.6 0 1 0 0 1.2h.977c1.24 0 2.319.34 3.068.966.75.625 1.213 1.527 1.213 2.852 0 2.628-2.351 5.184-6.324 5.789a.6.6 0 1 0 .181 1.185c4.409-.67 7.342-3.637 7.342-6.974 0-1.621-.627-2.926-1.643-3.774-1.015-.847-2.378-1.244-3.837-1.244z" transform="translate(-170.998 -323)"/>
    </g>
</svg>
