<svg xmlns="http://www.w3.org/2000/svg" viewBox="0 0 20 20" xml:space="preserve">
    <g fill="#ffffff">
        <g fill="#ffffff">
            <path fill="#ffffff" d="M267.502 451.986a.5.5 0 0 0-.348.86l2.66 2.66-2.673 2.896a.5.5 0 0 0-.133.34v.5a.5.5 0 0 0 .133.34l2.673 2.897-2.66 2.66a.5.5 0 1 0 .707.707l3-3a.5.5 0 0 0 .014-.694l-2.867-3.105v-.11l2.867-3.105a.5.5 0 0 0-.014-.693l-3-3a.5.5 0 0 0-.359-.153z" transform="translate(-255.004 -448.993)"/>
            <path fill="#ffffff" d="M263.502 451.986a.5.5 0 0 0-.348.86l2.66 2.66-2.673 2.896a.5.5 0 0 0-.133.34v.5a.5.5 0 0 0 .133.34l2.673 2.897-2.66 2.66a.5.5 0 1 0 .707.707l3-3a.5.5 0 0 0 .014-.694l-2.867-3.105v-.11l2.867-3.105a.5.5 0 0 0-.014-.693l-3-3a.5.5 0 0 0-.359-.153z" transform="translate(-255.004 -448.993)"/>
            <path fill="#ffffff" d="M259.502 451.986a.5.5 0 0 0-.348.86l2.66 2.66-2.673 2.896a.5.5 0 0 0-.133.34v.5a.5.5 0 0 0 .133.34l2.673 2.897-2.66 2.66a.5.5 0 1 0 .707.707l3-3a.5.5 0 0 0 .014-.694l-2.867-3.105v-.11l2.867-3.105a.5.5 0 0 0-.014-.693l-3-3a.5.5 0 0 0-.359-.153z" transform="translate(-255.004 -448.993)"/>
        </g>
    </g>
</svg>
