<svg xmlns="http://www.w3.org/2000/svg" viewBox="0 0 20 20" xml:space="preserve">
    <path fill="#ffffff" d="M9.492 2.993A.5.5 0 0 0 9 3.5v2.793L6.854 4.147a.5.5 0 1 0-.708.707L9 7.707v.582A1.99 1.99 0 0 0 8.008 10h-.301L4.854 7.147a.5.5 0 0 0-.36-.152.5.5 0 0 0-.348.859L6.293 10H3.5a.5.5 0 1 0 0 1h2.793l-2.147 2.147a.5.5 0 1 0 .708.707L7.707 11h.582c.347.59.982.993 1.711.993v.3l-2.854 2.854a.5.5 0 1 0 .708.707L10 13.707V16.5a.5.5 0 1 0 1 0v-2.793l2.146 2.147a.5.5 0 1 0 .708-.707L11 12.293v-.582a1.99 1.99 0 0 0 .992-1.71h.301l2.853 2.853a.5.5 0 1 0 .708-.707L13.707 10H16.5a.5.5 0 1 0 0-1h-2.793l2.147-2.146a.5.5 0 0 0-.364-.858.5.5 0 0 0-.344.15L12.293 9h-.582A1.99 1.99 0 0 0 10 8.008v-.3l2.854-2.854a.5.5 0 1 0-.708-.707L10 6.293V3.5a.5.5 0 0 0-.508-.507zM10 9.008c.554 0 .992.438.992.992a.984.984 0 0 1-.992.993.984.984 0 0 1-.992-.993c0-.554.438-.992.992-.992z"/>
</svg>
