<svg xmlns="http://www.w3.org/2000/svg" viewBox="0 0 20 20" xml:space="preserve">
    <g fill="#ffffff">
        <path fill="#ffffff" d="M-733.494-90.008a.5.5 0 0 0-.5.5v6.502h1v-6.002h6v-1zm12.502 7.002v6h-6.002v1h6.502a.5.5 0 0 0 .5-.5v-6.5z" transform="translate(736.993 93.007)"/>
        <path fill="#ffffff" d="M-724.492-90.008a.5.5 0 1 0 0 1h2.783l-4.139 4.149a.5.5 0 1 0 .71.705l4.146-4.157v2.803a.5.5 0 1 0 1 0v-4a.5.5 0 0 0-.5-.5zm-4.012 7.998a.5.5 0 0 0-.344.15l-4.146 4.137v-2.783a.5.5 0 1 0-1 0v4a.5.5 0 0 0 .5.5h4a.5.5 0 1 0 0-1h-2.803l4.154-4.144a.5.5 0 0 0-.36-.86z" transform="translate(736.993 93.007)"/>
    </g>
</svg>
