<svg xmlns="http://www.w3.org/2000/svg" viewBox="0 0 20 20" xml:space="preserve">
    <g fill="#ffffff">
        <path fill="#ffffff" d="M-699.504-90.01a.5.5 0 0 0-.344.15l-4.146 4.137v-2.783a.5.5 0 1 0-1 0v4a.5.5 0 0 0 .5.5h4a.5.5 0 1 0 0-1h-2.803l4.154-4.144a.5.5 0 0 0-.36-.86zm-11.988 8.002a.5.5 0 1 0 0 1h2.783l-4.139 4.149a.5.5 0 1 0 .71.705l4.146-4.157v2.803a.5.5 0 1 0 1 0v-4a.5.5 0 0 0-.5-.5z" transform="translate(715.995 93.005)"/>
        <path fill="#ffffff" d="M-710.494-88.008a.5.5 0 0 0-.5.5v4.502h1v-4.002h4v-1zm8.502 5.002v4h-4.002v1h4.502a.5.5 0 0 0 .5-.5v-4.5z" transform="translate(715.995 93.005)"/>
    </g>
</svg>
