<svg xmlns="http://www.w3.org/2000/svg" viewBox="0 0 20 20" xml:space="preserve">
    <path d="M10.5 3c-1.485 0-2.853.467-3.861 1.336S5 6.485 5 8v3.5c0 1.667.001 2.823-.89 3.938a.5.5 0 0 0-.11.312v.75a.5.5 0 0 0 .5.5H5c1.049 0 2.137-.634 3.459-2.043l1.668 1.875a.5.5 0 0 0 .746 0l1.627-1.83 1.627 1.83A.5.5 0 0 0 14.5 17h1a.5.5 0 0 0 .5-.5V8c0-1.515-.63-2.795-1.639-3.664C13.353 3.467 11.985 3 10.5 3zM7.492 7a.5.5 0 0 1 .362.146l2 2A.5.5 0 0 1 9.5 10h-2a.5.5 0 0 1-.5-.5v-2a.5.5 0 0 1 .492-.5zm5.992 0a.5.5 0 0 1 .516.5v2a.5.5 0 0 1-.5.5h-2a.5.5 0 0 1-.354-.854l2-2A.5.5 0 0 1 13.484 7z" fill="#ffffff"/>
</svg>
