<svg xmlns="http://www.w3.org/2000/svg" viewBox="0 0 20 20" xml:space="preserve">
    <g fill="#ffffff">
        <path fill="#ffffff" d="M349.5 578c-1.485 0-2.853.467-3.861 1.336S344 581.485 344 583v3c0 .833-.007 1.36-.111 1.787-.105.428-.303.805-.78 1.4a.5.5 0 0 0-.109.313v2a.5.5 0 0 0 .5.5h2a.5.5 0 0 0 .33-.123l1.647-1.443 1.42 1.42a.5.5 0 0 0 .353.146h.5a.5.5 0 0 0 .354-.146l1.396-1.397 1.396 1.397a.5.5 0 0 0 .354.146h1.25a.5.5 0 0 0 .5-.5V583c0-1.515-.63-2.795-1.639-3.664-1.007-.869-2.376-1.336-3.861-1.336zm0 1c1.275 0 2.407.402 3.209 1.094.802.691 1.291 1.661 1.291 2.906v8h-.543l-1.603-1.604a.5.5 0 0 0-.708 0L349.543 591h-.086l-1.603-1.604a.5.5 0 0 0-.684-.023L345.312 591H344v-1.389c.421-.56.732-1.06.861-1.586.146-.592.139-1.192.139-2.025v-3c0-1.245.489-2.215 1.291-2.906.802-.692 1.934-1.094 3.209-1.094zm-1.006 2.992a.5.5 0 0 0-.348.154l-.646.647-.646-.647a.5.5 0 0 0-.36-.152.5.5 0 0 0-.348.86l.647.646-.647.646a.5.5 0 1 0 .708.708l.646-.647.646.647a.5.5 0 1 0 .708-.708l-.647-.646.647-.646a.5.5 0 0 0-.36-.862zm4 0a.5.5 0 0 0-.348.154l-.646.647-.646-.647a.5.5 0 0 0-.36-.152.5.5 0 0 0-.348.86l.647.646-.647.646a.5.5 0 1 0 .708.708l.646-.647.646.647a.5.5 0 1 0 .708-.708l-.647-.646.647-.646a.5.5 0 0 0-.36-.862z" transform="translate(-339 -575)"/>
    </g>
</svg>
