<svg xmlns="http://www.w3.org/2000/svg" viewBox="0 0 20 20" xml:space="preserve">
    <g fill="#ffffff">
        <path fill="#ffffff" d="M-419.5 1827a.5.5 0 1 0 0 1h2.795l-2.969 2.969c.245.227.48.462.707.707l2.967-2.967v2.791a.5.5 0 1 0 1 0v-4a.5.5 0 0 0-.5-.5zm-2.984 6.78-3.506 3.505A1.968 1.968 0 0 0-427 1837c-1.099 0-2 .901-2 2s.901 2 2 2 2-.901 2-2c0-.368-.108-.71-.283-1.008l3.506-3.506a8.924 8.924 0 0 0-.707-.707zM-427 1838c.558 0 1 .442 1 1s-.442 1-1 1-1-.442-1-1 .442-1 1-1z" transform="translate(432 -1824)"/>
        <path fill="#ffffff" d="M-428.496 1829a.5.5 0 1 0 0 1A10.487 10.487 0 0 1-418 1840.492a.5.5 0 1 0 1 0c0-6.342-5.152-11.493-11.496-11.493z" transform="translate(432 -1824)"/>
    </g>
</svg>
