<svg xmlns="http://www.w3.org/2000/svg" viewBox="0 0 20 20" xml:space="preserve">
    <g fill="#ffffff">
        <path d="M348.514 409.988a1.5 1.5 0 0 0-.809.24c-4.667 2.917-5.705 8.486-5.705 12.272a1.5 1.5 0 1 0 3 0c0-.898.086-1.894.268-2.904-.259-3.401.85-7.043 3.87-9.471a1.5 1.5 0 0 0-.624-.137z" fill="#ffffff" transform="translate(-339.018 -407.006)"/>
        <path d="M351.514 409.988a1.5 1.5 0 0 0-.809.24c-4.715 2.947-5.335 8.777-3.584 12.864a1.5 1.5 0 1 0 2.758-1.184c-.384-.897-.59-1.915-.629-2.951-.672-3.147.291-6.612 2.904-8.824a1.5 1.5 0 0 0-.64-.145z" fill="#ffffff" transform="translate(-339.018 -407.006)"/>
        <path d="M354.514 409.988a1.5 1.5 0 0 0-.809.24c-4.915 3.072-4.915 10.472 0 13.543a1.5 1.5 0 1 0 1.59-2.542c-3.085-1.929-3.085-6.53 0-8.458a1.5 1.5 0 0 0-.781-2.783z" fill="#ffffff" transform="translate(-339.018 -407.006)"/>
    </g>
</svg>
