<svg xmlns="http://www.w3.org/2000/svg" viewBox="0 0 20 20" xml:space="preserve">
    <g fill="#ffffff">
        <path fill="#ffffff" d="M324.951 410.945a3.247 3.247 0 0 0-2.055.951c-1.169 1.17-1.161 2.911-.289 4.307.873 1.396 2.574 2.527 4.834 2.793 2.84.334 5.64-1.057 6.534-3.312a.5.5 0 1 0-.93-.368c-.672 1.697-3.053 2.974-5.486 2.688-1.99-.234-3.414-1.228-4.104-2.332-.69-1.104-.682-2.238.149-3.068.837-.838 1.988-.894 3.084-.264 1.095.63 2.082 1.98 2.316 3.969a.5.5 0 1 0 .992-.118c-.266-2.26-1.404-3.91-2.808-4.718-.703-.404-1.485-.59-2.237-.528zm3.541 9.05a.5.5 0 0 0-.377.187c-.312.377-.926.696-1.66.789a.5.5 0 1 0 .125.992c.94-.118 1.778-.51 2.305-1.145a.5.5 0 0 0-.393-.824z" transform="rotate(180 169.003 213.5)"/>
        <path fill="#ffffff" d="M331.506 410a.5.5 0 0 0-.5.5v3a.5.5 0 0 0 .5.5h3a.5.5 0 0 0 .5-.5v-3a.5.5 0 0 0-.5-.5zm-10 10a.5.5 0 0 0-.5.5v3a.5.5 0 0 0 .5.5h3a.5.5 0 0 0 .5-.5v-3a.5.5 0 0 0-.5-.5z" transform="rotate(180 169.003 213.5)"/>
    </g>
</svg>
