<svg xmlns="http://www.w3.org/2000/svg" viewBox="0 0 20 20" xml:space="preserve">
    <g fill="#ffffff">
        <path fill="#ffffff" d="M331.506 410a.5.5 0 0 0-.5.5v3a.5.5 0 0 0 .5.5h3a.5.5 0 0 0 .5-.5v-3a.5.5 0 0 0-.5-.5z" transform="rotate(180 168.997 213.5)"/>
        <path fill="#ffffff" d="M323.951 412.945a3.247 3.247 0 0 0-2.055.951c-1.169 1.17-1.161 2.911-.289 4.307.873 1.396 2.574 2.527 4.834 2.793 3.507.413 6.559-1.914 6.559-4.996v-.5a.5.5 0 1 0-1 0v.5c0 2.418-2.427 4.359-5.441 4.004-1.99-.234-3.414-1.228-4.104-2.332-.69-1.104-.682-2.238.149-3.068.837-.838 1.988-.894 3.083-.264 1.096.63 2.083 1.98 2.317 3.969a.5.5 0 1 0 .992-.118c-.266-2.26-1.404-3.91-2.808-4.718-.703-.404-1.485-.59-2.237-.528zm3.541 9.05a.5.5 0 0 0-.377.187c-.375.453-1.188.818-2.115.818h-1.5a.5.5 0 1 0 0 1h1.5c1.175 0 2.252-.418 2.885-1.182a.5.5 0 0 0-.393-.824z" transform="rotate(180 168.997 213.5)"/>
    </g>
</svg>
