<svg xmlns="http://www.w3.org/2000/svg" viewBox="0 0 20 20" xml:space="preserve">
    <g fill="#ffffff">
        <path d="M390.5 416c-.981 0-1.793.198-2.453.516-.008.175-.033.341-.033.521 0 4.068 2.585 6.612 5.3 6.951 2.023.297 2.405-2.767.372-2.976-1.285-.16-2.672-1.043-2.672-3.975 0-.375.023-.72.066-1.037z" fill="#ffffff" transform="translate(-381.002 -407.004)"/>
        <path fill="#ffffff" d="M395 410c-1.87 0-3.404.687-4.438 1.86a5.68 5.68 0 0 0-.783 1.165c.238-.016.478-.025.721-.025h.45c.112-.168.232-.33.363-.479.841-.954 2.056-1.521 3.687-1.521h.5c.676.01.676-1.01 0-1zm-4.5 4c-1.845 0-3.471.529-4.643 1.563C384.686 416.596 384 418.13 384 420v.5a.5.5 0 1 0 1 0v-.5c0-1.631.564-2.846 1.518-3.688.953-.84 2.327-1.312 3.982-1.312h1.008c3.278 0 5.299 2.177 5.498 3.57a.5.5 0 1 0 .988-.14c-.3-2.107-2.778-4.43-6.486-4.43z" transform="translate(-381.002 -407.004)"/>
    </g>
</svg>
