<svg xmlns="http://www.w3.org/2000/svg" viewBox="0 0 20 20" xml:space="preserve">
    <g fill="#ffffff">
        <path fill="#ffffff" d="M81.75 32.1c-1.433 0-2.574.6-3.328 1.414s-1.193 1.779-1.615 2.65c-.422.871-.826 1.647-1.309 2.147-.483.499-.99.789-1.998.789H69v2h4.5c1.477 0 2.648-.586 3.436-1.399.787-.813 1.246-1.787 1.671-2.666.426-.879.82-1.664 1.282-2.162.461-.498.92-.773 1.861-.773H83v-2z" transform="translate(-66 -29)"/>
        <g fill="#ffffff">
            <path fill="#ffffff" d="M27 536.9v1.2h.75c.646 0 1.302.38 1.88 1.043.58.663 1.048 1.586 1.29 2.49.207.773 1.367.463 1.16-.31-.288-1.075-.819-2.138-1.545-2.97-.726-.831-1.681-1.453-2.785-1.453zm13.25 9c-1.916 0-2.932.905-3.559 1.67-.313.383-.555.715-.798.918-.243.204-.46.313-.893.313-.401 0-.715-.204-1.055-.647-.339-.443-.64-1.103-.879-1.795-.238-.802-1.442-.385-1.132.393.26.754.585 1.515 1.058 2.133.473.618 1.159 1.115 2.008 1.115.691 0 1.257-.254 1.662-.594.406-.34.679-.733.96-1.076.56-.685 1.044-1.23 2.628-1.23H41v-1.2z" transform="translate(-24 -532.9)"/>
        </g>
    </g>
</svg>
