<svg xmlns="http://www.w3.org/2000/svg" viewBox="0 0 20 20" xml:space="preserve">
    <g fill="#ffffff">
        <path fill="#ffffff" d="M353.139 473.033c-.496-.045-1.039.16-1.493.613l-.75.75a.5.5 0 0 0 0 .708l3 3a.5.5 0 0 0 .708 0l.75-.75c.453-.454.658-.997.613-1.493-.045-.496-.305-.906-.613-1.215l-1-1c-.31-.308-.72-.568-1.215-.613zm-3.397 2.717a.5.5 0 0 0-.345.146l-6.25 6.25a.5.5 0 0 0-.131.233l-1 4a.5.5 0 0 0 .605.605l4-1a.5.5 0 0 0 .233-.13l6.25-6.25a.5.5 0 0 0 0-.708l-3-3a.5.5 0 0 0-.362-.146z" transform="translate(-338.987 -470.013)"/>
    </g>
</svg>
