<svg xmlns="http://www.w3.org/2000/svg" viewBox="0 0 20 20" xml:space="preserve">
    <g fill="#ffffff">
        <path fill="#ffffff" d="M457.5 473a.5.5 0 0 0-.5.5v.5h-8a2.01 2.01 0 0 0-1.393.576c-.368.36-.607.86-.607 1.426V485a2.001 2.001 0 0 0 2 2h2.5a.5.5 0 0 0 .5-.5v-9a.5.5 0 0 0-.5-.5H449c-.452 0-1-.471-1-.998 0-.264.138-.515.332-.7.193-.183.443-.302.668-.302h8v1.5a.5.5 0 0 0 .5.5h1.5v5h-1.5a.5.5 0 0 0-.5.5v1.5h-4v1h4v.5a.5.5 0 0 0 .5.5h3a.5.5 0 0 0 .5-.5v-3a.5.5 0 0 0-.5-.5h-.5v-5h.5a.5.5 0 0 0 .5-.5v-3a.5.5 0 0 0-.5-.5zm.5 1h2v2h-2zm0 9h2v2h-2z" transform="translate(-444 -470)"/>
    </g>
</svg>
