<svg xmlns="http://www.w3.org/2000/svg" viewBox="0 0 20 20" xml:space="preserve">
    <g fill="#ffffff">
        <g fill="#ffffff">
            <path fill="#ffffff" d="M478.492 473.008a.5.5 0 0 0-.5.5v3.008a.5.5 0 0 0 .5.5h3.008a.5.5 0 0 0 .5-.5v-3.008a.5.5 0 0 0-.5-.5h-3.008zm.5 1H481v2.008h-2.008zM478.5 478l2.996.006a.5.5 0 0 1 .5.498l.004 6.459c0 1.023-.806 2.037-2 2.037-1.195 0-1.996-1.022-1.996-2.043L478 478.5a.5.5 0 0 1 .5-.5zm1.5 6a1 1 0 0 0-1 1 1 1 0 0 0 1 1 1 1 0 0 0 1-1 1 1 0 0 0-1-1z" transform="matrix(-1 0 0 1 484.996 -470.012)"/>
            <path fill="#ffffff" d="M469.492 474.008a.5.5 0 0 0-.5.5v3.008a.5.5 0 0 0 .5.5h3.008a.5.5 0 0 0 .5-.5v-3.008a.5.5 0 0 0-.5-.5h-3.008zm.5 1H472v2.008h-2.008zm5.515 2.992a.5.5 0 0 1 .346.147l1 1a.5.5 0 0 1 .147.353v4a.5.5 0 0 1-.854.354l-3-3a.5.5 0 0 1 0-.707l2-2a.5.5 0 0 1 .361-.147z" transform="matrix(-1 0 0 1 484.996 -470.012)"/>
            <path fill="#ffffff" d="M468.492 483.008a.5.5 0 0 0-.5.5v3.008a.5.5 0 0 0 .5.5h3.008a.5.5 0 0 0 .5-.5v-3.008a.5.5 0 0 0-.5-.5h-3.008zm.5 1H471v2.008h-2.008zm4.522-1.007a.502.502 0 0 1 .34.145l3 3a.5.5 0 0 1-.354.854h-3a.5.5 0 0 1-.5-.5v-3a.5.5 0 0 1 .514-.5z" transform="matrix(-1 0 0 1 484.996 -470.012)"/>
        </g>
    </g>
</svg>
