<svg xmlns="http://www.w3.org/2000/svg" viewBox="0 0 20 20" xml:space="preserve">
    <path fill="#ffffff" d="M7.526 2.994a.5.5 0 0 0-.418.203C4.692 6.377 3.663 9.2 3.251 11.484c-.413 2.284-.217 4.05-.219 5.006a.5.5 0 1 0 1 .004c.002-1.085-.184-2.691.203-4.832.387-2.142 1.341-4.796 3.668-7.86a.5.5 0 0 0-.377-.808zm4.955 3.002a.5.5 0 0 0-.304.127c-4.124 3.585-5.172 7.536-5.172 10.376a.5.5 0 1 0 1 0c0-2.6.913-6.22 4.828-9.623a.5.5 0 0 0-.352-.88zm4.026 5.003c-3.017-.006-5.495 2.471-5.502 5.499a.5.5 0 1 0 1 .003c.006-2.484 2.03-4.507 4.5-4.502a.5.5 0 1 0 .002-1z"/>
</svg>
