<svg xmlns="http://www.w3.org/2000/svg" viewBox="0 0 20 20" xml:space="preserve">
    <g fill="#ffffff">
        <path fill="#ffffff" d="M-98.58 578c-1.409 0-2.42 1.163-2.42 2.5a.5.5 0 1 0 1 0c0-.872.53-1.5 1.42-1.5.89 0 1.58.677 1.58 1.5s-.69 1.5-1.58 1.5h-4.914a.5.5 0 1 0 0 1h4.914c1.409 0 2.58-1.114 2.58-2.5s-1.171-2.5-2.58-2.5zm-8.916.004c-1.386 0-2.5 1.171-2.5 2.58s1.163 2.418 2.5 2.418a.5.5 0 1 0 0-1c-.872 0-1.5-.529-1.5-1.418 0-.89.677-1.58 1.5-1.58s1.498.69 1.498 1.58v4.912a.5.5 0 1 0 1 0v-4.912c0-1.409-1.113-2.58-2.498-2.58zm6.988 5.988a.5.5 0 0 0-.492.508v4.912c0 1.409 1.114 2.58 2.5 2.58s2.5-1.171 2.5-2.58-1.163-2.42-2.5-2.42a.5.5 0 1 0 0 1c.872 0 1.5.53 1.5 1.42 0 .89-.677 1.58-1.5 1.58s-1.5-.69-1.5-1.58V584.5a.5.5 0 0 0-.508-.508zm-6.908 3.004c-1.409 0-2.58 1.115-2.58 2.5 0 1.386 1.171 2.5 2.58 2.5s2.42-1.163 2.42-2.5a.5.5 0 1 0-1 0c0 .872-.53 1.5-1.42 1.5-.89 0-1.58-.677-1.58-1.5s.69-1.5 1.58-1.5h4.912a.5.5 0 1 0 0-1z" transform="translate(112.998 -574.998)"/>
    </g>
</svg>
