<svg xmlns="http://www.w3.org/2000/svg" viewBox="0 0 20 20" xml:space="preserve">
    <g fill="#ffffff">
        <path d="M193.5 93c-1.5 0-2.5 1.3-2.5 2.5v9c0 1.2 1 2.5 2.5 2.5h9c.7 0 .7-1 0-1h-9c-1 0-1.5-.8-1.5-1.5s.5-1.5 1.5-1.5h9c.3 0 .5-.2.5-.5v-9c0-.3-.2-.5-.5-.5h-9zm4 1c1.4 0 2.5 1.1 2.5 2.5 0 1.2-.9 2.2-2 2.4v1.1h-1v-1.5c0-.3.2-.5.5-.5.8 0 1.5-.7 1.5-1.5s-.7-1.5-1.5-1.5-1.5.7-1.5 1.5v.5h-1v-.5c0-1.4 1.1-2.5 2.5-2.5zm-.5 7h1v1h-1v-1zm-3.5 3c-.3 0-.5.2-.5.5s.2.5.5.5h9c.3 0 .5-.2.5-.5s-.2-.5-.5-.5h-9z" fill="#ffffff" transform="translate(-187 -90)"/>
    </g>
</svg>
