<svg xmlns="http://www.w3.org/2000/svg" viewBox="0 0 20 20" xml:space="preserve">
    <g fill="#ffffff">
        <path fill="#ffffff" d="M160.504 263.004c-.82 0-1.496.677-1.496 1.498a1.5 1.5 0 0 0 1.002 1.406c-.004.178-.01.363-.01.586 0 .858.305 1.55.732 2.09.427.54.958.944 1.453 1.344.99.8 1.815 1.48 1.815 3.029 0 1.04-.415 1.757-1.059 2.264-.644.507-1.54.779-2.441.779-.902 0-1.797-.272-2.441-.78-.644-.506-1.059-1.223-1.059-2.263v-1.25l1.146 1.147c.472.49 1.198-.236.708-.708l-2-2a.5.5 0 0 0-.854.354v2.457c0 1.322.585 2.377 1.441 3.05.856.675 1.96.993 3.059.993 1.098 0 2.203-.318 3.059-.992.856-.674 1.441-1.729 1.441-3.051 0-1.932-1.176-2.99-2.186-3.807-.504-.408-.973-.779-1.296-1.187-.324-.409-.518-.835-.518-1.469 0-.207.005-.407.01-.59.574-.21.99-.76.99-1.402 0-.82-.675-1.498-1.496-1.498zm0 1a.49.49 0 0 1 .496.498.49.49 0 0 1-.496.498.49.49 0 0 1-.496-.498.49.49 0 0 1 .496-.498z" transform="translate(-150.5 -260.002)"/>
    </g>
</svg>
