<svg xmlns="http://www.w3.org/2000/svg" viewBox="0 0 20 20" xml:space="preserve">
    <g fill="#ffffff">
        <g fill="#ffffff">
            <path fill="#ffffff" d="M27.5 347a.5.5 0 0 0-.5.5v3.5h1v-3h3v-1zm9.5 0v1h3v3h1v-3.5a.5.5 0 0 0-.5-.5zm-10 10v3.5a.5.5 0 0 0 .5.5H31v-1h-3v-3zm13 0v3h-3v1h3.5a.5.5 0 0 0 .5-.5V357z" transform="translate(-24 -344)"/>
        </g>
        <g fill="#ffffff">
            <path fill="#ffffff" d="M653.5-359a.5.5 0 0 0-.5.5v9a.5.5 0 0 0 .5.5h9a.5.5 0 0 0 .5-.5v-9a.5.5 0 0 0-.5-.5zm.5 1h8v8h-8z" transform="matrix(-1 0 0 1 668 364)"/>
            <path fill="#ffffff" d="M656-357c-.546 0-1 .454-1 1s.454 1 1 1 1-.454 1-1-.454-1-1-1zm3.504 1a.5.5 0 0 0-.443.262l-3 5.5a.5.5 0 0 0 .439.738h5.75a.5.5 0 0 0 .447-.723l-2.75-5.5a.5.5 0 0 0-.443-.277z" transform="matrix(-1 0 0 1 668 364)"/>
        </g>
    </g>
</svg>
