<svg xmlns="http://www.w3.org/2000/svg" viewBox="0 0 20 20" xml:space="preserve">
    <g fill="#ffffff">
        <g fill="#ffffff">
            <path fill="#ffffff" d="M453 170v2h-2.5a.5.5 0 1 0 0 1h2.92a.5.5 0 0 0 .162 0h.838a.5.5 0 0 0 .162 0h2.918a.5.5 0 1 0 0-1H455v-2zm-5.5-11a.5.5 0 0 0-.5.5v9a.5.5 0 0 0 .5.5h13a.5.5 0 0 0 .5-.5v-9a.5.5 0 0 0-.5-.5zm.5 1h12v8h-12z" transform="translate(-444 -156.003)"/>
        </g>
        <g fill="#ffffff">
            <path fill="#ffffff" d="M520 349c-.546 0-1 .454-1 1s.454 1 1 1 1-.454 1-1-.454-1-1-1zm-4.504 1.05a.45.45 0 0 0-.398.249l-2.75 5.5a.45.45 0 0 0 .402.652h5.75a.45.45 0 0 0 .395-.666l-3-5.5a.45.45 0 0 0-.399-.234z" transform="translate(-507 -344)"/>
        </g>
    </g>
</svg>
