<svg xmlns="http://www.w3.org/2000/svg" viewBox="0 0 20 20" xml:space="preserve">
    <g fill="#ffffff">
        <path fill="#ffffff" d="M174.5 32a.5.5 0 0 0-.5.5v13a.5.5 0 0 0 .5.5h13a.5.5 0 0 0 .5-.5v-13a.5.5 0 0 0-.5-.5zm.5 1h12v12h-12z" transform="translate(-171 -29)"/>
        <path fill="#ffffff" d="M174.588 32.006a.502.502 0 0 0-.588.494v13a.5.5 0 0 0 .5.5h13a.5.5 0 0 0 .354-.854l-13-13a.493.493 0 0 0-.266-.14zM178.496 38a.5.5 0 0 1 .451.277l3 6a.5.5 0 0 1-.447.723h-6a.5.5 0 0 1-.447-.723l3-6a.5.5 0 0 1 .443-.277z" transform="translate(-171 -29)"/>
        <path fill="#ffffff" d="M184.5 35c.823 0 1.5.677 1.5 1.5s-.677 1.5-1.5 1.5-1.5-.677-1.5-1.5.677-1.5 1.5-1.5z" transform="translate(-171 -29)"/>
    </g>
    <path fill="#ffffff" d="M7.503 9a.5.5 0 0 0-.45.278l-3 6a.5.5 0 0 0 .447.723h6a.5.5 0 0 0 .447-.723l-3-6a.5.5 0 0 0-.444-.277z"/>
</svg>
