<svg xmlns="http://www.w3.org/2000/svg" viewBox="0 0 20 20" xml:space="preserve">
    <g fill="#ffffff">
        <path fill="#ffffff" d="M141.516 82a.5.5 0 0 0-.5.5v5a.5.5 0 0 0 .5.5h3.984a.5.5 0 0 0 .5-.5v-5a.5.5 0 0 0-.5-.5zm.5 1H145v4h-2.984zm-9.5-1a.5.5 0 0 0-.5.5v5a.5.5 0 0 0 .5.5h3.984a.5.5 0 0 0 .5-.5v-5a.5.5 0 0 0-.5-.5zm.5 1H136v4h-2.984zm8.5-9a.5.5 0 0 0-.5.5v5a.5.5 0 0 0 .5.5h3.984a.5.5 0 0 0 .5-.5v-5a.5.5 0 0 0-.5-.5zm.5 1H145v4h-2.984zm-9.5-1a.5.5 0 0 0-.5.5v5a.5.5 0 0 0 .5.5h3.984a.5.5 0 0 0 .5-.5v-5a.5.5 0 0 0-.5-.5zm.5 1H136v4h-2.984z" transform="translate(-129.008 -71)"/>
    </g>
</svg>
