<svg xmlns="http://www.w3.org/2000/svg" viewBox="0 0 20 20" xml:space="preserve">
    <g fill="#ffffff">
        <path fill="#ffffff" d="M222.492 95.006a.5.5 0 0 0-.492.506v8.793l-3.146-3.147a.5.5 0 1 0-.708.707l3.958 3.957a.5.5 0 0 0 .792.002.5.5 0 0 0 .004-.006l3.954-3.953a.5.5 0 1 0-.707-.707L223 104.305v-8.793a.5.5 0 0 0-.508-.506z" transform="matrix(-1 0 0 1 232.5 -92.003)"/>
        <path fill="#ffffff" d="M216.492 104.992a.5.5 0 0 0-.492.508v3a.5.5 0 0 0 .5.5h12a.5.5 0 0 0 .5-.5v-3a.5.5 0 1 0-1 0v2.5h-11v-2.5a.5.5 0 0 0-.508-.508z" transform="matrix(-1 0 0 1 232.5 -92.003)"/>
    </g>
</svg>
