<svg xmlns="http://www.w3.org/2000/svg" viewBox="0 0 20 20" xml:space="preserve">
    <g fill="#ffffff">
        <path fill="#ffffff" d="M228.5 201a.5.5 0 0 0-.475.342c-.751 2.255-1.618 4.942-3.29 7.033-1.674 2.091-4.112 3.625-8.235 3.625a.5.5 0 1 0 0 1c4.377 0 7.189-1.716 9.016-4 1.741-2.177 2.609-4.812 3.336-7h.648a.5.5 0 1 0 0-1z" transform="translate(-213 -196.498)"/>
        <path fill="#ffffff" d="M218.998 199.996c-.792 0-1.705.427-1.98 1.36a.5.5 0 1 0 .959.283c.124-.421.58-.643 1.021-.643.264 0 .517.09.695.248.179.159.304.38.307.756.001.398-.254.757-.764 1.074a.5.5 0 0 0 0 .848c.51.317.766.678.764 1.076-.004.375-.129.596-.307.754a1.052 1.052 0 0 1-.695.248c-.442 0-.897-.22-1.021-.64a.5.5 0 1 0-.96.28c.276.933 1.19 1.36 1.981 1.36.486 0 .978-.16 1.361-.502.384-.341.635-.871.641-1.494a.5.5 0 0 0 0-.002c.003-.618-.343-1.1-.777-1.504.434-.404.78-.886.777-1.504a.5.5 0 0 0 0-.002c-.006-.623-.257-1.153-.64-1.494a2.039 2.039 0 0 0-1.362-.502z" transform="translate(-213 -196.498)"/>
    </g>
</svg>
