<svg xmlns="http://www.w3.org/2000/svg" viewBox="0 0 20 20" xml:space="preserve">
    <g fill="#ffffff">
        <path fill="#ffffff" d="M166 201c-1.597 0-2.86.788-3.861 1.88-1.003 1.094-1.793 2.499-2.575 3.874-.78 1.375-1.553 2.72-2.44 3.69-.89.969-1.846 1.556-3.124 1.556h-.5a.5.5 0 1 0 0 1h.5c1.597 0 2.86-.788 3.861-1.88 1.003-1.094 1.793-2.499 2.575-3.874.78-1.375 1.553-2.72 2.44-3.69.89-.969 1.846-1.556 3.124-1.556h.5a.5.5 0 1 0 0-1z" transform="translate(-150 -197)"/>
        <path fill="#ffffff" d="M154.5 200a.5.5 0 0 0-.5.5v2a.5.5 0 0 0 .5.5h2a.5.5 0 0 0 .5-.5v-.5h3.5a.5.5 0 1 0 0-1H157v-.5a.5.5 0 0 0-.5-.5zm.5 1h1v.42a.5.5 0 0 0 0 .162V202h-1zm8.508 10a.5.5 0 0 0-.5.5v.5h-3.5a.5.5 0 1 0 0 1h3.5v.5a.5.5 0 0 0 .5.5h2a.5.5 0 0 0 .5-.5v-2a.5.5 0 0 0-.5-.5zm.5 1h1v1h-1v-.424a.5.5 0 0 0 0-.152z" transform="translate(-150 -197)"/>
    </g>
</svg>
