<svg xmlns="http://www.w3.org/2000/svg" viewBox="0 0 20 20" xml:space="preserve">
    <g fill="#ffffff">
        <path fill="#ffffff" d="M249.5 201a.5.5 0 0 0-.498.455c-.24 2.645-1.326 5.29-3.236 7.26-1.911 1.97-4.638 3.285-8.266 3.285a.5.5 0 1 0 0 1c3.872 0 6.895-1.435 8.984-3.59 1.976-2.038 3.06-4.712 3.399-7.41h.617a.5.5 0 1 0 0-1z" transform="translate(-234 -196.496)"/>
        <path fill="#ffffff" d="M238.467 199.994a.5.5 0 0 0-.451.385l-1 4a.5.5 0 0 0 .484.621h2.5v1.5c-.01.676 1.01.676 1 0v-4c-.009-.657-.99-.657-1 0v1.5h-1.86l.844-3.379a.5.5 0 0 0-.517-.627z" transform="translate(-234 -196.496)"/>
    </g>
</svg>
