<svg xmlns="http://www.w3.org/2000/svg" viewBox="0 0 20 20" xml:space="preserve">
    <g fill="#ffffff">
        <path fill="#ffffff" d="M186.5 201a.5.5 0 0 0-.4.2c-1.548 2.063-2.854 4.801-4.586 6.99-1.733 2.188-3.812 3.81-7.014 3.81a.5.5 0 1 0 0 1c3.548 0 5.969-1.878 7.799-4.19 1.778-2.245 3.067-4.884 4.47-6.81h.731a.5.5 0 1 0 0-1z" transform="translate(-171 -196.498)"/>
        <path fill="#ffffff" d="M176.484 199.996a.5.5 0 0 0-.338.147l-2 2a.5.5 0 1 0 .708.707l1.146-1.147v4.797a.5.5 0 1 0 1 0v-6.004a.5.5 0 0 0-.516-.5z" transform="translate(-171 -196.498)"/>
    </g>
</svg>
