<svg xmlns="http://www.w3.org/2000/svg" viewBox="0 0 20 20" xml:space="preserve">
    <g fill="#ffffff">
        <path fill="#ffffff" d="M270.5 201a.5.5 0 0 0-.5.5c0 3.443-1.075 6.032-3.023 7.791-1.948 1.76-4.814 2.709-8.477 2.709a.5.5 0 1 0 0 1c3.837 0 6.971-1 9.148-2.967 2.066-1.866 3.15-4.637 3.264-8.033h.588a.5.5 0 1 0 0-1z" transform="translate(-254.999 -196.498)"/>
        <path fill="#ffffff" d="M258.5 199.996a.5.5 0 0 0-.5.5v2.004a.5.5 0 0 0 .5.5h1.5c.417 0 1 .45 1 1.5s-.58 1.494-1.002 1.496c-.526.003-.86-.339-1.05-.723a.5.5 0 1 0-.895.446c.31.623.975 1.282 1.949 1.277 1.079-.005 1.998-1.046 1.998-2.496s-.917-2.5-2-2.5h-1v-1.004h2.5a.5.5 0 1 0 0-1z" transform="translate(-254.999 -196.498)"/>
    </g>
</svg>
