<svg xmlns="http://www.w3.org/2000/svg" viewBox="0 0 20 20" xml:space="preserve">
    <path fill="#ffffff" d="M10 4c-1.248 0-2.245.834-3 1.935-.755 1.1-1.324 2.514-1.764 3.916-.879 2.804-1.23 5.586-1.23 5.586a.5.5 0 1 0 .992.127s.348-2.718 1.193-5.414c.423-1.348.973-2.687 1.633-3.649C8.484 5.54 9.2 5 10 5c.801 0 1.516.54 2.176 1.502.66.962 1.21 2.3 1.633 3.649.845 2.696 1.193 5.414 1.193 5.414a.5.5 0 1 0 .992-.127s-.351-2.782-1.23-5.586C14.324 8.45 13.755 7.037 13 5.936 12.245 4.835 11.248 4 10 4z"/>
</svg>
