<svg xmlns="http://www.w3.org/2000/svg" viewBox="0 0 20 20" xml:space="preserve">
    <path fill="#ffffff" d="M3.437 4a.5.5 0 0 0 .05 1h.333c.01.426.05 2.523.336 5.057.157 1.39.375 2.782.697 3.867.162.543.345 1.01.592 1.381.247.372.614.695 1.094.695.392 0 .749-.208.977-.48.227-.272.37-.6.486-.963.23-.726.346-1.614.469-2.488.122-.874.252-1.733.449-2.317.098-.291.214-.508.314-.62.1-.113.145-.132.252-.132.168 0 .293.085.487.39.193.307.377.785.562 1.284.185.5.372 1.02.645 1.463.272.443.71.863 1.306.863.42 0 .776-.235.992-.492.216-.256.348-.538.471-.789s.239-.47.336-.59c.098-.119.118-.129.201-.129.086 0 .187.081.399.326.106.123.224.27.394.407.17.137.418.267.707.267h.457c.052 0 .031.005.121 0a.5.5 0 1 0-.056-1c.075-.004-.017 0-.067 0h-.455c-.01 0-.017.004-.08-.047a2.649 2.649 0 0 1-.265-.28c-.221-.256-.57-.673-1.155-.673-.416 0-.767.239-.976.494-.21.256-.337.537-.46.786-.121.249-.237.467-.337.586-.1.118-.128.134-.227.134-.15 0-.268-.081-.457-.388s-.37-.785-.556-1.286c-.186-.5-.376-1.024-.657-1.468-.28-.444-.728-.858-1.33-.858-.396 0-.76.199-1 .469-.24.27-.393.6-.515.965-.246.73-.368 1.62-.49 2.496-.123.876-.246 1.738-.432 2.324-.094.293-.206.512-.3.623-.092.111-.123.123-.21.123-.027 0-.109-.02-.262-.25-.153-.23-.32-.622-.465-1.111-.29-.977-.508-2.335-.662-3.695-.306-2.72-.363-5.453-.363-5.453a.5.5 0 0 0-.5-.49h-.8a.5.5 0 0 0-.05 0z"/>
</svg>
