<svg xmlns="http://www.w3.org/2000/svg" viewBox="0 0 20 20" xml:space="preserve">
    <path fill="#ffffff" d="M15.5 4a.5.5 0 0 0-.479.355c-.979 3.264-1.657 6.017-2.414 7.895-.378.939-.777 1.653-1.2 2.102-.425.448-.838.648-1.407.648-.82 0-1.772-.854-2.742-1.85-.485-.498-.973-1.011-1.496-1.42C5.239 11.322 4.662 11 4 11h-.5a.5.5 0 1 0 0 1H4c.323 0 .71.178 1.146.52.438.341.908.828 1.397 1.33C7.521 14.854 8.583 16 10 16c.836 0 1.567-.362 2.133-.96.566-.6 1-1.418 1.402-2.417.768-1.908 1.431-4.573 2.334-7.623h.631a.5.5 0 1 0 0-1z"/>
</svg>
