<svg xmlns="http://www.w3.org/2000/svg" viewBox="0 0 20 20" xml:space="preserve">
    <path fill="#ffffff" d="M3.5 4a.5.5 0 1 0 0 1H4c.117 0 .218.035.361.158s.31.337.47.633c.318.592.614 1.495.87 2.555.514 2.118.892 4.864 1.307 7.24a.5.5 0 0 0 .982.008c.242-1.267.606-2.196.989-2.77.382-.574.74-.761 1.021-.761.281 0 .639.187 1.021.761.383.574.747 1.503.989 2.77a.5.5 0 0 0 .96.076c.242-.662.48-1.142.684-1.422.204-.28.325-.31.346-.31.02 0 .142.03.346.31.203.28.442.76.683 1.422a.5.5 0 0 0 .471.33h1a.5.5 0 1 0 0-1h-.691c-.21-.52-.417-1.015-.655-1.342-.296-.408-.675-.72-1.154-.72-.48 0-.858.312-1.154.72-.102.14-.187.4-.282.574-.22-.702-.402-1.5-.71-1.962-.493-.739-1.135-1.207-1.854-1.207-.719 0-1.361.468-1.854 1.207-.208.313-.313.907-.482 1.33-.305-1.872-.591-3.835-.992-5.489-.267-1.1-.566-2.062-.961-2.795-.197-.366-.419-.677-.697-.916A1.574 1.574 0 0 0 4 4z"/>
</svg>
