<svg xmlns="http://www.w3.org/2000/svg" viewBox="0 0 20 20" xml:space="preserve">
    <g fill="#ffffff">
        <g fill="#ffffff">
            <path fill="#ffffff" d="m-109.996 533.996-.004 7.111c-1.679.255-2.994 1.647-2.994 3.395a3.504 3.504 0 0 0 3.496 3.498 3.506 3.506 0 0 0 3.498-3.498c0-1.75-1.319-3.142-3-3.395l.004-7.11zm.498 8.01a2.49 2.49 0 0 1 2.498 2.496 2.49 2.49 0 0 1-2.498 2.498 2.49 2.49 0 0 1-2.496-2.498 2.488 2.488 0 0 1 2.496-2.496z" transform="rotate(90 213.996 336.998)"/>
            <path fill="#ffffff" d="M-108.5 534v3h1a.5.5 0 0 0 .5-.5v-2a.5.5 0 0 0-.5-.5z" transform="rotate(90 213.996 336.998)"/>
        </g>
        <path fill="#ffffff" d="M430.494 284.994a.5.5 0 0 0-.348.86l2.647 2.646-2.647 2.646a.5.5 0 1 0 .708.708l2.646-2.647 2.646 2.647a.5.5 0 1 0 .708-.708l-2.647-2.646 2.647-2.646a.5.5 0 1 0-.708-.708l-2.646 2.647-2.646-2.647a.5.5 0 0 0-.36-.152z" transform="translate(-420.001 -281.995)"/>
    </g>
</svg>
