<svg xmlns="http://www.w3.org/2000/svg" viewBox="0 0 20 20" xml:space="preserve">
    <g fill="#ffffff">
        <path fill="#ffffff" d="M352.5 305a3.5 3.5 0 1 0 0 7 3.5 3.5 0 0 0 0-7zm-.5 1h1v2h2v1h-2v2h-1v-2h-2v-1h2z" transform="translate(-338.998 -301.999)"/>
        <g fill="#ffffff">
            <path fill="#ffffff" d="m-109.996 533.996-.004 7.111c-1.679.255-2.994 1.647-2.994 3.395a3.504 3.504 0 0 0 3.496 3.498 3.506 3.506 0 0 0 3.498-3.498c0-1.75-1.319-3.142-3-3.395l.004-7.11zm.498 8.01a2.49 2.49 0 0 1 2.498 2.496 2.49 2.49 0 0 1-2.498 2.498 2.49 2.49 0 0 1-2.496-2.498 2.488 2.488 0 0 1 2.496-2.496z" transform="rotate(90 214 336.998)"/>
            <path fill="#ffffff" d="M-108.5 534v3h1a.5.5 0 0 0 .5-.5v-2a.5.5 0 0 0-.5-.5z" transform="rotate(90 214 336.998)"/>
        </g>
    </g>
</svg>
