<svg xmlns="http://www.w3.org/2000/svg" viewBox="0 0 20 20" xml:space="preserve">
    <g fill="#ffffff">
        <g fill="#ffffff">
            <path fill="#ffffff" d="M386.486 221a.5.5 0 0 0-.492.508v7.556a2.505 2.505 0 0 0-1.994 2.444 2.501 2.501 0 0 0 2.494 2.494 2.501 2.501 0 0 0 2.494-2.494c0-1.201-.859-2.21-1.994-2.444v-7.556a.5.5 0 0 0-.508-.508zm1.008 1.008v3h1a.5.5 0 0 0 .5-.5v-2a.5.5 0 0 0-.5-.5zm-1 8.006c.832 0 1.494.662 1.494 1.494 0 .831-.662 1.494-1.494 1.494a1.486 1.486 0 0 1-1.494-1.494c0-.832.663-1.494 1.494-1.494z" transform="translate(-380.997 -218.007)"/>
        </g>
        <g fill="#ffffff">
            <path fill="#ffffff" d="m-97.896 538.396-1.708 1.708.75.75a.5.5 0 0 0 .708 0l.525-.526.475-.474a.5.5 0 0 0 0-.708zm-.615-1.4a.5.5 0 0 0-.343.151l-4.412 4.41a2.996 2.996 0 0 0-1.315-.527.5.5 0 0 0-.1-.006.5.5 0 0 0-.04.996c.717.101 1.321.58 1.583 1.256a1.998 1.998 0 0 1-2.216 2.693.5.5 0 1 0-.178.985 3.002 3.002 0 0 0 3.328-4.041 2.983 2.983 0 0 0-.353-.65l4.41-4.409a.5.5 0 0 0-.364-.857z" transform="translate(113.997 -530)"/>
        </g>
    </g>
</svg>
