<svg xmlns="http://www.w3.org/2000/svg" viewBox="0 0 20 20" xml:space="preserve">
    <g fill="#ffffff">
        <path fill="#ffffff" d="M241.484 452a.5.5 0 0 0-.338.146l-3 3a.5.5 0 0 0 .354.854h3a.5.5 0 0 0 .5-.5v-3a.5.5 0 0 0-.516-.5zm1.516 0v5h-5v1.5a.5.5 0 0 0 .146.354l2 2a.5.5 0 0 0 .708 0l2.646-2.647 1.646 1.647a.5.5 0 0 0 .708 0l2.646-2.647.646.647 1 1a.5.5 0 0 0 .854-.354v-6a.5.5 0 0 0-.5-.5zm4.492 9a.5.5 0 0 0-.346.146l-2.646 2.647-1.646-1.647a.5.5 0 0 0-.708 0l-2.646 2.647-1.646-1.647a.5.5 0 0 0-.854.354v2a.5.5 0 0 0 .5.5h12a.5.5 0 0 0 .5-.5v-2a.5.5 0 0 0-.146-.354l-1-1-1-1a.5.5 0 0 0-.362-.146z" transform="translate(-234 -449)"/>
    </g>
</svg>
