<svg xmlns="http://www.w3.org/2000/svg" viewBox="0 0 20 20" xml:space="preserve">
    <g fill="#ffffff">
        <g fill="#ffffff">
            <path fill="#ffffff" d="M79.57 578.018c-.798-.038-1.571.276-2.16.865l-.486.488c-.616.575-.935 1.354-.893 2.154a.5.5 0 1 0 .998-.05c-.027-.515.156-.98.576-1.373a.5.5 0 0 0 .012-.012l.5-.5c.412-.412.89-.599 1.404-.574.515.024 1.085.27 1.64.824.554.555.809 1.135.837 1.652.028.517-.152.985-.574 1.38a.5.5 0 0 0-.014.01l-.5.5c-.412.413-.877.604-1.396.604a.5.5 0 1 0 0 1c.78 0 1.525-.318 2.103-.896l.488-.488a2.748 2.748 0 0 0 .893-2.165c-.044-.802-.436-1.609-1.13-2.304-.697-.696-1.5-1.077-2.298-1.115zm-.83 3.728a.5.5 0 0 0-.344.15l-1 1a.5.5 0 1 0 .708.708l1-1a.5.5 0 0 0-.364-.858zm-6.18 3.272a2.743 2.743 0 0 0-2.175.89l-.489.488c-.588.589-.903 1.36-.865 2.159.038.798.42 1.603 1.115 2.299.696.695 1.504 1.084 2.307 1.128a2.742 2.742 0 0 0 2.162-.89l.489-.488c.578-.58.896-1.323.896-2.104a.5.5 0 1 0-1 0c0 .52-.191.984-.604 1.396l-.5.5a.5.5 0 0 0-.011.012c-.394.422-.86.605-1.377.576-.517-.028-1.1-.283-1.654-.838-.555-.554-.798-1.124-.823-1.638-.024-.515.16-.993.573-1.405l.5-.5a.5.5 0 0 0 .011-.011c.397-.424.867-.607 1.387-.576a.5.5 0 1 0 .059-.998zm1.68 1.228a.5.5 0 0 0-.344.15l-1 1a.5.5 0 1 0 .708.708l1-1a.5.5 0 0 0-.364-.858z" transform="translate(-66.016 -575.01)"/>
        </g>
        <path fill="#ffffff" d="M301.494 515.994a.5.5 0 0 0-.348.86L312.293 528h-3.043a.5.5 0 1 0 0 1h4.19a.5.5 0 0 0 .56-.56v-4.19a.5.5 0 1 0-1 0v3.043l-11.146-11.147a.5.5 0 0 0-.36-.152z" transform="translate(-297.016 -512.01)"/>
    </g>
</svg>
