<svg xmlns="http://www.w3.org/2000/svg" viewBox="0 0 20 20" xml:space="preserve">
    <g fill="#ffffff">
        <path fill="#ffffff" d="M343.506 388.992a.5.5 0 0 0-.356.147l-1.004 1.007a.5.5 0 0 0-.093.577l3 6a.5.5 0 1 0 .894-.446l-2.84-5.68.606-.605h6.47l4.723 10.39-.61.61-5.985.008-.358-.726a.5.5 0 1 0-.896.441l.494 1.006A.5.5 0 0 0 348 402l6.506-.008a.5.5 0 0 0 .353-.146l1-1a.5.5 0 0 0 .102-.561l-5-11a.5.5 0 0 0-.455-.293zm5.5 6.002a1 1 0 0 0-1 1 1 1 0 0 0 .033.26l-.143.142a.5.5 0 1 0 .708.708l.144-.145a1 1 0 0 0 .258.035 1 1 0 0 0 1-1 1 1 0 0 0-1-1zm-2.51 2.992a.5.5 0 0 0-.344.153l-1 1a.5.5 0 1 0 .707.707l1-1a.5.5 0 0 0-.363-.86zm-3.002 3a.5.5 0 0 0-.344.153l-1 1.004a.5.5 0 1 0 .71.705l1-1.004a.5.5 0 0 0-.366-.858z" transform="translate(-339.002 -385.997)"/>
    </g>
</svg>
