<svg xmlns="http://www.w3.org/2000/svg" viewBox="0 0 20 20" xml:space="preserve">
    <g fill="#ffffff">
        <path fill="#ffffff" d="M325.055 389.004c-.668-.018-1.218 0-1.578.002h-.002c-.345 0-.655.064-.916.228a1.202 1.202 0 0 0-.514.721c-.139.564.037 1.137.312 1.768.551 1.262 1.634 2.771 2.735 4.103a.5.5 0 1 0 .77-.638c-1.068-1.292-2.116-2.783-2.589-3.866-.236-.54-.295-.975-.257-1.127.018-.075.026-.085.074-.115s.166-.074.386-.074a.5.5 0 0 0 .002 0c1.544-.006 5.588-.202 8.145 2.355 2.557 2.558 2.36 6.6 2.354 8.143a.5.5 0 0 0 0 .002c0 .22-.045.339-.075.387-.03.047-.037.057-.113.076-.151.037-.588-.022-1.129-.258-1.082-.472-2.574-1.522-3.865-2.59a.5.5 0 1 0-.637.772c1.332 1.1 2.84 2.183 4.102 2.734.63.276 1.204.451 1.767.313.282-.07.558-.252.723-.514.164-.261.226-.573.227-.916v-.004c.006-1.445.294-5.912-2.647-8.854-2.207-2.206-5.272-2.594-7.275-2.648zm3.95 4.99a1 1 0 0 0-1 1 1 1 0 0 0 .034.258l-.887.887a.5.5 0 1 0 .707.707l.887-.887a1 1 0 0 0 .26.035 1 1 0 0 0 1-1 1 1 0 0 0-1-1zm-3.509 3.992a.5.5 0 0 0-.344.153l-1 1a.5.5 0 1 0 .707.707l1-1a.5.5 0 0 0-.363-.86zm-3.002 3a.5.5 0 0 0-.344.153l-1 1.004a.5.5 0 1 0 .71.705l1-1.004a.5.5 0 0 0-.366-.858z" transform="translate(-317.992 -386)"/>
    </g>
</svg>
