<svg xmlns="http://www.w3.org/2000/svg" viewBox="0 0 20 20" xml:space="preserve">
    <g fill="#ffffff">
        <path fill="#ffffff" d="M327.498 368.037a.5.5 0 0 0-.346.147l-7 7a.5.5 0 0 0 0 .707l7 7a.5.5 0 0 0 .707 0l7.032-7a.5.5 0 0 0 0-.707l-7.032-7a.5.5 0 0 0-.36-.147zm.008 1.207 6.322 6.293-6.322 6.293-6.293-6.293zm0 4.793c-.822 0-1.5.678-1.5 1.5 0 .823.678 1.5 1.5 1.5.823 0 1.5-.677 1.5-1.5 0-.822-.677-1.5-1.5-1.5zm0 1c.282 0 .5.218.5.5 0 .282-.218.5-.5.5a.493.493 0 0 1-.5-.5c0-.282.218-.5.5-.5z" transform="translate(-317.521 -365.537)"/>
    </g>
</svg>
