<svg xmlns="http://www.w3.org/2000/svg" viewBox="0 0 20 20" xml:space="preserve">
    <g fill="#ffffff">
        <path d="M303.5 369a.5.5 0 0 0-.354.146l-3 3a.5.5 0 0 0-.146.354v9a.5.5 0 0 0 .5.5h9a.5.5 0 0 0 .354-.146l3-3a.5.5 0 0 0 .146-.354v-9a.5.5 0 0 0-.5-.5zm.207 1H312v8.293L309.293 381H301v-8.293zm1.799 5.037c-.823 0-1.5.678-1.5 1.5 0 .823.677 1.5 1.5 1.5.822 0 1.5-.677 1.5-1.5 0-.822-.678-1.5-1.5-1.5zm0 1c.282 0 .5.218.5.5 0 .282-.218.5-.5.5a.493.493 0 0 1-.5-.5c0-.282.218-.5.5-.5z" fill="#ffffff" transform="translate(-296.5 -365.5)"/>
        <path d="M312.146 369.146 309.293 372H300.5v1h8.5l.006 8.537h1l-.006-8.83 2.854-2.853z" fill="#ffffff" transform="translate(-296.5 -365.5)"/>
    </g>
</svg>
