<svg xmlns="http://www.w3.org/2000/svg" viewBox="0 0 20 20" xml:space="preserve">
    <g fill="#ffffff">
        <path fill="#ffffff" d="M313.486 389.01a.5.5 0 0 0-.132.015l-10.645 2.702a.5.5 0 0 0-.018.006 2.38 2.38 0 0 0-1.007.601c-.58.58-.794 1.43-.739 2.334.056.904.377 1.887.942 2.838a.5.5 0 0 0 0 .002c.054.092.11.184.17.275a.5.5 0 1 0 .84-.545 7.144 7.144 0 0 1-.15-.242c-.495-.832-.76-1.68-.804-2.388-.043-.709.13-1.25.448-1.567.162-.163.362-.284.584-.35l9.81-2.49-2.49 9.815a1.33 1.33 0 0 1-.35.58c-.323.323-.909.496-1.672.426-.762-.07-1.668-.383-2.527-.932a.5.5 0 1 0-.539.842c.98.626 2.02.998 2.977 1.086.956.088 1.86-.107 2.468-.715.272-.272.489-.612.604-1.008a.5.5 0 0 0 .004-.018l2.701-10.644a.5.5 0 0 0-.475-.623zM308 393.994a1 1 0 0 0-1 1 1 1 0 0 0 .035.256l-.888.889a.5.5 0 1 0 .707.707l.886-.887a1 1 0 0 0 .26.035 1 1 0 0 0 1-1 1 1 0 0 0-1-1zm-3.51 3.992a.5.5 0 0 0-.344.153l-1 1a.5.5 0 1 0 .708.707l1-1a.5.5 0 0 0-.364-.86zm-3.002 3a.5.5 0 0 0-.342.153l-1 1.004a.5.5 0 1 0 .708.705l1-1.004a.5.5 0 0 0-.366-.858z" transform="translate(-296.978 -386.012)"/>
    </g>
</svg>
