<svg xmlns="http://www.w3.org/2000/svg" viewBox="0 0 20 20" xml:space="preserve">
    <g fill="#ffffff">
        <path fill="#ffffff" d="M285.492 388.992a.5.5 0 0 0-.492.508v2.654a3.98 3.98 0 0 0-1.955 1.184l-2.191-2.192a.5.5 0 1 0-.707.707l2.32 2.32A3.941 3.941 0 0 0 282 396h-2.5c-.667 0-.667 1 0 1h2.64a3.98 3.98 0 0 0 1.192 1.96l-2.186 2.186c-.471.472.236 1.18.708.708l2.316-2.317c.55.286 1.162.463 1.822.463H286v2.5c0 .667 1 .667 1 0v-2.646a3.982 3.982 0 0 0 1.953-1.194l2.194 2.194c.471.505 1.214-.237.707-.708l-2.325-2.324a3.934 3.934 0 0 0 .458-1.814V396h2.513c.667 0 .667-1 0-1h-2.66a3.983 3.983 0 0 0-1.186-1.947l2.2-2.2a.5.5 0 1 0-.708-.707l-2.33 2.33a3.942 3.942 0 0 0-1.816-.462V389.5a.5.5 0 0 0-.508-.508zm.5 4.022a2.987 2.987 0 0 1 2.994 2.994 2.986 2.986 0 0 1-2.994 2.992 2.984 2.984 0 0 1-2.992-2.992 2.986 2.986 0 0 1 2.992-2.994z" transform="translate(-276 -385.996)"/>
    </g>
</svg>
