<svg xmlns="http://www.w3.org/2000/svg" viewBox="0 0 20 20" xml:space="preserve">
    <g fill="#ffffff">
        <g fill="#ffffff">
            <path fill="#ffffff" d="M557.5 620a.5.5 0 1 0 0 1h6.992a.5.5 0 1 0 0-1zm0 2a.5.5 0 1 0 0 1h6.992a.5.5 0 1 0 0-1zm0 2a.5.5 0 1 0 0 1h6.992a.5.5 0 1 0 0-1zm0 5a.5.5 0 1 0 0 1h6.992a.5.5 0 1 0 0-1zm0 2a.5.5 0 1 0 0 1h6.992a.5.5 0 1 0 0-1zm0 2a.5.5 0 1 0 0 1h7a.5.5 0 1 0 0-1z" transform="translate(-548 -617)"/>
            <path fill="#ffffff" d="M553.484 620a.5.5 0 0 0-.338.146l-2 2a.5.5 0 1 0 .708.708l1.146-1.147v3.793a.5.5 0 1 0 1 0v-5a.5.5 0 0 0-.516-.5zm-.484 8c-.792 0-1.705.427-1.98 1.36a.5.5 0 1 0 .96.28c.125-.42.578-.64 1.02-.64.32 0 .6.063.754.166.154.103.25.212.254.588 0 .207-.076.328-.297.521-.222.194-.578.403-.967.645-.388.242-.811.524-1.154.935a2.55 2.55 0 0 0-.59 1.643.5.5 0 0 0 .5.502h3a.5.5 0 1 0 0-1h-2.322c.061-.162.068-.37.18-.504.222-.268.552-.502.915-.728.364-.227.758-.44 1.098-.739.34-.298.64-.739.637-1.281a.5.5 0 0 0 0-.002c-.006-.624-.29-1.14-.7-1.412-.409-.272-.877-.334-1.308-.334z" transform="translate(-548 -617)"/>
        </g>
    </g>
</svg>
