<svg xmlns="http://www.w3.org/2000/svg" viewBox="0 0 20 20" xml:space="preserve">
    <path fill="#ffffff" d="M13.712 2.986a3.19 3.19 0 0 0-2.33.925L9.246 6.046c-1.143-.082-2.16-.036-2.98.303-.9.371-1.597 1.034-2.08 1.928-.97 1.787-1.202 4.465-1.202 8.238a.5.5 0 0 0 .5.5c3.773 0 6.451-.23 8.238-1.197.894-.484 1.557-1.178 1.928-2.078.339-.821.385-1.841.303-2.987l2.135-2.135c1.277-1.277 1.21-3.387-.055-4.652a3.374 3.374 0 0 0-2.322-.98zm-.01 1.004a2.37 2.37 0 0 1 1.625.683c.882.883.925 2.368.054 3.238l-2.25 2.25a.5.5 0 0 0-.144.405c.12 1.19.023 2.102-.262 2.793-.285.69-.747 1.184-1.479 1.58-1.275.69-3.503.963-6.505 1.027l3.103-3.103c.196.094.411.152.64.152.823 0 1.5-.678 1.5-1.5 0-.823-.677-1.5-1.5-1.5-.822 0-1.5.677-1.5 1.5 0 .23.06.445.153.64L4.034 15.26c.064-3.002.342-5.23 1.033-6.506.396-.731.89-1.194 1.58-1.478.69-.285 1.6-.382 2.787-.262a.5.5 0 0 0 .404-.145l2.25-2.25a2.2 2.2 0 0 1 1.614-.628z"/>
</svg>
