<svg xmlns="http://www.w3.org/2000/svg" viewBox="0 0 20 20" xml:space="preserve">
    <g fill="#ffffff">
        <path d="M162.479 32c-.756 0-1.403.283-1.834.75-.309.334-.374.801-.461 1.25h-.934c-1.749 0-3.25 1.268-3.25 3 0 .034.01.066.012.1.32-.066.65-.1.988-.1 2.033 0 3.794 1.242 4.572 3h2.678c.73 0 1.411-.231 1.92-.668A2.4 2.4 0 0 0 167 37.5c0-1.192-.946-2.063-2.043-2.307-.002-.488.012-1.1-.246-1.744-.304-.756-1.055-1.449-2.232-1.449z" fill="#ffffff" transform="translate(-150 -29)"/>
        <path fill="#ffffff" d="M157 38c-2.203 0-4 1.797-4 4 0 2.203 1.797 4 4 4 2.203 0 4-1.797 4-4 0-2.203-1.797-4-4-4zm0 1c1.663 0 3 1.337 3 3s-1.337 3-3 3-3-1.337-3-3 1.337-3 3-3z" transform="translate(-150 -29)"/>
        <path fill="#ffffff" d="M154.5 32c.823 0 1.5.677 1.5 1.5s-.677 1.5-1.5 1.5-1.5-.677-1.5-1.5.677-1.5 1.5-1.5z" transform="translate(-150 -29)"/>
    </g>
</svg>
