<svg xmlns="http://www.w3.org/2000/svg" viewBox="0 0 20 20" xml:space="preserve">
    <g fill="#ffffff">
        <path d="M34 32c-3.86 0-7 3.14-7 7s3.14 7 7 7 7-3.14 7-7-3.14-7-7-7zm0 1c3.32 0 6 2.68 6 6s-2.68 6-6 6-6-2.68-6-6 2.68-6 6-6z" fill="#ffffff" transform="translate(-24 -29)"/>
        <path d="M28.508 38.244a.5.5 0 0 0-.352.858C29.522 40.478 30.902 41 32.5 41H34c2.575 0 3.848-.615 4.723-1.053a.5.5 0 1 0-.446-.894C37.402 39.49 36.425 40 34 40h-1.5c-1.402 0-2.403-.363-3.633-1.602a.5.5 0 0 0-.36-.154z" fill="#ffffff" transform="translate(-24 -29)"/>
    </g>
</svg>
