<svg xmlns="http://www.w3.org/2000/svg" viewBox="0 0 20 20" xml:space="preserve">
    <g fill="#ffffff">
        <path transform="translate(-255.002 -92)" d="M263.504 94.996c-.253 0-.505.17-.5.508L263 97h-2.5a.5.5 0 0 0-.5.5v2.5l-1.494-.002c-.676-.01-.676 1.01 0 1L260 101v2l-1.494-.002c-.676-.01-.676 1.01 0 1L260 104v2.5a.5.5 0 0 0 .5.5h2.5l.004 1.496c-.01.676 1.01.676 1 0L264 107h2l.004 1.496c-.01.676 1.01.676 1 0L267 107h2.5a.5.5 0 0 0 .5-.5V104l1.498-.002c.676.01.676-1.01 0-1L270 103v-2l1.498-.002c.676.01.676-1.01 0-1L270 100v-2.5a.5.5 0 0 0-.5-.5H267l.004-1.496c.01-.676-1.01-.676-1 0L266 97h-2l.004-1.496c.005-.338-.248-.508-.5-.508zM261 98h8v8h-8z" fill="#ffffff"/>
        <path d="M305.5 100a.5.5 0 0 0-.5.5v3a.5.5 0 0 0 .5.5h3a.5.5 0 0 0 .5-.5v-3a.5.5 0 0 0-.5-.5zm.5 1h2v2h-2z" fill="#ffffff" transform="translate(-297.002 -92)"/>
    </g>
</svg>
