<svg xmlns="http://www.w3.org/2000/svg" viewBox="0 0 20 20" xml:space="preserve">
    <g fill="#ffffff">
        <path d="M96 389a.5.5 0 0 0-.24.06l-5.5 3a.5.5 0 0 0-.26.44v7a.5.5 0 0 0 .26.44l5.5 3a.5.5 0 0 0 .24.06h1a.5.5 0 0 0 .24-.06l5.5-3a.5.5 0 0 0 .26-.44v-7a.5.5 0 0 0-.26-.44l-5.5-3A.5.5 0 0 0 97 389zm.127 1h.746l5.127 2.797v6.406L96.873 402h-.746L91 399.203v-6.406z" fill="#ffffff" transform="translate(-86.5 -386)"/>
        <path d="M92.5 392a.5.5 0 1 0 0 1h8a.5.5 0 1 0 0-1zm6.014 1a.5.5 0 0 0-.405.188l-3.595 4.496-2.614-3.485a.5.5 0 1 0-.8.602l3 4a.5.5 0 0 0 .386.199.5.5 0 0 0 .405-.188l3.595-4.496 2.614 3.485a.5.5 0 1 0 .8-.602l-3-4a.5.5 0 0 0-.386-.199zm-4.028 6H92.5a.5.5 0 1 0 0 1h8a.5.5 0 1 0 0-1z" fill="#ffffff" transform="translate(-86.5 -386)"/>
    </g>
</svg>
