<svg xmlns="http://www.w3.org/2000/svg" viewBox="0 0 20 20" xml:space="preserve">
    <g fill="#ffffff">
        <path d="M181 390c-2.195 0-4.17.64-5.62 1.709-1.448 1.068-2.38 2.592-2.38 4.291 0 1.7.932 3.223 2.38 4.291 1.45 1.068 3.425 1.709 5.62 1.709 2.195 0 4.17-.64 5.62-1.709 1.448-1.068 2.38-2.592 2.38-4.291 0-1.7-.932-3.223-2.38-4.291-1.45-1.068-3.425-1.709-5.62-1.709zm0 1c2 0 3.773.59 5.025 1.514 1.252.923 1.975 2.15 1.975 3.486 0 1.337-.723 2.563-1.975 3.486C184.773 400.41 183 401 181 401c-2 0-3.773-.59-5.025-1.514-1.252-.923-1.975-2.15-1.975-3.486 0-1.337.723-2.563 1.975-3.486C177.227 391.59 179 391 181 391z" fill="#ffffff" transform="translate(-171 -386)"/>
        <path d="M178.492 394.492a.5.5 0 0 0-.492.51v.25c0 .268.101.433.234.617.134.185.321.369.567.535.49.334 1.218.593 2.197.596.98.003 1.712-.257 2.203-.592a2.24 2.24 0 0 0 .565-.539c.133-.185.233-.35.234-.617v-.25a.5.5 0 1 0-1-.004v.252c0-.112.009-.041-.047.037-.056.079-.16.189-.316.295-.312.213-.83.42-1.635.418-.805-.002-1.328-.212-1.64-.424a1.287 1.287 0 0 1-.317-.293c-.056-.078-.045-.146-.045-.033v-.252a.5.5 0 0 0-.508-.506z" fill="#ffffff" transform="translate(-171 -386)"/>
    </g>
</svg>
