<svg xmlns="http://www.w3.org/2000/svg" viewBox="0 0 20 20" xml:space="preserve">
    <g fill="#ffffff">
        <path d="M76 388.938A7.07 7.07 0 0 0 68.937 396 7.07 7.07 0 0 0 76 403.063 7.07 7.07 0 0 0 83.063 396 7.07 7.07 0 0 0 76 388.937zm0 1A6.055 6.055 0 0 1 82.063 396 6.055 6.055 0 0 1 76 402.063 6.055 6.055 0 0 1 69.937 396 6.055 6.055 0 0 1 76 389.937z" fill="#ffffff" transform="translate(-66 -386)"/>
        <path d="M75.477 390.744a.5.5 0 0 0-.4.24C74.183 392.41 74 393.98 74 396c0 .335.056.607.068.922-1.167-.08-2.112-.427-3.2-1.524a.5.5 0 1 0-.712.704c1.258 1.267 2.545 1.752 3.987 1.83.125 1.119.352 2.165.933 3.086a.501.501 0 1 0 .848-.536c-.453-.718-.66-1.554-.781-2.482H76c2.575 0 3.848-.615 4.723-1.053a.5.5 0 1 0-.446-.894c-.875.437-1.852.947-4.277.947h-.928c-.017-.341-.072-.62-.072-1 0-1.96.173-3.284.924-4.484a.5.5 0 0 0-.447-.772z" fill="#ffffff" transform="translate(-66 -386)"/>
    </g>
</svg>
