<svg xmlns="http://www.w3.org/2000/svg" viewBox="0 0 20 20" xml:space="preserve">
    <g fill="#ffffff">
        <path d="M156.496 393.246a.5.5 0 0 0-.273.92c.927.618 2.377.834 3.777.834 1.397 0 2.85-.216 3.777-.834a.5.5 0 1 0-.554-.832c-.573.382-1.95.666-3.223.666-1.276 0-2.65-.284-3.223-.666a.5.5 0 0 0-.28-.088z" fill="#ffffff" transform="translate(-150 -386)"/>
        <path d="M160 389c-1.58 0-3.013.285-4.096.777-.541.246-.997.543-1.338.909-.34.365-.566.82-.566 1.314v8c0 .494.226.949.566 1.314.34.366.797.663 1.338.909 1.083.492 2.516.777 4.096.777s3.013-.285 4.096-.777c.541-.246.997-.543 1.338-.909.34-.365.566-.82.566-1.314v-8c0-.494-.226-.949-.566-1.314-.34-.366-.797-.663-1.338-.909-1.083-.492-2.516-.777-4.096-.777zm0 1c1.457 0 2.774.275 3.682.688.454.206.803.447 1.02.68.216.232.298.435.298.632v8c0 .197-.082.4-.299.633-.216.232-.565.473-1.02.68-.907.412-2.224.687-3.681.687-1.457 0-2.774-.275-3.682-.688-.454-.206-.803-.447-1.02-.68-.216-.232-.298-.435-.298-.632v-8c0-.197.082-.4.299-.633.216-.232.565-.473 1.02-.68.907-.412 2.224-.687 3.681-.687z" fill="#ffffff" transform="translate(-150 -386)"/>
    </g>
</svg>
