<svg xmlns="http://www.w3.org/2000/svg" viewBox="0 0 20 20" xml:space="preserve">
    <path fill="#ffffff" d="M9.5 3a.5.5 0 0 0-.414.22l-5.75 8.5a.5.5 0 0 0-.025.042C3.098 12.152 3 12.58 3 13c0 1.217.896 2.232 2.166 2.916C6.436 16.6 8.132 17 10 17c1.868 0 3.564-.4 4.834-1.084C16.104 15.232 17 14.217 17 13c0-.42-.096-.847-.313-1.24a.5.5 0 0 0-.023-.04l-5.75-8.5A.5.5 0 0 0 10.5 3zm.266 1h.468l5.58 8.248c.128.235.186.483.186.752 0 .716-.558 1.452-1.64 2.035-1.083.583-2.638.965-4.36.965-1.722 0-3.277-.382-4.36-.965C4.559 14.452 4 13.715 4 13c0-.263.062-.522.188-.756z"/>
</svg>
