<svg xmlns="http://www.w3.org/2000/svg" viewBox="0 0 20 20" xml:space="preserve">
    <g fill="#ffffff">
        <path fill="#ffffff" d="M142.162 494.002a3.996 3.996 0 0 0-1.185.13 3.993 3.993 0 0 0-2.444 1.895 6 6 0 0 0-5.976 3.448 6.003 6.003 0 0 0 8.13 7.89 5.995 5.995 0 0 0 3.276-5.892 3.984 3.984 0 0 0 1.469-1.418 4 4 0 0 0-3.27-6.053zm-.04 1a2.998 2.998 0 1 1-.58 5.963.5.5 0 1 0-.153.988 3.979 3.979 0 0 0 1.595-.086 4.985 4.985 0 0 1-2.746 4.604 4.996 4.996 0 0 1-5.72-.883 4.995 4.995 0 0 1-1.053-5.691 4.986 4.986 0 0 1 4.666-2.881c-.04.156-.077.313-.098.476a.5.5 0 0 0 .992.127 2.997 2.997 0 0 1 3.096-2.617z" transform="translate(-129 -490.999)"/>
    </g>
</svg>
