<svg xmlns="http://www.w3.org/2000/svg" viewBox="0 0 20 20" xml:space="preserve">
    <g fill="#ffffff">
        <path d="M452.5 389c-.795 0-1.559.316-2.121.879l-2.5 2.5A3.001 3.001 0 0 0 447 394.5v5.5c0 1.65 1.35 3 3 3h5.5c.795 0 1.559-.316 2.121-.879l2.5-2.5A3.001 3.001 0 0 0 461 397.5v-5.75c0-.795-.26-1.502-.754-1.996s-1.2-.754-1.996-.754zm0 1h5.75c.585 0 1.003.175 1.29.46.285.287.46.705.46 1.29v5.75a2 2 0 0 1-.586 1.414l-2.5 2.5a2 2 0 0 1-1.414.586H450c-1.11 0-2-.89-2-2v-5.5a2 2 0 0 1 .586-1.414l2.5-2.5A2 2 0 0 1 452.5 390z" fill="#ffffff" transform="translate(-444 -386)"/>
        <path d="M458.49 390.996a.5.5 0 0 0-.344.15l-1 1a.5.5 0 1 0 .708.708l1-1a.5.5 0 0 0-.364-.858zM450.5 393a.5.5 0 1 0 0 1h4a.5.5 0 1 0 0-1zm5.992 1.992a.5.5 0 0 0-.492.508v4a.5.5 0 1 0 1 0v-4a.5.5 0 0 0-.508-.508z" fill="#ffffff" transform="translate(-444 -386)"/>
    </g>
</svg>
