<svg xmlns="http://www.w3.org/2000/svg" viewBox="0 0 20 20" xml:space="preserve">
    <g fill="#ffffff">
        <path d="M475 388.938a7.07 7.07 0 0 0-7.063 7.062 7.07 7.07 0 0 0 7.063 7.063 7.07 7.07 0 0 0 7.063-7.063 7.07 7.07 0 0 0-7.063-7.063zm0 1a6.055 6.055 0 0 1 6.063 6.062 6.055 6.055 0 0 1-6.063 6.063 6.055 6.055 0 0 1-6.063-6.063 6.055 6.055 0 0 1 6.063-6.063z" fill="#ffffff" transform="translate(-465 -386)"/>
        <path d="M474.477 390.744a.5.5 0 0 0-.4.24C473.183 392.41 473 393.98 473 396c0 1.967.174 3.586 1.076 5.018a.501.501 0 1 0 .848-.536c-.753-1.193-.924-2.574-.924-4.482 0-1.96.173-3.284.924-4.484a.5.5 0 0 0-.447-.772z" fill="#ffffff" transform="translate(-465 -386)"/>
    </g>
</svg>
