<svg xmlns="http://www.w3.org/2000/svg" viewBox="0 0 20 20" xml:space="preserve">
    <g fill="#ffffff">
        <path d="M519.025 389.057c-1.23.064-2.423.634-3.379 1.59l-4 4c-.955.955-1.53 2.15-1.597 3.384-.068 1.234.388 2.496 1.414 3.51 1.024 1.012 2.281 1.467 3.512 1.402 1.23-.064 2.423-.634 3.379-1.59l4-4c.955-.955 1.53-2.15 1.597-3.384.068-1.234-.388-2.496-1.414-3.51-1.024-1.012-2.281-1.467-3.512-1.402zm.053.998c.956-.05 1.912.281 2.756 1.115.842.832 1.172 1.786 1.12 2.744-.054.959-.506 1.93-1.308 2.732l-4 4c-.802.802-1.768 1.25-2.724 1.3-.956.05-1.912-.282-2.756-1.116-.842-.832-1.172-1.786-1.12-2.744.053-.959.505-1.93 1.307-2.732l4-4c.803-.802 1.769-1.25 2.725-1.3z" fill="#ffffff" transform="translate(-507 -386)"/>
        <path d="M517.473 391.994a.5.5 0 0 0-.46.623c.187.777.286 1.425 1.141 2.244.815.78 1.393.943 2.24 1.127a.5.5 0 1 0 .211-.976c-.849-.185-1.038-.183-1.76-.873-.721-.692-.656-.913-.859-1.756a.5.5 0 0 0-.513-.389z" fill="#ffffff" transform="translate(-507 -386)"/>
    </g>
</svg>
