<svg xmlns="http://www.w3.org/2000/svg" viewBox="0 0 20 20" xml:space="preserve">
    <g fill="#ffffff">
        <path d="M499.914 389.057c-.774-.154-1.635-.124-2.514.066-1.757.381-3.635 1.405-5.254 3.023-1.618 1.619-2.642 3.497-3.023 5.254-.381 1.757-.117 3.438.961 4.516 1.078 1.078 2.759 1.342 4.516.96 1.757-.38 3.635-1.404 5.254-3.022 1.618-1.619 2.642-3.497 3.023-5.254.381-1.757.117-3.438-.961-4.516-.539-.539-1.228-.874-2.002-1.027zm-.213.976c.612.12 1.126.376 1.508.758.764.764 1.024 2.06.691 3.596-.333 1.536-1.26 3.267-2.754 4.76-1.492 1.492-3.223 2.42-4.76 2.753-1.535.333-2.83.073-3.595-.691-.764-.764-1.024-2.06-.691-3.596.333-1.536 1.26-3.267 2.754-4.76 1.492-1.492 3.223-2.42 4.76-2.753.767-.167 1.476-.186 2.087-.067z" fill="#ffffff" transform="translate(-486 -386)"/>
        <path d="M493.473 393.994a.5.5 0 0 0-.46.623c.222.92.782 1.922 1.641 2.744.812.777 1.75 1.412 2.74 1.627a.5.5 0 1 0 .211-.976c-.705-.153-1.535-.68-2.26-1.373-.718-.688-1.19-1.557-1.359-2.256a.5.5 0 0 0-.513-.389z" fill="#ffffff" transform="translate(-486 -386)"/>
    </g>
</svg>
