<svg xmlns="http://www.w3.org/2000/svg" viewBox="0 0 20 20" xml:space="preserve">
    <g fill="#ffffff">
        <path fill="#ffffff" d="M27.46 284.012a.5.5 0 1 0 .044.998 11.997 11.997 0 0 1 12.486 12.463.5.5 0 1 0 1 .039 12.998 12.998 0 0 0-13.53-13.5zm-.032 4.006a.5.5 0 1 0 .062.998 8.001 8.001 0 0 1 8.498 8.421.5.5 0 1 0 .998.055 9.002 9.002 0 0 0-9.558-9.474zm.037 4.011a.5.5 0 1 0 .107.994 3.999 3.999 0 0 1 4.408 4.381.5.5 0 1 0 .995.102 5 5 0 0 0-5.51-5.477zM28 296c-.546 0-1 .454-1 1s.454 1 1 1 1-.454 1-1-.454-1-1-1z" transform="matrix(-1 0 0 1 44 -281)"/>
    </g>
</svg>
