<svg xmlns="http://www.w3.org/2000/svg" viewBox="0 0 20 20" xml:space="preserve">
    <g fill="#ffffff">
        <g fill="#ffffff">
            <path fill="#ffffff" d="M300.5 326a.5.5 0 0 0-.5.5v13a.5.5 0 0 0 .5.5h13a.5.5 0 0 0 .5-.5v-13a.5.5 0 0 0-.5-.5zm.5 1h12v12h-12z" transform="translate(-297 -323)"/>
            <path fill="#ffffff" d="M307.492 326.992a.5.5 0 0 0-.492.508v5.5h-5.5a.5.5 0 1 0 0 1h5.5v2h-5.5a.5.5 0 1 0 0 1h5.5v1.5a.5.5 0 1 0 1 0V337h2v1.5a.5.5 0 1 0 1 0V337h1.5a.5.5 0 1 0 0-1H311v-2h1.5a.5.5 0 1 0 0-1H311v-5.5a.5.5 0 1 0-1 0v5.5h-2v-5.5a.5.5 0 0 0-.508-.508zM308 334h2v2h-2z" transform="translate(-297 -323)"/>
        </g>
    </g>
</svg>
