<svg xmlns="http://www.w3.org/2000/svg" viewBox="0 0 20 20" xml:space="preserve">
    <g fill="#ffffff">
        <path fill="#ffffff" d="M120.86 263.012c-2.712-.15-5.133.841-7.07 2.781-2.62 2.621-3.505 6.906-2.247 9.904.254.605.665 1.065 1.217 1.205.552.14 1.137-.092 1.594-.548l10-10a.5.5 0 0 0 .01-.01c.455-.483.74-1.038.61-1.614-.128-.575-.641-.964-1.314-1.181a11.082 11.082 0 0 0-2.8-.538zm-.06.984a10.44 10.44 0 0 1 2.552.506c.495.16.624.34.648.447.024.108-.028.352-.363.707l-9.99 9.99c-.294.294-.49.326-.641.288-.151-.039-.365-.203-.541-.623-1.054-2.511-.272-6.506 2.031-8.811 1.77-1.772 3.868-2.657 6.305-2.504zM115.485 267a.5.5 0 0 0-.343.152c-1.386 1.386-2.144 3.671-2.141 5.348a.5.5 0 1 0 1 0c-.002-1.343.744-3.536 1.848-4.64a.5.5 0 0 0-.364-.86zm7.024 3a.5.5 0 1 0 0 1c.679 0 1.014.139 1.199.334.185.195.3.547.3 1.166a.5.5 0 1 0 1 0c0-.742-.135-1.389-.575-1.854-.44-.464-1.103-.646-1.924-.646zm-2.016 1.992a.5.5 0 0 0-.492.508c0 .861.312 1.537.805 1.947.492.41 1.112.553 1.695.553.417 0 .797.108 1.055.322.257.215.445.54.445 1.178a.5.5 0 1 0 1 0c0-.861-.312-1.537-.805-1.947-.492-.41-1.112-.553-1.695-.553-.417 0-.797-.108-1.055-.322-.257-.215-.445-.54-.445-1.178a.5.5 0 0 0-.508-.508zm-2 2a.5.5 0 0 0-.492.508c0 .821.182 1.486.646 1.926.465.44 1.112.574 1.854.574h1a.5.5 0 1 0 0-1h-1c-.62 0-.97-.116-1.166-.3-.195-.186-.334-.521-.334-1.2a.5.5 0 0 0-.508-.508z" transform="translate(-107.993 -260.002)"/>
    </g>
</svg>
