<svg xmlns="http://www.w3.org/2000/svg" viewBox="0 0 20 20" xml:space="preserve">
    <g fill="#ffffff">
        <path fill="#ffffff" d="m240.498 288-3.006.008a.5.5 0 0 0-.5.5v9a.5.5 0 0 0 .5.5h3a.5.5 0 0 0 .5-.5L241 288.5a.5.5 0 0 0-.502-.5zm-.498 1.002-.008 8.006h-2v-8.002z" transform="translate(-233.996 -281.004)"/>
        <path fill="#ffffff" d="m250.498 284-3.006.008a.5.5 0 0 0-.5.5v9a.5.5 0 0 0 .5.5h3a.5.5 0 0 0 .5-.5L251 284.5a.5.5 0 0 0-.502-.5zm-.498 1.002-.008 8.006h-2v-8.002zm-4.502.998-3.006.008a.5.5 0 0 0-.5.5v9a.5.5 0 0 0 .5.5h3a.5.5 0 0 0 .5-.5L246 286.5a.5.5 0 0 0-.502-.5zm-.498 1.002-.008 8.006h-2v-8.002z" transform="translate(-233.996 -281.004)"/>
    </g>
</svg>
