<svg xmlns="http://www.w3.org/2000/svg" viewBox="0 0 20 20" xml:space="preserve">
    <g fill="#ffffff">
        <path fill="#ffffff" d="M54.75 284a.5.5 0 0 0-.432.248l-3.646 6.25a.5.5 0 0 0-.002.002 5.005 5.005 0 0 0 1.115 6.33 5.008 5.008 0 0 0 6.43 0 5.005 5.005 0 0 0 1.115-6.33.5.5 0 0 0-.002-.002l-3.646-6.25a.5.5 0 0 0-.432-.248zm.25 1.064 3.465 5.938a3.995 3.995 0 0 1-.895 5.062 3.992 3.992 0 0 1-5.14 0 3.995 3.995 0 0 1-.895-5.062V291zm-.512 2.93a.5.5 0 0 0-.43.272l-1.697 3.207a3.042 3.042 0 0 0-.35.922.5.5 0 1 0 .981.197 2.01 2.01 0 0 1 .235-.617.5.5 0 0 0 .01-.018l1.704-3.223a.5.5 0 0 0-.453-.74z" transform="translate(-45 -281)"/>
    </g>
</svg>
