<svg xmlns="http://www.w3.org/2000/svg" viewBox="0 0 20 20" xml:space="preserve">
    <g fill="#ffffff">
        <path fill="#ffffff" d="M180.5 263a.5.5 0 0 0-.5.5v4a.5.5 0 0 0 .5.5h1.5v.5a.5.5 0 0 0 .5.5h1.5v1.5a.5.5 0 0 0 .5.5h3a.5.5 0 0 0 .5-.5v-7a.5.5 0 0 0-.5-.5zm.5 1h6v6h-2v-1.5a.5.5 0 0 0-.5-.5H183v-.5a.5.5 0 0 0-.5-.5H181z" transform="translate(-171.006 -260.006)"/>
        <path fill="#ffffff" d="M176.508 262.994a.5.5 0 0 0-.455.729l1 2a.5.5 0 1 0 .894-.446l-1-2a.5.5 0 0 0-.44-.283zm-2.026 3.002a.5.5 0 0 0-.205.951l2 1a.5.5 0 1 0 .446-.894l-2-1a.5.5 0 0 0-.24-.057zm11 6a.5.5 0 0 0-.205.951l2 1a.5.5 0 1 0 .446-.894l-2-1a.5.5 0 0 0-.24-.057zm-.974 1.998a.5.5 0 0 0-.455.729l1 2a.5.5 0 1 0 .894-.446l-1-2a.5.5 0 0 0-.44-.283z" transform="translate(-171.006 -260.006)"/>
        <path fill="#ffffff" d="M174.5 269a.5.5 0 0 0-.5.5v7a.5.5 0 0 0 .5.5h7a.5.5 0 0 0 .5-.5l-.008-4a.5.5 0 0 0-.5-.5h-1.5v-1.5a.5.5 0 0 0-.5-.5h-1.496l.004-.496a.5.5 0 0 0-.5-.504zm.5 1h1.996l-.004.496a.5.5 0 0 0 .5.504h1.5v1.5a.5.5 0 0 0 .5.5h1.5l.008 3h-6z" transform="translate(-171.006 -260.006)"/>
    </g>
</svg>
