<svg xmlns="http://www.w3.org/2000/svg" viewBox="0 0 20 20" xml:space="preserve">
    <g fill="#ffffff">
        <g fill="#ffffff">
            <path fill="#ffffff" d="M447.5 263a.5.5 0 0 0-.5.5v2a.5.5 0 0 0 .5.5h.5v8h-.5a.5.5 0 0 0-.5.5v2a.5.5 0 0 0 .5.5h2a.5.5 0 0 0 .5-.5v-.5h8v.5a.5.5 0 0 0 .5.5h2a.5.5 0 0 0 .5-.5v-2a.5.5 0 0 0-.5-.5h-.5v-8h.5a.5.5 0 0 0 .5-.5v-2a.5.5 0 0 0-.5-.5h-2a.5.5 0 0 0-.5.5v.5h-8v-.5a.5.5 0 0 0-.5-.5zm.5 1h1v1h-1zm11 0h1v1h-1zm-9 1h8v.5a.5.5 0 0 0 .5.5h.5v8h-.5a.5.5 0 0 0-.5.5v.5h-8v-.5a.5.5 0 0 0-.5-.5h-.5v-8h.5a.5.5 0 0 0 .5-.5zm-2 10h1v1h-1zm11 0h1v1h-1z" transform="translate(-444 -260)"/>
        </g>
        <path fill="#ffffff" d="M451.5 246a.5.5 0 0 0-.5.5v5a.5.5 0 0 0 .5.5h5a.5.5 0 0 0 .5-.5v-5a.5.5 0 0 0-.5-.5zm.5 1h4v4h-4z" transform="translate(-444 -239)"/>
    </g>
</svg>
