<svg xmlns="http://www.w3.org/2000/svg" viewBox="0 0 20 20" xml:space="preserve">
    <g fill="#ffffff">
        <path fill="#ffffff" d="M47.5 578a.5.5 0 0 0-.5.5l-.008 10.5c0 1.517 1.22 3 2.985 3s3.015-1.475 3.015-3L53 578.5a.5.5 0 0 0-.5-.5zm.5 1h4l-.008 10c0 .975-.812 2-2.015 2-1.204 0-1.985-1.017-1.985-2z" transform="translate(-43.996 -575)"/>
        <path fill="#ffffff" d="M58.492 586a.5.5 0 1 0 0 1H60v4h-6.258a.5.5 0 1 0 0 1H60.5a.5.5 0 0 0 .5-.5v-5a.5.5 0 0 0-.5-.5z" transform="translate(-43.996 -575)"/>
        <path fill="#ffffff" d="M56.492 579a.5.5 0 0 0-.346.146l-2 2a.5.5 0 1 0 .708.708l1.646-1.647 2.293 2.293-4.647 4.646a.5.5 0 1 0 .708.708l5-5a.5.5 0 0 0 0-.708l-3-3a.5.5 0 0 0-.362-.146z" transform="translate(-43.996 -575)"/>
        <path fill="#ffffff" d="M50 588c-.546 0-1 .454-1 1s.454 1 1 1 1-.454 1-1-.454-1-1-1z" transform="translate(-43.996 -575)"/>
    </g>
</svg>
