<svg xmlns="http://www.w3.org/2000/svg" viewBox="0 0 20 20" xml:space="preserve">
    <g fill="#ffffff">
        <path fill="#ffffff" d="M479 347c-1.099 0-2 .901-2 2s.901 2 2 2 2-.901 2-2-.901-2-2-2zm0 1c.558 0 1 .442 1 1s-.442 1-1 1-1-.442-1-1 .442-1 1-1zm.5 9c-.823 0-1.5.677-1.5 1.5s.677 1.5 1.5 1.5 1.5-.677 1.5-1.5-.677-1.5-1.5-1.5zm0 1c.282 0 .5.218.5.5 0 .282-.218.5-.5.5a.493.493 0 0 1-.5-.5c0-.282.218-.5.5-.5zm-10-11c-.823 0-1.5.677-1.5 1.5s.677 1.5 1.5 1.5 1.5-.677 1.5-1.5-.677-1.5-1.5-1.5zm0 1c.282 0 .5.218.5.5 0 .282-.218.5-.5.5a.493.493 0 0 1-.5-.5c0-.282.218-.5.5-.5zm0 8a2.508 2.508 0 0 0-2.5 2.5c0 1.375 1.125 2.5 2.5 2.5s2.5-1.125 2.5-2.5-1.125-2.5-2.5-2.5zm0 1c.834 0 1.5.666 1.5 1.5s-.666 1.5-1.5 1.5-1.5-.666-1.5-1.5.666-1.5 1.5-1.5z" transform="rotate(90 414 -50)"/>
        <path fill="#ffffff" d="M469.492 348.992a.5.5 0 0 0-.492.508v5a.5.5 0 1 0 1 0v-5a.5.5 0 0 0-.508-.508zm7.998 1.004a.5.5 0 0 0-.344.15l-5 5a.5.5 0 1 0 .708.708l5-5a.5.5 0 0 0-.364-.858zM473.5 358a.5.5 0 1 0 0 1h5a.5.5 0 1 0 0-1z" transform="rotate(90 414 -50)"/>
    </g>
</svg>
