<svg xmlns="http://www.w3.org/2000/svg" viewBox="0 0 20 20" xml:space="preserve">
    <g fill="#ffffff">
        <path fill="#ffffff" d="M1404.469 576.963a1.5 1.5 0 0 0-.104.01 10.604 10.604 0 0 0-9.392 9.375 1.5 1.5 0 1 0 2.982.328 7.576 7.576 0 0 1 6.73-6.72 1.5 1.5 0 0 0-.216-2.993z" transform="translate(-1389.027 -571.005)"/>
        <path fill="#ffffff" d="M1405.498 573.998c-7.45 0-13.5 6.05-13.5 13.5a.5.5 0 1 0 1 0c0-6.91 5.59-12.5 12.5-12.5a.5.5 0 1 0 0-1z" transform="translate(-1389.027 -571.005)"/>
    </g>
</svg>
