<svg xmlns="http://www.w3.org/2000/svg" viewBox="0 0 20 20" xml:space="preserve">
    <g fill="#ffffff">
        <path fill="#ffffff" d="M412 286c1.656 0 3 1.375 3 3.047 0 1.672-1.344 3.047-3 3.047s-3-1.375-3-3.047c0-1.672 1.344-3.047 3-3.047zm0 1c-1.105 0-2 .905-2 2.047 0 1.141.895 2.047 2 2.047s2-.906 2-2.047c0-1.142-.895-2.047-2-2.047z" transform="translate(-402 -280)"/>
        <path fill="#ffffff" d="M412 283c-3.51 0-6 2.773-6 5.92V296h-.96a.5.5 0 1 0 0 1h1.46a.5.5 0 0 0 .5-.5v-7.58c0-2.628 2.01-4.92 5-4.92s5 2.292 5 4.92v7.58a.5.5 0 0 0 .5.5h1.46a.5.5 0 1 0 0-1H418v-7.08c0-3.147-2.49-5.92-6-5.92z" transform="translate(-402 -280)"/>
    </g>
</svg>
