<svg xmlns="http://www.w3.org/2000/svg" viewBox="0 0 20 20" xml:space="preserve">
    <g fill="#ffffff">
        <path fill="#ffffff" d="M540.5 263c-2.48 0-4.5 2.02-4.5 4.5s2.02 4.5 4.5 4.5 4.5-2.02 4.5-4.5-2.02-4.5-4.5-4.5zm0 1c1.939 0 3.5 1.561 3.5 3.5a3.484 3.484 0 0 1-2.018 3.162 5.002 5.002 0 0 0-4.644-4.644A3.484 3.484 0 0 1 540.5 264z" transform="translate(-528 -260)"/>
        <path fill="#ffffff" d="M657.502-192.934a.5.5 0 0 0-.227.051 5.72 5.72 0 0 0-3.214 5.996 5.721 5.721 0 0 0 4.8 4.823 5.722 5.722 0 0 0 6.014-3.184.5.5 0 1 0-.902-.432 4.715 4.715 0 0 1-4.963 2.627 4.713 4.713 0 0 1-1.309-8.925.5.5 0 0 0-.199-.956z" transform="translate(-651 199)"/>
    </g>
</svg>
