<svg xmlns="http://www.w3.org/2000/svg" viewBox="0 0 20 20" xml:space="preserve">
    <g fill="#ffffff">
        <g fill="#ffffff">
            <path fill="#ffffff" d="M469.002 355a2.01 2.01 0 0 0-2.002 2.004c0 1.1.902 2.004 2.002 2.004a2.01 2.01 0 0 0 2.002-2.004 2.01 2.01 0 0 0-2.002-2.004zm-.502-6c-.823 0-1.5.677-1.5 1.5s.677 1.5 1.5 1.5 1.5-.677 1.5-1.5-.677-1.5-1.5-1.5zm7 7c-.823 0-1.5.677-1.5 1.5s.677 1.5 1.5 1.5 1.5-.677 1.5-1.5-.677-1.5-1.5-1.5zm-.998-5.992c-.822 0-1.502.674-1.502 1.496s.68 1.496 1.502 1.496 1.502-.674 1.502-1.496-.68-1.496-1.502-1.496z" transform="rotate(90 413.002 -46.998)"/>
            <path fill="#ffffff" d="M468 351.5v4h1v-4zm5.146.646-3.496 3.51.71.705 3.494-3.507zM470.5 357v1h4v-1z" transform="rotate(90 413.002 -46.998)"/>
        </g>
        <g fill="#ffffff">
            <path fill="#ffffff" d="M468.5 349c-.823 0-1.5.677-1.5 1.5s.677 1.5 1.5 1.5 1.5-.677 1.5-1.5-.677-1.5-1.5-1.5zm0 1c.282 0 .5.218.5.5 0 .282-.218.5-.5.5a.493.493 0 0 1-.5-.5c0-.282.218-.5.5-.5zm.502 5a2.01 2.01 0 0 0-2.002 2.004c0 1.1.902 2.004 2.002 2.004a2.01 2.01 0 0 0 2.002-2.004 2.01 2.01 0 0 0-2.002-2.004zm0 1a.995.995 0 0 1 1.002 1.004.995.995 0 0 1-1.002 1.004.995.995 0 0 1-1.002-1.004.995.995 0 0 1 1.002-1.004zm6.498 0c-.823 0-1.5.677-1.5 1.5s.677 1.5 1.5 1.5 1.5-.677 1.5-1.5-.677-1.5-1.5-1.5zm0 1c.282 0 .5.218.5.5 0 .282-.218.5-.5.5a.493.493 0 0 1-.5-.5c0-.282.218-.5.5-.5z" transform="rotate(90 413.002 -50.998)"/>
            <path fill="#ffffff" d="M468 351.5v4h1v-4zm2.5 5.5v1h4v-1z" transform="rotate(90 413.002 -50.998)"/>
        </g>
    </g>
</svg>
