<svg xmlns="http://www.w3.org/2000/svg" viewBox="0 0 20 20" xml:space="preserve">
    <g fill="#ffffff">
        <path fill="#ffffff" d="M203.5 284a.5.5 0 0 0-.354.146l-8 8a.5.5 0 0 0-.146.354l-.008 5.006a.5.5 0 0 0 .5.502L208.5 298a.5.5 0 0 0 .5-.5v-13a.5.5 0 0 0-.5-.5zm.207 1H208v12l-12.008.008.008-4.3z" transform="translate(-191.996 -281.004)"/>
        <path fill="#ffffff" d="m200.5 284-5.008.008a.5.5 0 0 0-.5.5v5a.5.5 0 1 0 1 0v-4.502L200.5 285a.5.5 0 1 0 0-1z" transform="translate(-191.996 -281.004)"/>
    </g>
</svg>
