<svg xmlns="http://www.w3.org/2000/svg" viewBox="0 0 20 20" xml:space="preserve">
    <g fill="#ffffff">
        <path fill="#ffffff" d="M496 305c-3.86 0-7 3.14-7 7s3.14 7 7 7 7-3.14 7-7-3.14-7-7-7zm0 1c3.32 0 6 2.68 6 6s-2.68 6-6 6-6-2.68-6-6 2.68-6 6-6z" transform="translate(-486 -302)"/>
        <path fill="#ffffff" d="M496.492 306.992a.5.5 0 0 0-.492.508v5a.5.5 0 0 0 .223.416l3 2a.5.5 0 1 0 .554-.832L497 312.232V307.5a.5.5 0 0 0-.508-.508z" transform="translate(-486 -302)"/>
        <path fill="#ffffff" d="M491.5 312a.5.5 0 1 0 0 1h3a.5.5 0 1 0 0-1z" transform="translate(-486 -302)"/>
        <path fill="#ffffff" d="M492.744 308.244a.5.5 0 0 0-.348.86l1.75 1.75a.5.5 0 1 0 .708-.708l-1.75-1.75a.5.5 0 0 0-.36-.152z" transform="translate(-486 -302)"/>
    </g>
</svg>
