<svg xmlns="http://www.w3.org/2000/svg" viewBox="0 0 20 20" xml:space="preserve">
    <path fill="#ffffff" d="M13.992 3.448a.55.55 0 0 0-.55.55v.776l-.45.45-.611-.61a.55.55 0 0 0-.389-.163h-1.771l-.84-.837a.55.55 0 0 0-.778 0l-1 1a.55.55 0 0 0-.162.388v1.772l-.677.677h-.772a.55.55 0 0 0-.39.163l-.838.841h-.772a.55.55 0 0 0-.55.551v2.004a.55.55 0 0 0 .55.55h.774l.675.675v.545l-.675.681-.768-.008a.55.55 0 0 0-.557.549v2a.55.55 0 1 0 1.102 0v-1.443l.443.004a.55.55 0 0 0 .397-.162l1-1.008a.55.55 0 0 0 .16-.387v-1a.55.55 0 0 0-.162-.39l-1-.995a.55.55 0 0 0-.389-.162h-.45v-.902h.45a.55.55 0 0 0 .389-.162l.84-.844h.771a.55.55 0 0 0 .389-.16l1-1a.55.55 0 0 0 .162-.389V5.23l.45-.45.61.612a.55.55 0 0 0 .39.16h1.77l.84.84a.55.55 0 0 0 .778 0l1-1a.55.55 0 0 0 .162-.389v-.455h1.45a.55.55 0 1 0 0-1.1z"/>
</svg>
