<svg xmlns="http://www.w3.org/2000/svg" viewBox="0 0 20 20" xml:space="preserve">
    <g fill="#ffffff">
        <g fill="#ffffff">
            <path fill="#ffffff" d="M268.5 242a3.5 3.5 0 0 0-3.488 3.383.476.476 0 0 0-.012.152V249h-3.5a.53.53 0 0 0-.113.012A3.501 3.501 0 0 0 258 252.5a3.5 3.5 0 0 0 3.383 3.488.476.476 0 0 0 .117.012h7a3.5 3.5 0 0 0 3.5-3.5v-7a.49.49 0 0 0-.012-.117A3.501 3.501 0 0 0 268.5 242zm0 1a2.492 2.492 0 0 1 2.5 2.535v6.965a2.5 2.5 0 0 1-2.5 2.5h-7a2.492 2.492 0 0 1-2.5-2.5c0-1.387 1.113-2.5 2.5-2.5h3.75a.5.5 0 0 0 .354-.146l.25-.25a.5.5 0 0 0 .146-.354v-3.75c0-1.387 1.113-2.5 2.5-2.5z" transform="translate(-255 -239)"/>
        </g>
        <path fill="#ffffff" d="M303.492 307.992a.5.5 0 0 0-.492.508v6.92a.5.5 0 0 0 .113.404.5.5 0 0 0 .016.02.5.5 0 0 0 .017.017.5.5 0 0 0 .004.002.5.5 0 0 0 .034.032.5.5 0 0 0 .004.002.5.5 0 0 0 .394.103h6.918a.5.5 0 1 0 0-1H304v-6.5a.5.5 0 0 0-.508-.508z" transform="matrix(-1 0 0 1 317 -302)"/>
    </g>
</svg>
