<svg xmlns="http://www.w3.org/2000/svg" viewBox="0 0 20 20" xml:space="preserve">
    <g fill="#ffffff">
        <path fill="#ffffff" d="M521.5 287c-5.3 0-9.5 4.704-9.5 9.5v1a.5.5 0 0 0 .5.5h3a.5.5 0 0 0 .5-.5v-1c0-1.05.682-2.478 1.738-3.594 1.057-1.115 2.456-1.906 3.762-1.906h1a.5.5 0 0 0 .5-.5v-3a.5.5 0 0 0-.5-.5zm0 1h.5v2h-.5c-1.694 0-3.295.96-4.488 2.219-1.194 1.26-2.012 2.831-2.012 4.281v.5h-2v-.5c0-4.204 3.8-8.5 8.5-8.5z" transform="translate(-507.5 -281)"/>
        <path fill="#ffffff" d="M512.5 263a.5.5 0 0 0-.5.5v6.61a11.6 11.6 0 0 1 1-1.47V264h2v2.719a11.18 11.18 0 0 1 1-.68V263.5a.5.5 0 0 0-.5-.5z" transform="translate(-507.5 -260)"/>
    </g>
</svg>
