<svg xmlns="http://www.w3.org/2000/svg" viewBox="0 0 20 20" xml:space="preserve">
    <g fill="#ffffff">
        <path fill="#ffffff" d="M225.5 286a.5.5 0 0 0-.5.5v6.5h-6.5a.5.5 0 0 0-.5.5l-.008 4.006a.5.5 0 0 0 .502.502L229.5 298a.5.5 0 0 0 .5-.5v-11a.5.5 0 0 0-.5-.5zm.5 1h3v10l-10.008.008.006-3.008h6.502a.5.5 0 0 0 .5-.5z" transform="translate(-213 -281.004)"/>
        <path fill="#ffffff" d="M222.5 284a.5.5 0 0 1 .5.5v6a.5.5 0 0 1-.5.5h-6a.5.5 0 0 1-.5-.5v-6a.5.5 0 0 1 .5-.5zm-.5 1h-5v5h5z" transform="translate(-213 -281.004)"/>
    </g>
</svg>
