<svg xmlns="http://www.w3.org/2000/svg" viewBox="0 0 20 20" xml:space="preserve">
    <g fill="#ffffff">
        <g fill="#ffffff">
            <path fill="#ffffff" d="M279.5 288a.5.5 0 0 0-.5.5v2a.5.5 0 0 0 .5.5h.715l2.785 4.64v1.86a.5.5 0 0 0 .5.5h2a.5.5 0 0 0 .5-.5v-1.86l2.785-4.64h.715a.5.5 0 0 0 .5-.5v-2a.5.5 0 0 0-.5-.5h-2a.5.5 0 0 0-.5.5v.5h-5v-.5a.5.5 0 0 0-.5-.5zm.5 1h1v1h-1zm8 0h1v1h-1zm-6 1h5v.5a.5.5 0 0 0 .5.5h.115l-2.4 4h-1.43l-2.4-4h.115a.5.5 0 0 0 .5-.5zm2 6h1v1h-1z" transform="translate(-276 -281)"/>
            <path fill="#ffffff" d="M283.5 284a.5.5 0 0 0-.5.5v3.5h1v-3h8v10h-3.5c-.676-.01-.676 1.01 0 1h4a.5.5 0 0 0 .5-.5v-11a.5.5 0 0 0-.5-.5z" transform="translate(-276 -281)"/>
        </g>
    </g>
</svg>
