<svg xmlns="http://www.w3.org/2000/svg" viewBox="0 0 20 20" xml:space="preserve">
    <g fill="#ffffff">
        <path fill="#ffffff" d="M495.5 305a.5.5 0 0 0-.5.5v1.5h-3.5a.5.5 0 0 0-.5.5v3.5h-1.5a.5.5 0 0 0-.5.5v7a.5.5 0 1 0 1 0V312h1.5a.5.5 0 0 0 .5-.5V308h3.5a.5.5 0 0 0 .5-.5V306h6.5a.5.5 0 1 0 0-1z" transform="translate(-486.004 -302.004)"/>
        <path fill="#ffffff" d="M502.5 308c-5.793 0-10.5 4.707-10.5 10.5a.5.5 0 1 0 1 0c0-5.253 4.247-9.5 9.5-9.5a.5.5 0 1 0 0-1z" transform="translate(-486.004 -302.004)"/>
    </g>
</svg>
