<svg xmlns="http://www.w3.org/2000/svg" viewBox="0 0 20 20" xml:space="preserve">
    <g fill="#ffffff">
        <path d="m363.5 308.5 3-3h6l-3 3z" fill="#ffffff" transform="translate(-359.996 -302.004)"/>
        <path fill="#ffffff" d="M366.5 305a.5.5 0 0 0-.354.146l-3 3a.5.5 0 0 0 .354.854h6a.5.5 0 0 0 .354-.146l3-3a.5.5 0 0 0-.354-.854zm.207 1h4.586l-2 2h-4.586zm9.777 3a.5.5 0 0 0-.338.146l-3 3a.5.5 0 0 0-.146.354v6a.5.5 0 0 0 .854.354l3-3a.5.5 0 0 0 .146-.354v-6a.5.5 0 0 0-.516-.5zm-.484 1.707v4.586l-2 2v-4.586zM369.5 312l-6.008.008a.5.5 0 0 0-.5.5v6a.5.5 0 0 0 .5.5h6a.5.5 0 0 0 .5-.5L370 312.5a.5.5 0 0 0-.5-.5zm-.5 1-.008 5.008h-5v-5.002z" transform="translate(-359.996 -302.004)"/>
    </g>
</svg>
