<svg xmlns="http://www.w3.org/2000/svg" viewBox="0 0 20 20" xml:space="preserve">
    <path d="M10.502 2.988c-.82 0-1.496.676-1.496 1.496S9.68 5.98 10.502 5.98c.82 0 1.496-.675 1.496-1.496 0-.82-.676-1.496-1.496-1.496zm5.5.992a2 2 0 0 0-1.732 1c-.191.33-.249.683-.256.996v.012H12.47a2.494 2.494 0 0 1-1.97.992 2.492 2.492 0 0 1-1.968-.992H3.498c-.676-.01-.676 1.01 0 1h5.514l-.014 3.287c-1.66 1.41-3.241 2.622-3.988 6.108-.178.674.86.898.976.21.676-3.15 1.924-4.088 3.518-5.427 1.584 1.34 2.831 2.277 3.52 5.43.133.666 1.135.446.976-.215-.763-3.495-2.351-4.704-4.002-6.117l.014-3.276h4.002v.004c.007.314.065.666.256.996a2 2 0 0 0 1.732 1h.5c.676.01.676-1.01 0-1h-.5a.997.997 0 0 1-.865-.5 1.15 1.15 0 0 1-.123-.52V6c.005-.197.049-.392.123-.52.179-.31.507-.5.865-.5h.5c.676.01.676-1.01 0-1z" fill="#ffffff"/>
</svg>
