<svg xmlns="http://www.w3.org/2000/svg" viewBox="0 0 20 20" xml:space="preserve">
    <g fill="#ffffff">
        <path fill="#ffffff" d="M280.5 284a.5.5 0 0 0-.5.5v8a.5.5 0 0 0 .5.5h.5a.5.5 0 0 0 .283-.088l10.5-7.25a.5.5 0 0 0 .217-.412v-.75a.5.5 0 0 0-.5-.5zm.5 1h9.982L281 291.893v-6.643z" transform="translate(-276 -281)"/>
        <path fill="#ffffff" d="M285.25 292a.5.5 0 1 0 0 1H291v.156l-10 3.809v-1.715a.5.5 0 1 0-1 0v2.25a.5.5 0 0 0 .5.5h.5a.5.5 0 0 0 .178-.033l10.5-4a.5.5 0 0 0 .322-.467v-1a.5.5 0 0 0-.5-.5z" transform="translate(-276 -281)"/>
    </g>
</svg>
