<svg xmlns="http://www.w3.org/2000/svg" viewBox="0 0 20 20" xml:space="preserve">
    <g fill="#ffffff">
        <g fill="#ffffff">
            <path fill="#ffffff" d="M449 242c-1.099 0-2 .901-2 2 0 .733.406 1.37 1 1.719V250h1v-4c1.099 0 2-.901 2-2h4v-1h-4.281c-.348-.594-.986-1-1.719-1zm0 1c.558 0 1 .442 1 1s-.442 1-1 1-1-.442-1-1 .442-1 1-1z" transform="translate(-444 -239)"/>
        </g>
        <g fill="#ffffff">
            <path fill="#ffffff" d="M459 242c-1.099 0-2 .901-2 2 0 .369.109.71.285 1.008l-7.277 7.277A1.97 1.97 0 0 0 449 252c-1.099 0-2 .901-2 2s.901 2 2 2 2-.901 2-2c0-.369-.109-.71-.285-1.008l7.277-7.277c.298.176.64.285 1.008.285 1.099 0 2-.901 2-2s-.901-2-2-2zm0 1c.558 0 1 .442 1 1s-.442 1-1 1-1-.442-1-1 .442-1 1-1zm-10 10c.558 0 1 .442 1 1s-.442 1-1 1-1-.442-1-1 .442-1 1-1z" transform="translate(-444 -239)"/>
        </g>
    </g>
</svg>
