<svg xmlns="http://www.w3.org/2000/svg" viewBox="0 0 20 20" xml:space="preserve">
    <g fill="#ffffff">
        <g fill="#ffffff">
            <path fill="#ffffff" d="M286.492 242a.5.5 0 0 0-.5.5l.008 13.008a.5.5 0 0 0 .5.5h6a.5.5 0 0 0 .5-.5V242.5a.5.5 0 0 0-.5-.5zm.5 1h4.727l-4.72 10.229zm5.008 1.773v10.235h-4.723z" transform="translate(-275.996 -239.004)"/>
            <path fill="#ffffff" d="M202.992 284v1H208l-.008 12.008-4.998-.008-.002 1 5.5.008a.5.5 0 0 0 .5-.5L209 284.5a.5.5 0 0 0-.5-.5z" transform="matrix(-1 0 0 1 211.996 -281.004)"/>
        </g>
    </g>
</svg>
