<svg xmlns="http://www.w3.org/2000/svg" viewBox="0 0 20 20" xml:space="preserve">
    <g fill="#ffffff">
        <path fill="#ffffff" d="m347.75 247-5.258.002a.5.5 0 0 0-.5.5v8a.5.5 0 0 0 .5.5h8a.5.5 0 0 0 .5-.498l.008-4.002a.5.5 0 1 0-1-.004l-.008 3.504h-7v-7l4.758-.002a.5.5 0 1 0 0-1z" transform="translate(-338.997 -238.997)"/>
        <path fill="#ffffff" d="M350.492 241.992a.5.5 0 0 0-.492.508v4.598a1.503 1.503 0 0 0-1.006 1.408c0 .822.678 1.5 1.5 1.5.362 0 .693-.136.953-.354l3.795 2.278a.501.501 0 1 0 .516-.86l-3.793-2.277a1.48 1.48 0 0 0-.002-.586l3.795-2.277a.501.501 0 1 0-.516-.86l-3.804 2.284a1.492 1.492 0 0 0-.438-.252V242.5a.5.5 0 0 0-.508-.508z" transform="translate(-338.997 -238.997)"/>
    </g>
</svg>
