<svg xmlns="http://www.w3.org/2000/svg" viewBox="0 0 20 20" xml:space="preserve">
    <g fill="#ffffff">
        <path fill="#ffffff" d="M1437 595.61c0 6.25 4.63 11.382 10.4 11.382a.6.6 0 1 0 0-1.199c-5.056 0-9.2-4.523-9.2-10.184a.6.6 0 1 0-1.2 0z" transform="matrix(1 0 0 -1 -1430.7 612.055)"/>
        <g fill="#ffffff">
            <path fill="#ffffff" d="M1444.5 597c-1.457 0-2.897.35-4.22 1.021a.5.5 0 1 0 .452.891 8.301 8.301 0 0 1 3.768-.912.5.5 0 1 0 0-1zm-8.018 4.012a.5.5 0 0 0-.404.232c-1.35 2.058-2.078 4.617-2.078 7.256a.5.5 0 1 0 1 0c0-2.454.683-4.832 1.914-6.709a.5.5 0 0 0-.432-.78z" transform="matrix(1 0 0 -1 -1430.7 612.055)"/>
        </g>
    </g>
</svg>
