<svg xmlns="http://www.w3.org/2000/svg" viewBox="0 0 20 20" xml:space="preserve">
    <g fill="#ffffff">
        <path fill="#ffffff" d="M1419.494 588.002c4.14 0 7.508-3.368 7.508-7.508a.5.5 0 1 0-1 0 6.5 6.5 0 0 1-6.508 6.508.5.5 0 1 0 0 1z" transform="rotate(180 714.974 295.474)"/>
        <path fill="#ffffff" d="M1416.494 585.102c4.194 0 7.608-3.414 7.608-7.608a.6.6 0 1 0-1.202 0 6.397 6.397 0 0 1-6.406 6.406.6.6 0 1 0 0 1.202zm-3-3c4.194 0 7.608-3.414 7.608-7.608a.6.6 0 1 0-1.202 0 6.397 6.397 0 0 1-6.406 6.406.6.6 0 1 0 0 1.202z" transform="rotate(180 714.974 295.474)"/>
    </g>
</svg>
