<svg xmlns="http://www.w3.org/2000/svg" viewBox="0 0 20 20" xml:space="preserve">
    <g fill="#ffffff">
        <path fill="#ffffff" d="M10.492 241.992a.5.5 0 0 0-.074.008H6.5a.5.5 0 0 0-.5.5v5a.5.5 0 0 0 .5.5H8v7.5a.5.5 0 0 0 .5.5h9a.5.5 0 0 0 .5-.5V248h1.5a.5.5 0 0 0 .5-.5v-5a.5.5 0 0 0-.5-.5h-3.92a.5.5 0 0 0-.404.113.5.5 0 0 0-.02.016.5.5 0 0 0-.017.017.5.5 0 0 0-.002.004.5.5 0 0 0-.032.034.5.5 0 0 0-.002.004.5.5 0 0 0-.103.394V243a1.999 1.999 0 1 1-4 0v-.42a.5.5 0 0 0-.113-.404.5.5 0 0 0-.002-.004.5.5 0 0 0-.032-.033.5.5 0 0 0-.003-.002.5.5 0 0 0-.034-.032.5.5 0 0 0-.004-.002.5.5 0 0 0-.32-.111zM7 243h3a3.001 3.001 0 0 0 4.5 2.598A3.001 3.001 0 0 0 16 243h3v4h-1.5a.5.5 0 0 0-.5.5v7.5H9v-7.5a.5.5 0 0 0-.5-.5H7z" transform="translate(-3 -238.996)"/>
    </g>
</svg>
