<svg xmlns="http://www.w3.org/2000/svg" viewBox="0 0 20 20" xml:space="preserve">
    <g fill="#ffffff">
        <path fill="#ffffff" d="m292.5 305-9.008.008a.5.5 0 0 0-.5.508l.04 2.492 1-.016-.032-1.984 8-.008-.006 8.012-2 .02.01 1 2.494-.024a.5.5 0 0 0 .494-.5L293 305.5a.5.5 0 0 0-.5-.5z" transform="translate(-276 -302)"/>
        <path d="M279 309v2h2v-2zm2 2v2h2v-2zm2 0h2v-2h-2zm2 0v2h2v-2zm2 0h2v-2h-2zm0 2v2h2v-2zm0 2h-2v2h2zm0 2v2h2v-2zm-2 0h-2v2h2zm-2 0v-2h-2v2zm-2 0h-2v2h2zm0-2v-2h-2v2zm2 0h2v-2h-2z" fill="#ffffff" transform="translate(-276 -302)"/>
    </g>
</svg>
