<svg xmlns="http://www.w3.org/2000/svg" viewBox="0 0 20 20" xml:space="preserve">
    <g fill="#ffffff">
        <path fill="#ffffff" d="M1367.504 334.002a.5.5 0 0 0-.5.5v9.992a.5.5 0 0 0 .5.5h9.996a.5.5 0 0 0 .5-.5v-9.992a.5.5 0 0 0-.5-.5zm.5 1H1377v8.992h-8.996z" transform="matrix(-1 0 0 1 1384.002 -330.997)"/>
        <path fill="#ffffff" d="m1376 338-4.496.002a.5.5 0 0 0-.5.5V343h1v-3.998L1376 339zm3 0v1l1 .002v7.99h-7.996V346h-1v1.492a.5.5 0 0 0 .5.5h8.996a.5.5 0 0 0 .5-.5v-8.99a.5.5 0 0 0-.5-.5z" transform="matrix(-1 0 0 1 1384.002 -330.997)"/>
    </g>
</svg>
