<svg xmlns="http://www.w3.org/2000/svg" viewBox="0 0 20 20" xml:space="preserve">
    <g fill="#ffffff">
        <path fill="#ffffff" d="m205.498 242-3.006.008a.5.5 0 0 0-.5.5v13a.5.5 0 0 0 .5.5h3a.5.5 0 0 0 .5-.5L206 252h2.5a.5.5 0 0 0 .5-.5v-5a.5.5 0 0 0-.5-.5H206v-3.5a.5.5 0 0 0-.502-.5zm-.498 1.002V246h-2.008v-2.994zM202.992 247H205v4h-2.008zm3.008 0h2v4h-2zm-3.008 5h2.006l-.006 3.008h-2z" transform="translate(-192 -239.004)"/>
        <path fill="#ffffff" d="M200.537 284.17a.5.5 0 0 0-.135.016 7.003 7.003 0 0 0-5.402 6.763 7.005 7.005 0 0 0 5.305 6.842.5.5 0 1 0 .242-.969 5.997 5.997 0 0 1-4.547-5.865 5.996 5.996 0 0 1 4.63-5.799.5.5 0 0 0-.093-.988z" transform="translate(-192 -281.004)"/>
    </g>
</svg>
