<svg xmlns="http://www.w3.org/2000/svg" viewBox="0 0 20 20" xml:space="preserve">
    <g fill="#ffffff">
        <path fill="#ffffff" d="M153.492 289.738a.5.5 0 0 0-.492.506l-.008 7.262a.5.5 0 0 0 .502.502l7.256-.014a.5.5 0 1 0 0-1l-6.758.014.008-6.762a.5.5 0 0 0-.508-.508z" transform="matrix(0 -1 -1 0 301.001 169.996)"/>
        <path fill="#ffffff" d="m115.043 242-4 4h9.951l.006 9.957 3.854-3.853.146-.147-.006-9.957zm.414 1h7.97l-2 2h-7.97zm8.537.566.006 7.977-2 2-.006-7.977z" transform="translate(-107.994 -239.004)"/>
    </g>
</svg>
