<svg xmlns="http://www.w3.org/2000/svg" viewBox="0 0 20 20" xml:space="preserve">
    <path fill="#ffffff" d="M6.504 3.5a.5.5 0 0 0-.451.277C5.383 5.118 4.333 5.5 3.5 5.5a.5.5 0 1 0 0 1c1.003 0 2.152-.6 3-1.783.824 1.15 1.931 1.744 2.914 1.777a.5.5 0 0 0 .002 0A.5.5 0 0 0 9.5 6.5a.5.5 0 0 0 .1-.008c.979-.038 2.08-.631 2.9-1.775.848 1.182 1.997 1.783 3 1.783a.5.5 0 1 0 0-1c-.833 0-1.882-.382-2.553-1.723a.5.5 0 0 0-.443-.277.5.5 0 0 0-.451.277C11.383 5.118 10.333 5.5 9.5 5.5s-1.882-.382-2.553-1.723a.5.5 0 0 0-.443-.277zm1 5a.5.5 0 0 0-.451.277C6.383 10.118 5.333 10.5 4.5 10.5a.5.5 0 1 0 0 1c1.003 0 2.152-.6 3-1.783.824 1.15 1.931 1.744 2.914 1.777a.5.5 0 0 0 .002 0 .5.5 0 0 0 .084.006.5.5 0 0 0 .086-.006.5.5 0 0 0 .014-.002c.979-.038 2.08-.631 2.9-1.775.848 1.182 1.997 1.783 3 1.783a.5.5 0 1 0 0-1c-.833 0-1.882-.382-2.553-1.723a.5.5 0 0 0-.443-.277.5.5 0 0 0-.451.277c-.67 1.341-1.72 1.723-2.553 1.723s-1.882-.382-2.553-1.723a.5.5 0 0 0-.443-.277zm-1 5a.5.5 0 0 0-.451.277C5.383 15.118 4.333 15.5 3.5 15.5a.5.5 0 1 0 0 1c1.003 0 2.152-.6 3-1.783.824 1.15 1.931 1.744 2.914 1.777a.5.5 0 0 0 .002 0 .5.5 0 0 0 .084.006.5.5 0 0 0 .1-.008c.979-.038 2.08-.631 2.9-1.775.848 1.182 1.997 1.783 3 1.783a.5.5 0 1 0 0-1c-.833 0-1.882-.382-2.553-1.723a.5.5 0 0 0-.443-.277.5.5 0 0 0-.451.277c-.67 1.341-1.72 1.723-2.553 1.723s-1.882-.382-2.553-1.723a.5.5 0 0 0-.443-.277z"/>
</svg>
