<svg xmlns="http://www.w3.org/2000/svg" viewBox="0 0 20 20" xml:space="preserve">
    <g fill="#ffffff">
        <path fill="#ffffff" d="M216.492 286a.5.5 0 0 0-.5.5l.008 11.008a.5.5 0 0 0 .5.5h11a.5.5 0 0 0 .5-.5V295h-1v2.008h-10L216.992 287H219v-1z" transform="translate(-213.004 -280.996)"/>
        <path fill="#ffffff" d="M227.54 284c-.616.073-1.183.348-1.747.654-1.129.613-2.26 1.346-3.293 1.346h-1a.5.5 0 1 0 0 1h1c1.467 0 2.71-.892 3.77-1.467.529-.287 1.009-.496 1.386-.54.378-.045.646.016.99.36.345.345.406.613.362.99-.045.378-.254.858-.541 1.387-.575 1.06-1.467 2.303-1.467 3.77v1a.5.5 0 1 0 1 0v-1c0-1.033.733-2.164 1.346-3.293.306-.564.581-1.131.654-1.746a2.182 2.182 0 0 0-.646-1.815c-.53-.53-1.2-.719-1.815-.646z" transform="translate(-213.004 -280.996)"/>
    </g>
</svg>
