<svg xmlns="http://www.w3.org/2000/svg" viewBox="0 0 20 20" xml:space="preserve">
    <g fill="#ffffff">
        <path fill="#ffffff" d="M433 263c-3.848 0-6.978 3.12-6.998 6.963L426 270a.5.5 0 0 0 .002.049.5.5 0 0 0 0 .002l-.01 6.455a.5.5 0 0 0 .502.502l6.47-.008a.5.5 0 0 0 .036 0l.05-.002a.5.5 0 0 0 .009 0c3.833-.032 6.941-3.158 6.941-6.998 0-3.86-3.14-7-7-7zm0 1c3.32 0 6 2.68 6 6s-2.68 6-6 6l-6.008.008.01-6.008a.5.5 0 0 0 0-.021A5.99 5.99 0 0 1 433 264z" transform="translate(-422.996 -260.004)"/>
        <path fill="#ffffff" d="M1314.5 189a.5.5 0 1 0 0 1h4.5v4.5a.5.5 0 1 0 1 0v-5a.5.5 0 0 0-.5-.5z" transform="translate(-1308.996 -180.004)"/>
    </g>
</svg>
