<svg xmlns="http://www.w3.org/2000/svg" viewBox="0 0 20 20" xml:space="preserve">
    <path fill="#ffffff" d="m12.479 3.021-.969.016a.616.616 0 0 0-.057.004c-2.582.33-4.58 2.6-4.45 5.215.028.585.231 1.098.44 1.596l-3.785 3.785c-.337.307-.6.729-.64 1.23-.04.501.172 1.04.625 1.492.453.454.996.659 1.492.614.496-.045.906-.304 1.215-.614l3.807-3.806c.527.225 1.069.433 1.693.45A5.005 5.005 0 0 0 16.965 8.5l.022-.967a.5.5 0 0 0-.854-.365l-2.844 2.838h-1.586L9.996 8.299V6.713l2.844-2.838a.5.5 0 0 0-.361-.854z"/>
</svg>
