<svg xmlns="http://www.w3.org/2000/svg" viewBox="0 0 20 20" xml:space="preserve">
    <path d="M11.452 4.046c-1.312 0-2.29.337-3.35 1.396C7.026 6.52 6.759 8.279 7.37 9.926l-2.516 2.516c-1.01 1.01-1.019 2.313-.313 3.02.707.706 2.01.697 3.02-.313l2.517-2.518c1.646.607 3.404.347 4.483-.732 1.059-1.059 1.397-2.038 1.392-3.355a.5.5 0 0 0-.146-.352l-1-1a.5.5 0 0 0-.707 0l-1.854 1.854h-.585l-.708-.707v-.586l1.854-1.854a.5.5 0 0 0 0-.707l-1-1a.5.5 0 0 0-.354-.146zm-.181 1.025.474.475L10.1 7.192a.5.5 0 0 0-.147.354v1a.5.5 0 0 0 .147.353l1 1a.5.5 0 0 0 .353.147h1a.5.5 0 0 0 .354-.147l1.646-1.646.475.474c-.019 1.033-.193 1.584-1.074 2.465-.832.832-2.354 1.136-3.752.473a.5.5 0 0 0-.568.097l-2.68 2.68c-.74.74-1.312.606-1.606.313-.293-.294-.427-.866.313-1.606l2.678-2.678a.5.5 0 0 0 .097-.568c-.666-1.399-.358-2.921.475-3.754.88-.88 1.433-1.056 2.46-1.078z" fill="#ffffff"/>
</svg>
