<svg xmlns="http://www.w3.org/2000/svg" viewBox="0 0 20 20" xml:space="preserve">
    <g fill="#ffffff">
        <path d="M72.5 32a.5.5 0 0 0-.33.123l-2 1.75a.5.5 0 0 0-.17.377V36h-1.5a.5.5 0 0 0-.5.5V38c0 .986.74 1.689 1.568 1.92.716.2 1.515.048 2.184-.385L73 40.94v2.311c0 .889.394 1.618.969 2.078.574.46 1.306.672 2.031.672.725 0 1.457-.212 2.031-.672.575-.46.969-1.19.969-2.078v-2.31l1.248-1.405c.67.433 1.468.585 2.184.385C83.259 39.689 84 38.986 84 38v-1.5a.5.5 0 0 0-.5-.5H82v-1.75a.5.5 0 0 0-.17-.377l-2-1.75A.5.5 0 0 0 79.5 32h-2a.5.5 0 0 0-.354.146l-.853.854h-.586l-.853-.854A.5.5 0 0 0 74.5 32zm.188 1h1.605l.853.854A.5.5 0 0 0 75.5 34h1a.5.5 0 0 0 .354-.146l.853-.854h1.606L81 34.479V36.5a.5.5 0 0 0 .5.5H83v1c0 .514-.322.811-.838.955-.394.11-.821-.063-1.207-.25a.5.5 0 0 0-.828-.537l-2 2.25a.5.5 0 0 0-.127.332v2.5c0 .611-.23 1.007-.594 1.297-.363.29-.881.453-1.406.453-.525 0-1.043-.163-1.406-.453-.363-.29-.594-.686-.594-1.297v-2.5a.5.5 0 0 0-.127-.332l-2-2.25a.5.5 0 0 0-.828.537c-.386.187-.813.36-1.207.25-.516-.144-.838-.441-.838-.955v-1h1.5a.5.5 0 0 0 .5-.5v-2.023z" fill="#ffffff" transform="translate(-66 -29)"/>
        <path d="M74 35a.5.5 0 0 0-.354.146l-.5.5A.5.5 0 0 0 73 36v.5a.5.5 0 1 0 1 0v-.293l.207-.207h.293a.5.5 0 1 0 0-1zm4 0a.5.5 0 0 0-.354.146l-.5.5A.5.5 0 0 0 77 36v.5a.5.5 0 1 0 1 0v-.293l.207-.207h.293a.5.5 0 1 0 0-1zm-2.5 3a.5.5 0 1 0 0 1h1a.5.5 0 1 0 0-1z" fill="#ffffff" transform="translate(-66 -29)"/>
    </g>
</svg>
