<svg xmlns="http://www.w3.org/2000/svg" viewBox="0 0 20 20" xml:space="preserve">
    <path d="M7.984 2.5A3.488 3.488 0 0 0 4.5 5.984v8.032A3.488 3.488 0 0 0 7.984 17.5h4.032a3.488 3.488 0 0 0 3.484-3.484V5.984A3.488 3.488 0 0 0 12.016 2.5zm0 1h4.032C13.4 3.5 14.5 4.6 14.5 5.984v8.032c0 1.384-1.1 2.484-2.484 2.484H7.984A2.469 2.469 0 0 1 5.5 14.016V5.984C5.5 4.6 6.6 3.5 7.984 3.5zm1.563 1c-.571 0-1.047.476-1.047 1.047v3.906c0 .571.476 1.047 1.047 1.047h.906c.571 0 1.047-.476 1.047-1.047V5.547c0-.571-.476-1.047-1.047-1.047z" fill="#ffffff"/>
</svg>
