<svg xmlns="http://www.w3.org/2000/svg" viewBox="0 0 20 20" xml:space="preserve">
    <g fill="#ffffff">
        <g fill="#ffffff">
            <path fill="#ffffff" d="M157.492 453.992a.5.5 0 0 0-.492.508v4a.5.5 0 1 0 1 0v-4a.5.5 0 0 0-.508-.508z" transform="translate(-150 -449.01)"/>
            <path fill="#ffffff" d="M80.477 451.021a.5.5 0 0 0-.315.872c.588.544.842 1.085.842 1.601L81 459.5a.5.5 0 1 0 1 0l.004-6.006c0-.85-.432-1.66-1.162-2.336a.5.5 0 0 0-.365-.137zm-8.915.979A3.566 3.566 0 0 0 68 455.563v7.875A3.566 3.566 0 0 0 71.563 467h3.874A3.566 3.566 0 0 0 79 463.437v-7.875A3.566 3.566 0 0 0 75.437 452zm0 1h3.876A2.546 2.546 0 0 1 78 455.563v7.875A2.546 2.546 0 0 1 75.437 466h-3.874A2.546 2.546 0 0 1 69 463.437v-7.875A2.546 2.546 0 0 1 71.563 453zm11.93.037a.5.5 0 0 0-.492.506v4.059a.5.5 0 1 0 1 0v-4.059a.5.5 0 0 0-.508-.506z" transform="translate(-66 -449.01)"/>
        </g>
    </g>
</svg>
