<svg xmlns="http://www.w3.org/2000/svg" viewBox="0 0 20 20" xml:space="preserve">
    <path fill="#ffffff" d="M9.516 2.99A3.48 3.48 0 0 1 13 6.473v3.015a.5.5 0 0 1-.498.5l-4.01.008a.5.5 0 0 1-.5-.5L8 3.525v-.038a.5.5 0 0 1 .5-.498zM7 2.99v1H5.484A2.469 2.469 0 0 0 3 6.473v8.031c0 1.385 1.1 2.484 2.484 2.484h4.032c1.384 0 2.484-1.1 2.484-2.484V10.99h1v3.516a3.488 3.488 0 0 1-3.484 3.484H5.484A3.488 3.488 0 0 1 2 14.505V6.474a3.488 3.488 0 0 1 3.484-3.485zm7.477-.979a.5.5 0 0 0-.315.871c.588.545.842 1.086.842 1.602L15 10.489a.5.5 0 1 0 1 0l.004-6.005c0-.851-.432-1.66-1.162-2.336a.5.5 0 0 0-.365-.137zm3.015 2.016a.5.5 0 0 0-.492.505v4.059a.5.5 0 1 0 1 0V4.532a.5.5 0 0 0-.508-.505z"/>
</svg>
