<svg xmlns="http://www.w3.org/2000/svg" viewBox="0 0 20 20" xml:space="preserve">
    <path fill="#ffffff" d="M5.484 2.99A3.488 3.488 0 0 0 2 6.473v8.031a3.488 3.488 0 0 0 3.484 3.484h4.032A3.488 3.488 0 0 0 13 14.505V6.474a3.488 3.488 0 0 0-3.484-3.485zm0 1h4.032C10.9 3.99 12 5.09 12 6.473v8.031c0 1.385-1.1 2.484-2.484 2.484H5.484A2.469 2.469 0 0 1 3 14.505V6.474c0-1.385 1.1-2.485 2.484-2.485zm1.563 1C6.476 4.99 6 5.464 6 6.035v3.907c0 .57.476 1.046 1.047 1.046h.906A1.053 1.053 0 0 0 9 9.943V6.036c0-.571-.476-1.047-1.047-1.047zm7.43-2.979a.5.5 0 0 0-.315.871c.588.545.842 1.086.842 1.602L15 10.489a.5.5 0 1 0 1 0l.004-6.005c0-.851-.432-1.66-1.162-2.336a.5.5 0 0 0-.365-.137zm3.015 2.016a.5.5 0 0 0-.492.505v4.059a.5.5 0 1 0 1 0V4.532a.5.5 0 0 0-.508-.505z"/>
</svg>
