<svg xmlns="http://www.w3.org/2000/svg" viewBox="0 0 20 20" xml:space="preserve">
    <g fill="#ffffff">
        <path d="M164.508 224a.5.5 0 0 1 .431.271c1.44 2.72 1.438 6.742-.008 9.46a.5.5 0 1 1-.882-.471c1.244-2.339 1.245-6.18.006-8.52a.5.5 0 0 1 .453-.74zm-1.996 1.998a.5.5 0 0 1 .492.506v4.992a.5.5 0 1 1-1 0v-4.992a.5.5 0 0 1 .508-.506zM159.25 223a.5.5 0 0 0-.354.146L156.043 226H154.5a.5.5 0 0 0-.5.5v5a.5.5 0 0 0 .5.5h1.543l2.853 2.854a.5.5 0 0 0 .354.146h.25a.5.5 0 0 0 .5-.5v-11a.5.5 0 0 0-.5-.5z" fill="#ffffff" transform="translate(-150.009 -219)"/>
    </g>
</svg>
