<svg xmlns="http://www.w3.org/2000/svg" viewBox="0 0 20 20" xml:space="preserve">
    <g fill="#ffffff">
        <path fill="#ffffff" d="M543.5 33c-.823 0-1.5.677-1.5 1.5 0 .23.058.447.152.643a.5.5 0 0 0-.006.003L540.293 37h-.793a.5.5 0 1 0 0 1h1a.5.5 0 0 0 .354-.146l2-2a.5.5 0 0 0 .004-.006c.195.094.412.152.642.152.823 0 1.5-.677 1.5-1.5s-.677-1.5-1.5-1.5zm0 1c.282 0 .5.218.5.5 0 .282-.218.5-.5.5a.493.493 0 0 1-.5-.5c0-.282.218-.5.5-.5zm0 5c-.647 0-1.198.421-1.406 1H539.5a.5.5 0 1 0 0 1h2.594c.208.579.76 1 1.406 1 .823 0 1.5-.677 1.5-1.5s-.677-1.5-1.5-1.5zm0 1c.282 0 .5.218.5.5 0 .282-.218.5-.5.5a.493.493 0 0 1-.5-.5c0-.282.218-.5.5-.5zm-4 2.992a.5.5 0 1 0 0 1h.793l1.853 1.854a.5.5 0 0 0 .008.008 1.472 1.472 0 0 0-.154.646c0 .823.677 1.5 1.5 1.5s1.5-.677 1.5-1.5-.677-1.5-1.5-1.5c-.228 0-.443.056-.637.148a.5.5 0 0 0-.01-.01l-2-2a.5.5 0 0 0-.353-.146zm4 3.008c.282 0 .5.218.5.5 0 .282-.218.5-.5.5a.493.493 0 0 1-.5-.5c0-.282.218-.5.5-.5z" transform="translate(-528 -30.5)"/>
        <path transform="translate(-609 -71.5)" fill="#ffffff" d="M616 85h1v1h-1zm-2 0h1v1h-1zm-.463-8c-.843 0-1.537.694-1.537 1.537v7.926c0 .843.694 1.537 1.537 1.537h5.926A1.547 1.547 0 0 0 621 86.463v-7.926c0-.843-.694-1.537-1.537-1.537zm0 7h5.926c.306 0 .537.231.537.537v1.926a.526.526 0 0 1-.537.537h-5.926a.526.526 0 0 1-.537-.537v-1.926c0-.306.231-.537.537-.537z"/>
    </g>
</svg>
