<svg xmlns="http://www.w3.org/2000/svg" viewBox="0 0 20 20" xml:space="preserve">
    <g fill="#ffffff">
        <g fill="#ffffff">
            <path fill="#ffffff" d="M300.5 375a.5.5 0 0 0-.5.5v3a.5.5 0 0 0 .5.5h5.5v-1h-5v-2h5v-1zm8.5 0v1h2v2h-2v1h2.5a.5.5 0 0 0 .5-.5v-3a.5.5 0 0 0-.5-.5z" transform="matrix(1 0 0 -1 -297 385)"/>
            <path fill="#ffffff" d="M302.5 378a.5.5 0 0 0-.5.5v3a.5.5 0 0 0 .5.5h3.5v-1h-3v-2h3v-1zm6.5 0v1h4v2h-4v1h4.5a.5.5 0 0 0 .5-.5v-3a.5.5 0 0 0-.5-.5z" transform="matrix(1 0 0 -1 -297 385)"/>
        </g>
        <path fill="#ffffff" d="M265 536v13.965h1V536zm-4.5 10a.5.5 0 0 0-.5.5v3a.5.5 0 0 0 .5.5h3.5v-4zm6.5 0v4h4.5a.5.5 0 0 0 .5-.5v-3a.5.5 0 0 0-.5-.5z" transform="translate(-255 -533)"/>
    </g>
</svg>
