<svg xmlns="http://www.w3.org/2000/svg" viewBox="0 0 20 20" xml:space="preserve">
    <g fill="#ffffff">
        <g fill="#ffffff">
            <path fill="#ffffff" d="M746.492-91.008a.5.5 0 0 0-.492.508v2.504l-2.5.004a.5.5 0 1 0 0 1l3-.004a.5.5 0 0 0 .5-.5V-90.5a.5.5 0 0 0-.508-.508zm2.008 3.016a.5.5 0 1 0 0 1h3a.5.5 0 1 0 0-1zm5 0a.5.5 0 1 0 0 1h3a.5.5 0 1 0 0-1zm-7.008 1.986a.5.5 0 0 0-.492.506v3a.5.5 0 1 0 1 0v-3a.5.5 0 0 0-.508-.506zm0 5a.5.5 0 0 0-.492.506v3a.5.5 0 1 0 1 0v-3a.5.5 0 0 0-.508-.506z" transform="rotate(-90 427 333)"/>
        </g>
        <path fill="#ffffff" d="M160.5 327c-.822 0-1.5.678-1.5 1.5v4c0 .822.678 1.5 1.5 1.5h5c.822 0 1.5-.678 1.5-1.5v-4c0-.822-.678-1.5-1.5-1.5zm0 5h5a.5.5 0 1 1 0 1h-5a.5.5 0 1 1 0-1z" transform="translate(-150.007 -323)"/>
    </g>
</svg>
