<svg xmlns="http://www.w3.org/2000/svg" viewBox="0 0 20 20" xml:space="preserve">
    <g fill="#ffffff">
        <path fill="#ffffff" d="M324.61 536c-.857 0-1.61.648-1.61 1.5v3c0 .852.753 1.5 1.61 1.5h4.78c.857 0 1.61-.648 1.61-1.5v-3c0-.852-.753-1.5-1.61-1.5zm7.39 1v3c.563 0 1-.504 1-1.031v-.938c0-.527-.437-1.031-1-1.031zm-7.535 3a.5.5 0 0 1 .035 0h5a.5.5 0 1 1 0 1h-5a.5.5 0 0 1-.035-1zm-1.856 4c-.856 0-1.609.648-1.609 1.5v3c0 .852.753 1.5 1.61 1.5h4.78c.857 0 1.61-.648 1.61-1.5v-3c0-.852-.753-1.5-1.61-1.5zm7.391 2v3c.563 0 1-.504 1-1.031v-.938c0-.527-.437-1.031-1-1.031zm-7.535 2a.5.5 0 0 1 .035 0h5a.5.5 0 1 1 0 1h-5a.5.5 0 0 1-.035-1z" transform="translate(-318 -533)"/>
        <g fill="#ffffff">
            <path fill="#ffffff" d="M332.5 307v1c.56 0 .908.143 1.133.367.224.225.367.574.367 1.133v5c0 .56-.143.908-.367 1.133-.225.224-.574.367-1.133.367h-2v1h2c.74 0 1.389-.21 1.84-.66.45-.451.66-1.1.66-1.84v-5c0-.74-.21-1.389-.66-1.84-.451-.45-1.1-.66-1.84-.66z" transform="translate(-318 -302)"/>
        </g>
    </g>
</svg>
