<svg xmlns="http://www.w3.org/2000/svg" viewBox="0 0 20 20" xml:space="preserve">
    <g fill="#ffffff">
        <path fill="#ffffff" d="M496 535.938a7.066 7.066 0 0 0-6.291 3.85 7.038 7.038 0 0 0-.772 3.212 7.07 7.07 0 0 0 7.063 7.063 7.07 7.07 0 0 0 7.063-7.063 7.07 7.07 0 0 0-7.063-7.063zm0 1a6.055 6.055 0 0 1 6.063 6.062 6.055 6.055 0 0 1-6.063 6.063 6.055 6.055 0 0 1-6.063-6.063 6.058 6.058 0 0 1 6.063-6.063zm0 1.062a1 1 0 0 0-1 1 1 1 0 0 0 1 1 1 1 0 0 0 1-1 1 1 0 0 0-1-1zm-2.824 1.162a1 1 0 0 0-.688.305 5 5 0 0 0-1.289 2.24 1 1 0 1 0 1.932.516c.136-.51.402-.974.773-1.346a1 1 0 0 0-.728-1.715z" transform="matrix(1 0 0 1 -486 -533)"/>
    </g>
</svg>
