<svg xmlns="http://www.w3.org/2000/svg" viewBox="0 0 20 20" xml:space="preserve">
    <g fill="#ffffff">
        <path fill="#ffffff" d="M92.496 325.994a.5.5 0 0 0-.383.822l4.5 5.5a.5.5 0 0 0 .774 0l4.5-5.5a.5.5 0 1 0-.774-.632L97 331.21l-4.113-5.027a.5.5 0 0 0-.39-.19z" transform="translate(-87 -322.992)"/>
        <path fill="#ffffff" d="M91.25 334c-.684 0-1.25.566-1.25 1.25v3.5c0 .684.566 1.25 1.25 1.25h3.5c.684 0 1.25-.566 1.25-1.25v-3.5c0-.684-.566-1.25-1.25-1.25zm8 0c-.684 0-1.25.566-1.25 1.25v3.5c0 .684.566 1.25 1.25 1.25h3.5c.684 0 1.25-.566 1.25-1.25v-3.5c0-.684-.566-1.25-1.25-1.25zm-7.75 4h3a.5.5 0 1 1 0 1h-3a.5.5 0 1 1 0-1zm8 0h3a.5.5 0 1 1 0 1h-3a.5.5 0 1 1 0-1z" transform="translate(-87 -322.992)"/>
    </g>
</svg>
