<svg xmlns="http://www.w3.org/2000/svg" viewBox="0 0 20 20" xml:space="preserve">
    <g fill="#ffffff">
        <path fill="#ffffff" d="M451.5 536a.5.5 0 0 0-.5.5v9a.5.5 0 0 0 .5.5h9a.5.5 0 0 0 .5-.5v-9a.5.5 0 0 0-.5-.5zm.5 1h8v8h-8z" transform="translate(-444 -533)"/>
        <path fill="#ffffff" d="M449.492 537.992a.5.5 0 0 0-.492.508v9a.5.5 0 0 0 .5.5h9a.5.5 0 1 0 0-1H450v-8.5a.5.5 0 0 0-.508-.508zm-2 2a.5.5 0 0 0-.492.508v9a.5.5 0 0 0 .5.5h9a.5.5 0 1 0 0-1H448v-8.5a.5.5 0 0 0-.508-.508z" transform="translate(-444 -533)"/>
        <path fill="#ffffff" d="M460.484 536a.5.5 0 0 0-.338.146l-9 9a.5.5 0 0 0 .354.854h9a.5.5 0 0 0 .5-.5v-9a.5.5 0 0 0-.516-.5z" transform="translate(-444 -533)"/>
    </g>
</svg>
