<svg xmlns="http://www.w3.org/2000/svg" viewBox="0 0 20 20" xml:space="preserve">
    <g fill="#ffffff">
        <path d="M775.469 284c-.805 0-1.469.664-1.469 1.469v11.062c0 .805.664 1.469 1.469 1.469h8.062c.805 0 1.469-.664 1.469-1.469v-.582c-1.682-.248-3-1.704-3-3.449 0-1.745 1.318-3.201 3-3.45v-3.581c0-.805-.664-1.469-1.469-1.469zm-.469 1h9v3h-9z" fill="#ffffff" transform="translate(-771 -281)"/>
        <path fill="#ffffff" d="M785.5 295a2.508 2.508 0 0 1-2.5-2.5c0-1.375 1.125-2.5 2.5-2.5s2.5 1.125 2.5 2.5-1.125 2.5-2.5 2.5z" transform="translate(-771 -281)"/>
    </g>
</svg>
