<svg xmlns="http://www.w3.org/2000/svg" viewBox="0 0 20 20" xml:space="preserve">
    <g fill="#ffffff">
        <g fill="#ffffff">
            <path fill="#ffffff" d="M501.98 136.99a1 1 0 0 0-.687.303l-2.72 2.72c-.027 0-.052-.007-.079-.007-.822 0-1.5.677-1.5 1.5 0 .822.678 1.5 1.5 1.5.823 0 1.5-.678 1.5-1.5 0-.027-.006-.052-.008-.078l2.72-2.721a1 1 0 0 0-.726-1.717z" transform="translate(-486.002 -133.995)"/>
        </g>
        <g fill="#ffffff">
            <path fill="#ffffff" d="M489.494 140a.5.5 0 0 0-.5.5v2a.5.5 0 0 0 .5.5h.5v5h-.5a.5.5 0 0 0-.5.5v2a.5.5 0 0 0 .5.5h2a.5.5 0 0 0 .5-.5v-.508h5v.508a.5.5 0 0 0 .5.5h2a.5.5 0 0 0 .5-.5v-2a.5.5 0 0 0-.5-.5h-.5v-4h-1v4h-.5a.5.5 0 0 0-.5.5v.492h-5v-.492a.5.5 0 0 0-.5-.5h-.5v-5h.5a.5.5 0 0 0 .5-.5v-.508H496v-1h-4.006v-.492a.5.5 0 0 0-.5-.5zm.5 1h1v1h-1zm0 8h1v1h-1zm8 0h1v1h-1z" transform="translate(-486.002 -133.995)"/>
        </g>
    </g>
</svg>
