<svg xmlns="http://www.w3.org/2000/svg" viewBox="0 0 20 20" xml:space="preserve">
    <g fill="#ffffff">
        <g fill="#ffffff">
            <path fill="#ffffff" d="M181.984 115.986A1 1 0 0 0 181 117v4.832a1 1 0 0 0 .29.885 1 1 0 0 0 .005.006 1 1 0 0 0 .014.014 1 1 0 0 0 .85.263H187a1 1 0 1 0 0-2h-4v-4a1 1 0 0 0-1.016-1.014z" transform="translate(-171.003 -112.995)"/>
        </g>
        <g fill="#ffffff">
            <g fill="#ffffff">
                <g fill="#ffffff">
                    <path fill="#ffffff" d="M-563.5 607a.5.5 0 0 0-.5.5v9a.5.5 0 0 0 .5.5h9a.5.5 0 0 0 .5-.5l.006-5.508h-1L-555 616h-8v-8h5.004v-1z" transform="matrix(0 -1 -1 0 619.99 -546.992)"/>
                </g>
            </g>
        </g>
    </g>
</svg>
