<svg xmlns="http://www.w3.org/2000/svg" viewBox="0 0 20 20" xml:space="preserve">
    <g fill="#ffffff">
        <path d="M202.988 114.988a1 1 0 0 0-.986 1.014v8c-.02 1.352 2.02 1.352 2 0v-8a1 1 0 0 0-1.014-1.014z" fill="#ffffff" transform="rotate(90 162.496 -30.501)"/>
        <g fill="#ffffff">
            <g fill="#ffffff">
                <path d="M-564.5 609c-.595-.006-.7.848-.121.986l-.283-.072 1.92 7.707a.5.5 0 0 0 .484.379h11a.5.5 0 0 0 .5-.496l.01-.998a.488.488 0 0 0-.02-.14l-2.005-7.003a.5.5 0 0 0-.483-.363l-2.496-.014.002 1 2.119.016 1.88 6.568-.001.43h-10.113l-1.745-7 3.86-.014v-1z" fill="#ffffff" transform="rotate(90 26.498 594.496)"/>
            </g>
        </g>
    </g>
</svg>
