<svg xmlns="http://www.w3.org/2000/svg" viewBox="0 0 20 20" xml:space="preserve">
    <g fill="#ffffff">
        <g fill="#ffffff">
            <path fill="#ffffff" d="M430.492 134.992a.5.5 0 0 0-.388.196.5.5 0 0 0-.004.006l-1.954 1.953a.5.5 0 1 0 .707.707l1.147-1.147v3.793a.5.5 0 1 0 1 0v-3.793l1.146 1.147a.5.5 0 1 0 .708-.708l-1.958-1.957a.5.5 0 0 0-.404-.197zm7.002 7.002a.5.5 0 0 0-.348.86l1.147 1.146H434.5a.5.5 0 1 0 0 1h3.793l-1.147 1.146a.5.5 0 1 0 .708.708l1.957-1.958a.5.5 0 0 0 .002-.792.5.5 0 0 0-.006-.004l-1.954-1.954a.5.5 0 0 0-.359-.152zm-11.002 2.998a.5.5 0 0 0-.492.508v2.94a.5.5 0 0 0 .56.56h2.94a.5.5 0 1 0 0-1h-1.793l1.147-1.146a.5.5 0 1 0-.708-.708L427 147.293V145.5a.5.5 0 0 0-.508-.508z" transform="translate(-423.001 -131.998)"/>
            <path d="M432.996 144a1.996 1.996 0 0 1-1.996 1.996 1.996 1.996 0 0 1-1.996-1.996 1.996 1.996 0 0 1 1.996-1.996 1.996 1.996 0 0 1 1.996 1.996z" fill="#ffffff" transform="translate(-423.001 -131.998)"/>
        </g>
    </g>
</svg>
