<svg xmlns="http://www.w3.org/2000/svg" viewBox="0 0 20 20" xml:space="preserve">
    <g fill="#ffffff">
        <path fill="#ffffff" d="M468.5 599a.5.5 0 0 0-.5.5v3.5h1v-3h3v-1zm9.5 0v1h3v3h1v-3.5a.5.5 0 0 0-.5-.5zm-10 10v3.5a.5.5 0 0 0 .5.5h3.5v-1h-3v-3zm13 0v3h-3v1h3.5a.5.5 0 0 0 .5-.5V609z" transform="translate(-465 -596)"/>
        <path fill="#ffffff" d="M471.5 602a.5.5 0 0 0-.5.5v1.5h1v-1h1v-1zm2.5 0v1h2v-1zm3 0v1h1v1h1v-1.5a.5.5 0 0 0-.5-.5zm-6 3v2h1v-2zm7 0v2h1v-2zm-7 3v1.5a.5.5 0 0 0 .5.5h1.5v-1h-1v-1zm7 0v1h-1v1h1.5a.5.5 0 0 0 .5-.5V608zm-4 1v1h2v-1z" transform="translate(-465 -596)"/>
    </g>
</svg>
