<svg xmlns="http://www.w3.org/2000/svg" viewBox="0 0 20 20" xml:space="preserve">
    <g fill="#ffffff">
        <path transform="translate(-465 -407)" d="M469.084 415.586a4.495 4.495 0 0 0-1.043 3.521 4.503 4.503 0 0 0 3.332 3.75 4.495 4.495 0 0 0 4.035-.941c-.296.05-.598.084-.908.084-.386 0-.763-.042-1.127-.12a3.488 3.488 0 0 1-1.75.009 3.496 3.496 0 0 1-2.592-2.916 3.486 3.486 0 0 1 .088-1.346 5.446 5.446 0 0 1-.119-1.123c0-.313.033-.619.084-.918z" fill="#ffffff"/>
        <path transform="translate(-465 -407)" d="M473.086 412.25c-1.786.597-3.086 2.267-3.086 4.25 0 2.48 2.02 4.5 4.5 4.5.489 0 .951-.097 1.393-.242a5.49 5.49 0 0 1-1.557-.774A3.485 3.485 0 0 1 471 416.5c0-1.084.499-2.037 1.268-2.678a5.487 5.487 0 0 1 .818-1.572z" fill="#ffffff"/>
        <path d="M435.5 411a4.515 4.515 0 0 0-4.5 4.5c0 2.473 2.027 4.5 4.5 4.5s4.5-2.027 4.5-4.5-2.027-4.5-4.5-4.5zm0 2c1.393 0 2.5 1.107 2.5 2.5s-1.107 2.5-2.5 2.5a2.485 2.485 0 0 1-2.5-2.5c0-1.393 1.107-2.5 2.5-2.5z" fill="#ffffff" transform="translate(-423 -407)"/>
    </g>
</svg>
