<svg xmlns="http://www.w3.org/2000/svg" viewBox="0 0 20 20" xml:space="preserve">
    <g fill="#ffffff">
        <path fill="#ffffff" d="M-272.5 1452c-.823 0-1.5.677-1.5 1.5s.677 1.5 1.5 1.5 1.5-.677 1.5-1.5-.677-1.5-1.5-1.5zm-5 5c-.823 0-1.5.677-1.5 1.5s.677 1.5 1.5 1.5 1.5-.677 1.5-1.5-.677-1.5-1.5-1.5zm3 5c-.823 0-1.5.677-1.5 1.5s.677 1.5 1.5 1.5 1.5-.677 1.5-1.5-.677-1.5-1.5-1.5z" transform="translate(285.004 -1448.5)"/>
        <path fill="#ffffff" d="M-268.5 1463c.657.01.657.99 0 1h-3.5v-1zm-8.508 0v1h-4.5c-.657-.01-.657-.99 0-1zm-4.5-10c-.657.01-.657.99 0 1h6.5v-1zm11.508 0v1h1.5c.657-.01.657-.99 0-1zm-11.508 5c-.657.01-.657.99 0 1h1.5v-1zm6.508 0v1h6.5c.657-.01.657-.99 0-1z" transform="translate(285.004 -1448.5)"/>
    </g>
</svg>
