<svg xmlns="http://www.w3.org/2000/svg" viewBox="0 0 20 20" xml:space="preserve">
    <g fill="#ffffff">
        <g fill="#ffffff">
            <path transform="translate(64.486 -155.502)" d="M-58.979 159.004a2.581 2.581 0 0 0-.761.066 1.61 1.61 0 0 0-1.09.903c-.197.453-.204.986-.076 1.591.51 2.42 3.039 5.667 6.039 8.03 1.5 1.181 2.898 1.958 4.068 2.267.585.155 1.12.199 1.602.067a1.604 1.604 0 0 0 1.078-.973c.362-.97-.015-2.161-.733-3.5-.585-1.092-1.45-2.28-2.51-3.45h1.696a.5.5 0 1 0 0-1h-2.828a.5.5 0 0 0-.5.5v2.829a.5.5 0 1 0 1 0v-1.54c.963 1.081 1.742 2.169 2.26 3.134.657 1.226.838 2.253.68 2.677-.08.212-.177.295-.407.358-.23.063-.603.057-1.08-.069-.953-.252-2.282-.961-3.709-2.085-2.854-2.248-5.275-5.546-5.676-7.45-.1-.476-.066-.803.014-.988.08-.184.178-.27.414-.328.472-.118 1.519.093 2.852.853a.5.5 0 0 0 .496-.869c-1.082-.617-2.022-.98-2.829-1.023z" fill="#ffffff"/>
            <path d="M435.915 1838.918a.5.5 0 0 1-.108.08c-1.551.876-2.81 1.235-3.779.847a1.626 1.626 0 0 1-.964-1.157c-.118-.525-.045-1.125.177-1.816.888-2.763 3.962-6.303 7.153-8.395 1.596-1.046 2.942-1.574 4.022-1.474.54.05 1.041.307 1.317.757s.324 1.02.21 1.663a.5.5 0 1 1-.986-.174c.088-.494.024-.803-.076-.965-.099-.163-.237-.254-.556-.284-.638-.059-1.885.331-3.383 1.313-2.994 1.963-5.998 5.531-6.748 7.866-.188.584-.213 1.024-.153 1.289.06.265.15.366.357.449.413.165 1.486.019 2.918-.789a.5.5 0 0 1 .599.79z" fill="#ffffff" transform="translate(-427.505 -1823.496)"/>
        </g>
    </g>
</svg>
