<svg xmlns="http://www.w3.org/2000/svg" viewBox="0 0 20 20" xml:space="preserve">
    <g fill="#ffffff">
        <path d="M79.49 286.996a.5.5 0 0 0-.05.004H76.5a.5.5 0 1 0 0 1h1.793l-5.147 5.146a.5.5 0 1 0 .708.708L79 288.707v1.793a.5.5 0 1 0 1 0v-2.94a.5.5 0 0 0-.51-.564z" fill="#ffffff" transform="translate(-66 -281)"/>
        <path transform="translate(105.99 -155.006)" d="M-100.498 157.998a.5.5 0 0 0-.389.195.5.5 0 0 0-.004.006l-1.953 1.953a.5.5 0 1 0 .707.708l1.147-1.147v7.574c-.594.348-1 .986-1 1.719 0 1.099.901 2 2 2 .733 0 1.37-.406 1.718-1h7.575l-1.147 1.146a.5.5 0 1 0 .707.708l1.957-1.958a.5.5 0 0 0 .002-.792.5.5 0 0 0-.006-.004l-1.953-1.954a.5.5 0 0 0-.36-.152.5.5 0 0 0-.347.86l1.147 1.146h-7.293c0-1.099-.902-2-2-2v-7.293l1.146 1.146a.5.5 0 1 0 .707-.707l-1.957-1.957a.5.5 0 0 0-.404-.197zm.508 10.008c.558 0 1 .442 1 1s-.442 1-1 1-1-.442-1-1 .442-1 1-1z" fill="#ffffff"/>
    </g>
</svg>
