<svg xmlns="http://www.w3.org/2000/svg" viewBox="0 0 20 20" xml:space="preserve">
    <g fill="#ffffff">
        <path transform="translate(84.994 -155.006)" d="M-71.318 158.006a.5.5 0 1 0 0 1h1.69l-3.384 4.27a1.967 1.967 0 0 0-.978-.27c-.733 0-1.37.406-1.719 1h-4.582l1.146-1.147a.5.5 0 0 0-.363-.857.5.5 0 0 0-.344.15l-2 2a.5.5 0 0 0 0 .707l2 2a.5.5 0 1 0 .707-.707l-1.146-1.146h4.3c0 1.099.902 2 2 2 1.1 0 2-.901 2-2 0-.378-.113-.729-.298-1.031l3.299-4.162v1.521a.5.5 0 1 0 1 0v-2.828a.5.5 0 0 0-.5-.5zm-2.672 6c.558 0 1 .442 1 1s-.442 1-1 1-1-.442-1-1 .442-1 1-1z" fill="#ffffff"/>
        <path d="M99.244 291.738a.5.5 0 0 0-.396.817L102.36 297h-1.69a.5.5 0 1 0 0 1h2.829a.5.5 0 0 0 .5-.5v-2.828a.5.5 0 1 0-1 0v1.521l-3.367-4.26a.5.5 0 0 0-.389-.195z" fill="#ffffff" transform="translate(-86.996 -281)"/>
    </g>
</svg>
