<svg xmlns="http://www.w3.org/2000/svg" viewBox="0 0 20 20" xml:space="preserve">
    <path fill="#ffffff" d="M15.996 2.997c-1.318 0-2.691.287-3.697 1.293a1 1 0 1 0 1.414 1.414c.494-.494 1.248-.707 2.283-.707a1 1 0 1 0 0-2zM8.756 6.04a6.463 6.463 0 0 0-2.131.307c-1.328.44-2.472 1.537-2.617 3.06-.195 2.05.807 3.494 1.027 4.346.146.565.023.723-.181.918-.205.195-.613.332-.85.332a1 1 0 1 0 0 2c.763 0 1.574-.26 2.23-.887.657-.627 1.033-1.718.737-2.865-.372-1.438-1.095-2.376-.973-3.654.068-.716.44-1.082 1.256-1.352.815-.27 2.03-.274 3.232.069 1.203.342 2.384 1.015 3.22 1.957.834.941 1.35 2.127 1.292 3.689-.022.585-.189.774-.373.895-.184.12-.502.181-.91.072-.657-.176-1.013-.585-1.3-1.303-.289-.718-.41-1.704-.41-2.627a1 1 0 1 0-2 0c0 1.077.112 2.275.552 3.371.44 1.097 1.307 2.133 2.64 2.49.842.226 1.766.167 2.524-.33.757-.496 1.235-1.422 1.275-2.492v-.002c.076-2.061-.66-3.81-1.795-5.09-1.135-1.28-2.64-2.12-4.166-2.554a8.856 8.856 0 0 0-2.28-.35z"/>
</svg>
