<svg xmlns="http://www.w3.org/2000/svg" viewBox="0 0 20 20" xml:space="preserve">
    <path fill="#ffffff" d="M10.5 2.989a1.5 1.5 0 0 0-1.5 1.5 1.5 1.5 0 0 0 .088.5H4.52a1.5 1.5 0 1 0 0 3H8v1.949c-1.32 1.336-2.474 2.77-2.97 5.256a1.5 1.5 0 1 0 2.94.59c.37-1.85.996-2.603 2.03-3.63 1.034 1.027 1.66 1.78 2.03 3.63a1.5 1.5 0 1 0 2.94-.59c-.496-2.486-1.65-3.92-2.97-5.256v-1.95h3.48a1.5 1.5 0 1 0 0-3h-2.537c-.038.19-.094.378-.177.557A2.502 2.502 0 0 1 10.5 6.99a.5.5 0 1 1 0-1 1.5 1.5 0 0 0 .414-.059c.01-.002.017-.005.025-.008a1.5 1.5 0 0 0 .352-.162l.02-.01a1.5 1.5 0 0 0 .004-.002 1.5 1.5 0 0 0 .29-.25l.03-.03a1.5 1.5 0 0 0 .215-.33l.01-.015.006-.015a1.5 1.5 0 0 0 .134-.62 1.5 1.5 0 0 0-1.5-1.5z"/>
</svg>
