<svg xmlns="http://www.w3.org/2000/svg" viewBox="0 0 20 20" xml:space="preserve">
    <path fill="#ffffff" d="M7.5 13.5a.5.5 0 1 0 0 1h5a.5.5 0 1 0 0-1zm0 2a.5.5 0 1 0 0 1H9v.5a.5.5 0 0 0 .5.5h1a.5.5 0 0 0 .5-.5v-.5h1.5a.5.5 0 1 0 0-1zm2.5-13C6.717 2.5 4 4.941 4 8c0 1.722 1.088 3.295 2.146 4.354a.5.5 0 0 0 .354.146h7a.5.5 0 0 0 .353-.146c.711-.711 1.423-1.652 1.827-2.715.198-.521.32-1.073.32-1.639 0-3.059-2.717-5.5-6-5.5zM7.49 7.506a.52.52 0 0 1 .363.14l.854.854h2.586l.854-.854c.47-.45 1.157.236.707.707L12 9.207V11.5h-1v-2H9v2H8V9.207l-.854-.854a.5.5 0 0 1 .344-.847z"/>
</svg>
