<svg xmlns="http://www.w3.org/2000/svg" viewBox="0 0 20 20" xml:space="preserve">
    <g fill="#ffffff">
        <g fill="#ffffff">
            <path fill="#ffffff" d="M258.996 451.988a1 1 0 0 0-.82 1.567l1.63 2.445-1.63 2.445a1 1 0 0 0 0 1.11l1.63 2.445-1.63 2.445a1 1 0 1 0 1.664 1.11l2-3a1 1 0 0 0 0-1.11L260.209 459l1.63-2.445a1 1 0 0 0 0-1.11l-2-3a1 1 0 0 0-.843-.457zm5 0a1 1 0 0 0-.82 1.567l1.63 2.445-1.63 2.445a1 1 0 0 0 0 1.11l1.63 2.445-1.63 2.445a1 1 0 1 0 1.664 1.11l2-3a1 1 0 0 0 0-1.11L265.209 459l1.63-2.445a1 1 0 0 0 0-1.11l-2-3a1 1 0 0 0-.843-.457zm5 0a1 1 0 0 0-.82 1.567l1.63 2.445-1.63 2.445a1 1 0 0 0 0 1.11l1.63 2.445-1.63 2.445a1 1 0 1 0 1.664 1.11l2-3a1 1 0 0 0 0-1.11L270.209 459l1.63-2.445a1 1 0 0 0 0-1.11l-2-3a1 1 0 0 0-.843-.457z" transform="translate(-255.003 -449)"/>
        </g>
    </g>
</svg>
