<svg xmlns="http://www.w3.org/2000/svg" viewBox="0 0 20 20" xml:space="preserve">
    <g fill="#ffffff">
        <path fill="#ffffff" d="M289.504 410a.5.5 0 0 0-.5.5v1.5h-.994c-1.176 0-2.252.418-2.885 1.182a.5.5 0 1 0 .77.636c.375-.453 1.188-.818 2.115-.818h.994v.5a.5.5 0 0 0 .5.5h3a.5.5 0 0 0 .5-.5v-3a.5.5 0 0 0-.5-.5zm.5 1h2v2h-2zm-4.586 3.959c-1.107.048-2.072.369-2.82.912A3.818 3.818 0 0 0 281.01 419v1h-1.506a.5.5 0 0 0-.5.5v3a.5.5 0 0 0 .5.5h3a.5.5 0 0 0 .5-.5v-3a.5.5 0 0 0-.5-.5h-.494v-1c0-.975.418-1.77 1.176-2.32.757-.55 1.876-.847 3.265-.684 1.99.234 3.414 1.228 4.104 2.332.69 1.104.682 2.238-.149 3.068-.838.838-1.988.894-3.084.264-1.095-.63-2.082-1.98-2.316-3.969-.05-.695-1.105-.57-.992.118.266 2.26 1.404 3.91 2.808 4.718.703.404 1.485.59 2.237.528a3.247 3.247 0 0 0 2.054-.951c1.17-1.17 1.162-2.911.29-4.307-.873-1.396-2.575-2.527-4.835-2.793a7.189 7.189 0 0 0-1.15-.045zM280.004 421h2v2h-2z" transform="translate(-276.004 -407)"/>
    </g>
</svg>
