<svg xmlns="http://www.w3.org/2000/svg" viewBox="0 0 20 20" xml:space="preserve">
    <g fill="#ffffff">
        <path d="M-356.5 1850c-.823 0-1.5.677-1.5 1.5s.677 1.5 1.5 1.5 1.5-.677 1.5-1.5-.677-1.5-1.5-1.5zm0 1c.282 0 .5.218.5.5 0 .282-.218.5-.5.5a.493.493 0 0 1-.5-.5c0-.282.218-.5.5-.5zm-7 1a.5.5 0 0 0-.5.5.5.5 0 0 0 .5.5.5.5 0 0 0 .5-.5.5.5 0 0 0-.5-.5z" fill="#ffffff" transform="translate(369.5 -1844.502)"/>
        <path d="M-357.5 1856.004h.498c3.594 0 5.002-2.5 5.002-4.5 0-2.48-2.02-4.5-4.5-4.5-1.89 0-3.457 1.26-4.105 3h-.518c-.646-.613-1.478-.998-2.375-1h-.002a3.508 3.508 0 0 0-3.5 3.5c0 1.927 1.573 3.5 3.5 3.5zm-6-1.004a2.492 2.492 0 0 1-2.5-2.5 2.496 2.496 0 0 1 4.357-1.666.5.5 0 0 0 .373.166h.903a.5.5 0 0 0 .484-.375A3.495 3.495 0 0 1-356.5 1848c1.939 0 3.5 1.561 3.5 3.5a3.489 3.489 0 0 1-3.469 3.494c-.039 0-.078 0-.117.01h-.914zm-1.008 1.992a.497.497 0 0 0-.492.508v2c.009.657.99.657 1 0v-.5h1v1.5a.5.5 0 0 0 .146.353l1 1a.5.5 0 0 0 .354.147h5a.5.5 0 0 0 .5-.5v-1.504h.336l2.62 1.904a.499.499 0 0 0 .294.1h.25a.5.5 0 0 0 .5-.5v-4a.5.5 0 0 0-.5-.5h-.25a.503.503 0 0 0-.295.096l-2.617 1.904H-356v-2h-1v4h-4.293l-.707-.707V1857h-1v1h-1v-.5a.5.5 0 0 0-.508-.508zm11.508 1.309v2.398l-1.65-1.199z" fill="#ffffff" transform="translate(369.5 -1844.502)"/>
        <path d="M-362 1857h5v1h-5z" fill="#ffffff" transform="translate(369.5 -1844.502)"/>
    </g>
</svg>
