<svg xmlns="http://www.w3.org/2000/svg" viewBox="0 0 20 20" xml:space="preserve">
    <g fill="#ffffff">
        <path fill="#ffffff" d="M1455.5 512a.5.5 0 0 0-.5.5v2a.5.5 0 0 0 .5.5h11a.5.5 0 0 0 .5-.5v-2a.5.5 0 0 0-.5-.5zm.5 4v6.5a.5.5 0 0 0 .5.5h9a.5.5 0 0 0 .5-.5V516zm4 1h2c1.352-.02 1.352 2.02 0 2h-2c-1.352.02-1.352-2.02 0-2z" transform="matrix(-1 0 0 1 1472 -508.5)"/>
        <path fill="#ffffff" d="M1468 514v.5c0 .623-.447 1.068-1 1.29V517h1.5a.5.5 0 0 0 .5-.5v-2a.5.5 0 0 0-.5-.5zm-1 4v4.5c0 .817-.683 1.5-1.5 1.5h-7.5v.5a.5.5 0 0 0 .5.5h9a.5.5 0 0 0 .5-.5V518z" transform="matrix(-1 0 0 1 1472 -508.5)"/>
    </g>
</svg>
