<svg xmlns="http://www.w3.org/2000/svg" viewBox="0 0 20 20" xml:space="preserve">
    <g fill="#ffffff">
        <path fill="#ffffff" d="m-76.5 394-3.752.006a.5.5 0 0 0-.482.379l-1.25 4.994a.5.5 0 0 0 .484.621h3.75a.5.5 0 0 0 .484-.379l1.25-5A.5.5 0 0 0-76.5 394zm6 0-3.752.006a.5.5 0 0 0-.482.379l-1.25 4.994a.5.5 0 0 0 .484.621h3.75a.5.5 0 0 0 .484-.379l1.25-5A.5.5 0 0 0-70.5 394zm-8 7-3.752.006a.5.5 0 0 0-.482.379l-1.25 4.994a.5.5 0 0 0 .484.621h3.75a.5.5 0 0 0 .484-.379l1.25-5A.5.5 0 0 0-78.5 401zm6 0-3.752.006a.5.5 0 0 0-.482.379l-1.25 4.994a.5.5 0 0 0 .484.621h3.75a.5.5 0 0 0 .484-.379l1.25-5A.5.5 0 0 0-72.5 401z" transform="translate(87 -390.5)"/>
    </g>
</svg>
