<svg xmlns="http://www.w3.org/2000/svg" viewBox="0 0 20 20" xml:space="preserve">
    <g fill="#ffffff">
        <path fill="#ffffff" d="M-447.963 710.988a1 1 0 0 0-.838.412c-3.306 4.409-3.182 10.968-3.185 12.584a1 1 0 1 0 2 .006c.004-1.642.093-7.799 2.787-11.39a1 1 0 0 0-.764-1.612zm4.975 3.002a1 1 0 0 0-.698.281c-2.254 2.123-3.373 3.99-3.89 5.643-.517 1.653-.424 3.05-.424 4.086a1 1 0 1 0 2 0c0-1.136-.07-2.203.332-3.488.402-1.285 1.281-2.833 3.354-4.783a1 1 0 0 0-.674-1.739zm3.945 4.008a1 1 0 0 0-.168.023c-2.457.529-4.789 2.808-4.789 5.979a1 1 0 1 0 2 0c0-2.174 1.668-3.69 3.21-4.021a1 1 0 0 0-.253-1.981z" transform="translate(455 -708)"/>
    </g>
</svg>
