<svg xmlns="http://www.w3.org/2000/svg" viewBox="0 0 20 20" xml:space="preserve">
    <g fill="#ffffff">
        <path d="M92.893 283.68c1.651 0 3 1.349 3 3 0 1.65-1.349 3-3 3-1.65 0-3-1.35-3-3 0-1.651 1.35-3 3-3zm0 1c-1.11 0-2 .889-2 2 0 1.11.89 2 2 2 1.11 0 2-.89 2-2 0-1.111-.89-2-2-2zm8.727 3.047c1.651 0 3 1.349 3 3 0 1.65-1.349 3-3 3-1.65 0-3-1.35-3-3 0-1.651 1.35-3 3-3zm0 1c-1.11 0-2 .89-2 2 0 1.11.89 2 2 2 1.11 0 2-.89 2-2 0-1.11-.89-2-2-2zm-7.336 2.794c1.651 0 3 1.35 3 3 0 1.651-1.349 3-3 3-1.65 0-3-1.349-3-3 0-1.65 1.35-3 3-3zm0 1c-1.11 0-2 .89-2 2 0 1.11.89 2 2 2 1.11 0 2-.89 2-2 0-1.11-.89-2-2-2z" fill="#ffffff" transform="translate(-87.257 -280.6)"/>
    </g>
</svg>
