<svg xmlns="http://www.w3.org/2000/svg" viewBox="0 0 20 20" xml:space="preserve">
    <g fill="#ffffff">
        <path fill="#ffffff" d="M222 431a.5.5 0 0 0-.354.146L218.793 434H216.5a.5.5 0 0 0-.5.5v7a.5.5 0 0 0 .5.5h2.293l2.853 2.854A.5.5 0 0 0 222 445h.5a.5.5 0 0 0 .5-.5v-13a.5.5 0 0 0-.5-.5zm6.467 2.016a.5.5 0 0 0-.422.72 9.997 9.997 0 0 1-.008 8.545.5.5 0 1 0 .904.428 11.003 11.003 0 0 0 .008-9.4.5.5 0 0 0-.482-.293zm-2.862.937a.5.5 0 0 0-.433.742 7 7 0 0 1 .006 6.596.5.5 0 1 0 .883.47 8 8 0 0 0-.008-7.536.5.5 0 0 0-.448-.272z" transform="translate(-213 -428)"/>
    </g>
</svg>
