<svg xmlns="http://www.w3.org/2000/svg" viewBox="0 0 20 20" xml:space="preserve">
    <g fill="#ffffff">
        <path fill="#ffffff" d="M48.5 536a.5.5 0 0 0-.5.5v2a.5.5 0 0 0 .5.5h4a.5.5 0 0 0 .5-.5v-2a.5.5 0 0 0-.5-.5zm7 6a.5.5 0 0 0-.5.5v2a.5.5 0 0 0 .5.5h6a.5.5 0 0 0 .5-.5v-2a.5.5 0 0 0-.5-.5zm0 5a.5.5 0 0 0-.5.5v2a.5.5 0 0 0 .5.5h6a.5.5 0 0 0 .5-.5v-2a.5.5 0 0 0-.5-.5z" transform="translate(-45 -533)"/>
        <path fill="#ffffff" d="M50 540v8.5a.5.5 0 0 0 .5.5H54v-1h-3v-4h3v-1h-3v-3z" transform="translate(-45 -533)"/>
    </g>
</svg>
