<svg xmlns="http://www.w3.org/2000/svg" viewBox="0 0 20 20" xml:space="preserve">
    <g fill="#ffffff">
        <path fill="#ffffff" d="M301.5 305c-.822 0-1.5.678-1.5 1.5v5c0 .822 1 1.5 1.5 1.5h.5v-3h-.5c-.676.01-.676-1.01 0-1h11c.676-.01.676 1.01 0 1h-.5v3h.5c.822 0 1.5-.678 1.5-1.5v-5c0-.822-.678-1.5-1.5-1.5H302z" transform="translate(-297 -302)"/>
        <path fill="#ffffff" d="M135 562v8.5a.5.5 0 0 0 .5.5h7a.5.5 0 0 0 .5-.5V562zm6 2c.546 0 1 .454 1 1s-.454 1-1 1-1-.454-1-1 .454-1 1-1zm-2.508 2a.5.5 0 0 1 .424.223l2 3a.5.5 0 0 1-.416.777h-4a.5.5 0 0 1-.416-.777l2-3a.501.501 0 0 1 .408-.223z" transform="translate(-129 -554)"/>
    </g>
</svg>
