<svg xmlns="http://www.w3.org/2000/svg" viewBox="0 0 20 20" xml:space="preserve">
    <g fill="#ffffff">
        <path d="M36 74a4.998 4.998 0 0 0-4.916 4.105c.482-.09.975-.129 1.47-.074.664.074.552 1.069-.11.994a3.997 3.997 0 0 0-1.438.102 4.995 4.995 0 0 0 4.857 4.867c.122-.473.166-.965.11-1.455a.5.5 0 1 1 .994-.115 5 5 0 0 1-.055 1.49A5 5 0 0 0 36 74zm-1.568 4.83a.5.5 0 0 1 .28.09 4.97 4.97 0 0 1 1.368 1.37c.406.559-.466 1.144-.83.556a3.997 3.997 0 0 0-1.094-1.096c-.42-.272-.225-.924.276-.92z" fill="#ffffff" transform="translate(-24 -71)"/>
        <path fill="#ffffff" d="M29.484 78.758a.5.5 0 0 0-.267.088 5 5 0 1 0 6.895 7 .5.5 0 1 0-.823-.569 3.997 3.997 0 0 1-4.111 1.637 3.998 3.998 0 0 1-1.404-7.238.5.5 0 0 0-.29-.918z" transform="translate(-24 -71)"/>
    </g>
</svg>
