<svg xmlns="http://www.w3.org/2000/svg" viewBox="0 0 20 20" xml:space="preserve">
    <g fill="#ffffff">
        <path fill="#ffffff" d="M543.508 181.99a1.5 1.5 0 0 0-.678.168c-3.417 1.709-5.83 5.059-5.83 9.342a1.5 1.5 0 1 0 3 0c0-3.217 1.587-5.367 4.17-6.658a1.5 1.5 0 0 0-.662-2.852z" transform="translate(-528.015 -176.011)"/>
        <path fill="#ffffff" d="M536.496 179.002a.5.5 0 0 0-.353.129c-4.084 3.59-5.144 7.808-5.131 13.363a.5.5 0 1 0 1-.002c-.012-5.432.929-9.214 4.79-12.61a.5.5 0 0 0-.306-.88z" transform="translate(-528.015 -176.011)"/>
    </g>
</svg>
