<svg xmlns="http://www.w3.org/2000/svg" viewBox="0 0 20 20" xml:space="preserve">
    <g fill="#ffffff">
        <path fill="#ffffff" d="M-408.504 736.994a.5.5 0 0 0-.435.266c-1.532 2.807-2.015 5.045-2.022 8.224a.5.5 0 1 0 1 .004c.007-3.083.432-5.055 1.9-7.748a.5.5 0 0 0-.443-.746zm6.998 2a.5.5 0 0 0-.379.186c-1.274 1.528-2.115 2.986-2.115 6.32a.5.5 0 1 0 1 0c0-3.18.659-4.208 1.885-5.68a.5.5 0 0 0-.39-.826z" transform="translate(414 -729)"/>
        <path fill="#ffffff" d="M-407.5 732a.5.5 0 0 0-.5.5v3a.5.5 0 0 0 .5.5h3a.5.5 0 0 0 .5-.5v-3a.5.5 0 0 0-.5-.5zm7 2a.5.5 0 0 0-.5.5v3a.5.5 0 0 0 .5.5h3a.5.5 0 0 0 .5-.5v-3a.5.5 0 0 0-.5-.5z" transform="translate(414 -729)"/>
    </g>
</svg>
