<svg xmlns="http://www.w3.org/2000/svg" viewBox="0 0 20 20" xml:space="preserve">
    <g fill="#ffffff">
        <path fill="#ffffff" d="M184.277 515c-.39-.007-.822.07-1.283.258-1.23.499-2.757 1.669-4.857 3.9-2.092 2.223-3.247 3.736-3.776 4.916-.264.59-.374 1.112-.316 1.59a2.031 2.031 0 0 0 .642 1.227l2.5 2c.493.395 1.114-.298.667-.745l-2-2c-.37-.369-.3-.993 0-1.292.321-.322.86-.432 1.292 0l2 2a.5.5 0 1 0 .708-.708l-2-2c-.37-.369-.3-.993 0-1.292.321-.322.86-.432 1.292 0l2 2a.5.5 0 1 0 .708-.708l-1.977-1.974a.646.646 0 0 0-.023-.026c-.37-.369-.3-.993 0-1.292.321-.322.86-.432 1.292 0l2 2a.5.5 0 1 0 .708-.708l-1.977-1.974a.646.646 0 0 0-.023-.026c-.37-.369-.3-.993 0-1.292.321-.322.86-.432 1.293 0l2 2a.5.5 0 1 0 .707-.708l-2-2c-.37-.369-.3-.993 0-1.292.321-.322.86-.432 1.293 0l2 2c.446.447 1.14-.174.744-.667l-2-2.5a2.206 2.206 0 0 0-1.236-.652 2.52 2.52 0 0 0-.378-.035z" transform="translate(-171.02 -512.004)"/>
    </g>
</svg>
