<svg xmlns="http://www.w3.org/2000/svg" viewBox="0 0 20 20" xml:space="preserve">
    <g fill="#ffffff">
        <path fill="#ffffff" d="M469.5 356a2.508 2.508 0 0 0-2.5 2.5c0 1.375 1.125 2.5 2.5 2.5s2.5-1.125 2.5-2.5-1.125-2.5-2.5-2.5z" transform="rotate(90 414 -50)"/>
        <g fill="#ffffff">
            <path fill="#ffffff" d="M218.5 557c-.823 0-1.5.677-1.5 1.5 0 .647.421 1.198 1 1.406v4.594c-.01.676 1.01.676 1 0v-4.594c.579-.208 1-.76 1-1.406 0-.823-.677-1.5-1.5-1.5zm9.5 0c-1.099 0-2 .901-2 2 0 .369.109.71.285 1.008l-5.139 5.138c-.49.472.236 1.198.708.708l5.138-5.14c.298.177.64.286 1.008.286 1.099 0 2-.901 2-2s-.901-2-2-2zm.5 10c-.647 0-1.198.421-1.406 1H222.5c-.676-.01-.676 1.01 0 1h4.594c.208.579.76 1 1.406 1 .823 0 1.5-.677 1.5-1.5s-.677-1.5-1.5-1.5z" transform="matrix(1 0 0 -1 -213 574)"/>
        </g>
    </g>
</svg>
