<svg xmlns="http://www.w3.org/2000/svg" viewBox="0 0 20 20" xml:space="preserve">
    <g fill="#ffffff">
        <path fill="#ffffff" d="M-416.496 713.996a.5.5 0 0 0-.31.11c-.214.165-.42.333-.616.501-4.034 3.459-4.518 6.51-4.578 9.883a.5.5 0 1 0 1 .02c.059-3.304.376-5.84 4.229-9.143.184-.158.377-.316.578-.473a.5.5 0 0 0-.303-.898z" transform="translate(433 -708)"/>
        <path fill="#ffffff" d="M-427.5 716a.5.5 0 0 0-.5.5v3a.5.5 0 0 0 .5.5h3a.5.5 0 0 0 .5-.5v-3a.5.5 0 0 0-.5-.5zm-2 5a.5.5 0 0 0-.5.5v3a.5.5 0 0 0 .5.5h3a.5.5 0 0 0 .5-.5v-3a.5.5 0 0 0-.5-.5zm5-10a.5.5 0 0 0-.5.5v3a.5.5 0 0 0 .5.5h3a.5.5 0 0 0 .5-.5v-3a.5.5 0 0 0-.5-.5z" transform="translate(433 -708)"/>
    </g>
</svg>
