<svg xmlns="http://www.w3.org/2000/svg" viewBox="0 0 20 20" xml:space="preserve">
    <g fill="#ffffff">
        <path fill="#ffffff" d="M48.492 137a.5.5 0 0 0-.492.508v3a.5.5 0 1 0 1 0v-3a.5.5 0 0 0-.508-.508zm0 5a.5.5 0 0 0-.492.508v3a.5.5 0 1 0 1 0v-3a.5.5 0 0 0-.508-.508zm0 5a.5.5 0 0 0-.492.508v3a.5.5 0 1 0 1 0v-3a.5.5 0 0 0-.508-.508z" transform="matrix(-1 0 0 1 64.997 -134)"/>
        <path fill="#ffffff" d="M51.516 137a.5.5 0 0 0-.5.5v.5H50v1h5v-.5c0-.253-.15-.495-.484-.5h-1.5v-.5a.5.5 0 0 0-.5-.5zM55 139l.016.5v.5H50v9h6.516a.5.5 0 0 0 .5-.5v-.36l-2.58-2.58a1.5 1.5 0 1 1 2.12-2.12l.46.458V139.5a.5.5 0 0 0-.5-.5z" transform="matrix(-1 0 0 1 64.997 -134)"/>
        <path fill="#ffffff" d="M55.49 143.994a.5.5 0 0 0-.35.86L60.288 150h-2.793a.5.5 0 1 0 0 1h3.94a.5.5 0 0 0 .56-.57v-3.93a.5.5 0 1 0-1 0v2.793l-5.146-5.147a.5.5 0 0 0-.358-.152z" transform="matrix(-1 0 0 1 64.997 -134)"/>
    </g>
</svg>
