<svg xmlns="http://www.w3.org/2000/svg" viewBox="0 0 20 20" xml:space="preserve">
    <g fill="#ffffff">
        <path transform="translate(147.997 -134.002)" fill="#ffffff" d="M-144.5 139a.5.5 0 0 0-.5.5v9a.5.5 0 0 0 .5.5h9c.107 0 .2-.04.281-.098l-3.342-3.341a1.5 1.5 0 1 1 2.122-2.122l1.439 1.44V139.5a.5.5 0 0 0-.5-.5h-1.484l-.016.5v.5h-6v-.5l.016-.5zm5-2a.5.5 0 0 1 .5.5v.5h1.5a.5.5 0 0 1 .516.5v.5h-6v-.5c0-.253.149-.495.484-.5h1.5v-.5a.5.5 0 0 1 .5-.5z"/>
        <g fill="#ffffff">
            <path fill="#ffffff" d="M-158.494 143.996a.5.5 0 0 0-.05.004h-3.94a.5.5 0 1 0 0 1h2.793l-5.147 5.147a.5.5 0 1 0 .707.707l5.147-5.147v2.793a.5.5 0 1 0 1 0v-3.943a.5.5 0 0 0-.51-.56z" transform="matrix(1 0 0 -1 174.983 160.998)"/>
        </g>
    </g>
</svg>
