<svg xmlns="http://www.w3.org/2000/svg" viewBox="0 0 20 20" xml:space="preserve">
    <g fill="#ffffff">
        <path fill="#ffffff" d="M48.492 137a.5.5 0 0 0-.492.508v3a.5.5 0 1 0 1 0v-3a.5.5 0 0 0-.508-.508zm0 5a.5.5 0 0 0-.492.508v3a.5.5 0 1 0 1 0v-3a.5.5 0 0 0-.508-.508zm0 5a.5.5 0 0 0-.492.508v3a.5.5 0 1 0 1 0v-3a.5.5 0 0 0-.508-.508z" transform="translate(-44.932 -134.007)"/>
        <path fill="#ffffff" d="M51.51 137a.5.5 0 0 0-.5.5v.5H50v1h5.025v-.5a.5.5 0 0 0-.515-.5h-1.5v-.5a.5.5 0 0 0-.5-.5zm3.515 2-.015.5v.5H50v9h4.01v-4.316A1.5 1.5 0 0 1 55.7 143h1.309v-3.5a.5.5 0 0 0-.5-.5z" transform="translate(-44.932 -134.007)"/>
        <g fill="#ffffff">
            <path fill="#ffffff" d="M-158.494 143.996a.5.5 0 0 0-.05.004h-3.94a.5.5 0 1 0 0 1h2.793l-5.147 5.147a.5.5 0 1 0 .707.707l5.147-5.147v2.793a.5.5 0 1 0 1 0v-3.943a.5.5 0 0 0-.51-.56z" transform="matrix(-1 0 0 1 -147.906 -134.007)"/>
        </g>
    </g>
</svg>
