<svg xmlns="http://www.w3.org/2000/svg" viewBox="0 0 20 20" xml:space="preserve">
    <g fill="#ffffff">
        <path fill="#ffffff" d="M372.506 598.994a.5.5 0 0 0-.5.5v.793l3.707 3.707h.793a.5.5 0 0 0 .5-.5v-1a.5.5 0 0 0-.147-.353l-3-3a.5.5 0 0 0-.353-.147zm-1.207 2-2 2h-2.793a.5.5 0 0 0-.354.147l-1 1a.5.5 0 0 0 0 .707l6 6a.5.5 0 0 0 .707 0l1-1a.5.5 0 0 0 .147-.354v-2.793l2-2zm-4.053 7.246a.5.5 0 0 0-.344.15l-3.75 3.75a.5.5 0 1 0 .707.708l3.75-3.75a.5.5 0 0 0-.363-.858z" transform="translate(-360.002 -595.998)"/>
    </g>
</svg>
