<svg xmlns="http://www.w3.org/2000/svg" viewBox="0 0 20 20" xml:space="preserve">
    <g fill="#ffffff">
        <path fill="#ffffff" d="M183.813 200.016a4.567 4.567 0 0 1 4.17 4.154 4.57 4.57 0 0 1-3.393 4.812.5.5 0 1 1-.254-.968 3.56 3.56 0 0 0 2.65-3.758 3.557 3.557 0 0 0-3.256-3.244 3.558 3.558 0 0 0-3.744 2.668.5.5 0 1 1-.968-.248 4.568 4.568 0 0 1 4.794-3.416zM178.5 205a.5.5 0 1 1 0 1 3.498 3.498 0 0 0-2.475 5.975A3.498 3.498 0 0 0 182 209.5a.5.5 0 1 1 1 0 4.503 4.503 0 0 1-2.777 4.158 4.504 4.504 0 0 1-5.881-5.88A4.503 4.503 0 0 1 178.5 205z" transform="translate(-171 -197)"/>
        <path fill="#ffffff" d="M182.996 206.502a1.498 1.498 0 0 1-1.498 1.498 1.498 1.498 0 0 1-1.498-1.498 1.498 1.498 0 0 1 1.498-1.498 1.498 1.498 0 0 1 1.498 1.498z" transform="translate(-171 -197)"/>
    </g>
</svg>
