<svg xmlns="http://www.w3.org/2000/svg" viewBox="0 0 20 20" xml:space="preserve">
    <g fill="#ffffff">
        <path fill="#ffffff" d="M199.5 205c2.48 0 4.5 2.02 4.5 4.5s-2.02 4.5-4.5 4.5-4.5-2.02-4.5-4.5 2.02-4.5 4.5-4.5zm0 1a3.492 3.492 0 0 0-3.5 3.5c0 1.939 1.561 3.5 3.5 3.5s3.5-1.561 3.5-3.5-1.561-3.5-3.5-3.5z" transform="translate(-192 -197)"/>
        <path fill="#ffffff" d="M204.87 200.016a4.504 4.504 0 0 1 4.112 4.095 4.503 4.503 0 0 1-3.345 4.743.5.5 0 1 1-.254-.967 3.495 3.495 0 0 0 2.603-3.69 3.494 3.494 0 0 0-3.199-3.185 3.494 3.494 0 0 0-3.678 2.619.5.5 0 1 1-.968-.248 4.505 4.505 0 0 1 4.728-3.367z" transform="translate(-192 -197)"/>
        <path fill="#ffffff" d="M201 209.498a1.498 1.498 0 0 1-1.498 1.498 1.498 1.498 0 0 1-1.498-1.498 1.498 1.498 0 0 1 1.498-1.498 1.498 1.498 0 0 1 1.498 1.498z" transform="translate(-192 -197)"/>
    </g>
</svg>
