<svg xmlns="http://www.w3.org/2000/svg" viewBox="0 0 20 20" xml:space="preserve">
    <g fill="#ffffff">
        <path fill="#ffffff" d="M111.5 179a.5.5 0 0 0-.5.5v4a.5.5 0 1 0 1 0V180h3.5a.5.5 0 1 0 0-1zm9.008 0a.5.5 0 1 0 0 1h3.5v3.5a.5.5 0 1 0 1 0v-4a.5.5 0 0 0-.5-.5zm-9.016 9a.5.5 0 0 0-.492.508v4a.5.5 0 0 0 .5.5h4a.5.5 0 1 0 0-1H112v-3.5a.5.5 0 0 0-.508-.508zm13.008 0a.5.5 0 0 0-.492.508v3.5h-3.5a.5.5 0 1 0 0 1h4a.5.5 0 0 0 .5-.5v-4a.5.5 0 0 0-.508-.508z" transform="translate(-108.004 -176.004)"/>
        <path fill="#ffffff" d="M120 186.004a1.996 1.996 0 0 1-1.996 1.996 1.996 1.996 0 0 1-1.997-1.996 1.996 1.996 0 0 1 1.997-1.997 1.996 1.996 0 0 1 1.996 1.997z" transform="translate(-108.004 -176.004)"/>
    </g>
</svg>
