<svg xmlns="http://www.w3.org/2000/svg" viewBox="0 0 20 20" xml:space="preserve">
    <g fill="#ffffff">
        <path fill="#ffffff" d="M534.492 599a.495.495 0 0 0-.492.5v1.5h-2.5a.5.5 0 1 0 0 1h2.5v3h-2.5a.5.5 0 1 0 0 1h2.5v1.5c0 .277.22.5.492.5h.016a.495.495 0 0 0 .492-.5v-8c0-.277-.22-.5-.492-.5zm1.258 1v7H537c1.695 0 3-1.305 3-3v-1c0-1.695-1.305-3-3-3z" transform="translate(-527.996 -596)"/>
        <path fill="#ffffff" d="M499.486 561.027c-.557.017-.674.795-.146.975 1.476.539 2.513 1.918 2.644 3.537.131 1.618-.675 3.154-2.045 3.945A3.768 3.768 0 0 1 498 570h-9v1h9c.85 0 1.674-.206 2.44-.648 1.708-.987 2.704-2.894 2.542-4.893-.161-1.998-1.449-3.723-3.3-4.398a.5.5 0 0 0-.196-.034z" transform="translate(-485.996 -554)"/>
    </g>
</svg>
