<svg xmlns="http://www.w3.org/2000/svg" viewBox="0 0 20 20" xml:space="preserve">
    <g fill="#ffffff">
        <path d="M114.204 283.806c1.65 0 3 1.349 3 3 0 1.65-1.35 3-3 3-1.651 0-3-1.35-3-3 0-1.651 1.349-3 3-3zm0 1c-1.11 0-2 .89-2 2 0 1.11.89 2 2 2 1.11 0 2-.89 2-2 0-1.11-.89-2-2-2zm1.391 6.842c1.65 0 3 1.349 3 3 0 1.65-1.35 3-3 3-1.651 0-3-1.35-3-3 0-1.651 1.349-3 3-3zm0 1c-1.11 0-2 .89-2 2 0 1.11.89 2 2 2 1.11 0 2-.89 2-2 0-1.11-.89-2-2-2zm7.335-4.795c1.652 0 3 1.35 3 3 0 1.651-1.348 3-3 3-1.65 0-3-1.349-3-3 0-1.65 1.35-3 3-3zm0 1c-1.11 0-2 .89-2 2 0 1.11.89 2 2 2 1.111 0 2-.89 2-2 0-1.11-.889-2-2-2z" fill="#ffffff" transform="translate(-108.567 -280.727)"/>
    </g>
</svg>
