<svg xmlns="http://www.w3.org/2000/svg" viewBox="0 0 20 20" xml:space="preserve">
    <g fill="#ffffff">
        <path fill="#ffffff" d="m285 536-.156 1.906c-.623.143-1.077.252-1.594.594l-1.75-1.5-1.5 1.5 1.5 1.75c-.342.517-.451.97-.594 1.594L279 542v2l1.906.156c.143.623.252 1.077.594 1.594l-1.5 1.75 1.5 1.5 1.75-1.5c.517.342.97.451 1.594.594L285 550h2l.156-1.906c.623-.143 1.077-.252 1.594-.594l1.75 1.5 1.5-1.5-1.5-1.75c.342-.517.451-.97.594-1.594L293 544v-2l-1.906-.156c-.143-.623-.252-1.077-.594-1.594l1.5-1.75-1.5-1.5-1.75 1.5c-.517-.342-.97-.451-1.594-.594L287 536h-1zm1 5c1.116 0 2 .884 2 2s-.884 2-2 2-2-.884-2-2 .884-2 2-2z" transform="translate(-276 -533)"/>
    </g>
</svg>
