<svg xmlns="http://www.w3.org/2000/svg" viewBox="0 0 20 20" xml:space="preserve">
    <g fill="#ffffff">
        <path fill="#ffffff" d="M301 99c-.546 0-1 .454-1 1s.454 1 1 1 1-.454 1-1-.454-1-1-1zm0 4c-.546 0-1 .454-1 1s.454 1 1 1 1-.454 1-1-.454-1-1-1zm0 4c-.546 0-1 .454-1 1s.454 1 1 1 1-.454 1-1-.454-1-1-1zm3.5-7c-.676-.01-.676 1.01 0 1h2.26a4.476 4.476 0 0 1-.485-1zm0 4c-.676-.01-.676 1.01 0 1h8c.676.01.676-1.01 0-1zm0 4c-.676-.01-.676 1.01 0 1h8c.676.01.676-1.01 0-1z" transform="translate(-297 -92)"/>
        <path d="M310.5 95a3.5 3.5 0 1 0 0 7 3.5 3.5 0 0 0 0-7zm-.5 1h1v2h2v1h-2v2h-1v-2h-2v-1h2z" fill="#ffffff" transform="translate(-297 -92)"/>
    </g>
</svg>
