<svg xmlns="http://www.w3.org/2000/svg" viewBox="0 0 20 20" xml:space="preserve">
    <g fill="#ffffff">
        <path fill="#ffffff" d="M-359.5 1474a.5.5 0 1 0 0 1h7a.5.5 0 1 0 0-1zm0 5a.5.5 0 1 0 0 1h7a.5.5 0 1 0 0-1zm0 5a.5.5 0 1 0 0 1h7a.5.5 0 1 0 0-1z" transform="translate(368.996 -1469.5)"/>
        <path fill="#ffffff" d="M-364.5 1473c-.823 0-1.5.677-1.5 1.5s.677 1.5 1.5 1.5 1.5-.677 1.5-1.5-.677-1.5-1.5-1.5zm0 5c-.823 0-1.5.677-1.5 1.5s.677 1.5 1.5 1.5 1.5-.677 1.5-1.5-.677-1.5-1.5-1.5zm0 5c-.823 0-1.5.677-1.5 1.5s.677 1.5 1.5 1.5 1.5-.677 1.5-1.5-.677-1.5-1.5-1.5z" transform="translate(368.996 -1469.5)"/>
    </g>
</svg>
