<svg xmlns="http://www.w3.org/2000/svg" viewBox="0 0 20 20" xml:space="preserve">
    <g fill="#ffffff">
        <path fill="#ffffff" d="M199.5 221.004c-.676-.01-.676 1.01 0 1h1.5v1.088c-2.832.48-5 2.942-5 5.908 0 3.308 2.693 6 6.002 6a6.009 6.009 0 0 0 6.002-6 5.96 5.96 0 0 0-1.004-3.313.5.5 0 0 0 .104-.08l1.75-1.75a.5.5 0 0 0-.364-.859.5.5 0 0 0-.344.152l-1.75 1.75a.5.5 0 0 0-.011.014 5.982 5.982 0 0 0-4.383-1.914H202v-.996h1.5c.676.01.676-1.01 0-1zm2.502 2.996a4.994 4.994 0 0 1 5.002 5c0 2.767-2.234 5-5.002 5a4.994 4.994 0 0 1-5.002-5c0-2.767 2.234-5 5.002-5z" transform="translate(-192.503 -218.002)"/>
        <path fill="#ffffff" d="M201.492 224.996a.5.5 0 0 0-.492.508v3.92a.5.5 0 0 0 .113.404.5.5 0 0 0 .016.02.5.5 0 0 0 .017.017.5.5 0 0 0 .004.002.5.5 0 0 0 .034.031.5.5 0 0 0 .004.002.5.5 0 0 0 .394.104h2.918a.5.5 0 1 0 0-1H202v-3.5a.5.5 0 0 0-.508-.508z" transform="translate(-192.503 -218.002)"/>
    </g>
</svg>
