<svg xmlns="http://www.w3.org/2000/svg" viewBox="0 0 20 20" xml:space="preserve">
    <g fill="#ffffff">
        <path d="M454 555.924c-4.454 0-8.076 3.622-8.076 8.076 0 4.454 3.622 8.076 8.076 8.076 4.454 0 8.076-3.622 8.076-8.076 0-4.454-3.622-8.076-8.076-8.076zm0 1.152a6.916 6.916 0 0 1 6.924 6.924 6.916 6.916 0 0 1-6.924 6.924 6.916 6.916 0 0 1-6.924-6.924 6.916 6.916 0 0 1 6.924-6.924z" fill="#ffffff" transform="translate(-383.467 -478.8) scale(.86667)"/>
        <path d="M454 561.691a2.318 2.318 0 0 0-2.309 2.309 2.318 2.318 0 0 0 2.309 2.309 2.318 2.318 0 0 0 2.309-2.309 2.318 2.318 0 0 0-2.309-2.309z" fill="#ffffff" transform="translate(-383.467 -478.8) scale(.86667)"/>
        <path d="M454 558.23c-3.173 0-5.77 2.597-5.77 5.77 0 3.173 2.597 5.77 5.77 5.77 3.173 0 5.77-2.597 5.77-5.77 0-3.173-2.597-5.77-5.77-5.77zm0 2.31a3.443 3.443 0 0 1 3.46 3.46 3.443 3.443 0 0 1-3.46 3.46 3.443 3.443 0 0 1-3.46-3.46 3.443 3.443 0 0 1 3.46-3.46z" fill="#ffffff" transform="translate(-383.467 -478.8) scale(.86667)"/>
    </g>
</svg>
