<svg xmlns="http://www.w3.org/2000/svg" viewBox="0 0 20 20" xml:space="preserve">
    <path d="M5.5 3A2.498 2.498 0 0 0 3 5.5v1C3 7.882 4.118 9 5.5 9h9C15.882 9 17 7.882 17 6.5v-1c0-1.386-1.135-2.484-2.512-2.486zM9 4.006l5.486.008C15.35 4.014 16 4.646 16 5.5v1c0 .858-.642 1.5-1.5 1.5H9zM5.5 11A2.498 2.498 0 0 0 3 13.5v1C3 15.882 4.118 17 5.5 17h9c1.382 0 2.5-1.118 2.5-2.5v-1c0-1.386-1.135-2.484-2.512-2.486zm6.51 1.01 2.476.004c.863 0 1.514.632 1.514 1.486v1c0 .858-.642 1.5-1.5 1.5H12z" fill="#ffffff"/>
</svg>
