<svg xmlns="http://www.w3.org/2000/svg" viewBox="0 0 20 20" xml:space="preserve">
    <g fill="#ffffff">
        <path d="M433 541c-1.099 0-2 .901-2 2s.901 2 2 2 2-.901 2-2-.901-2-2-2z" fill="#ffffff" transform="translate(-423.007 -533)"/>
        <path d="M433.08 537.984a5.027 5.027 0 0 0-5.02 5.016c0 2.752 2.243 5.023 5.022 5.016l5.92-.016a1 1 0 1 0-.004-2l-5.92.016c-1.703.005-3.018-1.333-3.018-3.016a2.983 2.983 0 0 1 3.018-3.016l5.92.016a1 1 0 1 0 .004-2l-5.92-.016a1 1 0 0 0-.002 0z" fill="#ffffff" transform="translate(-423.007 -533)"/>
        <path d="M433 536a7.002 7.002 0 0 0-6.063 10.5A7.002 7.002 0 0 0 433 550h6.5a.5.5 0 1 0 0-1H433a5.998 5.998 0 1 1 0-12h6.5a.5.5 0 1 0 0-1z" fill="#ffffff" transform="translate(-423.007 -533)"/>
    </g>
</svg>
