<svg xmlns="http://www.w3.org/2000/svg" viewBox="0 0 20 20" xml:space="preserve">
    <g fill="#ffffff">
        <path fill="#ffffff" d="M34 622c-1.783 0-3 1.5-3 3h2c0-.5.283-1 1-1 .717 0 1 .5 1 1 0 .247-.036.3-.117.41-.08.11-.254.26-.514.47-.52.423-1.369 1.287-1.369 2.62v.5h2v-.5c0-.667.15-.678.63-1.068.241-.196.568-.436.862-.834.294-.399.508-.97.508-1.598 0-1.5-1.217-3-3-3zm-1 8h2v2h-2zm1-10c-3.86 0-7 3.14-7 7s3.14 7 7 7 7-3.14 7-7-3.14-7-7-7zm0 1c3.32 0 6 2.68 6 6s-2.68 6-6 6-6-2.68-6-6 2.68-6 6-6z" transform="translate(-24 -617)"/>
    </g>
</svg>
