<svg xmlns="http://www.w3.org/2000/svg" viewBox="0 0 20 20" xml:space="preserve">
    <g fill="#ffffff">
        <path fill="#ffffff" d="M411.492 577.947a.5.5 0 0 0-.492.508v7a.5.5 0 1 0 1 0v-7a.5.5 0 0 0-.508-.508zM408.477 580a.5.5 0 0 0-.223.068c-2.545 1.437-3.794 4.383-3.031 7.168.763 2.786 3.342 4.72 6.277 4.72s5.514-1.934 6.277-4.72c.763-2.785-.486-5.73-3.03-7.168a.5.5 0 1 0-.493.871c2.159 1.22 3.201 3.688 2.558 6.034-.642 2.345-2.815 3.982-5.312 3.982-2.497 0-4.67-1.637-5.313-3.982-.642-2.346.4-4.814 2.56-6.034a.5.5 0 0 0-.27-.939z" transform="translate(-401.5 -574.951)"/>
    </g>
</svg>
