<svg xmlns="http://www.w3.org/2000/svg" viewBox="0 0 20 20" xml:space="preserve">
    <path fill="#ffffff" d="M5.5 2.5a.5.5 0 1 0 0 1h3a.5.5 0 1 0 0-1zm-2 2A.5.5 0 0 0 3 5v12a.5.5 0 0 0 .5.5h7c.676.01.676-1.01 0-1H4v-1h2.508a.5.5 0 0 0 .5-.5V7.5H16V10c0 .525-.148.879-.385 1.115-.236.237-.59.385-1.115.385h-1a.5.5 0 0 0-.5.5v2.5H8.5c-.676-.01-.676 1.01 0 1h5a.5.5 0 0 0 .5-.5v-2.5h.5c.725 0 1.371-.227 1.822-.678.451-.45.678-1.097.678-1.822V7a.5.5 0 0 0-.5-.5H11V5a.5.5 0 0 0-.5-.5zm.5 1h6v1H4zm4 3v1h1v-1zm2 0v1h1v-1zm2 0v1h1v-1zm2 0v1h1v-1z"/>
</svg>
