<svg xmlns="http://www.w3.org/2000/svg" viewBox="0 0 20 20" xml:space="preserve">
    <g fill="#ffffff">
        <path fill="#ffffff" d="M31.5 494a.5.5 0 0 0-.5.5v9a.5.5 0 0 0 .5.5h9a.5.5 0 0 0 .5-.5v-9a.5.5 0 0 0-.5-.5zm.5 1h8v8h-8z" transform="translate(-24 -491)"/>
        <path fill="#ffffff" d="M38 496c-.546 0-1 .454-1 1s.454 1 1 1 1-.454 1-1-.454-1-1-1zm-3.514 1.05a.45.45 0 0 0-.388.249l-2.75 5.5a.45.45 0 0 0 .402.65h5.75a.45.45 0 0 0 .395-.664l-3-5.5a.45.45 0 0 0-.409-.234z" transform="translate(-24 -491)"/>
        <path fill="#ffffff" d="M29.492 495.992a.5.5 0 0 0-.492.508v9a.5.5 0 0 0 .5.5h9a.5.5 0 1 0 0-1H30v-8.5a.5.5 0 0 0-.508-.508zm-2 2a.5.5 0 0 0-.492.508v9a.5.5 0 0 0 .5.5h9a.5.5 0 1 0 0-1H28v-8.5a.5.5 0 0 0-.508-.508z" transform="translate(-24 -491)"/>
    </g>
</svg>
