<svg xmlns="http://www.w3.org/2000/svg" viewBox="0 0 20 20" xml:space="preserve">
    <g fill="#ffffff">
        <path fill="#ffffff" d="M202 473c-3.86 0-7 3.14-7 7s3.14 7 7 7 7-3.14 7-7-3.14-7-7-7zm0 1c1.099 0 2 .901 2 2s-.901 2-2 2-2-.901-2-2 .901-2 2-2zm-4 4c1.099 0 2 .901 2 2s-.901 2-2 2-2-.901-2-2 .901-2 2-2zm8 0c1.099 0 2 .901 2 2s-.901 2-2 2-2-.901-2-2 .901-2 2-2zm-4 1c.546 0 1 .454 1 1s-.454 1-1 1-1-.454-1-1 .454-1 1-1zm0 3c1.099 0 2 .901 2 2s-.901 2-2 2-2-.901-2-2 .901-2 2-2zm4.965 4a.5.5 0 0 0-.473.492.5.5 0 0 0 .508.508h.5c.833 0 1.147.354 1.646.854a.5.5 0 1 0 .708-.708c-.5-.5-1.187-1.146-2.354-1.146h-.5a.5.5 0 0 0-.035 0z" transform="translate(-192.504 -470.504)"/>
    </g>
</svg>
