<svg xmlns="http://www.w3.org/2000/svg" viewBox="0 0 20 20" xml:space="preserve">
    <path d="M13.555 3.017c-.798-.038-1.572.277-2.16.865l-1.264 1.264a.5.5 0 1 0 .707.707l1.264-1.264c.412-.411.89-.598 1.404-.574.515.025 1.085.27 1.64.824.554.555.809 1.136.837 1.653.028.517-.152.985-.574 1.379a.5.5 0 0 0-.014.011l-1.264 1.264a.5.5 0 1 0 .707.707l1.252-1.252a2.748 2.748 0 0 0 .893-2.164c-.044-.803-.436-1.61-1.13-2.305-.697-.695-1.5-1.077-2.298-1.115zm-8.08 6.979a.5.5 0 0 0-.344.15l-1.25 1.25c-.588.588-.903 1.36-.865 2.158.038.798.42 1.603 1.115 2.299.696.695 1.504 1.085 2.307 1.129a2.742 2.742 0 0 0 2.162-.89l1.238-1.239a.5.5 0 1 0-.707-.707l-1.25 1.25a.5.5 0 0 0-.011.012c-.394.422-.86.604-1.377.576-.517-.028-1.1-.283-1.655-.838-.554-.554-.797-1.124-.822-1.639-.024-.514.16-.992.572-1.404l1.25-1.25a.5.5 0 0 0-.363-.857z" fill="#ffffff"/>
</svg>
