<svg xmlns="http://www.w3.org/2000/svg" viewBox="0 0 20 20" xml:space="preserve">
    <g fill="#ffffff">
        <path d="M365.5 433a.5.5 0 0 0-.5.5v8.5c0 1.099.901 2 2 2s2-.901 2-2v-8.5a.5.5 0 0 0-.5-.5zm.5 1h2v8c0 .558-.442 1-1 1s-1-.442-1-1z" fill="#ffffff" transform="translate(-360.5 -428.5)"/>
        <path transform="translate(357.5 408.5)" d="M-345.508-403a.5.5 0 0 0-.346.146l-2.146 2.147v1.414l2.5-2.5 1.293 1.293-3.793 3.793v1.414l4.854-4.853a.5.5 0 0 0 0-.708l-2-2a.5.5 0 0 0-.362-.146z" fill="#ffffff"/>
        <path d="m373.25 440-1 1H375v2h-4.75l-1 1h6.25a.5.5 0 0 0 .5-.5v-3a.5.5 0 0 0-.5-.5z" fill="#ffffff" transform="translate(-360.5 -428.5)"/>
    </g>
</svg>
