<svg xmlns="http://www.w3.org/2000/svg" viewBox="0 0 20 20" xml:space="preserve">
    <path fill="#ffffff" d="M9 4.5a.5.5 0 0 0-.354.146L6.793 6.5H4a.5.5 0 0 0-.5.5v8a.5.5 0 0 0 .5.5h6.457a.435.435 0 0 0 .05-.004.619.619 0 0 0 .044.004H16a.5.5 0 0 0 .5-.5V7a.5.5 0 0 0-.5-.5h-1.793l-1.853-1.854A.5.5 0 0 0 12 4.5zm1.498 1.998A3.994 3.994 0 0 1 14.5 10.5a3.994 3.994 0 0 1-3.955 4 .435.435 0 0 0-.04.004l-.044-.004h-.004a3.994 3.994 0 0 1-3.96-4 3.994 3.994 0 0 1 4-4.002zm0 1.002a3.006 3.006 0 0 0-2.998 3c0 1.65 1.347 3 2.998 3 1.65 0 3-1.35 3-3s-1.35-3-3-3zm0 1c1.11 0 2 .89 2 2 0 1.11-.89 2-2 2-1.11 0-1.998-.89-1.998-2 0-1.11.888-2 1.998-2z"/>
</svg>
