<svg xmlns="http://www.w3.org/2000/svg" viewBox="0 0 20 20" xml:space="preserve">
    <g fill="#ffffff">
        <path d="m473.5 411-2.996.006a.5.5 0 0 0-.5.498l-.004 8.459c0 1.023.806 2.037 2 2.037 1.195 0 1.996-1.022 1.996-2.043L474 411.5a.5.5 0 0 0-.5-.5zm-1.5 8a1 1 0 1 1 0 2 1 1 0 0 1 0-2z" fill="#ffffff" transform="translate(-465.5 -406.5)"/>
        <path d="m478.146 418.146-3 3a.5.5 0 0 0 .354.854h5a.5.5 0 0 0 .5-.5v-3a.5.5 0 0 0-.514-.5h-2a.506.506 0 0 0-.34.146z" fill="#ffffff" transform="translate(-465.5 -406.5)"/>
        <path d="M477.493 412a.5.5 0 0 0-.346.147l-2.001 2a.5.5 0 0 0-.147.353v4a.5.5 0 0 0 .854.354l4-4a.5.5 0 0 0 0-.707l-2-2a.5.5 0 0 0-.36-.147z" fill="#ffffff" transform="translate(-465.5 -406.5)"/>
    </g>
</svg>
