<svg xmlns="http://www.w3.org/2000/svg" viewBox="0 0 20 20" xml:space="preserve">
    <path d="M9 4.5a.5.5 0 0 0-.354.146L6.793 6.5H4a.5.5 0 0 0-.5.5v8a.5.5 0 0 0 .5.5h12a.5.5 0 0 0 .5-.5V7a.5.5 0 0 0-.5-.5h-1.793l-1.853-1.854A.5.5 0 0 0 12 4.5zm.207 1h2.586l1.853 1.854A.5.5 0 0 0 14 7.5h1.5v7h-11v-7H7a.5.5 0 0 0 .354-.146zm-.46 2.744a.5.5 0 0 0-.35.86L9.792 10.5l-1.397 1.396a.5.5 0 1 0 .708.708l1.396-1.397 1.396 1.397a.5.5 0 1 0 .708-.708L11.207 10.5l1.397-1.396a.5.5 0 1 0-.708-.708L10.5 9.793 9.104 8.396a.5.5 0 0 0-.358-.152z" fill="#ffffff"/>
</svg>
