<svg xmlns="http://www.w3.org/2000/svg" viewBox="0 0 20 20" xml:space="preserve">
    <g fill="#ffffff">
        <path d="M346.493 354.992a.5.5 0 0 0-.493.508v3c0 .725.227 1.371.678 1.822.451.451 1.097.678 1.822.678.725 0 1.372-.227 1.823-.678.45-.45.677-1.097.677-1.822v-3a.5.5 0 1 0-1 0v3c0 .525-.148.879-.384 1.115-.237.237-.59.385-1.116.385-.525 0-.878-.148-1.115-.385-.236-.236-.385-.59-.385-1.115v-3a.5.5 0 0 0-.507-.508z" fill="#ffffff" transform="translate(-338.5 -344)"/>
        <path d="M348.493 349.992a.5.5 0 0 0-.493.508v6a.5.5 0 1 0 1 0v-6a.5.5 0 0 0-.507-.508zM342.5 347a.5.5 0 1 0 0 1h2.5v1.75c0 .972.537 1.828 1.276 2.197a.5.5 0 1 0 .447-.894c-.261-.13-.723-.775-.723-1.303V348h5v1.75c0 .528-.463 1.172-.724 1.303a.5.5 0 1 0 .447.894c.739-.369 1.277-1.225 1.277-2.197V348h2.5a.5.5 0 1 0 0-1z" fill="#ffffff" transform="translate(-338.5 -344)"/>
    </g>
</svg>
