<svg xmlns="http://www.w3.org/2000/svg" viewBox="0 0 20 20" xml:space="preserve">
    <g fill="#ffffff">
        <path fill="#ffffff" d="M329.975 350.98a.52.52 0 0 0-.38.195l-3.612 4.516-3.092-3.533a.52.52 0 1 0-.783.683l3.5 4a.52.52 0 0 0 .799-.017l3.611-4.514 3.09 3.531a.52.52 0 1 0 .783-.683l-3.5-4a.52.52 0 0 0-.416-.178z" transform="translate(-317.999 -343.997)"/>
        <path fill="#ffffff" d="M321.492 347.973a.52.52 0 0 0-.513.527v11a.52.52 0 0 0 1.04 0V358h11.96v1.5a.52.52 0 0 0 1.04 0v-11a.52.52 0 0 0-.527-.527.52.52 0 0 0-.513.527v1.5h-11.96v-1.5a.52.52 0 0 0-.527-.527zm.528 3.027h11.959v6h-11.96z" transform="translate(-317.999 -343.997)"/>
    </g>
</svg>
