<svg xmlns="http://www.w3.org/2000/svg" viewBox="0 0 20 20" xml:space="preserve">
    <g fill="#ffffff">
        <path fill="#ffffff" d="M556.576 409.98a.55.55 0 0 0-.424.186c-.466.514-1.202 1.131-1.203 2.143 0 1.184.856 2.114 1.944 2.918 1.087.803 2.479 1.527 3.847 2.257.442.236.883.47 1.309.704 1.113.607 2.135 1.214 2.844 1.818.708.604 1.059 1.159 1.058 1.683 0 .481-.328 1.007-.795 1.381a.55.55 0 1 0 .688.86c.653-.524 1.206-1.302 1.207-2.239 0-.994-.62-1.82-1.446-2.523-.825-.703-1.898-1.329-3.03-1.947-.435-.237-.876-.47-1.315-.705-1.374-.734-2.735-1.451-3.713-2.174-.978-.723-1.499-1.407-1.498-2.031 0-.44.397-.831.918-1.405a.55.55 0 0 0-.39-.926z" transform="translate(-551 -406.998)"/>
        <path fill="#ffffff" d="M565.455 409.945a.55.55 0 0 0-.314.971c.44.382.812 1.034.812 1.584-.002.566-.254.952-.742 1.36-.49.407-1.207.773-1.957 1.148a.55.55 0 1 0 .492.984c.75-.375 1.531-.759 2.168-1.289.637-.53 1.137-1.27 1.139-2.203 0-.987-.543-1.852-1.194-2.416a.55.55 0 0 0-.404-.139zm-6.953 8.002a.55.55 0 0 0-.248.06c-.75.376-1.531.76-2.168 1.29-.637.53-1.137 1.27-1.139 2.203 0 .988.536 1.853 1.194 2.418a.551.551 0 1 0 .718-.836c-.447-.385-.812-1.02-.812-1.582.002-.566.254-.952.742-1.36.49-.407 1.207-.773 1.957-1.148a.55.55 0 0 0-.244-1.045z" transform="translate(-551 -406.998)"/>
        <path fill="#ffffff" d="M557.5 421a.5.5 0 1 0 0 1h2a.5.5 0 0 0 .5-.42.5.5 0 0 0 .5.42h4a.5.5 0 1 0 0-1h-4a.5.5 0 0 0-.5.42.5.5 0 0 0-.5-.42zm0-9a.5.5 0 1 0 0 1h4a.5.5 0 0 0 .5-.42.5.5 0 0 0 .5.42h2a.5.5 0 1 0 0-1h-2a.5.5 0 0 0-.5.42.5.5 0 0 0-.5-.42z" transform="translate(-551 -406.998)"/>
    </g>
</svg>
