<svg version="1.1" id="Layer_1" xmlns="http://www.w3.org/2000/svg" x="0" y="0" viewBox="0 0 20 20" fill="#ffffff" xml:space="preserve">
    <style>
        .st2{fill:#fff}
    </style>
    <g fill="#ffffff">
        <path class="st2" d="M5.6 2.9c-.1 0-.3.1-.4.2C4.7 3.6 4 4.2 4 5.3c0 1.2.9 2.1 1.9 2.9C7 9 8.4 9.7 9.8 10.4c.4.2.9.5 1.3.7 1.1.6 2.1 1.2 2.8 1.8.7.6 1.1 1.2 1.1 1.7s-.3 1-.8 1.4c-.2.2-.3.5-.1.8s.5.3.8.1c.7-.5 1.2-1.3 1.2-2.2 0-1-.6-1.8-1.4-2.5-.8-.7-1.9-1.3-3-1.9-.4-.2-.9-.5-1.3-.7C8.9 8.7 7.6 8 6.6 7.3c-1-.7-1.5-1.4-1.5-2 0-.4.4-.8.9-1.4.2-.2.2-.6 0-.8-.1-.1-.2-.2-.4-.2zm2 8c-.1 0-.2 0-.2.1-.8.4-1.5.8-2.2 1.3S4 13.5 4 14.4c0 1 .5 1.9 1.2 2.4.2.3.6.2.8 0 .2-.2.2-.6-.1-.8-.4-.4-.8-1-.8-1.6 0-.6.3-1 .7-1.4.5-.4 1.2-.8 2-1.1.3-.1.4-.5.3-.7-.1-.2-.3-.3-.5-.3z" fill="#ffffff"/>
        <path d="M6.5 5c-.3 0-.5.2-.5.5s.2.5.5.5h2c.3 0 .5-.2.5-.5S8.8 5 8.5 5h-2zm0 9c-.3 0-.5.2-.5.5s.2.5.5.5h2c.2 0 .5-.2.5-.4 0 .2.3.4.5.4h4c.3 0 .5-.2.5-.5s-.2-.5-.5-.5h-4c-.2 0-.5.2-.5.4 0-.2-.3-.4-.5-.4h-2z" fill="#ffffff"/>
        <path class="st2" d="M13.5 2C11.6 2 10 3.6 10 5.5S11.6 9 13.5 9 17 7.4 17 5.5 15.4 2 13.5 2zM13 3h1v2h2v1h-2v2h-1V6h-2V5h2V3z"/>
    </g>
</svg>
