<svg xmlns="http://www.w3.org/2000/svg" viewBox="0 0 20 20" xml:space="preserve">
    <g fill="#ffffff">
        <path fill="#ffffff" d="M30.217 30a.518.518 0 0 0-.338.127l-3.762 3.242c-1.86 1.603-3.137 3.537-3.137 6.129a.518.518 0 1 0 1.036 0c0-2.262 1.045-3.853 2.777-5.346l3.615-3.115h.153l3.617 3.115a.518.518 0 0 0 0 .002c1.733 1.492 2.775 3.082 2.775 5.344a.519.519 0 1 0 1.037 0c0-2.592-1.276-4.527-3.136-6.129l-3.762-3.242a.518.518 0 0 0-.338-.127z" transform="matrix(.93036 0 0 1.00239 -18.362 -25.1)"/>
    </g>
</svg>
