<svg xmlns="http://www.w3.org/2000/svg" viewBox="0 0 20 20" xml:space="preserve">
    <g fill="#ffffff">
        <path d="M9.969 29.049a1.436 1.436 0 0 0-1.428.262c-.362.323-.581.774-.771 1.302-.381 1.057-.61 2.474-.864 3.91-.254 1.437-.532 2.89-.941 3.93-.205.52-.443.933-.69 1.188-.247.254-.473.363-.785.363a.5.5 0 1 0 0 1c.59 0 1.116-.268 1.504-.668.388-.4.67-.922.902-1.516.467-1.186.74-2.68.995-4.123s.493-2.842.818-3.744c.162-.45.354-.766.5-.896.146-.13.187-.153.416-.069.057.021.163.102.283.297a4 4 0 0 1 .352.826c.218.681.393 1.56.582 2.373.188.814.358 1.55.74 2.082.191.267.512.516.9.506.39-.01.704-.23 1.002-.543.338-.353.596-.497.723-.529.127-.032.138-.025.242.068.209.187.513.892.74 1.733.228.84.43 1.805.717 2.601.144.399.306.76.543 1.057.238.298.602.545 1.028.545a.5.5 0 1 0 0-1c-.073 0-.125-.018-.247-.17-.12-.152-.26-.427-.384-.771-.25-.69-.453-1.643-.692-2.524-.238-.88-.46-1.7-1.037-2.217a1.301 1.301 0 0 0-1.154-.293c-.419.105-.794.382-1.203.81-.206.216-.32.234-.303.233.016 0 .023.029-.062-.09-.17-.236-.395-.934-.579-1.724-.183-.79-.358-1.685-.605-2.453-.123-.384-.262-.738-.45-1.043-.187-.306-.433-.582-.792-.713z" fill="#ffffff" transform="matrix(-1 0 0 1 20.983 -24.983)"/>
    </g>
</svg>
