<svg xmlns="http://www.w3.org/2000/svg" viewBox="0 0 20 20" xml:space="preserve">
    <g fill="#ffffff">
        <path fill="#ffffff" d="M334.5 777a.5.5 0 0 0-.4.2l-1.35 1.8H332c-.545 0-1 .455-1 1v9c0 .545.455 1 1 1h12c.545 0 1-.455 1-1v-9c0-.545-.455-1-1-1h-3.75l-1.35-1.8a.5.5 0 0 0-.4-.2zm1 1h2a.5.5 0 0 1 .5.5v1a.5.5 0 0 1-.5.5h-2a.5.5 0 0 1-.5-.5v-1a.5.5 0 0 1 .5-.5zm-3.5 3h9v7h-9v-6.5zm11 1c.546 0 1 .454 1 1s-.454 1-1 1-1-.454-1-1 .454-1 1-1zm0 4c.546 0 1 .454 1 1s-.454 1-1 1-1-.454-1-1 .454-1 1-1z" transform="translate(-328 -773.5)"/>
        <path fill="#ffffff" d="M333.5 782a.5.5 0 1 0 0 1h6.002a.5.5 0 1 0 0-1zm0 2a.5.5 0 1 0 0 1h6.002a.5.5 0 1 0 0-1zm0 2a.5.5 0 1 0 0 1h6.002a.5.5 0 1 0 0-1z" transform="translate(-328 -773.5)"/>
        <path d="M342.502 777c-.676-.01-.676 1.01 0 1h1c.676.01.676-1.01 0-1z" fill="#ffffff" transform="translate(-328 -773.5)"/>
    </g>
</svg>
