<svg xmlns="http://www.w3.org/2000/svg" viewBox="0 0 20 20" xml:space="preserve">
    <g fill="#ffffff">
        <path fill="#ffffff" d="M10.482 494a.5.5 0 0 0-.437.293l-3.774 8.25-.003.01c-.11.253-.268.548-.268.947 0 .838.526 1.535 1.297 1.922.77.387 1.79.556 3.023.572a.5.5 0 0 0 .504-.543c.001.011-.01-.378-.015-.709-.005-.33-.008-.67-.008-.742 0-1.868 1.015-3.52 2.52-4.438a.5.5 0 0 0 .177-.667l-2.56-4.637a.5.5 0 0 0-.456-.258zM18 494c-1.099 0-2 .901-2 2s.901 2 2 2 2-.901 2-2-.901-2-2-2zm-2 6c-2.203 0-4 1.797-4 4 0 2.203 1.797 4 4 4 2.203 0 4-1.797 4-4 0-2.203-1.797-4-4-4zm0 1c1.663 0 3 1.337 3 3s-1.337 3-3 3-3-1.337-3-3 1.337-3 3-3zm-.541 1.033c-.8 0-1.459.66-1.459 1.461a.5.5 0 1 0 1 0c0-.26.2-.46.459-.46a.5.5 0 1 0 0-1z" transform="translate(-3 -491)"/>
    </g>
</svg>
