<svg xmlns="http://www.w3.org/2000/svg" viewBox="0 0 20 20" xml:space="preserve">
    <path fill="#ffffff" d="M10 2.996c-1.798 0-2.785.233-3.389.752C6.008 4.268 6 5.003 6 5.496v.5h-.002c-.128 0-.911 0-1.639.537C3.631 7.071 3 8.143 3 10c0 .847.125 1.439.353 1.895.229.455.546.742.815.98a.5.5 0 1 0 .664-.75c-.264-.234-.445-.4-.584-.678C4.109 11.17 4 10.75 4 10c0-1.643.494-2.323.953-2.662.46-.339.924-.342 1.047-.342h.443A.5.5 0 0 0 6.502 7l3-.01a.5.5 0 0 0-.002-1h-.004L7 5.994v-.498c0-.494-.008-.756.264-.99.271-.234 1.034-.51 2.736-.51 1.702 0 2.465.276 2.736.51.272.234.264.496.264.99V7.49c0 .479-.265.79-.846 1.13-.58.34-1.432.62-2.306.901-.875.282-1.775.564-2.506.989C6.61 10.935 6 11.592 6 12.49v2.014c0 .494.008 1.229.611 1.748.604.52 1.59.752 3.389.752 1.798 0 2.785-.233 3.389-.752.603-.52.611-1.254.611-1.748v-.5c.127 0 .912 0 1.64-.537.73-.538 1.36-1.61 1.36-3.467 0-1.57-.67-2.348-1.137-2.844a.5.5 0 1 0-.726.688c.47.499.863.831.863 2.156 0 1.643-.494 2.323-.953 2.662-.46.339-.924.342-1.047.342h-.443a.5.5 0 0 0-.059-.004l-3 .01a.5.5 0 0 0 .002 1h.004L13 14.006v.498c0 .494.008.756-.264.99-.271.234-1.034.51-2.736.51-1.702 0-2.465-.276-2.736-.51-.272-.234-.264-.496-.264-.99V12.49c0-.472.264-.779.846-1.117.581-.338 1.431-.619 2.306-.9.876-.282 1.775-.563 2.506-.99C13.39 9.053 14 8.391 14 7.49V5.496c0-.494-.008-1.229-.611-1.748-.604-.52-1.59-.752-3.389-.752z"/>
</svg>
