<svg xmlns="http://www.w3.org/2000/svg" viewBox="0 0 20 20" xml:space="preserve">
    <g fill="#ffffff">
        <path fill="#ffffff" d="M515.498 329.986a.5.5 0 0 0-.502.502l.008 5.006a.5.5 0 0 0 .5.5h5a.5.5 0 0 0 .5-.5v-4.998a.5.5 0 0 0-.5-.5z" transform="translate(-508.004 -322.997)"/>
        <g fill="#ffffff">
            <path transform="translate(-508.004 -322.997)" d="M515.004 325.996V326H515v2h1v-1.004h1.004v-1zm4 0v1h2v-1zM523 326v1h1v1h1.004v-2.004zm1.004 3.996v2h1v-2zm-13 .002v2h1v-1h1v-1zm13 3.998v1h-1v1h2v-2zm-13 .002v2h1v-2zm0 4v2h2v-1h-1v-1zm9 0v1h-1v1h2v-2zm-5 1v1h2v-1z" fill="#ffffff"/>
        </g>
    </g>
</svg>
