<svg xmlns="http://www.w3.org/2000/svg" viewBox="0 0 20 20" xml:space="preserve">
    <g fill="#ffffff">
        <g fill="#ffffff">
            <path transform="translate(-486.004 -322.992)" d="M489.004 329.998v2h1v-1h1v-1zm0 4v2h1v-2zm0 4v2h2v-1h-1v-1zm9 0v1h-1v1h2v-2zm-5 1v1h2v-1z" fill="#ffffff"/>
        </g>
        <path fill="#ffffff" d="M493.496 325.986a.5.5 0 0 0-.5.502l.008 4.006a.5.5 0 0 0 .5.5h4.5v4.502a.5.5 0 0 0 .5.5h4a.5.5 0 0 0 .5-.5v-9a.5.5 0 0 0-.5-.5z" transform="translate(-486.004 -322.992)"/>
    </g>
</svg>
