<svg xmlns="http://www.w3.org/2000/svg" viewBox="0 0 20 20" xml:space="preserve">
    <g fill="#ffffff">
        <g fill="#ffffff">
            <path fill="#ffffff" d="M531.492 52.992a.5.5 0 0 0-.316.121.5.5 0 0 0-.02.016.5.5 0 0 0-.017.017.5.5 0 0 0-.002.004.5.5 0 0 0-.032.034.5.5 0 0 0-.002.003.5.5 0 0 0-.027.038.5.5 0 0 0-.002.004.5.5 0 0 0-.074.353v.918a.5.5 0 1 0 1 0V54h.5a.5.5 0 1 0 0-1h-.92a.5.5 0 0 0-.088-.008zm13 0a.5.5 0 0 0-.074.008h-.918a.5.5 0 1 0 0 1h.5v.5a.5.5 0 1 0 1 0v-.92a.5.5 0 0 0-.113-.404.5.5 0 0 0-.002-.004.5.5 0 0 0-.031-.033.5.5 0 0 0-.004-.002.5.5 0 0 0-.034-.032.5.5 0 0 0-.004-.002.5.5 0 0 0-.32-.11zM534.5 53a.5.5 0 1 0 0 1h1a.5.5 0 1 0 0-1zm3 0a.5.5 0 1 0 0 1h1a.5.5 0 1 0 0-1zm3 0a.5.5 0 1 0 0 1h1a.5.5 0 1 0 0-1zm-9.008 2.992a.5.5 0 0 0-.492.508v1a.5.5 0 1 0 1 0v-1a.5.5 0 0 0-.508-.508zm13 0a.5.5 0 0 0-.492.508v1a.5.5 0 1 0 1 0v-1a.5.5 0 0 0-.508-.508zm-13 3a.5.5 0 0 0-.492.508v1a.5.5 0 1 0 1 0v-1a.5.5 0 0 0-.508-.508zm13 0a.5.5 0 0 0-.492.508v1a.5.5 0 1 0 1 0v-1a.5.5 0 0 0-.508-.508zm-13 3a.5.5 0 0 0-.492.508v1a.5.5 0 1 0 1 0v-1a.5.5 0 0 0-.508-.508zm13 0a.5.5 0 0 0-.492.508v1a.5.5 0 1 0 1 0v-1a.5.5 0 0 0-.508-.508zm-13 3a.5.5 0 0 0-.492.508v.92a.5.5 0 0 0 .113.404.5.5 0 0 0 .016.02.5.5 0 0 0 .017.017.5.5 0 0 0 .004.002.5.5 0 0 0 .034.032.5.5 0 0 0 .004.002.5.5 0 0 0 .394.103h.918a.5.5 0 1 0 0-1h-.5v-.5a.5.5 0 0 0-.508-.508zm13 0a.5.5 0 0 0-.492.508v.5h-.5a.5.5 0 1 0 0 1h.92a.5.5 0 0 0 .404-.113.5.5 0 0 0 .004-.002.5.5 0 0 0 .033-.032.5.5 0 0 0 .002-.003.5.5 0 0 0 .032-.034.5.5 0 0 0 .002-.004.5.5 0 0 0 .103-.394V65.5a.5.5 0 0 0-.508-.508zM534.5 66a.5.5 0 1 0 0 1h1a.5.5 0 1 0 0-1zm3 0a.5.5 0 1 0 0 1h1a.5.5 0 1 0 0-1zm3 0a.5.5 0 1 0 0 1h1a.5.5 0 1 0 0-1z" transform="translate(-528 -50)"/>
        </g>
        <g fill="#ffffff">
            <path fill="#ffffff" d="M117.5 98a.5.5 0 0 0-.5.5v2a.5.5 0 0 0 .5.5h5a.5.5 0 0 0 .5-.5v-2a.5.5 0 0 0-.5-.5zm-4 5a.5.5 0 0 0-.5.5v2a.5.5 0 0 0 .5.5h7a.5.5 0 0 0 .5-.5v-2a.5.5 0 0 0-.5-.5z" transform="rotate(180 64.004 56.004)"/>
        </g>
    </g>
</svg>
