<svg xmlns="http://www.w3.org/2000/svg" viewBox="0 0 20 20" xml:space="preserve">
    <g fill="#ffffff">
        <path transform="translate(-149.504 -532.502)" d="M164.484 535.006a.5.5 0 0 0-.12.02l-1.364.388.01 2.04 1.63-.468a.5.5 0 0 0 .36-.48v-1a.5.5 0 0 0-.516-.5zM162 535.7l-2 .57.01 2.04 2-.573zm-3 .856-1.637.468a.5.5 0 0 0-.363.48v1a.5.5 0 0 0 .637.481l1.369-.39zM157 542v1l8.5.01a.5.5 0 0 0 0-1zm-3 2.006v5.492a.5.5 0 0 0 .5.5h11a.5.5 0 0 0 .5-.5v-4.992a.5.5 0 0 0-.5-.5z" fill="#ffffff"/>
        <path fill="#ffffff" d="M1315.508 1411.992a.5.5 0 0 0-.5.5v4a.5.5 0 0 0 .5.5h2a.5.5 0 0 0 .5-.5v-4a.5.5 0 0 0-.5-.5zm.5 1h1v3h-1z" transform="translate(-1311.504 -1406.496)"/>
    </g>
</svg>
