<svg xmlns="http://www.w3.org/2000/svg" viewBox="0 0 20 20" xml:space="preserve">
    <g fill="#ffffff">
        <g fill="#ffffff">
            <path transform="translate(-528.006 -449.013)" d="M535.498 458.004a.5.5 0 0 0-.504.508l.002 1.34c-.372.072-.719.22-1.021.427l-1.127-1.123a.5.5 0 0 0-.342-.15.5.5 0 0 0-.363.857l1.127 1.123a2.713 2.713 0 0 0-.43 1.016l-1.346.004a.5.5 0 0 0 .002 1l1.338-.002c.068.378.209.732.416 1.039l-1.107 1.11a.5.5 0 1 0 .705.704l1.103-1.101a2.71 2.71 0 0 0 1.045.445l-.002 1.301a.5.5 0 1 0 1 .004l.002-1.303a2.71 2.71 0 0 0 1.059-.431l1.082 1.086a.5.5 0 1 0 .707-.706l-1.084-1.09a2.73 2.73 0 0 0 .432-1.058h1.306a.501.501 0 1 0 0-1.002h-1.312a2.711 2.711 0 0 0-.446-1.033l1.104-1.106a.5.5 0 0 0-.35-.859.5.5 0 0 0-.357.152l-1.11 1.108a2.71 2.71 0 0 0-1.03-.414l-.005-1.34a.5.5 0 0 0-.492-.506.5.5 0 0 1-.002 0zm-.002 3.299a1.2 1.2 0 1 1 .002 2.4 1.2 1.2 0 0 1-.002-2.4z" fill="#ffffff"/>
        </g>
        <g fill="#ffffff">
            <path transform="translate(-528.006 -449.013)" d="M540.498 451.004a.5.5 0 0 0-.504.508l.002 1.34c-.372.072-.719.22-1.021.427l-1.127-1.123a.5.5 0 0 0-.342-.15.5.5 0 0 0-.363.857l1.127 1.123a2.713 2.713 0 0 0-.43 1.016l-1.346.004a.5.5 0 0 0 .002 1l1.338-.002c.068.378.209.732.416 1.039l-1.107 1.11a.5.5 0 1 0 .705.704l1.103-1.101a2.71 2.71 0 0 0 1.045.445l-.002 1.301a.5.5 0 1 0 1 .004l.002-1.303c.386-.07.745-.218 1.057-.433l1.084 1.088a.5.5 0 1 0 .707-.706l-1.084-1.09a2.73 2.73 0 0 0 .432-1.058h1.306a.501.501 0 1 0 0-1.002h-1.312a2.711 2.711 0 0 0-.446-1.033l1.104-1.106a.5.5 0 0 0-.35-.859.5.5 0 0 0-.357.152l-1.11 1.108a2.71 2.71 0 0 0-1.03-.414l-.005-1.34a.5.5 0 0 0-.492-.506.5.5 0 0 1-.002 0zm-.002 3.299a1.2 1.2 0 1 1 .002 2.4 1.2 1.2 0 0 1-.002-2.4z" fill="#ffffff"/>
        </g>
    </g>
</svg>
