<svg xmlns="http://www.w3.org/2000/svg" viewBox="0 0 20 20" xml:space="preserve">
    <g fill="#ffffff">
        <path d="M34 116c-3.86 0-7 3.14-7 7s3.14 7 7 7 7-3.14 7-7-3.14-7-7-7zm0 1c3.32 0 6 2.68 6 6s-2.68 6-6 6-6-2.68-6-6 2.68-6 6-6z" fill="#ffffff" transform="translate(-24 -113)"/>
        <path transform="translate(516 -103)" d="M-506.016 106.244a.5.5 0 0 0-.375.194c-.706.883-1.169 1.996-1.41 3.562h-3.949c-.676-.01-.676 1.01 0 1h3.832a23.189 23.189 0 0 0-.082 2c0 .737.03 1.394.082 2h-3.832c-.676-.01-.676 1.01 0 1h3.95c.24 1.566.703 2.68 1.41 3.563a.5.5 0 0 0 .78-.626c-.565-.706-.963-1.596-1.185-2.937h6.545c.676.01.676-1.01 0-1h-6.668a22.494 22.494 0 0 1-.082-2c0-.753.03-1.41.082-2h6.668c.676.01.676-1.01 0-1h-6.545c.222-1.341.62-2.23 1.186-2.938a.5.5 0 0 0-.407-.818z" fill="#ffffff"/>
    </g>
</svg>
