<svg xmlns="http://www.w3.org/2000/svg" viewBox="0 0 20 20" xml:space="preserve">
    <g fill="#ffffff">
        <path d="M118 95.5c-3.59 0-6.5 2.41-6.5 6 1 1 3 2.5 6.5 2.5z" fill="#ffffff" transform="translate(-108 -92)"/>
        <path fill="#ffffff" d="M118 95c-3.86 0-7 3.14-7 7s3.14 7 7 7 7-3.14 7-7-3.14-7-7-7zm0 1c3.32 0 6 2.68 6 6s-2.68 6-6 6-6-2.68-6-6 2.68-6 6-6z" transform="translate(-108 -92)"/>
        <path fill="#ffffff" d="M123.244 102.645a.6.6 0 0 0-.418 1.029l.5.5a.6.6 0 1 0 .848-.848l-.5-.5a.6.6 0 0 0-.43-.181zm-2.25.75a.6.6 0 0 0-.418 1.029l1.75 1.75a.6.6 0 1 0 .848-.848l-1.75-1.75a.6.6 0 0 0-.43-.181zm-2.5.5a.6.6 0 0 0-.418 1.029l2.75 2.75a.6.6 0 1 0 .848-.848l-2.75-2.75a.6.6 0 0 0-.43-.181zm0 3a.6.6 0 0 0-.418 1.029l.75.75a.6.6 0 1 0 .848-.848l-.75-.75a.6.6 0 0 0-.43-.181z" transform="translate(-108 -92)"/>
    </g>
</svg>
