<svg xmlns="http://www.w3.org/2000/svg" viewBox="0 0 20 20" xml:space="preserve">
    <g fill="#ffffff">
        <path d="M718.492 868a.5.5 0 0 0-.346.146L717 869.293l1.707 1.707 1.147-1.146a.5.5 0 0 0 0-.708l-1-1a.5.5 0 0 0-.362-.146zm-2.199 2-5.147 5.146a.5.5 0 0 0 0 .708l1 1a.5.5 0 0 0 .708 0l5.146-5.147z" fill="#ffffff" transform="translate(-708.004 -859.996)"/>
        <g fill="#ffffff">
            <path fill="#ffffff" d="M672.492 862.992a.5.5 0 0 0-.492.508v1.5h-1.5a.5.5 0 1 0 0 1h1.5v1.5a.5.5 0 1 0 1 0V866h1.5a.5.5 0 1 0 0-1H673v-1.5a.5.5 0 0 0-.508-.508zm8 .5A.5.5 0 0 0 680 864v1h-1a.5.5 0 1 0 0 1h1v1a.5.5 0 1 0 1 0v-1h1a.5.5 0 1 0 0-1h-1v-1a.5.5 0 0 0-.508-.508zm0 7.5a.5.5 0 0 0-.492.508v1.5h-1.5a.5.5 0 1 0 0 1h1.5v1.5a.5.5 0 1 0 1 0V874h1.5a.5.5 0 1 0 0-1H681v-1.5a.5.5 0 0 0-.508-.508z" transform="translate(-666.004 -859.996)"/>
        </g>
    </g>
</svg>
