<svg xmlns="http://www.w3.org/2000/svg" viewBox="0 0 20 20" xml:space="preserve">
    <g fill="#ffffff">
        <path fill="#ffffff" d="M328 368c-3.86 0-7 3.14-7 7s3.14 7 7 7 7-3.14 7-7-3.14-7-7-7zm0 1c3.32 0 6 2.68 6 6s-2.68 6-6 6-6-2.68-6-6 2.68-6 6-6z" transform="translate(-318 -365)"/>
        <path fill="#ffffff" d="M327.129 369.967a1 1 0 0 0-.168.023 5.122 5.122 0 0 0-3.977 3.996 1 1 0 1 0 1.961.397 3.11 3.11 0 0 1 2.422-2.434 1 1 0 0 0-.238-1.982z" transform="translate(-318 -365)"/>
        <path fill="#ffffff" d="M332.496 373.096a.4.4 0 0 0-.28.687l2 2a.4.4 0 1 0 .567-.566l-2-2a.4.4 0 0 0-.287-.121zm-.75 2.25a.4.4 0 0 0-.28.687l2 2a.4.4 0 1 0 .567-.566l-2-2a.4.4 0 0 0-.287-.121zm-1.25 1.75a.4.4 0 0 0-.28.687l2 2a.4.4 0 1 0 .567-.566l-2-2a.4.4 0 0 0-.287-.121zm-1.75 1.25a.4.4 0 0 0-.28.687l2 2a.4.4 0 1 0 .567-.566l-2-2a.4.4 0 0 0-.287-.121zm-2.236.75a.4.4 0 0 0-.274.705l2 1.75a.4.4 0 1 0 .528-.602l-2-1.75a.4.4 0 0 0-.254-.103z" transform="translate(-318 -365)"/>
    </g>
</svg>
