<svg xmlns="http://www.w3.org/2000/svg" viewBox="0 0 20 20" xml:space="preserve">
    <g fill="#ffffff">
        <path fill="#ffffff" d="M283.492 330.008a.5.5 0 0 0-.353.146l-2 2a.5.5 0 0 0-.147.354v5a.5.5 0 0 0 .5.5h5a.5.5 0 0 0 .354-.147l2-2a.5.5 0 0 0 .146-.353v-5a.5.5 0 0 0-.5-.5z" transform="rotate(180 147.998 171.502)"/>
        <path fill="#ffffff" d="M284.25 326a.5.5 0 0 0-.354.146l-4.75 4.75a.5.5 0 0 0-.146.354l-.008 8.256a.5.5 0 0 0 .502.502l8.256-.008a.5.5 0 0 0 .354-.146l4.75-4.75a.5.5 0 0 0 .146-.354l-.008-8.244a.5.5 0 0 0-.498-.498zm.207 1 7.537.006.006 7.537-4.457 4.457-7.55.008.007-7.55z" transform="rotate(180 147.998 171.502)"/>
    </g>
</svg>
