<svg xmlns="http://www.w3.org/2000/svg" viewBox="0 0 20 20" xml:space="preserve">
    <g fill="#ffffff">
        <path d="M103 78h1v1h-1zm0-3h1v1h-1zm-8 3h1v1h-1zm0 3h1v1h-1zm0-6h1v1h-1z" fill="#ffffff" transform="translate(-87.008 -70.5)"/>
        <path d="M98.516 74a.5.5 0 0 0-.5.5v6a.5.5 0 0 0 .5.5h2.984a.5.5 0 0 0 .5-.5v-6a.5.5 0 0 0-.5-.5zm.5 1H101v2h-1.984zm0 3H101v2h-1.984zm-8.5-4a.5.5 0 0 0-.5.5v12a.5.5 0 0 0 .5.5H93.5a.5.5 0 0 0 .5-.5v-12a.5.5 0 0 0-.5-.5zm.5 1H93v2h-1.984zm0 3H93v2h-1.984zm0 3H93v2h-1.984zm0 3H93v2h-1.984z" fill="#ffffff" transform="translate(-87.008 -70.5)"/>
    </g>
</svg>
