<svg xmlns="http://www.w3.org/2000/svg" viewBox="0 0 20 20" xml:space="preserve">
    <g fill="#ffffff">
        <g fill="#ffffff">
            <path fill="#ffffff" d="M268.492 388.992a.5.5 0 0 0-.492.508v2.496l-2.506-.004c-.676-.01-.678 1.008-.002 1l2.508.004V399h-6.004l-.004-2.508c.008-.676-1.01-.674-1 .002l.004 2.506H258.5c-.676-.01-.676 1.01 0 1h2.496l.004 2.5c-.01.676 1.01.676 1 0l-.004-2.5H268v2.5c-.01.676 1.01.676 1 0V400h2.5c.676.01.676-1.01 0-1H269v-6.004l2.5.004c.676.01.676-1.01 0-1l-2.5-.004V389.5a.5.5 0 0 0-.508-.508z" transform="translate(-255 -386)"/>
        </g>
        <path fill="#ffffff" d="M385.5 390a.5.5 0 0 0-.5.5v4a.5.5 0 0 0 .5.5h4a.5.5 0 0 0 .5-.5v-4a.5.5 0 0 0-.5-.5z" transform="translate(-381 -386)"/>
    </g>
</svg>
