<svg xmlns="http://www.w3.org/2000/svg" viewBox="0 0 20 20" xml:space="preserve">
    <path fill="#ffffff" d="M6.489 12.005a.5.5 0 0 0-.493.508v1.5h-2.5a.5.5 0 0 0-.5.5v2a.5.5 0 1 0 1 0v-1.5h2.5a.5.5 0 0 0 .5-.5v-2a.5.5 0 0 0-.507-.508z"/>
    <path fill="#ffffff" d="M10.887 2.98c-1.595-.02-3.17.539-4.254 1.691l-.74.739a.5.5 0 0 0 0 .707l2 2a.5.5 0 0 0 .707 0l.5-.5c.585-.585 1.582-.898 2.346-.694a2.32 2.32 0 0 1 1.64 1.641c.205.764-.108 1.76-.693 2.346l-.5.5a.5.5 0 0 0 0 .707l2 2a.5.5 0 0 0 .707 0l.75-.75c2.224-2.224 2.218-6.298-.098-8.613C14.094 3.596 12.482 3 10.887 2.98zM4.739 6.763a.5.5 0 0 0-.346.147l-1.25 1.25a.5.5 0 0 0 0 .707l2 2a.5.5 0 0 0 .707 0l1.25-1.25a.5.5 0 0 0 0-.707l-2-2a.5.5 0 0 0-.361-.147zm6 6a.5.5 0 0 0-.346.147l-1.25 1.25a.5.5 0 0 0 0 .707l2 2a.5.5 0 0 0 .707 0l1.25-1.25a.5.5 0 0 0 0-.707l-2-2a.5.5 0 0 0-.361-.147z"/>
</svg>
