<svg xmlns="http://www.w3.org/2000/svg" viewBox="0 0 20 20" xml:space="preserve">
    <g fill="#ffffff">
        <path fill="#ffffff" d="M40.434 95a.55.55 0 0 0-.38.166l-3.443 3.445a.55.55 0 1 0 .778.778l3.445-3.444a.55.55 0 0 0-.4-.945zm-9.446 9.445a.55.55 0 0 0-.377.166l-3.445 3.444a.551.551 0 1 0 .78.779l3.443-3.445a.55.55 0 0 0-.4-.944z" transform="translate(-24.003 -91.998)"/>
        <path fill="#ffffff" d="M32.5 100a.5.5 0 0 0-.5.5v3a.5.5 0 0 0 .5.5h3a.5.5 0 0 0 .5-.5v-3a.5.5 0 0 0-.5-.5z" transform="translate(-24.003 -91.998)"/>
    </g>
</svg>
