<svg xmlns="http://www.w3.org/2000/svg" viewBox="0 0 20 20" xml:space="preserve">
    <path d="M10.924 2.996c-1.585-.012-3.16.543-4.272 1.655l-3.5 3.5a.5.5 0 0 0 0 .707l2 2a.5.5 0 0 0 .707 0l3.25-3.25c.585-.585 1.582-.899 2.346-.694.802.215 1.426.84 1.64 1.64.205.765-.108 1.762-.693 2.347l-3.25 3.25a.5.5 0 0 0 0 .707l2 2a.5.5 0 0 0 .707 0l3.475-3.477a.5.5 0 0 0 .025-.023.5.5 0 0 0 .121-.19c2.065-2.255 2.042-6.164-.218-8.424-1.158-1.158-2.753-1.736-4.338-1.748zm-.008 1.033c1.34.01 2.694.478 3.639 1.422 1.889 1.889 1.874 5.423.097 7.2l-3.146 3.146-1.293-1.293 2.896-2.896c.84-.84 1.27-2.13.954-3.313a3.322 3.322 0 0 0-2.348-2.348c-1.183-.316-2.473.113-3.313.954L5.506 9.797 4.213 8.504l3.146-3.146c.889-.889 2.216-1.338 3.557-1.329z" fill="#ffffff"/>
</svg>
