<svg xmlns="http://www.w3.org/2000/svg" viewBox="0 0 20 20" xml:space="preserve">
    <g fill="#ffffff">
        <path fill="#ffffff" d="M69.5 157.986a.5.5 0 0 0-.492.506V171.4a.5.5 0 0 0 .082.377.5.5 0 0 0 .002.004.5.5 0 0 0 .03.036.5.5 0 0 0 .001.004.5.5 0 0 0 .031.033.5.5 0 0 0 .026.021.5.5 0 0 0 .012.012.5.5 0 0 0 .003.002.5.5 0 0 0 .041.03.5.5 0 0 0 .354.073h12.918a.5.5 0 1 0 0-1h-12.5v-12.5a.5.5 0 0 0-.508-.506z" transform="translate(-66.007 -154.993)"/>
        <path fill="#ffffff" d="M72.5 165a.5.5 0 0 0-.5.5v3a.5.5 0 0 0 .5.5h3a.5.5 0 0 0 .5-.5v-3a.5.5 0 0 0-.5-.5z" transform="translate(-66.007 -154.993)"/>
    </g>
</svg>
