<svg xmlns="http://www.w3.org/2000/svg" viewBox="0 0 20 20" xml:space="preserve">
    <g fill="#ffffff">
        <path fill="#ffffff" d="M384.5 158a.5.5 0 0 0-.5.5v3a.5.5 0 0 0 .5.5h13a.5.5 0 0 0 .5-.5v-3a.5.5 0 0 0-.5-.5zm.5 1h12v2h-12zm-.5 9a.5.5 0 0 0-.5.5v3a.5.5 0 0 0 .5.5h13a.5.5 0 0 0 .5-.5v-3a.5.5 0 0 0-.5-.5zm.5 1h12v2h-12z" transform="translate(-381 -155)"/>
        <path fill="#ffffff" d="M393 165a2 2 0 0 1-2 2 2 2 0 0 1-2-2 2 2 0 0 1 2-2 2 2 0 0 1 2 2z" transform="translate(-381 -155)"/>
    </g>
</svg>
