<svg xmlns="http://www.w3.org/2000/svg" viewBox="0 0 20 20" xml:space="preserve">
    <path fill="#ffffff" d="M9.75 3a.5.5 0 0 0-.473.334L7.645 8H3.5a.5.5 0 0 0-.5.5v.75a.5.5 0 0 0 .23.42l3.166 2.037-1.367 3.877A.5.5 0 0 0 5 15.75v.75a.5.5 0 0 0 .5.5h.75a.5.5 0 0 0 .326-.121L9.936 14h.128l3.36 2.879a.5.5 0 0 0 .33.121l.746-.006a.5.5 0 0 0 .496-.496l.004-.746a.5.5 0 0 0-.03-.168l-1.366-3.877L16.77 9.67a.5.5 0 0 0 .23-.42V8.5a.5.5 0 0 0-.5-.5h-4.145l-1.632-4.666A.5.5 0 0 0 10.25 3h-.252zM10 4.3l1.527 4.366A.5.5 0 0 0 12 9h3.963l-3.233 2.08a.5.5 0 0 0-.2.586L14 15.834l-.002.164h-.064l-3.358-2.877A.5.5 0 0 0 10.25 13h-.5a.5.5 0 0 0-.326.121L6.064 16H6v-.164l1.47-4.17a.5.5 0 0 0-.2-.586L4.037 9H8a.5.5 0 0 0 .473-.334z"/>
</svg>
