<svg xmlns="http://www.w3.org/2000/svg" viewBox="0 0 20 20" xml:space="preserve">
    <g fill="#ffffff">
        <path fill="#ffffff" d="M9.25 74a.5.5 0 0 0-.477.352l-2.75 8.82A.5.5 0 0 0 6 83.32v.174a.5.5 0 1 0 1 0v-.098L7.746 81a.5.5 0 0 0 .004 0h3.5a.5.5 0 0 0 .004 0L12 83.396v.098a.5.5 0 1 0 1 0v-.174a.5.5 0 0 0-.023-.148l-2.75-8.82A.5.5 0 0 0 9.75 74zm.25 1.375L10.941 80H8.06z" transform="translate(-3.004 -71)"/>
        <path fill="#ffffff" d="M14.5 79a.5.5 0 1 0 0 1H19v.08l-4.896 6.365a.5.5 0 0 0-.104.305v.75a.5.5 0 0 0 .5.5h5a.5.5 0 1 0 0-1H15v-.08l4.896-6.365A.5.5 0 0 0 20 80.25v-.75a.5.5 0 0 0-.5-.5z" transform="translate(-3.004 -71)"/>
    </g>
</svg>
