<svg xmlns="http://www.w3.org/2000/svg" viewBox="0 0 20 20" xml:space="preserve">
    <path fill="#ffffff" d="M5.994 2.993A.5.5 0 0 0 5.918 3H5a.5.5 0 1 0 0 1h.5v1.125c0 1.632.971 2.853 2.201 3.775l.799.6v1l-.799.6c-1.23.922-2.201 2.143-2.201 3.775V16H5a.5.5 0 1 0 0 1h.922a.5.5 0 0 0 .16 0h7.838a.5.5 0 0 0 .162 0H15a.5.5 0 1 0 0-1h-.5v-1.125c0-1.632-.97-2.853-2.2-3.776l-.8-.6v-.464a.5.5 0 0 0 0-.035v-.5l.8-.6c1.23-.922 2.2-2.143 2.2-3.775V4h.5a.5.5 0 1 0 0-1h-.92a.5.5 0 0 0-.162 0H6.082a.5.5 0 0 0-.088-.008zM6.5 4h7v1.125c0 1.245-.698 2.147-1.8 2.974l-1 .75a.5.5 0 0 0-.2.4v1.501a.5.5 0 0 0 .2.4l1 .75c1.101.826 1.8 1.728 1.8 2.973V16h-7v-1.127c0-1.245.699-2.147 1.8-2.973l1-.75a.5.5 0 0 0 .2-.4v-.715a.5.5 0 0 0 0-.035v-.75a.5.5 0 0 0-.2-.4l-1-.75c-1.1-.827-1.8-1.73-1.8-2.973v-.002z"/>
</svg>
