<svg xmlns="http://www.w3.org/2000/svg" viewBox="0 0 20 20" xml:space="preserve">
    <g fill="#ffffff">
        <path d="M290 517h2.5a.5.5 0 0 0 .5-.5v-1a.5.5 0 0 0-.5-.5h-2.92a.5.5 0 0 0-.58.5v6.64c-.566-.207-1.286-.18-1.982.073-1.355.496-2.238 1.699-1.971 2.685.266.987 1.58 1.385 2.935.889 1.23-.451 2.018-1.355 2.018-2.537z" fill="#ffffff" transform="translate(-276 -511.997)"/>
        <path fill="#ffffff" d="M283.516 517a.5.5 0 0 0-.227.057c-1.997 1.003-3.468 2.884-4.035 5.134-.567 2.251-.176 4.648 1.074 6.569a.5.5 0 1 0 .838-.545c-1.094-1.68-1.44-3.798-.941-5.78.499-1.98 1.788-3.62 3.513-4.486a.5.5 0 0 0-.222-.949zm.982 3a.5.5 0 0 0-.268.082c-1.213.779-2.014 2.122-2.193 3.63-.179 1.51.281 3.026 1.264 4.118a.5.5 0 1 0 .742-.67c-.776-.862-1.158-2.1-1.012-3.33.146-1.23.799-2.303 1.739-2.906a.5.5 0 0 0-.272-.924z" transform="translate(-276 -511.997)"/>
    </g>
</svg>
