<svg xmlns="http://www.w3.org/2000/svg" viewBox="0 0 20 20" xml:space="preserve">
    <g fill="#ffffff">
        <path fill="#ffffff" d="M391 389c-3.838 0-6.961 3.105-6.996 6.936A.5.5 0 0 0 384 396c0 3.86 3.14 7 7 7l.05-.002a.5.5 0 0 0 .01-.002c3.833-.033 6.94-3.156 6.94-6.996l-.002-.05a.5.5 0 0 0-.002-.01 7.003 7.003 0 0 0-6.934-6.936A.5.5 0 0 0 391 389zm0 1c3.32 0 6 2.68 6 6 0 .17-.086.365-.348.604-.262.238-.688.486-1.236.697-1.097.422-2.673.699-4.416.699-.66 0-1.282-.05-1.877-.123A15.468 15.468 0 0 1 389 396c0-1.743.277-3.32.7-4.416.21-.548.458-.975.696-1.236.239-.262.434-.348.604-.348zm-1.764.264a6.04 6.04 0 0 0-.47.96c-.483 1.256-.766 2.93-.766 4.776 0 .595.038 1.162.094 1.713a9.647 9.647 0 0 1-1.51-.412c-.548-.211-.975-.46-1.236-.697-.262-.239-.348-.434-.348-.604a5.991 5.991 0 0 1 4.236-5.736zm-3.972 7.5c.287.173.602.332.96.47.586.225 1.269.402 2.01.532a10.9 10.9 0 0 0 .532 2.01c.138.358.297.673.47.96a5.995 5.995 0 0 1-3.972-3.972zm11.472 0A5.991 5.991 0 0 1 391 402c-.17 0-.365-.086-.604-.348-.238-.262-.486-.688-.697-1.236a9.665 9.665 0 0 1-.412-1.51c.55.056 1.118.094 1.713.094 1.847 0 3.52-.283 4.775-.766a6.04 6.04 0 0 0 .961-.47z" transform="translate(-381 -386)"/>
        <g fill="#ffffff">
            <path fill="#ffffff" d="M391 330c-1.847 0-3.52.283-4.775.766-.628.241-1.155.53-1.551.89-.396.36-.674.823-.674 1.344a.5.5 0 1 0 1 0c0-.17.086-.365.348-.604.262-.238.688-.486 1.236-.697 1.097-.422 2.673-.699 4.416-.699 1.743 0 3.32.277 4.416.7.548.21.975.458 1.236.696.262.239.348.434.348.604a.5.5 0 1 0 1 0c0-.52-.278-.984-.674-1.344-.396-.36-.923-.649-1.55-.89-1.256-.483-2.93-.766-4.776-.766z" transform="translate(-381 -323)"/>
        </g>
    </g>
</svg>
