<svg xmlns="http://www.w3.org/2000/svg" viewBox="0 0 20 20" xml:space="preserve">
    <g fill="#ffffff">
        <path fill="#ffffff" d="M23.46 40.03a.518.518 0 0 1-.491-.544l.031-.879v-.003a7.592 7.592 0 0 1 3.748-6.543 7.44 7.44 0 0 1 7.506 0 7.592 7.592 0 0 1 3.748 6.56v.883a.518.518 0 1 1-1.035 0v-.883a6.555 6.555 0 0 0-3.237-5.666 6.396 6.396 0 0 0-6.46 0 6.554 6.554 0 0 0-3.235 5.666.518.518 0 0 1-.002.018l-.03.882a.518.518 0 0 1-.542.508z" transform="matrix(.93036 0 0 1.00239 -18.362 -25.626)"/>
    </g>
</svg>
