<svg xmlns="http://www.w3.org/2000/svg" viewBox="0 0 20 20" xml:space="preserve">
    <g fill="#ffffff">
        <path fill="#ffffff" d="M347.5 161a.5.5 0 0 0-.5.5v2.5h-1.5a.5.5 0 0 0-.5.5v3a.5.5 0 0 0 .5.5h3a.5.5 0 0 0 .5-.5v1a.5.5 0 0 0 .5.5h3a.5.5 0 0 0 .5-.5v-3a.5.5 0 0 0-.5-.5h-2a.5.5 0 0 0 .5-.5v-3a.5.5 0 0 0-.5-.5zm.5 1h2v2h-2zm-2 3h2v2h-2zm4 1h2v2h-2z" transform="translate(-339 -155)"/>
        <path fill="#ffffff" d="M342.492 157.992a.5.5 0 0 0-.316.121.5.5 0 0 0-.02.016.5.5 0 0 0-.017.017.5.5 0 0 0-.002.004.5.5 0 0 0-.032.034.5.5 0 0 0-.002.004.5.5 0 0 0-.027.037.5.5 0 0 0-.002.004.5.5 0 0 0-.074.353v.918a.5.5 0 1 0 1 0v-.5h.5a.5.5 0 1 0 0-1h-.92a.5.5 0 0 0-.088-.008zm13 0a.5.5 0 0 0-.074.008h-.918a.5.5 0 1 0 0 1h.5v.5a.5.5 0 1 0 1 0v-.92a.5.5 0 0 0-.113-.404.5.5 0 0 0-.002-.004.5.5 0 0 0-.031-.033.5.5 0 0 0-.004-.002.5.5 0 0 0-.034-.032.5.5 0 0 0-.004-.002.5.5 0 0 0-.32-.111zM345.5 158a.5.5 0 1 0 0 1h1a.5.5 0 1 0 0-1zm3 0a.5.5 0 1 0 0 1h1a.5.5 0 1 0 0-1zm3 0a.5.5 0 1 0 0 1h1a.5.5 0 1 0 0-1zm-9.008 2.992a.5.5 0 0 0-.492.508v1a.5.5 0 1 0 1 0v-1a.5.5 0 0 0-.508-.508zm13 0a.5.5 0 0 0-.492.508v1a.5.5 0 1 0 1 0v-1a.5.5 0 0 0-.508-.508zm-13 3a.5.5 0 0 0-.492.508v1a.5.5 0 1 0 1 0v-1a.5.5 0 0 0-.508-.508zm13 0a.5.5 0 0 0-.492.508v1a.5.5 0 1 0 1 0v-1a.5.5 0 0 0-.508-.508zm-13 3a.5.5 0 0 0-.492.508v1a.5.5 0 1 0 1 0v-1a.5.5 0 0 0-.508-.508zm13 0a.5.5 0 0 0-.492.508v1a.5.5 0 1 0 1 0v-1a.5.5 0 0 0-.508-.508zm-13 3a.5.5 0 0 0-.492.508v.92a.5.5 0 0 0 .113.404.5.5 0 0 0 .016.02.5.5 0 0 0 .017.017.5.5 0 0 0 .004.002.5.5 0 0 0 .034.032.5.5 0 0 0 .004.002.5.5 0 0 0 .394.103h.918a.5.5 0 1 0 0-1h-.5v-.5a.5.5 0 0 0-.508-.508zm13 0a.5.5 0 0 0-.492.508v.5h-.5a.5.5 0 1 0 0 1h.92a.5.5 0 0 0 .404-.113.5.5 0 0 0 .004-.002.5.5 0 0 0 .033-.031.5.5 0 0 0 .002-.004.5.5 0 0 0 .032-.034.5.5 0 0 0 .002-.004.5.5 0 0 0 .027-.037.5.5 0 0 0 .002-.004.5.5 0 0 0 .074-.353v-.918a.5.5 0 0 0-.508-.508zM345.5 171a.5.5 0 1 0 0 1h1a.5.5 0 1 0 0-1zm3 0a.5.5 0 1 0 0 1h1a.5.5 0 1 0 0-1zm3 0a.5.5 0 1 0 0 1h1a.5.5 0 1 0 0-1z" transform="translate(-339 -155)"/>
    </g>
</svg>
