<svg xmlns="http://www.w3.org/2000/svg" viewBox="0 0 20 20" xml:space="preserve">
    <path fill="#ffffff" d="M12.995 3c-1.175 0-2.252.418-2.885 1.182a.5.5 0 1 0 .77.636C11.255 4.365 12.068 4 12.995 4h1.5a.5.5 0 1 0 0-1zm-1.442 3.004c-1.727-.203-3.327.121-4.53.902-1.204.781-1.996 2.049-2.028 3.584v.01c0 1.083.284 1.814.537 2.389.253.575.453.971.453 1.611 0 .462-.107.77-.435 1.027-.329.258-.962.473-2.055.473a.5.5 0 1 0 0 1c1.22 0 2.083-.224 2.672-.685.588-.462.818-1.153.818-1.815 0-.86-.295-1.464-.537-2.014-.241-.548-.45-1.068-.451-1.98.027-1.212.604-2.135 1.57-2.762.967-.628 2.337-.928 3.87-.748 1.99.234 3.413 1.228 4.103 2.332.69 1.104.682 2.238-.149 3.068-.838.838-1.988.894-3.084.264-1.095-.63-2.08-1.98-2.314-3.969a.5.5 0 1 0-.994.117c.266 2.262 1.406 3.912 2.81 4.72 1.405.807 3.127.737 4.29-.425 1.169-1.169 1.161-2.91.288-4.306-.872-1.396-2.574-2.527-4.834-2.793z"/>
</svg>
