<svg xmlns="http://www.w3.org/2000/svg" viewBox="0 0 20 20" xml:space="preserve">
    <g fill="#ffffff">
        <path fill="#ffffff" d="M250.059 306.012a6.065 6.065 0 0 0-5.24 2.992 5.94 5.94 0 0 0 0 5.994 6.065 6.065 0 0 0 5.24 2.992l.431.01a.5.5 0 0 0 .51-.5l-.004-10.984a.5.5 0 0 0-.496-.5l-.438-.004h-.004z" transform="translate(-233.999 -301.994)"/>
        <g fill="#ffffff">
            <path fill="#ffffff" d="M6.498 367.994a.5.5 0 0 0-.5.5v2a.5.5 0 0 0 .5.5H7v8h-.502a.5.5 0 0 0-.5.5v2a.5.5 0 0 0 .5.5h2a.5.5 0 0 0 .5-.5V381H14c.676.01.676-1.01 0-1H8.998v-.506a.5.5 0 0 0-.5-.5H8v-8h.498a.5.5 0 0 0 .5-.5V370H14c.676.01.676-1.01 0-1H8.998v-.506a.5.5 0 0 0-.5-.5zm.5 1h1v1h-1zm0 11h1v1h-1z" transform="translate(-2.999 -364.994)"/>
        </g>
    </g>
</svg>
