<svg xmlns="http://www.w3.org/2000/svg" viewBox="0 0 20 20" xml:space="preserve">
    <g fill="#ffffff">
        <path fill="#ffffff" d="M347.506 306a.5.5 0 0 0-.492.586c.364 2.073.195 3.11-.108 3.63-.303.522-.79.687-1.46.942-.67.255-1.51.623-1.983 1.59-.474.967-.591 2.407-.207 4.83a.5.5 0 0 0 .494.422h6.756a.5.5 0 0 0 .494-.578c-.369-2.328-.207-3.576.115-4.235.322-.658.793-.85 1.436-1.095.642-.245 1.47-.52 1.965-1.373.495-.854.609-2.128.226-4.305a.5.5 0 0 0-.492-.414z" transform="translate(-339.003 -301.994)"/>
        <path fill="#ffffff" d="M342.498 304.994a.5.5 0 0 0-.5.5v2a.5.5 0 0 0 .5.5h2a.5.5 0 0 0 .5-.5v-2a.5.5 0 0 0-.5-.5zm.5 1h1v1h-1zm10.51 10a.5.5 0 0 0-.5.5v2a.5.5 0 0 0 .5.5h2a.5.5 0 0 0 .5-.5v-2a.5.5 0 0 0-.5-.5zm.5 1h1v1h-1z" transform="translate(-339.003 -301.994)"/>
    </g>
</svg>
