<svg xmlns="http://www.w3.org/2000/svg" viewBox="0 0 20 20" xml:space="preserve">
    <g fill="#ffffff">
        <path fill="#ffffff" d="M286 307c-1.846 0-3.562.526-4.846 1.406-1.283.88-2.154 2.15-2.154 3.594 0 1.443.87 2.713 2.154 3.594 1.284.88 3 1.406 4.846 1.406s3.562-.526 4.846-1.406c1.283-.88 2.154-2.15 2.154-3.594 0-1.443-.87-2.713-2.154-3.594-1.284-.88-3-1.406-4.846-1.406zm2.492 3.617a.5.5 0 0 1 .508.508c0 .621-.44 1.109-.984 1.41-.546.301-1.244.465-2.016.465s-1.47-.164-2.016-.465c-.545-.301-.984-.789-.984-1.41a.5.5 0 0 1 .494-.506.5.5 0 0 1 .506.506c0 .137.114.339.469.535s.906.34 1.531.34c.625 0 1.176-.144 1.531-.34.355-.196.469-.398.469-.535a.5.5 0 0 1 .492-.508z" transform="translate(-276.003 -301.994)"/>
        <path fill="#ffffff" d="M279.498 304.994a.5.5 0 0 0-.5.5v2a.5.5 0 0 0 .5.5h1a.5.5 0 1 0 0-1h-.5v-1h1v.5a.5.5 0 1 0 1 0v-1a.5.5 0 0 0-.5-.5zm11.01 0a.5.5 0 0 0-.5.5v1a.5.5 0 1 0 1 0v-.5h1v1h-.5a.5.5 0 1 0 0 1h1a.5.5 0 0 0 .5-.5v-2a.5.5 0 0 0-.5-.5zm-11.01 11a.5.5 0 0 0-.5.5v2a.5.5 0 0 0 .5.5h2a.5.5 0 0 0 .5-.5v-1a.5.5 0 1 0-1 0v.5h-1v-1h.5a.5.5 0 1 0 0-1zm12.01 0a.5.5 0 1 0 0 1h.5v1h-1v-.5a.5.5 0 1 0-1 0v1a.5.5 0 0 0 .5.5h2a.5.5 0 0 0 .5-.5v-2a.5.5 0 0 0-.5-.5z" transform="translate(-276.003 -301.994)"/>
    </g>
</svg>
