<svg xmlns="http://www.w3.org/2000/svg" viewBox="0 0 20 20" xml:space="preserve">
    <g fill="#ffffff">
        <path fill="#ffffff" d="M618.746 599a.5.5 0 0 0-.484.377l-3.246 12.75a.5.5 0 0 0-.016.123v.25a.5.5 0 1 0 1 0v-.188l.85-3.333a.5.5 0 0 0 .15.021h4a.5.5 0 0 0 .148-.02h.002l.85 3.332v.188a.5.5 0 1 0 1 0v-.25a.5.5 0 0 0-.016-.123l-3.254-12.75a.5.5 0 0 0-.484-.377zm.25 1.545 1.902 7.455h-3.8z" transform="translate(-612 -596)"/>
        <path fill="#ffffff" d="M310 45v-5h1.5c.835 0 1.5.664 1.5 1.498v2.008c0 .834-.665 1.498-1.5 1.496zm4-1.494v-2.008A2.506 2.506 0 0 0 311.5 39H310v-6.5a.5.5 0 1 0-1 0v13a.5.5 0 0 0 .5.5l2 .002a2.503 2.503 0 0 0 2.5-2.496z" transform="translate(-297 -29)"/>
    </g>
</svg>
