<svg xmlns="http://www.w3.org/2000/svg" viewBox="0 0 20 20" xml:space="preserve">
    <path fill="#ffffff" d="M5.25 3c-.65 0-1.236.197-1.645.605C3.197 4.014 3 4.6 3 5.25v9.5c0 .65.197 1.236.605 1.645.409.408.994.605 1.645.605H6v-1h-.75c-.457 0-.748-.123-.937-.313-.19-.19-.313-.48-.313-.937v-9.5c0-.457.123-.748.313-.938.19-.19.48-.312.937-.312H6V3zM14 3v1h.75c.457 0 .748.123.938.313.19.19.312.48.312.937v9.5c0 .457-.123.748-.313.938-.19.19-.48.312-.937.312H14v1h.75c.65 0 1.236-.197 1.645-.605.408-.409.605-.994.605-1.645v-9.5c0-.65-.197-1.236-.605-1.645C15.986 3.197 15.4 3 14.75 3zm-4 4v2H8.5a.5.5 0 0 0-.5.5V11H6v1h2v1.5a.5.5 0 0 0 .5.5H10v2h1v-2h1.5a.5.5 0 0 0 .5-.5V12h2v-1h-2V9.5a.5.5 0 0 0-.5-.5H11V7zm-1 3h3v3H9z"/>
</svg>
