<svg xmlns="http://www.w3.org/2000/svg" viewBox="0 0 20 20" xml:space="preserve">
    <g fill="#ffffff">
        <path fill="#ffffff" d="M184.494-76.006a.5.5 0 0 0-.348.86l2.647 2.646-2.647 2.646c-.49.472.236 1.198.708.708l3-3a.5.5 0 0 0 0-.708l-3-3a.5.5 0 0 0-.36-.152zM175.492-73a.5.5 0 0 0-.492.508v1c-.01.676 1.01.676 1 0v-1a.5.5 0 0 0-.508-.508zm5.008 0c-.676-.01-.676 1.01 0 1h1c.676.01.676-1.01 0-1zm3 0c-.676-.01-.676 1.01 0 1h1c.676.01.676-1.01 0-1zm-6 .008c-.676-.01-.676 1.01 0 1h1c.676.01.676-1.01 0-1zM175.492-70a.5.5 0 0 0-.492.508v1c-.01.676 1.01.676 1 0v-1a.5.5 0 0 0-.508-.508zM175.5-67c-.823 0-1.5.677-1.5 1.5s.677 1.5 1.5 1.5 1.5-.677 1.5-1.5-.677-1.5-1.5-1.5z" transform="rotate(180 95.5 -30.001)"/>
    </g>
</svg>
