<svg xmlns="http://www.w3.org/2000/svg" viewBox="0 0 20 20" xml:space="preserve">
    <g fill="#ffffff">
        <g fill="#ffffff">
            <path fill="#ffffff" d="M346 286.004c0-1.1-.9-2.002-2-2.002s-2 .902-2 2.002c0 1.1.9 2.004 2 2.004s2-.904 2-2.004zm-1 0a.995.995 0 0 1-1 1.004c-.558 0-1-.444-1-1.004a.993.993 0 0 1 1-1.002c.558 0 1 .442 1 1.002zM356 296.004a2.006 2.006 0 0 0-2-1.996c-1.098 0-2 .899-2 1.996s.902 1.996 2 1.996c1.098 0 2-.899 2-1.996z" transform="matrix(1 0 0 -1 -339 301.001)"/>
        </g>
        <path fill="#ffffff" d="M306.496 516.004a.5.5 0 1 0 0 1h2a.5.5 0 1 0 0-1zm-2.01.994a.5.5 0 0 0-.343.152l-1 1a.5.5 0 1 0 .707.707l1-1a.5.5 0 0 0-.364-.859zm-1.002 3a.5.5 0 0 0-.347.86l1 1a.5.5 0 1 0 .707-.708l-1-1a.5.5 0 0 0-.36-.152zm3.012 2.006a.5.5 0 1 0 0 1h1a.5.5 0 1 0 0-1zm2.996.994a.5.5 0 0 0-.35.86l1 1a.5.5 0 1 0 .708-.708l-1-1a.5.5 0 0 0-.358-.152zm.994 3a.5.5 0 0 0-.343.152l-1 1a.5.5 0 1 0 .707.707l1-1a.5.5 0 0 0-.364-.859zm-4.996 1.006a.5.5 0 1 0 0 1h2a.5.5 0 1 0 0-1z" transform="translate(-297 -512.006)"/>
    </g>
</svg>
