<svg xmlns="http://www.w3.org/2000/svg" viewBox="0 0 20 20" xml:space="preserve">
    <g fill="#ffffff">
        <g fill="#ffffff">
            <path fill="#ffffff" d="M306.99 243.61a.667.667 0 0 0-.656.675v4.99h-4.99a.667.667 0 1 0 0 1.334h4.99v4.99a.667.667 0 1 0 1.332 0v-4.99h4.99a.667.667 0 1 0 0-1.334h-4.99v-4.99a.667.667 0 0 0-.676-.676z" transform="scale(.75 -.75) rotate(-45 -149.676 469.5)"/>
        </g>
        <path fill="#ffffff" d="M177.492-56.008a.5.5 0 0 0-.492.508v6a.5.5 0 1 0 1 0V-52h.5a.5.5 0 1 0 0-1h-.5v-2.5a.5.5 0 0 0-.508-.508zm7.002.002a.5.5 0 0 0-.348.86l2.647 2.646-2.647 2.647a.5.5 0 1 0 .708.707l3-3a.5.5 0 0 0 0-.707l-3-3a.5.5 0 0 0-.36-.153zM180.5-53a.5.5 0 1 0 0 1h1a.5.5 0 1 0 0-1zm3 0a.5.5 0 1 0 0 1h1a.5.5 0 1 0 0-1z" transform="rotate(180 95.495 -19.497)"/>
    </g>
</svg>
