<svg xmlns="http://www.w3.org/2000/svg" viewBox="0 0 20 20" xml:space="preserve">
    <path fill="#ffffff" d="M16.508 6.493A.5.5 0 0 1 17 7v6a.5.5 0 1 1-1 0v-2.925a.5.5 0 0 1-.5.418h-1a.5.5 0 1 1 0-1h1a.5.5 0 0 1 .5.421V7a.5.5 0 0 1 .508-.507zm-13 0A.5.5 0 0 1 4 7v6a.5.5 0 1 1-1 0V7a.5.5 0 0 1 .508-.507zm4.998.002a.5.5 0 0 1 .348.859L6.207 10l2.647 2.647a.5.5 0 1 1-.708.707l-3-3a.5.5 0 0 1 0-.707l3-3a.5.5 0 0 1 .36-.152zM12.5 9.5a.5.5 0 1 1 0 1h-1a.5.5 0 1 1 0-1zm-3 0a.5.5 0 1 1 0 1h-1a.5.5 0 1 1 0-1z"/>
</svg>
