<svg xmlns="http://www.w3.org/2000/svg" viewBox="0 0 20 20" xml:space="preserve">
    <g fill="#ffffff">
        <g fill="#ffffff">
            <path fill="#ffffff" d="M500.506 518.992a.5.5 0 0 0-.506.508v1a.5.5 0 1 0 1 0v-1a.5.5 0 0 0-.492-.508.5.5 0 0 1-.002 0zm-8.01 2.996a.5.5 0 0 0-.35.153l-3 3a.5.5 0 0 0 0 .707l3 3a.5.5 0 0 0 .36.152.5.5 0 0 0 .348-.86l-2.647-2.646 2.647-2.646a.5.5 0 0 0-.358-.86zm7.01.006a.5.5 0 0 0-.36.153l-1 1a.5.5 0 1 0 .708.707l1-1a.5.5 0 0 0-.348-.86zm-3.03 2.004a.5.5 0 0 0-.097.018l-1 .25a.5.5 0 1 0 .242.969l1-.25a.5.5 0 0 0-.094-.987.5.5 0 0 0-.05 0zm-3 .75a.5.5 0 0 0-.097.018l-1 .25a.5.5 0 1 0 .242.969l1-.25a.5.5 0 0 0-.094-.987.5.5 0 0 0-.05 0z" transform="translate(-485.5 -512)"/>
        </g>
        <path fill="#ffffff" d="M176.5-32c.823 0 1.5-.677 1.5-1.5s-.677-1.5-1.5-1.5-1.5.677-1.5 1.5.677 1.5 1.5 1.5z" transform="matrix(-1 0 0 1 191.5 38)"/>
    </g>
</svg>
