<svg xmlns="http://www.w3.org/2000/svg" viewBox="0 0 20 20" xml:space="preserve">
    <g fill="#ffffff">
        <g fill="#ffffff">
            <path fill="#ffffff" d="M520.494 515a.5.5 0 0 0-.348.86l2.647 2.646-2.647 2.646a.5.5 0 1 0 .708.707l3-3a.5.5 0 0 0 0-.707l-3-3a.5.5 0 0 0-.36-.152zm.033 2.994a.5.5 0 0 0-.148.022l-1 .25a.5.5 0 0 0 .094.986.5.5 0 0 0 .148-.018l1-.25a.5.5 0 0 0-.094-.99zm-3 .75a.5.5 0 0 0-.148.022l-1 .25a.5.5 0 0 0 .094.986.5.5 0 0 0 .148-.018l1-.25a.5.5 0 0 0-.094-.99zm-3.023 1.248a.5.5 0 0 0-.358.154l-1 1a.5.5 0 0 0 .348.86.5.5 0 0 0 .36-.152l1-1a.5.5 0 0 0-.35-.862zm-1.996 3a.5.5 0 0 0-.508.508v1a.5.5 0 0 0 .492.508.5.5 0 0 0 .508-.508v-1a.5.5 0 0 0-.492-.508z" transform="translate(-507.5 -512)"/>
        </g>
        <path fill="#ffffff" d="M176.5-32c.823 0 1.5-.677 1.5-1.5s-.677-1.5-1.5-1.5-1.5.677-1.5 1.5.677 1.5 1.5 1.5z" transform="matrix(1 0 0 -1 -171.5 -18)"/>
    </g>
</svg>
