<svg xmlns="http://www.w3.org/2000/svg" viewBox="0 0 20 20" xml:space="preserve">
    <path fill="#ffffff" d="M3.492 6.493A.5.5 0 0 0 3 7v6a.5.5 0 1 0 1 0v-2.925a.5.5 0 0 0 .5.418h1a.5.5 0 1 0 0-1h-1a.5.5 0 0 0-.5.421V7a.5.5 0 0 0-.508-.507zm13 0A.5.5 0 0 0 16 7v6a.5.5 0 1 0 1 0V7a.5.5 0 0 0-.508-.507zm-4.998.002a.5.5 0 0 0-.348.859L13.793 10l-2.647 2.647a.5.5 0 1 0 .708.707l3-3a.5.5 0 0 0 0-.707l-3-3a.5.5 0 0 0-.36-.152zM7.5 9.5a.5.5 0 1 0 0 1h1a.5.5 0 1 0 0-1zm3 0a.5.5 0 1 0 0 1h1a.5.5 0 1 0 0-1z"/>
</svg>
