<svg xmlns="http://www.w3.org/2000/svg" viewBox="0 0 20 20" xml:space="preserve">
    <g fill="#ffffff">
        <path d="M468.5 116a.5.5 0 0 0-.5.5v10a.5.5 0 0 0 .5.5h7a.5.5 0 1 0 0-1H469v-9h9v6.5a.5.5 0 1 0 1 0v-7a.5.5 0 0 0-.5-.5z" fill="#ffffff" transform="translate(-465.005 -113.01)"/>
        <path d="M475.996 122a1.996 1.996 0 0 1-1.996 1.996 1.996 1.996 0 0 1-1.996-1.996 1.996 1.996 0 0 1 1.996-1.996 1.996 1.996 0 0 1 1.996 1.996zm.508 2.016a.5.5 0 0 0-.348.857l4.147 4.147-2.803-.02c-.676-.01-.676 1.01 0 1l4.01.02a.5.5 0 0 0 .5-.5l-.01-4.02c.01-.676-1.01-.676-1 0l.01 2.813-4.146-4.147a.5.5 0 0 0-.36-.15z" fill="#ffffff" transform="translate(-465.005 -113.01)"/>
    </g>
</svg>
