<svg xmlns="http://www.w3.org/2000/svg" viewBox="0 0 20 20" xml:space="preserve">
    <g fill="#ffffff">
        <g fill="#ffffff">
            <path fill="#ffffff" d="M701 1726v7.25c0 .486.17.94.49 1.26.32.32.774.49 1.26.49h6.5c.486 0 .94-.17 1.26-.49.32-.32.49-.774.49-1.26V1726h-1v7.25c0 .264-.08.435-.197.553-.118.117-.29.197-.553.197h-6.5c-.264 0-.435-.08-.553-.197-.117-.118-.197-.29-.197-.553V1726zm3.5-4a.5.5 0 0 0-.5.5v1.5h-3.5c-.676-.01-.676 1.01 0 1h11c.676.01.676-1.01 0-1H708v-1.5a.5.5 0 0 0-.5-.5zm.5 1h2v1h-2z" transform="translate(-696 -1718.5)"/>
        </g>
        <path fill="#ffffff" d="M704.492 1726.992a.497.497 0 0 0-.492.508v4c-.01.676 1.01.676 1 0v-4a.5.5 0 0 0-.508-.508zm3 0a.497.497 0 0 0-.492.508v4c-.01.676 1.01.676 1 0v-4a.5.5 0 0 0-.508-.508z" transform="translate(-696 -1718.5)"/>
    </g>
</svg>
