<svg xmlns="http://www.w3.org/2000/svg" viewBox="0 0 20 20" xml:space="preserve">
    <g fill="#ffffff">
        <g fill="#ffffff">
            <path fill="#ffffff" d="M803.492 433.992a.5.5 0 0 0-.492.508v4a.5.5 0 1 0 1 0v-4a.5.5 0 0 0-.508-.508zm4.998 4.006a.5.5 0 0 0-.494.506v5a.5.5 0 1 0 1 0v-5a.5.5 0 0 0-.506-.506z" transform="translate(-795.996 -429.002)"/>
            <path transform="translate(-507 -493)" d="M514.5 497.998a.5.5 0 0 0-.354.145l-4 4a.5.5 0 0 0-.146.355v5a.5.5 0 0 0 .5.5l9 .006a.5.5 0 0 0 .355-.146l4-4.004a.5.5 0 0 0 .145-.356v-5a.5.5 0 0 0-.5-.5zm.209 1h7.588l-3.004 3.006-7.59-.004zm8.291.709v3.584l-3.707 3.713L511 507v-4l8.5.004a.5.5 0 0 0 .355-.148z" fill="#ffffff"/>
        </g>
    </g>
</svg>
