<svg xmlns="http://www.w3.org/2000/svg" viewBox="0 0 20 20" xml:space="preserve">
    <g fill="#ffffff">
        <path fill="#ffffff" d="M351.506 598.994a.5.5 0 0 0-.5.5v.793l-2.707 2.707h-2.793a.5.5 0 0 0-.354.147l-1 1a.5.5 0 0 0 0 .707l6 6a.5.5 0 0 0 .707 0l1-1a.5.5 0 0 0 .147-.354v-2.793l2.707-2.707h.793a.5.5 0 0 0 .5-.5v-1a.5.5 0 0 0-.147-.353l-3-3a.5.5 0 0 0-.353-.147zm.5 1h.293l2.707 2.707v.293h-.5a.5.5 0 0 0-.354.147l-3 3a.5.5 0 0 0-.146.353v2.793l-.5.5-5.293-5.293.5-.5h2.793a.5.5 0 0 0 .353-.146l3-3a.5.5 0 0 0 .147-.354zm-5.76 8.246a.5.5 0 0 0-.344.15l-3.75 3.75a.5.5 0 1 0 .707.708l3.75-3.75a.5.5 0 0 0-.363-.858z" transform="translate(-339.002 -595.998)"/>
    </g>
</svg>
