<svg xmlns="http://www.w3.org/2000/svg" viewBox="0 0 20 20" xml:space="preserve">
    <g fill="#ffffff">
        <g fill="#ffffff">
            <path fill="#ffffff" d="M432.969 577.996a.5.5 0 0 0-.049.006.5.5 0 0 0-.088.022c-.225.005-.45 0-.674.027a7.003 7.003 0 0 0-5.186 10.52 6.998 6.998 0 0 0 5.893 3.413h.002a.5.5 0 0 0 .32-.01 6.94 6.94 0 0 0 1.801-.263.5.5 0 1 0-.285-.96 5.962 5.962 0 0 1-1.582.227c-.322-.218-.862-.821-1.289-1.773a9.015 9.015 0 0 1-.42-1.205h2.088a.5.5 0 1 0 0-1h-2.316a11.337 11.337 0 0 1-.184-2c0-.728.074-1.388.184-2h3.562c.158.772.254 1.614.254 2.5a.5.5 0 1 0 1 0c0-.883-.094-1.72-.24-2.5h2.886a5.979 5.979 0 0 1 .094 3.746.5.5 0 1 0 .957.29 7 7 0 0 0-3.088-8.032 6.98 6.98 0 0 0-3.476-.992.5.5 0 0 0-.147-.016.5.5 0 0 0-.017 0zm.027 1.131c.31.31.793.976 1.166 1.9.12.3.234.627.336.973h-3.084c.123-.427.26-.83.416-1.176.37-.819.823-1.391 1.166-1.697zm1.338.031a5.99 5.99 0 0 1 1.76.701 5.99 5.99 0 0 1 2.101 2.14h-2.668a12.14 12.14 0 0 0-.437-1.345 8.852 8.852 0 0 0-.756-1.496zm-2.705.016c-.25.353-.492.756-.711 1.24a9.984 9.984 0 0 0-.54 1.586h-2.558c.26-.449.563-.878.946-1.258a5.974 5.974 0 0 1 2.863-1.568zm-4.268 3.806a.5.5 0 0 0 .141.02h2.67c-.102.622-.172 1.28-.172 2 0 .718.07 1.375.172 2h-2.67a.5.5 0 0 0-.147.023 5.973 5.973 0 0 1 .006-4.043zm.444 5.02h2.572c.151.59.329 1.14.541 1.613.212.473.444.867.686 1.213a5.981 5.981 0 0 1-3.77-2.765c-.012-.02-.018-.041-.03-.061z" transform="translate(-423.495 -575.498)"/>
        </g>
        <path fill="#ffffff" d="M767.49 1a.5.5 0 0 0-.455.686l2 5c.184.462.857.402.955-.086l.44-2.174 2.168-.436c.488-.097.55-.77.088-.955l-5-2A.5.5 0 0 0 767.49 1z" transform="translate(-755.5 10.501)"/>
    </g>
</svg>
