<svg xmlns="http://www.w3.org/2000/svg" viewBox="0 0 20 20" xml:space="preserve">
    <path fill="#ffffff" d="M9.499 3a3.509 3.509 0 0 0-3.504 3.5v2c0 .417.193.775.46 1.041.265.266.623.459 1.04.459a.5.5 0 1 0 0-1 .544.544 0 0 1-.334-.166.544.544 0 0 1-.166-.334v-2C6.995 5.113 8.108 4 9.5 4h1.004a2.492 2.492 0 0 1 2.502 2.5v2a.544.544 0 0 1-.166.334.544.544 0 0 1-.334.166.5.5 0 1 0 0 1c.417 0 .775-.193 1.04-.459.267-.266.46-.624.46-1.041v-2c0-1.927-1.572-3.5-3.502-3.5zm3.95 7.414a.5.5 0 0 0-.487.332c-.174.482-.358 1.044-.754 1.48-.396.437-.99.79-2.176.79-1.187 0-1.788-.347-2.191-.78-.404-.432-.598-.99-.785-1.472a.5.5 0 0 0-.676-.274c-.972.446-1.785.9-2.389 1.455-.603.556-.996 1.254-.996 2.055v2.5a.5.5 0 0 0 .5.5h13.01a.5.5 0 0 0 .5-.5V14c0-.797-.384-1.5-.983-2.064-.598-.565-1.409-1.03-2.38-1.475a.5.5 0 0 0-.194-.047zm.175 1.2c.685.345 1.336.694 1.713 1.05.465.44.668.844.668 1.336v2H3.995v-2c0-.494.205-.887.674-1.318.382-.352 1.04-.698 1.734-1.045.165.41.29.836.705 1.281.582.623 1.524 1.098 2.924 1.098 1.402 0 2.342-.485 2.916-1.118.407-.447.52-.873.676-1.285z"/>
</svg>
