<svg xmlns="http://www.w3.org/2000/svg" viewBox="0 0 20 20" xml:space="preserve">
    <path d="M5 3c-.524 0-1.024.217-1.393.576-.368.36-.607.86-.607 1.426V15a2.001 2.001 0 0 0 2 2h1.5a.5.5 0 0 0 .5-.5v-10a.5.5 0 0 0-.5-.5H5c-.452 0-1-.471-1-.998 0-.264.138-.515.332-.7C4.525 4.12 4.775 4 5 4h6v2h2V4h2v2.006L13 6v2l2 .006v2L13 10v2l2 .006V14h-1.994l-.01-2h-2l.01 2H8v1h8.5a.5.5 0 0 0 .5-.5v-11a.5.5 0 0 0-.5-.5h-11zm8 7V8h-2v2z" fill="#ffffff"/>
    <path d="M9 12h2v-2H9zm0-4h2V6H9z" fill="#ffffff"/>
</svg>
