<svg xmlns="http://www.w3.org/2000/svg" viewBox="0 0 20 20" xml:space="preserve">
    <g fill="#ffffff">
        <path d="M27.545-565.045a.5.5 0 0 0-.5.5v2a.5.5 0 0 0 .5.5h8a.5.5 0 0 0 .5-.5v-2a.5.5 0 0 0-.5-.5z" fill="#ffffff" transform="matrix(0 1 1 0 573.548 -24.045)"/>
        <path d="M28.545-570.045a.5.5 0 0 0-.5.5v3.5h1v-3h5v3h1v-3h5v5h-3v1h3.5a.5.5 0 0 0 .5-.5v-6a.5.5 0 0 0-.5-.5zm-.5 9 .005 3.493a.5.5 0 0 0 .5.5h6a.5.5 0 0 0 .5-.498l.002-3.5-1-.002v3h-5l-.007-2.991z" fill="#ffffff" transform="matrix(0 1 1 0 573.548 -24.045)"/>
    </g>
</svg>
