<svg xmlns="http://www.w3.org/2000/svg" viewBox="0 0 20 20" xml:space="preserve">
    <g fill="#ffffff">
        <path d="m61.49-569.995-3.5.008.005 1 2.998-.006v5l-3.002.006.004 1 3.5-.008a.5.5 0 0 0 .498-.5v-6a.5.5 0 0 0-.502-.5zm-12.497 9.002v3.492a.5.5 0 0 0 .5.5h6a.5.5 0 0 0 .5-.5v-3.492h-1V-558h-5v-2.992z" fill="#ffffff" transform="translate(-44.993 573.997)"/>
        <path d="M48.493-570.993a.5.5 0 0 0-.5.5v8a.5.5 0 0 0 .5.5h8a.5.5 0 0 0 .5-.5v-8a.5.5 0 0 0-.5-.5z" fill="#ffffff" transform="translate(-44.993 573.997)"/>
    </g>
</svg>
