<svg xmlns="http://www.w3.org/2000/svg" viewBox="0 0 20 20" xml:space="preserve">
    <g fill="#ffffff">
        <g fill="#ffffff">
            <path d="M259.5 138a.5.5 0 0 0-.5.5v11.002a.5.5 0 0 0 .5.5l4-.002a.5.5 0 0 0 .5-.5v-11a.5.5 0 0 0-.5-.5zm.5 1h3v10l-3 .002z" fill="#ffffff" transform="translate(-256 -134)"/>
        </g>
        <path d="M77.537-571.01a.5.5 0 0 0-.5.5v13a.5.5 0 0 0 .5.5h5a.5.5 0 0 0 .5-.5v-13a.5.5 0 0 0-.5-.5z" fill="#ffffff" transform="translate(-66.037 574.01)"/>
    </g>
</svg>
