<svg xmlns="http://www.w3.org/2000/svg" viewBox="0 0 20 20" xml:space="preserve">
    <g fill="#ffffff">
        <path fill="#ffffff" d="M363.494 141.994a.5.5 0 0 0-.348.86l7.153 7.152H367.5a.5.5 0 1 0 0 1h4a.5.5 0 0 0 .006 0 .5.5 0 0 0 .094-.012.5.5 0 0 0 .048-.012.5.5 0 0 0 .352-.543v-3.933a.5.5 0 1 0-1 0v2.787l-7.146-7.147a.5.5 0 0 0-.36-.152zm5-4.994a.5.5 0 0 0-.094.01.5.5 0 0 0-.048.012.5.5 0 0 0-.352.542v3.936a.5.5 0 1 0 1 0v-2.787l7.146 7.146a.5.5 0 1 0 .708-.707L369.7 138h2.799a.5.5 0 1 0 0-1h-4a.5.5 0 0 0-.006 0z" transform="matrix(-1 0 0 1 379.924 -134.003)"/>
    </g>
</svg>
