<svg xmlns="http://www.w3.org/2000/svg" viewBox="0 0 20 20" xml:space="preserve">
    <g fill="#ffffff">
        <g fill="#ffffff">
            <path d="M258.5 137a.5.5 0 0 0-.5.5v3a.5.5 0 0 0 .5.5h3a.5.5 0 0 0 .5-.5v-3a.5.5 0 0 0-.5-.5z" fill="#ffffff" transform="translate(-255 -134)"/>
        </g>
        <path d="M10.956-569.993v1h2.037v5h-5v-1.992h-1v8.492a.5.5 0 0 0 .5.5h6a.5.5 0 0 0 .5-.5v-5.5h5.5a.5.5 0 0 0 .5-.5v-6a.5.5 0 0 0-.5-.5zm3.037 1h5v5h-5zm-6 6h5v5h-5z" fill="#ffffff" transform="translate(-2.993 573.993)"/>
    </g>
</svg>
