<svg xmlns="http://www.w3.org/2000/svg" viewBox="0 0 20 20" xml:space="preserve">
    <g fill="#ffffff">
        <path fill="#ffffff" d="M10.486 179.014a.5.5 0 0 0-.353.146l-1.994 1.994c-.491.472.235 1.198.707.707l1.847-1.847h8.293v8.293l-2.707 2.707H7.99l.004-3.007-1-.002-.007 3.509a.5.5 0 0 0 .5.5h9a.5.5 0 0 0 .354-.147l3-3a.5.5 0 0 0 .146-.353v-9a.5.5 0 0 0-.5-.5z" transform="translate(-2.99 -175.514)"/>
        <path fill="#ffffff" d="M6.492 183.008a.5.5 0 0 0-.5.5v3a.5.5 0 0 0 .5.5h3a.5.5 0 0 0 .5-.5v-3a.5.5 0 0 0-.5-.5z" transform="translate(-2.99 -175.514)"/>
    </g>
</svg>
