<svg xmlns="http://www.w3.org/2000/svg" viewBox="0 0 20 20" xml:space="preserve">
    <path d="M12.5 2c-2.14 0-3.807 1.472-4.33 3.244C7.52 4.496 6.66 4 5.5 4A3.508 3.508 0 0 0 2 7.5C2 9.427 3.573 11 5.5 11h7c2.48 0 4.5-2.02 4.5-4.5S14.98 2 12.5 2zm0 3c.823 0 1.5.677 1.5 1.5 0 .822-.677 1.5-1.5 1.5S11 7.322 11 6.5c0-.823.677-1.5 1.5-1.5zm-7 1C6.323 6 7 6.677 7 7.5 7 8.322 6.323 9 5.5 9S4 8.322 4 7.5C4 6.677 4.677 6 5.5 6zm7 0c-.282 0-.5.218-.5.5 0 .282.218.5.5.5.282 0 .5-.218.5-.5 0-.282-.218-.5-.5-.5zm-7 1c-.282 0-.5.218-.5.5 0 .282.218.5.5.5.282 0 .5-.218.5-.5 0-.282-.218-.5-.5-.5zm1 5a.5.5 0 0 0-.5.5V14H5v-.5a.5.5 0 1 0-1 0v2c.009.657.99.657 1 0V15h1v1.5c0 .132.053.26.146.353l1 1A.5.5 0 0 0 7.5 18h5a.5.5 0 0 0 .5-.5v-5a.5.5 0 0 0-.5-.5zm10.984 1a.47.47 0 0 0-.246.074l-3.25 2a.5.5 0 0 0 0 .851l3.25 2A.5.5 0 0 0 18 17.5v-4a.5.5 0 0 0-.516-.5z" fill="#ffffff"/>
</svg>
