<svg xmlns="http://www.w3.org/2000/svg" viewBox="0 0 20 20" xml:space="preserve">
    <g fill="#ffffff">
        <g fill="#ffffff">
            <path fill="#ffffff" d="M16.502 536a3.505 3.505 0 0 0-3.498 3.498 3.505 3.505 0 0 0 3.498 3.498A3.505 3.505 0 0 0 20 539.498 3.505 3.505 0 0 0 16.502 536zm0 .996a.5.5 0 1 1 0 1c-.835 0-1.502.667-1.502 1.502a.5.5 0 1 1-1 0 2.51 2.51 0 0 1 2.502-2.502z" transform="translate(-3 -533)"/>
        </g>
        <path fill="#ffffff" d="M10.504 539.992a.5.5 0 0 0-.492.399L9.654 542H7.5a.5.5 0 1 0 0 1h1.932l-.666 3H6.5a.5.5 0 1 0 0 1h2.043l-.531 2.39a.5.5 0 1 0 .976.22l.58-2.61h6.963l.477 2.59a.5.5 0 1 0 .984-.18l-.445-2.41H19.5a.5.5 0 1 0 0-1h-2.137l-.3-1.629a.5.5 0 1 0-.983.182l.266 1.447H9.79l.666-3H12.5a.5.5 0 1 0 0-1h-1.82l.308-1.39a.5.5 0 0 0-.484-.618z" transform="translate(-3 -533)"/>
    </g>
</svg>
