<svg xmlns="http://www.w3.org/2000/svg" viewBox="0 0 20 20" xml:space="preserve">
    <g fill="#ffffff">
        <g fill="#ffffff">
            <g fill="#ffffff">
                <path fill="#ffffff" d="M99 599c-2.748 0-5 2.252-5 5 0 1.194.441 2.282 1.148 3.145l-5.002 5.001a.5.5 0 1 0 .708.708l5.001-5.002c.863.707 1.95 1.148 3.145 1.148 2.748 0 5-2.252 5-5s-2.252-5-5-5zm0 1c2.202 0 4 1.798 4 4s-1.798 4-4 4-4-1.798-4-4 1.798-4 4-4z" transform="translate(-86.996 -596.004)"/>
            </g>
        </g>
    </g>
</svg>
