<svg xmlns="http://www.w3.org/2000/svg" viewBox="0 0 20 20" xml:space="preserve">
    <g fill="#ffffff">
        <g fill="#ffffff">
            <path d="M155.502 121.994a.5.5 0 0 0-.361.854c1.232 1.274 2.634 3.152 5.359 3.152s4.127-1.878 5.36-3.152a.5.5 0 1 0-.72-.696c-1.305 1.35-2.365 2.848-4.64 2.848-2.275 0-3.335-1.497-4.64-2.848a.5.5 0 0 0-.358-.158z" fill="#ffffff" transform="translate(-149.002 -117.497)"/>
        </g>
        <path d="M132.502 143a.5.5 0 0 0-.461.697l3 7a.5.5 0 0 0 .934-.039l.92-2.763 2.763-.92a.5.5 0 0 0 .04-.934l-7-3a.501.501 0 0 0-.196-.041z" fill="#ffffff" transform="translate(-129.002 -135.497)"/>
    </g>
</svg>
