<svg xmlns="http://www.w3.org/2000/svg" viewBox="0 0 20 20" xml:space="preserve">
    <g fill="#ffffff">
        <path d="M-725.5-279c-2.725 0-4.127 1.878-5.36 3.152a.5.5 0 0 0 0 .696c1.233 1.275 2.635 3.152 5.36 3.152 2.725 0 4.126-1.879 5.36-3.156a.5.5 0 0 0 0-.694c-1.234-1.277-2.636-3.15-5.36-3.15zm0 1c1.375 0 2.5 1.125 2.5 2.5s-1.125 2.5-2.5 2.5a2.508 2.508 0 0 1-2.5-2.5c0-1.375 1.125-2.5 2.5-2.5zm0 1c-.834 0-1.5.666-1.5 1.5s.666 1.5 1.5 1.5 1.5-.666 1.5-1.5-.666-1.5-1.5-1.5z" fill="#ffffff" transform="translate(737 282)"/>
        <path d="M-733.498-273a.5.5 0 0 0-.461.697l3 7a.5.5 0 0 0 .934-.039l.92-2.764 2.763-.92a.5.5 0 0 0 .04-.933l-7-3a.5.5 0 0 0-.196-.041z" fill="#ffffff" transform="translate(737 282)"/>
    </g>
</svg>
