<svg xmlns="http://www.w3.org/2000/svg" viewBox="0 0 20 20" xml:space="preserve">
    <g fill="#ffffff">
        <path transform="translate(-67 -512)" d="M75 519v7c0 .5.25 1 1 1s1-.5 1-1v-1c0-.5.534-1 1-1a1 1 0 0 1 1 1v2.5a1.5 1.5 0 1 0 3 0V526a1 1 0 0 1 1-1 1 1 0 0 0 1-1v-3.088a1.5 1.5 0 0 1-.5.088h-3a1.5 1.5 0 0 1-1.5-1.5v-.5z" fill="#ffffff"/>
        <path fill="#ffffff" d="M16.5 746a.5.5 0 0 0-.5.5v1.5h-6v-.5a.5.5 0 0 0-.5-.5h-3a.5.5 0 0 0-.5.5v3a.5.5 0 0 0 .5.5h3a.5.5 0 0 0 .5-.5V749h6v.5a.5.5 0 0 0 .5.5h3a.5.5 0 0 0 .5-.5v-3a.5.5 0 0 0-.5-.5zm.5 1h2v2h-2zm-10 1h2v2H7z" transform="matrix(-1 0 0 1 23 -743)"/>
    </g>
</svg>
