<svg xmlns="http://www.w3.org/2000/svg" viewBox="0 0 20 20" xml:space="preserve">
    <g fill="#ffffff">
        <path fill="#ffffff" d="M103.496 556.99a.5.5 0 0 0-.344.15l-1.57 1.57a6.962 6.962 0 0 0-4.576-1.716c-3.86 0-7 3.14-7 7 0 1.75.65 3.35 1.715 4.578l-1.569 1.569a.5.5 0 1 0 .707.707l1.569-1.569a6.966 6.966 0 0 0 4.578 1.715c3.86 0 7-3.14 7-7 0-1.75-.651-3.347-1.717-4.576l1.57-1.57a.5.5 0 0 0-.363-.858zm-6.49 1.004c3.32 0 6 2.68 6 6s-2.68 6-6 6a5.992 5.992 0 0 1-5.467-8.467l.467.467 1 1v2h2v1l1 1v2h2l1-1 1-1v-1l-1-1h-3l-1-1h-1l1-1h1l2-2-1-1h-1l-1-1 .894-.894a6.043 6.043 0 0 1 1.106-.106z" transform="translate(-87.004 -553.996)"/>
    </g>
</svg>
