<svg xmlns="http://www.w3.org/2000/svg" viewBox="0 0 20 20" xml:space="preserve">
    <g fill="#ffffff">
        <path fill="#ffffff" d="M153.5 119a.5.5 0 0 0-.5.5v10a.5.5 0 0 0 .5.5h10a.5.5 0 0 0 .5-.5v-10a.5.5 0 0 0-.5-.5zm.5 1h9v9h-9z" transform="translate(-150 -113)"/>
        <path fill="#ffffff" d="M157 121v2h1v-2zm0 3v1.5a.5.5 0 0 0 .5.5h1.5v-1h-1v-1zm3 1v1h2v-1z" transform="translate(-150 -113)"/>
        <path fill="#ffffff" d="M157.5 116a.5.5 0 0 0-.5.5v1.5h1v-1h8v8h-1v1h1.5a.5.5 0 0 0 .5-.5v-9a.5.5 0 0 0-.5-.5z" transform="translate(-150 -113)"/>
    </g>
</svg>
