<svg xmlns="http://www.w3.org/2000/svg" viewBox="0 0 20 20" xml:space="preserve">
    <g fill="#ffffff">
        <path d="M161.5 578c-3.023 0-5.5 2.477-5.5 5.5 0 1.333.482 2.559 1.28 3.514l-4.134 4.132a.5.5 0 1 0 .708.708l4.132-4.133A5.467 5.467 0 0 0 161.5 589c3.023 0 5.5-2.477 5.5-5.5s-2.477-5.5-5.5-5.5zm0 1a4.51 4.51 0 0 1 4.5 4.5 4.51 4.51 0 0 1-4.5 4.5 4.51 4.51 0 0 1-4.5-4.5 4.51 4.51 0 0 1 4.5-4.5z" fill="#ffffff" transform="translate(-149.996 -575.004)"/>
        <path d="M159.5 583a.5.5 0 0 0-.5.5v2.217a.5.5 0 0 0 .164.37 3.484 3.484 0 0 0 2.336.913c.9 0 1.72-.355 2.336-.912a.5.5 0 0 0 .164-.371V583.5a.5.5 0 0 0-.5-.5zm.973 6.92a.5.5 0 0 0-.473.5v1.08a.5.5 0 0 0 .5.5h2a.5.5 0 0 0 .5-.5v-1.08a.5.5 0 0 0-.572-.494c-.313.045-.62.074-.928.074-.308 0-.615-.029-.928-.074a.553.553 0 0 0-.1-.006z" fill="#ffffff" transform="translate(-149.996 -575.004)"/>
    </g>
</svg>
