<svg xmlns="http://www.w3.org/2000/svg" viewBox="0 0 20 20" xml:space="preserve">
    <g fill="#ffffff">
        <g fill="#ffffff">
            <g fill="#ffffff">
                <path fill="#ffffff" d="M142 578c-2.198 0-4 1.802-4 4 0 .92.328 1.76.855 2.438l-3.709 3.708a.5.5 0 1 0 .708.708l3.708-3.71A3.956 3.956 0 0 0 142 586c2.198 0 4-1.802 4-4s-1.802-4-4-4zm0 1c1.652 0 3 1.348 3 3s-1.348 3-3 3-3-1.348-3-3 1.348-3 3-3z" transform="translate(-129 -575)"/>
            </g>
        </g>
        <g fill="#ffffff">
            <path fill="#ffffff" d="M135.484 579a.5.5 0 0 0-.338.146l-3 3a.5.5 0 0 0 .354.854h3a.5.5 0 0 0 .5-.5V580h.5c.676.01.676-1.01 0-1h-1v.002l-.016-.002zM132 584v7.5a.5.5 0 0 0 .5.5h9a.5.5 0 0 0 .5-.5v-4c.01-.676-1.01-.676-1 0v3.5h-8v-7z" transform="translate(-129 -575)"/>
        </g>
    </g>
</svg>
