<svg xmlns="http://www.w3.org/2000/svg" viewBox="0 0 20 20" xml:space="preserve">
    <g fill="#ffffff">
        <path fill="#ffffff" d="M181.5 578c-3.573 0-6.5 2.927-6.5 6.5a6.46 6.46 0 0 0 1.574 4.219l-2.428 2.427a.5.5 0 1 0 .708.708l2.425-2.426A6.466 6.466 0 0 0 181.5 591c3.573 0 6.5-2.927 6.5-6.5s-2.927-6.5-6.5-6.5zm0 1c2.859 0 5.22 2.205 5.475 5h-6.268l2.147-2.146a.5.5 0 1 0-.708-.708l-2.957 2.958a.5.5 0 0 0-.002.792l.006.004 2.954 2.954c.47.49 1.197-.236.707-.707L180.707 585h6.268c-.255 2.795-2.616 5-5.475 5a5.513 5.513 0 0 1-5.5-5.5c0-3.027 2.473-5.5 5.5-5.5z" transform="translate(-170.95 -575.05)"/>
    </g>
</svg>
