<svg xmlns="http://www.w3.org/2000/svg" viewBox="0 0 20 20" xml:space="preserve">
    <g fill="#ffffff">
        <path fill="#ffffff" d="M202.5 578c-3.573 0-6.5 2.927-6.5 6.5a6.46 6.46 0 0 0 1.574 4.219l-2.428 2.427a.5.5 0 1 0 .708.708l2.425-2.426A6.466 6.466 0 0 0 202.5 591c3.573 0 6.5-2.927 6.5-6.5s-2.927-6.5-6.5-6.5zm0 1c3.027 0 5.5 2.473 5.5 5.5s-2.473 5.5-5.5 5.5a5.513 5.513 0 0 1-5.5-5.5c0-3.027 2.473-5.5 5.5-5.5zm-.008 1.992a.5.5 0 0 0-.492.508v2.5h-2.5a.5.5 0 1 0 0 1h2.5v2.5a.5.5 0 1 0 1 0V585h2.5a.5.5 0 1 0 0-1H203v-2.5a.5.5 0 0 0-.508-.508z" transform="translate(-191.95 -575.05)"/>
    </g>
</svg>
